<?xml version="1.0" standalone="no"?>
<!DOCTYPE svg PUBLIC "-//W3C//DTD SVG 1.1//EN" "http://www.w3.org/Graphics/SVG/1.1/DTD/svg11.dtd" >
<svg xmlns="http://www.w3.org/2000/svg" xmlns:xlink="http://www.w3.org/1999/xlink" version="1.1">
<metadata>
Created by FontForge 20190801 at Mon Jan 25 22:15:56 2016
 By Jimmy Wärting
House Casual (C) 1993-2016 House Industries/Brand Design Co. Inc.
</metadata>
<defs>
<font id="HouseCasual" horiz-adv-x="1000" >
  <font-face 
    font-family="SignPainter"
    font-weight="400"
    font-stretch="normal"
    units-per-em="1000"
    panose-1="0 0 4 0 0 0 0 0 0 0"
    ascent="800"
    descent="-200"
    x-height="278"
    cap-height="680"
    bbox="-78.5556 -396 866.971 842"
    underline-thickness="7"
    underline-position="-136"
    unicode-range="U+001D-2248"
  />
<missing-glyph horiz-adv-x="500" 
d="M63 0v800h375v-800h-375zM125 63h250v675h-250v-675z" />
    <glyph glyph-name=".notdef" horiz-adv-x="500" 
d="M63 0v800h375v-800h-375zM125 63h250v675h-250v-675z" />
    <glyph glyph-name=".null" horiz-adv-x="0" 
 />
    <glyph glyph-name=".null" horiz-adv-x="0" 
 />
    <glyph glyph-name="glyph2" horiz-adv-x="225" 
 />
    <glyph glyph-name="nonmarkingreturn" unicode=" " horiz-adv-x="225" 
 />
    <glyph glyph-name="exclam" unicode="!" horiz-adv-x="154" 
d="M62 147q-2 34 -2 79q0 262 29 436q5 31 30 40q5 2 5 -5q-21 -174 -21 -433q0 -93 4 -164q0 -5 -2 -6.5t-7 -0.5q-34 9 -36 54zM117 13q-2 -38 -32 -31q-26 6 -26 37q0 14 9 28.5t22 11.5q12 -3 20 -17t7 -29z" />
    <glyph glyph-name="quotedbl" unicode="&#x22;" horiz-adv-x="158" 
d="M51 450q0 -10 -6 -22q-6 -15 -15 -14q-3 0 -4 7q-10 82 -5 165q2 36 34 47q6 2 8 0q3 -2 2 -8q-10 -88 -14 -175zM101 442q-9 -26 -24 -31q-4 -1 -5 0q-2 2 -2 6q2 69 27 164q10 37 41 42q5 1 8 -2.5t1 -8.5q-37 -124 -46 -170z" />
    <glyph glyph-name="numbersign" unicode="#" horiz-adv-x="394" 
d="M105 369q-33 -6 -63 -16q-5 -2 -7 0t-1 7q10 38 35 45q19 5 39 8q10 121 23 188q6 33 32 41q5 1 6.5 -0.5t0.5 -5.5q-14 -101 -20 -217q50 6 102 6q5 133 16 199q6 35 30 46q6 3 6 -7q-11 -112 -11 -239q44 -2 77 -9q7 -2 3 -7q-15 -22 -40 -21q-17 1 -41 1q0 -62 4 -174
q36 0 66 -3q6 0 2 -8q-12 -22 -38 -22h-14q-10 -1 -15 -1q5 -112 12 -180q1 -5 -1.5 -7t-7.5 -1q-39 6 -43 55q-5 61 -6 129q-43 -4 -106 -16q1 -69 6 -148q0 -5 -1 -7q-3 -1 -9 0q-39 9 -41 53.5t-2 90.5q-36 -9 -69 -22q-5 -2 -7 0t-1 8q8 39 31.5 47t45.5 12q2 97 7 175z
M250 387q-41 -1 -102 -10q-3 -88 -3 -174q59 9 105 10q-2 86 0 174z" />
    <glyph glyph-name="dollar" unicode="$" horiz-adv-x="358" 
d="M195 612q67 -6 101 -54q28 -39 26 -88q-1 -39 -18.5 -65.5t-42.5 -29.5q-5 -1 -7 1q-3 2 0 7q21 41 23 80q3 47 -19 82q-23 39 -64 44q-8 -133 -8 -291q14 -9 44 -27q78 -47 78 -90q0 -12 -5 -30q-8 -26 -39 -50.5t-72 -30.5q3 -54 10 -108q1 -5 -1.5 -6.5t-7.5 -0.5
q-36 10 -41 54q-4 30 -5 60q-26 4 -48 12q-27 11 -41 34q-11 19 -10 35q1 15 11 6q35 -31 86 -39q-2 48 -2 159q-122 79 -123 178q-1 61 40 105.5t101 51.5q3 26 10 69q6 31 28 40q4 1 5 0q2 -2 1 -6q-5 -29 -10 -102zM189 117q38 3 63 19t26 35q1 33 -92 80q0 -5 3 -134z
M159 587q-41 -10 -67 -48.5t-24 -84.5q2 -65 77 -126q3 147 14 259z" />
    <glyph glyph-name="percent" unicode="%" horiz-adv-x="493" 
d="M422 586q-84 -135 -171 -300q-98 -187 -137 -298q-3 -8 -11 -1q-20 17 -20 40q0 14 6 30q65 170 241 454q-47 -29 -103 -26q2 -75 -26 -118.5t-71 -43.5q-51 0 -82 48q-28 42 -28 96q0 21 4 43q8 49 32 90q23 37 49 51q19 10 36 -13q28 3 52.5 -28t31.5 -88q1 -4 1 -11
q44 -3 94.5 34.5t88.5 105.5q7 12 13 0q9 -18 9 -34t-9 -31zM241 127q0 20 4 41q8 48 32 85.5t51 49.5q18 8 35 -9q31 2 58 -30t34 -86q3 -21 3 -41q0 -69 -29.5 -109.5t-73.5 -40.5q-52 0 -84 45q-30 41 -30 95zM184 499q-59 41 -54 119q-59 -57 -59 -159q0 -47 17 -81
q14 -27 29 -30q27 -5 47.5 39t19.5 112zM411 168q-6 105 -57 105q-51 -43 -60 -129q-1 -13 -1 -26q0 -46 17 -77q15 -26 33 -29q28 -5 50 41t18 115z" />
    <glyph glyph-name="ampersand" unicode="&#x26;" horiz-adv-x="498" 
d="M177 347q121 129 125 133q56 68 54 109q-2 47 -52 47q-54 0 -107 -48q-57 -54 -58 -125q0 -41 38 -116zM169 269q-103 -118 -103 -199q0 -47 30 -71q24 -19 57 -20q87 -2 163 111q-86 88 -147 179zM338 126q38 67 56 148q3 16 12 6q16 -18 16 -48q0 -63 -49 -145
q57 -62 101 -98q7 -6 0 -8t-14 -2q-16 0 -36 15q-39 30 -73 61q-82 -107 -175 -108q-65 -1 -109 37.5t-46 99.5q-2 87 122 226q-56 96 -53 155q4 86 76 146q66 54 140 53q91 -2 93 -80q1 -49 -65 -130q-14 -19 -133 -148q52 -84 137 -180z" />
    <glyph glyph-name="quotesingle" unicode="'" horiz-adv-x="109" 
d="M50 443q-5 -28 -23 -32q-7 -2 -7 6q0 66 19 165q7 38 40 42q5 1 7.5 -2t1.5 -8q-26 -106 -38 -171z" />
    <glyph glyph-name="parenleft" unicode="(" horiz-adv-x="140" 
d="M72 -31q-57 116 -57 291q0 222 81 388q14 29 37 33q5 1 6 -1q2 -2 0 -6q-74 -172 -74 -409q0 -208 72 -328q5 -7 -7 -9q-38 0 -58 41z" />
    <glyph glyph-name="parenright" unicode=")" horiz-adv-x="164" 
d="M68 -31q-20 -41 -59 -41q-10 1 -6 9q72 120 72 327q0 238 -75 410q-2 4 0 6q1 2 5 1q24 -4 38 -33q81 -165 81 -388q0 -175 -56 -291z" />
    <glyph glyph-name="asterisk" unicode="*" horiz-adv-x="375" 
d="M189 409q0 -78 6 -131q1 -6 -2 -8q-2 -2 -9 1q-13 7 -19 50q-4 25 -7 92q-56 -42 -107 -90q-13 -13 -13 11q0 22 30 51t71 57q-54 38 -92 76q-22 22 -22 44q0 6 2 12q3 12 12 3q51 -54 118 -105q0 103 11 160q9 45 35 52q6 2 9 0q2 -2 1 -9q-18 -82 -23 -201
q56 33 96 48.5t49 9.5q11 -7 0 -12q-58 -26 -137 -79q74 -52 130 -80q8 -4 3 -10q-4 -5 -11 -5q-5 0 -46 16q-30 12 -85 47z" />
    <glyph glyph-name="plus" unicode="+" horiz-adv-x="272" 
d="M156 182q-1 -23 -1 -46q-2 -31 -11 -43q-5 -6 -12 -11q-8 -5 -9 3q-6 34 -6 94q-26 -2 -82 -11q-7 -1 -9 1t0 7q9 32 42 37q22 4 49 5q1 22 4 60q4 31 37 41q7 2 9 0t1 -8q-7 -38 -10 -92q55 0 85 -4q9 -1 4 -9q-15 -22 -47 -22q-16 0 -44 -2z" />
    <glyph glyph-name="comma" unicode="," horiz-adv-x="148" 
d="M74 -10q-19 9 -19 32q0 33 20 35q13 1 23 -11.5t10 -30.5q0 -25 -16.5 -43.5t-32.5 -15.5q-8 2 -1 9q12 12 16 25z" />
    <glyph glyph-name="hyphen" unicode="-" horiz-adv-x="282" 
d="M190 183q-81 1 -162 -13q-5 -1 -7 1t0 9q7 31 41 35q79 10 172 -3q7 -1 4 -9q-17 -20 -48 -20z" />
    <glyph glyph-name="hyphen" unicode="&#x2010;" horiz-adv-x="282" 
d="M190 183q-81 1 -162 -13q-5 -1 -7 1t0 9q7 31 41 35q79 10 172 -3q7 -1 4 -9q-17 -20 -48 -20z" />
    <glyph glyph-name="period" unicode="." horiz-adv-x="150" 
d="M110 21q0 -36 -30 -32q-25 3 -25 34q0 13 9 27t21 11q25 -2 25 -40z" />
    <glyph glyph-name="slash" unicode="/" horiz-adv-x="374" 
d="M409 727q8 0 3 -8q-71 -116 -188 -378q-124 -281 -166 -434q-3 -11 -12 -4q-21 17 -21 45q0 14 5 32q38 133 155 382q114 242 179 335q22 31 45 30z" />
    <glyph glyph-name="zero" unicode="0" horiz-adv-x="502" 
d="M19 249q0 166 67 294q70 135 171 131q91 -4 152 -113.5t61 -269.5q0 -34 -3 -68q-13 -147 -85 -221q-56 -58 -133 -61q-92 -3 -158 76q-72 87 -72 232zM257 647q-76 -4 -133 -129q-52 -116 -57 -261q-4 -125 43 -205.5t129 -82.5q73 -1 125 76.5t59 196.5q1 25 1 49
q0 155 -49.5 257t-117.5 99z" />
    <glyph glyph-name="one" unicode="1" horiz-adv-x="152" 
d="M60 526q-18 14 -24 21t-3 21q12 56 35 100q5 10 15 3q8 -6 16.5 -15.5t6.5 -26.5q-18 -167 -18 -388q0 -186 15 -296q1 -6 -1 -7.5t-7 -0.5q-37 6 -43 56q-9 66 -9 177q0 169 17 356z" />
    <glyph glyph-name="two" unicode="2" horiz-adv-x="396" 
d="M58 -18q133 35 281 31q10 0 6 -8q-12 -22 -41 -24q-114 -8 -244 -44q-16 -5 -27 9q-7 9 -20 27q-8 13 1 22q75 71 149 169q78 106 120 198q44 98 44 184q0 74 -39 91q-13 5 -27 5q-61 0 -128.5 -82t-91.5 -182q-3 -12 -10 -5q-17 16 -17 46q0 26 12 61q26 74 86 132
q65 63 132 63q31 0 59 -15q70 -38 70 -136q0 -85 -51 -191q-89 -185 -264 -351z" />
    <glyph glyph-name="three" unicode="3" horiz-adv-x="458" 
d="M275 342q62 -1 107 -40q48 -42 50 -106q3 -108 -69 -184t-175 -73q-127 4 -171 89q-12 23 -12 49q0 20 5 28q7 11 12 -1q27 -66 72 -102t94 -36q80 0 143 80q59 74 60 156q2 99 -93 101q-38 1 -98 -22q-10 -4 -19 -4q-18 0 -32 16q-8 9 4 15q81 41 135 117q50 72 50 134
q0 80 -70 81q-55 1 -115 -67.5t-91 -160.5q-4 -12 -12 -3q-15 16 -15 43q0 30 19 68q33 67 88 110.5t113 42.5q56 -1 92.5 -43t34.5 -100q-3 -111 -107 -188z" />
    <glyph glyph-name="four" unicode="4" horiz-adv-x="401" 
d="M62 214q101 12 222 8q5 253 29 407q-65 -83 -134 -194q-80 -130 -117 -221zM330 220q63 -3 57 -14q-12 -22 -41 -21q-5 0 -16 1q2 -154 13 -241q1 -4 -2 -6q-2 -1 -7 0q-40 6 -45 54q-8 75 -6 193q-111 -3 -226 -18q-17 -2 -24 4q-14 12 -21.5 22.5t-2.5 22.5
q35 93 132 241q90 136 162 216q9 11 18 2q9 -4 24 -19q6 -6 5 -17q-20 -182 -20 -420z" />
    <glyph glyph-name="five" unicode="5" horiz-adv-x="382" 
d="M70 324q54 50 120 50q60 0 104 -43t54 -110q3 -23 3 -46q0 -91 -47 -158q-54 -76 -141 -76q-70 0 -111 46q-34 37 -34 77q0 16 7 28q6 10 10 -1q21 -55 59 -89.5t78 -34.5q65 0 101 76q29 60 29 132q0 23 -3 46q-8 59 -35.5 93t-67.5 32q-47 -2 -110 -69q-11 -11 -27 -3
q-14 7 -26 19q-8 8 -8 23q5 207 28 333q2 12 14 14q115 20 270 7q8 -1 4 -7q-11 -20 -39 -20q-125 -1 -217 -17q-12 -118 -15 -302z" />
    <glyph glyph-name="six" unicode="6" horiz-adv-x="422" 
d="M206 -33q57 -2 95 53q41 59 43 161q2 74 -33.5 131t-87.5 59q-58 2 -101 -48q-46 -54 -47 -142q-1 -90 37.5 -151t93.5 -63zM71 324q55 76 150 76q65 0 115 -54q57 -61 57 -162q0 -108 -52 -176t-132 -67q-95 2 -146 90.5t-45 245.5q6 170 65 282q61 117 152 117
q71 0 115 -57q34 -43 40 -96q1 -12 1 -23q0 -61 -33 -79q-5 -3 -8 -1q-4 2 -3 8q1 13 1 27q0 74 -31 132q-33 63 -81 62q-53 -1 -102 -95q-50 -97 -63 -230z" />
    <glyph glyph-name="seven" unicode="7" horiz-adv-x="350" 
d="M301 625q-100 9 -253 -2q-26 -2 -41 20q-5 8 4 8q97 19 219 19q41 0 74 -3q19 -2 26 -11q4 -5 10 -22q2 -9 -3 -18q-72 -130 -137 -312q-68 -191 -100 -362q-2 -8 -12 -2q-23 14 -23 47q0 9 2 20q21 133 96 326q69 179 138 292z" />
    <glyph glyph-name="eight" unicode="8" horiz-adv-x="460" 
d="M431 171q0 -96 -78 -165q-74 -66 -166 -67q-69 -1 -118 40q-53 44 -52 115q1 68 49 130q32 42 124 119q-73 37 -103 64q-45 41 -45 96q0 69 67 122.5t145 49.5q64 -3 102.5 -40.5t34.5 -91.5q-6 -88 -122 -191q79 -39 113 -71q49 -47 49 -110zM354 559q0 79 -79 84
q-68 4 -128.5 -41.5t-60.5 -98.5q0 -38 41 -71q28 -23 100 -59q127 110 127 186zM47 85q1 -42 35.5 -71.5t81.5 -32.5q94 -6 167 58q68 60 69 133q1 42 -49 81q-31 24 -117 68q-94 -80 -131 -122q-57 -64 -56 -114z" />
    <glyph glyph-name="nine" unicode="9" horiz-adv-x="424" 
d="M332 430q-2 92 -38 155t-92 60q-53 -3 -96 -73q-46 -76 -42 -177q2 -67 34 -114q35 -53 91 -52q60 1 102 55q42 58 41 146zM346 297q-47 -95 -153 -96q-66 -1 -117 48q-60 57 -62 157q-2 107 54.5 187t132.5 81q92 1 143 -97q49 -94 48 -251q-2 -171 -54 -278
q-55 -111 -147 -111q-86 0 -129 71q-22 37 -22 69q0 23 11 37q8 10 11 -2q17 -70 55 -109.5t85 -36.5q53 4 96 102t48 229z" />
    <glyph glyph-name="colon" unicode=":" horiz-adv-x="147" 
d="M45 230q-1 14 7 26.5t19 13.5q12 3 21 -11t9 -28q0 -30 -25 -33q-27 -3 -31 32zM101 21q0 -36 -30 -32q-25 3 -25 32q0 14 9 28.5t21 11.5q10 -1 17.5 -13t7.5 -27z" />
    <glyph glyph-name="semicolon" unicode=";" horiz-adv-x="146" 
d="M45 231q0 14 8 25.5t18 12.5q11 1 20 -14t9 -28q0 -28 -26 -30q-29 -2 -29 34zM65 -9q-19 7 -19 33q0 32 20 34q14 2 24.5 -11t9.5 -30q-1 -26 -17.5 -44.5t-33.5 -14.5q-5 2 -1 7q7 8 17 26z" />
    <glyph glyph-name="less" unicode="&#x3c;" horiz-adv-x="249" 
d="M25 210q67 47 148 78q8 3 17 3q20 0 35 -16q8 -10 -2 -11q-81 -26 -161 -67l-4 3q78 -19 132 -47q28 -15 27 -47q0 -11 -9 -6q-84 45 -150 66q-28 9 -37 33q-2 7 4 11z" />
    <glyph glyph-name="equal" unicode="=" horiz-adv-x="286" 
d="M31 124q-5 -1 -7 0q-3 2 -1 8q8 31 39 38q80 17 172 7q9 -1 5 -8q-9 -16 -31 -20q-59 -7 -177 -25zM194 220q-74 1 -164 -10q-5 -1 -7 2q-2 2 0 8q12 31 43 34q78 8 172 -7q10 0 4 -8q-15 -19 -48 -19z" />
    <glyph glyph-name="greater" unicode="&#x3e;" horiz-adv-x="243" 
d="M218 210q6 -4 4 -11q-8 -22 -37 -32q-68 -23 -149 -68q-10 -5 -10 6q-1 32 27 47q56 29 132 48l-5 -3q-70 37 -154 64q-10 3 -3 11q14 16 35 16q9 0 17 -3q71 -25 143 -75z" />
    <glyph glyph-name="question" unicode="?" horiz-adv-x="369" 
d="M166 93q-23 9 -28 53q-1 12 -1 23q0 59 42 118l80 102q44 64 45 134q1 61 -25.5 101t-74.5 42q-62 3 -103 -60t-41 -153q0 -18 2 -35q1 -7 -1 -8t-8 2q-37 20 -32 99q4 64 47 117q52 65 132 61q74 -4 113 -56t35 -127q-4 -70 -50 -135q-41 -51 -83 -103q-44 -60 -44 -121
q0 -23 5 -47q1 -5 -2 -7t-8 0zM195 13q-3 -37 -32 -31q-27 6 -27 37q0 14 9 27q9 17 22 13q12 -3 20.5 -17t7.5 -29z" />
    <glyph glyph-name="at" unicode="@" horiz-adv-x="583" 
d="M315 514q-30 5 -71 -59q-42 -68 -53 -151q-3 -22 -3 -42q0 -56 21 -90q17 -30 40 -33q55 -8 87 88q23 71 23 143q0 59 -12.5 100t-31.5 44zM372 205q-29 -94 -105 -94q-60 0 -96 51q-32 46 -32 109q0 19 3 39q13 96 68 169.5t113 63.5q56 -9 65 -79q10 3 15 1t4 -11
q-4 -51 -4 -100q0 -177 40 -188q20 -5 39.5 51.5t18.5 128.5q-1 103 -50 182q-55 90 -142 89q-92 -1 -159.5 -97t-67.5 -225q0 -123 61 -197q54 -65 129 -67q92 -2 154 88q5 8 10 -1q11 -21 -8 -55q-39 -70 -139 -70q-107 0 -182.5 86.5t-76.5 217.5q-1 147 81 248t198 100
q117 -1 185 -102q60 -88 59 -209q-1 -86 -31 -144q-30 -54 -69 -54q-26 0 -48.5 21t-32.5 48z" />
    <glyph glyph-name="A" unicode="A" horiz-adv-x="523" 
d="M394 172q-116 -4 -222 -19q-70 -130 -143 -189q-28 -22 -52 -22q-10 0 -19.5 3.5t0.5 9.5q88 53 169 190q-54 -9 -94 -23q-6 -2 -8 0q-1 1 0 7q6 39 37.5 48.5t91.5 17.5q112 217 169 516q2 12 9 11q3 0 7 -1q34 -13 35 -52q7 -244 53 -464q30 -2 43 -4q8 0 4 -7
q-13 -22 -40 -22q30 -130 69 -223q3 -8 -6 -8q-30 -1 -49 43q-29 65 -54 188zM188 200q98 9 202 7q-52 258 -47 473q-40 -257 -155 -480z" />
    <glyph glyph-name="B" unicode="B" horiz-adv-x="651" 
d="M239 5q-13 14 -15 41q-7 90 -7 198q0 221 26 341q7 31 29 39q5 2 6 0t0 -6q-22 -131 -22 -331q0 -166 17 -293q39 -11 93 -12q69 -1 122 29q63 34 68 95q4 49 -30 87q-31 35 -85 52q-65 -15 -132 -4q-25 4 -25 17q0 7 9 16q20 21 78 19q33 -1 62 -9q69 17 113 53
q55 46 52 111q-4 88 -93 147q-84 55 -196 58q-99 3 -170 -30q-67 -30 -84 -78q-6 -17 -6 -33q0 -42 36.5 -74.5t98.5 -43.5q6 -1 7 -5q0 -3 -5 -6q-23 -13 -69 -3q-45 9 -72.5 40t-27.5 77q0 31 14 66q24 59 92 97q80 45 196 39q139 -7 225 -80t84 -175q-1 -62 -39 -109.5
t-99 -73.5q47 -26 71.5 -68t20.5 -88q-7 -71 -62 -116q-60 -48 -156 -49q-111 -1 -182 60q-27 23 -27 44q0 12 10 4q36 -27 74 -43z" />
    <glyph glyph-name="C" unicode="C" horiz-adv-x="480" 
d="M438 205q8 -10 7 -43q-4 -97 -57 -152q-48 -50 -121 -54q-96 -5 -167 69q-79 83 -80 229q-1 179 86 313q80 125 174 127q85 1 126 -81q31 -61 27 -133q-5 -86 -54 -100q-6 -2 -8 -1q-2 2 0 9q10 40 10 87q0 78 -26 133q-28 60 -73 58q-64 -2 -132 -112q-75 -124 -78 -283
q-2 -129 46 -208.5t130 -77.5q66 1 115.5 57.5t66.5 160.5q2 10 8 2z" />
    <glyph glyph-name="D" unicode="D" horiz-adv-x="690" 
d="M280 -5q39 -10 88 -10q128 1 194 81q62 75 57 207q-7 183 -117 287q-100 96 -241 90q-79 -3 -133.5 -31.5t-70.5 -73.5q-6 -16 -6 -33q0 -42 36 -74.5t98 -43.5q6 -1 7 -5q1 -3 -4 -6q-23 -13 -69 -3q-45 9 -73 40.5t-28 77.5q0 32 14 66q21 53 79 90q65 42 154 45
q174 7 283 -115.5t107 -309.5q-2 -146 -70 -235q-75 -97 -213 -99q-117 -2 -187 60q-28 25 -28 44q0 10 9 4q45 -30 79 -42q-13 14 -15 40q-7 87 -7 193q0 221 26 346q6 30 29 39q5 2 6 0q1 -1 0 -6q-21 -131 -21 -328q0 -167 17 -295z" />
    <glyph glyph-name="E" unicode="E" horiz-adv-x="355" 
d="M63 630q-15 -3 -45 -10q-6 -1 -8 1q-2 3 0 8q8 41 39 46q82 14 192 14q75 0 138 -7q10 -1 5 -8q-13 -21 -42 -21q-141 0 -246 -17q-14 -174 -13 -371q102 13 208 6q7 0 4 -6q-11 -20 -38 -21q-91 -5 -174 -18q2 -145 12 -248q119 29 251 31q5 0 6 -2t-1 -6
q-10 -22 -39 -25q-108 -12 -200 -41q-17 -5 -31 1q-7 3 -20 11q-9 6 -11 20q-11 96 -9 251q-22 -4 -34 -7q-5 -2 -8 0q-2 2 -1 7q8 33 35 39q3 1 8 1q5 249 22 372z" />
    <glyph glyph-name="F" unicode="F" horiz-adv-x="331" 
d="M108 688q64 7 146 7q104 0 173 -10q9 -1 5 -8q-12 -22 -41 -21q-157 5 -288 -14q-10 -126 -13 -282q108 15 196 5q5 -1 2 -7q-10 -20 -38 -20q-82 -1 -161 -17q-2 -256 14 -378q1 -5 -1 -7q-2 -1 -7 0q-33 8 -39 55q-13 109 -8 322q-12 -3 -38 -10q-5 -2 -8 0q-2 2 -1 8
q6 33 37 40q8 2 11 2q7 180 20 283q-20 -3 -62 -13q-6 -2 -9 1q-1 1 0 7q10 40 39 46q16 4 40 7q8 30 29 39q4 1 5 0q2 -2 1 -6q-1 -9 -4 -29z" />
    <glyph glyph-name="G" unicode="G" horiz-adv-x="544" 
d="M441 263q-138 -2 -245 -37q-5 -2 -7 0q-2 1 -1 7q8 37 34 45q75 23 185 23q66 0 116 -10q5 -1 2 -7q-12 -22 -39 -21h-6q-16 -198 -1 -314q1 -5 -2 -6q-3 -2 -9 0q-37 13 -39 53q-2 37 3 98q-42 -144 -162 -147q-96 -3 -168 75q-81 87 -79 232q2 179 93 312
q85 124 179 125q84 1 124 -82q30 -62 26 -134q-5 -84 -57 -99q-6 -2 -8 0t0 8q12 44 12 94q0 76 -25 129q-27 57 -71 56q-68 -2 -138 -108q-78 -120 -83 -284q-4 -130 45 -210t136 -81q68 -1 120 71q56 78 65 212z" />
    <glyph glyph-name="H" unicode="H" horiz-adv-x="464" 
d="M398 239q2 -193 18 -307q1 -4 -2 -6q-2 -1 -8 0q-37 6 -43 55q-11 87 -11 257q-122 -4 -234 -22q5 -169 18 -257q1 -5 -1 -6.5t-7 -0.5q-40 6 -46 54q-10 77 -10 201q-50 -10 -83 -22q-7 -2 -9 0t-1 9q8 40 37 49q26 8 56 12q2 250 28 376q6 31 29 41q7 3 7 -5
q-21 -140 -18 -405q108 15 235 11q5 291 29 412q6 33 29 42q4 1 5 0q2 -2 1 -6q-20 -142 -20 -450q52 0 45 -11q-14 -21 -42 -21h-2z" />
    <glyph glyph-name="I" unicode="I" horiz-adv-x="365" 
d="M193 637q-100 -8 -182 -30q-7 -2 -9 0q-3 2 -1 8q10 38 37 45q50 13 162 18q8 26 28 34q4 1 5 0q2 -2 1 -6q-1 -9 -4 -28q126 2 195 -9q7 -1 3 -8q-11 -19 -40 -18q-73 3 -162 -3q-15 -170 -15 -385q0 -182 13 -289q111 3 177 -8q8 -1 4 -8q-11 -19 -39 -19
q-90 1 -192 -9q-120 -11 -191 -34q-6 -2 -8 0q-1 2 0 8q10 40 38 48q62 18 174 21q-9 11 -11 26q-8 71 -8 197q0 276 25 449z" />
    <glyph glyph-name="J" unicode="J" horiz-adv-x="379" 
d="M328 683q-8 -59 -8 -164q0 -136 12 -296q7 -90 7 -115q0 -108 -65 -155q-38 -28 -89 -28q-52 0 -97 31q-51 35 -80 103q-14 32 -4 58q5 13 10 -1q26 -70 80 -115t107 -45q30 0 54 15q41 26 41 109q0 10 -7 125q-8 129 -8 243q0 137 12 200q6 31 28 41q4 2 6 0t1 -6z" />
    <glyph glyph-name="K" unicode="K" horiz-adv-x="374" 
d="M35 228q0 287 28 414q7 31 27 39q4 1 5 0q2 -2 1 -6q-21 -141 -18 -416q95 89 199 220q100 126 144 208q4 8 8 0t4 -18q0 -9 -9 -32q-31 -74 -131 -207q-108 -142 -207 -229q142 -149 276 -228q7 -4 0 -8q-10 -6 -20 -6t-29 9q-96 44 -232 175q5 -126 16 -197q1 -4 -2 -6
q-2 -1 -7 0q-37 6 -43 52q-10 73 -10 196q-12 11 -12 20t12 20z" />
    <glyph glyph-name="L" unicode="L" horiz-adv-x="563" 
d="M385 303q126 42 122 233q-1 43 -13 77q-14 38 -36 38q-6 0 -14 -4q-64 -36 -64 -217q0 -48 5 -127zM316 38q-83 59 -149 63q-38 2 -73 -9q-49 -15 -49 -47q0 -25 36 -44q45 -24 103 -24q87 0 129 56zM343 297q-8 116 -8 163q0 73 23 129q26 63 77 87q20 9 37 9
q37 0 58.5 -38t21.5 -108q0 -87 -38 -155.5t-106 -97.5q-7 -2 -21 -8q2 -26 2 -44q3 -114 -28 -178q87 -62 98 -68q53 -32 95 -32q11 0 21 2q5 1 7 -2q2 -2 -1 -8q-12 -24 -47 -25q-44 -2 -98 30q-23 13 -97 68l-4 -6q-65 -77 -172 -77q-62 0 -104 25q-49 29 -49 68
q0 23 16 47q20 30 66 47q42 15 88 12q67 -5 154 -62q13 39 13 108q0 43 -3 86q-12 -1 -24 -1q-70 0 -122 41q-60 48 -85 142q-6 23 1 41q6 8 9 -1q29 -98 95 -150q58 -45 125 -44z" />
    <glyph glyph-name="M" unicode="M" horiz-adv-x="602" 
d="M585 -59q-25 0 -41 25q-42 67 -50 293l-2 340q0 18 -7 18q-4 0 -8 -9q-44 -103 -82 -269q-45 -192 -56 -365q-1 -9 -2.5 -11t-10.5 -1q-37 2 -37 52q-1 155 -14 326q-13 168 -28 233q-3 15 -9 15q-4 0 -8 -7q-47 -83 -88 -246q-45 -185 -45 -343q0 -24 1 -46
q0 -5 -3 -7.5t-8 -1.5q-39 11 -45 54q-10 78 -10 220q0 299 28 430q6 28 31 39q3 1 5 -1t1 -5q-25 -142 -25 -433q0 -75 3 -138q12 156 61 320q42 136 85 206q16 26 29 26q5 0 13 -5q19 -14 34 -91q14 -68 23 -200.5t7 -240.5q18 149 62 313q37 140 73 225q13 31 29 31
q10 0 22 -11q23 -21 26 -64v-83q0 -12 -1 -82q-1 -64 -1 -110q0 -329 55 -388q7 -8 -7 -8z" />
    <glyph glyph-name="N" unicode="N" horiz-adv-x="415" 
d="M335 -3q-16 97 -16 276q0 265 24 377q6 27 29 36q6 2 6 -5q-17 -118 -17 -346q0 -245 21 -379q2 -10 -8 -13.5t-19 -3.5q-18 0 -32 16q-74 87 -148 265q-69 166 -103 322q-5 -86 -5 -194q0 -263 25 -401q1 -4 -1 -6q-2 -1 -7 0q-33 4 -40 48q-16 98 -16 293q0 237 20 334
q6 29 29 39q11 5 13 -7q32 -169 99 -349q69 -187 146 -302z" />
    <glyph glyph-name="O" unicode="O" horiz-adv-x="527" 
d="M490 222q-13 -150 -88 -226q-58 -59 -136 -62q-93 -3 -163 77q-77 90 -76 237q2 170 89 296q16 57 54 94q46 44 109 42q89 -3 151.5 -115.5t62.5 -275.5q0 -33 -3 -67zM269 654q-46 -5 -77.5 -60.5t-31.5 -125.5q0 -62 26 -109q4 -6 2 -9q-1 -3 -7 -2q-26 3 -45 30
q-23 31 -28 80q-34 -99 -36 -202q-2 -129 46 -210q51 -84 136 -84q78 0 133 78.5t62 200.5q1 23 1 46q0 157 -57 268q-55 106 -124 99z" />
    <glyph glyph-name="P" unicode="P" horiz-adv-x="653" 
d="M264 241q154 -4 248 52t90 142q-4 88 -93 147q-83 55 -196 58q-100 3 -171 -30q-66 -30 -84 -78q-6 -16 -6 -33q0 -41 36.5 -73.5t98.5 -44.5q14 -3 3 -10q-22 -14 -68 -4q-46 9 -74 40.5t-28 77.5q0 31 14 65q24 59 92 97q81 45 196 39q139 -7 225 -80t84 -175
q-2 -103 -95.5 -164.5t-249.5 -61.5q-11 0 -22 6q3 -163 19 -266q1 -4 -2 -6q-2 -1 -7 0q-38 6 -44 50q-10 81 -10 208q0 248 27 374q7 31 29 39q4 1 6 0q1 -2 0 -5q-20 -131 -18 -364z" />
    <glyph glyph-name="Q" unicode="Q" horiz-adv-x="529" 
d="M557 -64q-1 -18 -21 -36q-36 -32 -90 -32q-65 0 -133 75q-26 -9 -51 -9q-90 -1 -159 74q-29 -14 -57 -43q-7 -8 -9 0q-4 37 45 70q-59 85 -58 213q2 170 89 296q15 57 54 94q45 44 108 42q90 -3 153 -117t63 -278q0 -31 -3 -63q-17 -206 -148 -268q49 -44 108 -44
q57 0 101 30q4 3 6 1q2 -1 2 -5zM110 54q32 19 66 19q46 0 80 -27q13 -11 61 -67q54 29 89 98.5t40 163.5q1 21 1 42q0 159 -57 271q-55 107 -124 100q-47 -5 -78.5 -60t-31.5 -125q0 -62 27 -110q4 -6 2 -9t-8 -2q-25 3 -45 30q-23 31 -28 80q-34 -98 -35 -202
q-2 -123 41 -202zM291 -32q-55 61 -114 61q-20 0 -44 -8q47 -59 118 -59q24 0 40 6z" />
    <glyph glyph-name="R" unicode="R" horiz-adv-x="662" 
d="M265 167q5 -143 18 -222q1 -4 -2 -6q-2 -1 -7 0q-39 6 -44 48q-10 80 -10 208q0 249 27 375q7 32 29 40q4 1 6 0q1 -2 0 -5q-20 -131 -18 -363q153 -6 249 51q93 56 89 142q-4 88 -93 147q-83 55 -196 58q-86 2 -162 -26q-99 -39 -99 -115q0 -41 36.5 -73.5t98.5 -44.5
q15 -3 3 -10q-23 -13 -68 -4q-46 9 -74 40.5t-28 77.5q0 31 14 65q24 59 92 97q80 45 196 39q139 -7 227 -81q85 -73 83 -174t-94.5 -163t-244.5 -64q140 -140 257 -211q7 -4 0 -8q-21 -10 -48 3q-101 49 -237 179z" />
    <glyph glyph-name="S" unicode="S" horiz-adv-x="472" 
d="M454 511q0 -53 -22.5 -92.5t-55.5 -43.5q-11 -3 -11 4q0 2 3 6q36 42 38 114q2 66 -39 114q-43 52 -110 51q-82 -2 -139 -65q-53 -60 -52 -135q1 -73 85 -147q41 -36 160 -112q105 -67 105 -132q0 -26 -17 -58q-23 -43 -79 -65q-50 -19 -110 -16q-90 5 -130 50
q-28 32 -25 70q2 24 11 24q3 0 5 -8q10 -53 69 -78q45 -19 108 -19q103 0 125 52q7 17 7 32q0 49 -99 115l-114 74q-68 48 -102 93q-45 59 -45 125q0 95 72 160.5t169 64.5q103 -1 154 -63q39 -48 39 -115z" />
    <glyph glyph-name="T" unicode="T" horiz-adv-x="419" 
d="M228 641q-125 -7 -207 -27q-6 -2 -8.5 0.5t-1.5 7.5q6 35 36 42q81 19 240 19q127 0 200 -12q9 -1 5 -7q-16 -20 -43 -19q-87 4 -190 -2q-13 -146 -13 -345q0 -223 18 -348q1 -4 -1 -6t-7 -1q-36 9 -42 56q-10 80 -10 223q0 262 24 419z" />
    <glyph glyph-name="U" unicode="U" horiz-adv-x="457" 
d="M365 151q-16 -220 -134 -220q-34 0 -74 20q-131 64 -134 262q-1 113 26 249q25 128 57 189q13 26 32 28q5 1 7 -2q1 -2 -1 -7q-33 -79 -55.5 -210t-19.5 -229q6 -214 104 -260q17 -8 36 -8q47 0 83 49q42 57 55 166q8 66 16 227q8 140 18 199q7 41 32 50q6 2 8 0
q2 -1 1 -7q-23 -167 -20 -375q3 -205 24 -315q1 -5 -1 -7t-8 0q-34 12 -40 53.5t-12 147.5z" />
    <glyph glyph-name="V" unicode="V" horiz-adv-x="403" 
d="M214 43q18 182 80 363q73 212 161 268q21 14 34 10q9 -3 3 -8q-108 -87 -182 -344q-61 -210 -66 -384q0 -14 -17 -11q-44 9 -47 48q-11 138 -62 335q-54 212 -112 315q-2 3 -1 5q0 2 5 2q15 -1 30 -23q53 -80 106 -254t68 -322z" />
    <glyph glyph-name="W" unicode="W" horiz-adv-x="663" 
d="M331 113q-2 -182 -120 -182q-32 0 -61 14q-49 25 -79.5 97.5t-32.5 169.5q-2 114 21 251q22 126 49 189q10 24 28 27q4 1 5 -2q1 -2 -1 -9q-25 -82 -41.5 -212t-14.5 -227q5 -219 80 -263q13 -8 27 -8q37 0 65 50q33 58 43 168q7 78 8 186q0 96 5 132q5 33 28 42q6 2 8 1
q3 -2 2 -11q-5 -64 -5 -126q0 -90 11 -199.5t45 -163.5q29 -45 70 -45q106 0 110 250q1 96 -14 213q-16 121 -44 209q-2 5 -1 8q1 2 5 1q17 -4 26 -27q29 -74 49 -190q22 -128 19 -229q-3 -95 -32 -163q-40 -96 -120 -96q-103 0 -138 145z" />
    <glyph glyph-name="X" unicode="X" horiz-adv-x="385" 
d="M121 286q-76 172 -108 324q-7 33 8 51q6 7 8 -3q39 -156 117 -322q95 189 187 298q23 28 48 28q30 0 20 -12q-130 -161 -232 -363q104 -206 208 -309q7 -6 -5 -10q-6 -2 -12 -2q-22 0 -54 31q-83 80 -162 240q-75 -160 -111 -297q-2 -6 -6 -5q-4 2 -9 10q-9 15 -4 41
q25 125 107 300z" />
    <glyph glyph-name="Y" unicode="Y" horiz-adv-x="436" 
d="M352 104q-26 -157 -119 -161t-149 102q-53 100 -50 247q4 185 70 322q10 22 31 24q5 1 6 -2q0 -1 -2 -7q-58 -139 -63 -328q-4 -153 41 -247q40 -81 92 -81q44 0 80 50q40 58 50 162q7 110 15 220q9 131 25 202q10 41 33 52q7 3 10 0t1 -11q-15 -52 -26 -163t-11 -209
q0 -143 26 -368q5 -40 5 -74q0 -144 -90 -202q-42 -27 -91 -27q-115 0 -174 128q-16 34 -5 57q5 10 9 -1q28 -68 81 -110t106 -42q31 0 56 15q67 42 67 173q0 34 -4 77q-8 67 -20 202z" />
    <glyph glyph-name="Z" unicode="Z" horiz-adv-x="355" 
d="M41 -34q74 12 172 12q75 0 131 -7q9 -1 4 -8q-11 -20 -45 -20q-149 2 -247 -21q-15 -3 -27 6q-15 12 -21 22t-1 27q41 151 145 346q98 184 200 314q-122 6 -292 -15q-28 -3 -42 18q-5 7 5 9q63 14 162.5 24t162.5 7q16 -1 22 -8q14 -17 23 -36q7 -15 -3 -28
q-111 -141 -207 -319q-92 -171 -142 -323z" />
    <glyph glyph-name="bracketleft" unicode="[" horiz-adv-x="191" 
d="M85 639q-12 -143 -12 -336q0 -210 16 -334q47 14 93 21q5 1 7 -1t1 -7q-7 -23 -34 -31q-18 -6 -55 -19q-13 -4 -21.5 0.5t-22.5 12.5q-9 6 -12 26q-15 93 -15 267q0 243 22 417q3 22 25 24q72 8 105 7q8 0 6 -8q-8 -24 -38 -28q-26 -4 -65 -11z" />
    <glyph glyph-name="backslash" unicode="\" horiz-adv-x="361" 
d="M13 734q6 7 8 -2q35 -134 142 -398q115 -286 196 -421q6 -9 -6 -11q-39 -6 -66 40q-70 120 -168 378q-95 250 -117 362q-7 35 11 52z" />
    <glyph glyph-name="bracketright" unicode="]" horiz-adv-x="159" 
d="M95 654q-37 -2 -80 -7q-7 -1 -9 1q-2 1 0 7q10 25 39 31q34 7 70 7q15 0 14 -16q-11 -124 -11 -316q0 -219 15 -360q2 -19 -7 -29t-15 -15q-10 -8 -26 -9q-29 -2 -77 -9q-5 -1 -7 1t-1 7q7 25 37 33q17 4 52 8q-11 98 -11 278q0 247 17 388z" />
    <glyph glyph-name="asciicircum" unicode="^" horiz-adv-x="247" 
d="M113 638q-60 -128 -83 -214q-3 -13 -13 -4q-17 17 -17 40q0 32 39 114q29 61 58 109q6 11 14 5q16 -9 24 -17q4 -3 10 -15q51 -138 99 -205q8 -11 -6 -12q-29 -2 -50 26q-32 43 -75 173z" />
    <glyph glyph-name="underscore" unicode="_" horiz-adv-x="576" 
d="M544 -172h-574q-8 0 -3 8q15 26 50 26h574q7 0 3 -8q-13 -26 -50 -26z" />
    <glyph glyph-name="grave" unicode="`" horiz-adv-x="227" 
d="M146 753q-63 34 -116 52q-10 4 -2 12q15 15 34 15q10 0 20 -5q70 -34 116 -69q10 -7 -1 -10q-22 -10 -51 5z" />
    <glyph glyph-name="a" unicode="a" horiz-adv-x="235" 
d="M144 184q3 69 -24 76q-16 4 -40.5 -36t-33.5 -93q-4 -26 -4 -47q0 -65 29 -71q21 -4 44 42q26 51 29 129zM162 244q7 15 23 19q4 1 5.5 -0.5t0.5 -5.5q-16 -65 -16 -134q0 -94 22 -99q11 -3 28 24t23 68q0 6 5 1q8 -8 8 -31q0 -42 -14.5 -66.5t-38.5 -24.5q-13 0 -27 8
q-27 15 -36 60q-16 -74 -63 -74q-39 0 -61 34q-18 29 -18 71q0 29 8 63q15 61 44 96q26 32 55 32q34 0 52 -41z" />
    <glyph glyph-name="b" unicode="b" horiz-adv-x="226" 
d="M104 263q-32 -3 -44 -75q-5 -32 -5 -61q0 -52 15 -84.5t34 -35.5q20 -3 35 25q18 33 18 90q0 62 -18 104q-17 39 -35 37zM60 2q2 -12 5 -35q1 -4 -2 -6t-8 0q-31 10 -35 53q-8 89 -8 199q0 215 27 333q7 30 29 38q4 2 6 0q1 -2 0 -6q-24 -142 -26 -341q16 35 45 49
q10 5 21 5q31 0 56 -40t29 -109q4 -71 -25 -115q-24 -36 -60 -42t-54 17z" />
    <glyph glyph-name="c" unicode="c" horiz-adv-x="188" 
d="M203 114q4 -10 -1 -36q-9 -41 -33 -66q-26 -28 -61 -28q-52 0 -80 43q-23 36 -23 91q0 14 1 29q6 69 33 111q25 38 55 38q12 0 22 -7q40 -25 40 -67q0 -26 -11.5 -42.5t-25.5 -17.5q-3 0 -6 4q10 28 10 58q0 45 -17 47t-37 -42q-21 -48 -23 -105q-3 -92 33 -110
q9 -4 19 -4q28 0 58 33q27 31 39 69q4 12 8 2z" />
    <glyph glyph-name="d" unicode="d" horiz-adv-x="256" 
d="M149 191q-1 34 -11 57q-8 19 -18 21q-17 4 -39.5 -38t-30.5 -99q-3 -22 -3 -41q0 -38 10.5 -59.5t23.5 -22.5q22 -2 45 50q25 58 23 132zM156 264q12 180 43 293q4 14 22 19q4 1 5 0q2 -1 1 -5q-35 -181 -33 -389q1 -60 4 -93q6 -70 23 -77q12 -5 28 24t23 77q1 8 6 1
q11 -16 7 -50q-10 -80 -52 -80q-7 0 -14 2q-48 16 -61 90q-14 -89 -71 -89q-41 0 -63 36q-19 31 -19 76q0 27 6 58q13 66 41 103t57 37q27 0 47 -33z" />
    <glyph glyph-name="e" unicode="e" horiz-adv-x="179" 
d="M44 102q36 8 58 51q18 35 18 75q0 31 -12 34q-16 4 -36 -33q-22 -40 -27 -93q-2 -23 -1 -34zM45 85q6 -57 31 -66q7 -3 16 -3q29 0 58.5 26.5t43.5 70.5q1 4 4 5q2 0 3 -4q3 -13 0 -29q-8 -43 -34.5 -68.5t-62.5 -25.5q-18 0 -36 7q-25 10 -43 39q-23 35 -23 83
q0 19 4 39q11 62 37 98q24 32 52 32q13 0 25 -8q34 -24 34 -69q0 -16 -4 -33q-10 -42 -40.5 -67t-64.5 -27z" />
    <glyph glyph-name="f" unicode="f" horiz-adv-x="170" 
d="M46 95q0 -80 7 -153q12 -126 41 -126q23 0 23 101q0 65 -14 119q-33 16 -57 59zM128 61q44 -8 56 55q1 5 4 5q3 -1 5 -4q6 -13 2 -37q-8 -50 -55 -52q17 -58 17 -115q0 -49 -13 -91q-11 -38 -38 -38q-14 0 -31 12q-70 48 -70 250q0 26 1 58q3 90 19 208q19 145 44 199
q11 23 26 26q5 1 6 0t-1 -7q-40 -150 -52 -356q43 -18 80 -113z" />
    <glyph glyph-name="g" unicode="g" horiz-adv-x="222" 
d="M157 181q3 74 -24 82q-17 5 -41 -34q-27 -40 -39 -96q-6 -29 -6 -54q0 -62 28 -70q23 -3 49 44q30 53 33 128zM170 250q0 1 1 4v3q3 22 23 29q7 3 7 -5q-9 -69 -9 -165q0 -40 5 -120.5t5 -120.5q0 -84 -47 -123q-25 -21 -52 -21q-29 0 -53 23t-34 60q-11 43 0 68q2 5 6 5
t6 -7q15 -56 42 -87q24 -26 49 -26q45 0 45 83q0 21 -3 50q-7 72 -7 160q-20 -75 -68 -75q-38 0 -61 35q-20 31 -20 71q0 32 11 71q19 63 46.5 96.5t54.5 33.5q32 0 53 -42z" />
    <glyph glyph-name="h" unicode="h" horiz-adv-x="230" 
d="M54 90q21 103 59 172q9 17 21 17q8 0 18 -8q20 -16 20 -56q-2 -177 27 -186q12 -4 26 21.5t18 62.5q0 7 4 3q8 -8 8 -24q2 -89 -46 -89q-7 0 -14 3q-50 17 -59 77q-6 41 -6 146q-2 14 -7 3q-51 -111 -60 -243q-1 -11 -10 -8q-32 11 -35 51q-4 49 -4 116q0 243 31 379
q7 31 27 38q6 2 7 0q0 -1 -1 -6q-25 -140 -25 -386q0 -44 1 -83z" />
    <glyph glyph-name="i" unicode="i" horiz-adv-x="111" 
d="M24 295q4 30 26 33q19 3 22 -21q2 -14 -6 -24t-19 -12t-18 4.5t-5 19.5zM132 114q5 -10 5 -22q1 -46 -17 -76.5t-45 -30.5q-7 0 -15 3q-53 19 -55 119q-1 71 16 124q7 22 26 26q4 0 7 -4q-13 -62 -13 -125q0 -108 24 -116q14 -5 33.5 25t27.5 76q2 10 6 1z" />
    <glyph glyph-name="j" unicode="j" horiz-adv-x="88" 
d="M18 299q2 29 26 33q21 4 24 -22q3 -31 -25 -35q-13 -2 -19.5 4.5t-5.5 19.5zM-73 -136q6 10 10 -1q23 -70 60 -70q9 0 15 6q12 9 13 37q0 18 -5 80q-12 148 -12 207q0 126 37 139q4 1 6 0q2 -2 1 -5q-8 -48 -8 -108q0 -75 17 -226q3 -29 3 -51q0 -68 -44 -100
q-18 -13 -38 -13q-43 0 -57 57q-8 33 2 48z" />
    <glyph glyph-name="k" unicode="k" horiz-adv-x="245" 
d="M52 180q13 77 51 117q17 19 38 19q22 0 41 -22q24 -28 24 -69q0 -85 -81 -126q13 -92 53 -92q22 0 44 27q25 31 36 80q2 10 7 2t4 -26q-2 -49 -25 -79t-59 -30q-44 0 -73 39q-24 32 -30 80q-1 10 8 17q40 21 63 60q20 34 20 68q0 39 -22 39q-28 0 -57 -64
q-32 -71 -32 -163q0 -39 6 -78q1 -4 -1.5 -6t-7.5 -1q-33 13 -37 53q-8 75 -8 165q0 197 30 336q6 30 28 39q4 1 6 -1q1 -2 0 -5q-27 -186 -26 -379z" />
    <glyph glyph-name="l" unicode="l" horiz-adv-x="154" 
d="M50 194q58 92 58 265q0 69 -10 74q-11 6 -26 -71t-20 -168q-2 -40 -2 -100zM51 166q8 -152 51 -152q19 0 40 28.5t33 71.5q3 9 6 2q5 -9 2 -36q-3 -34 -20 -61q-20 -34 -52 -34q-9 0 -18 3q-85 24 -85 237q0 89 17 198q25 151 66 151q13 0 25 -16q27 -34 27 -113
q0 -78 -25 -159q-27 -84 -67 -120z" />
    <glyph glyph-name="m" unicode="m" horiz-adv-x="331" 
d="M361 91q0 -100 -54 -97q-32 1 -54.5 34t-22.5 108q0 20 2 57t2 51q0 10 -3 10t-6 -7q-42 -103 -46 -234q0 -9 -9 -8q-34 4 -37 41q-3 67 -10 176q-1 12 -5 12t-8 -9q-50 -105 -57 -229q-1 -10 -9 -8q-30 7 -32 27q-4 31 -4 78q0 141 15 194q6 20 25 28q5 2 7 1q2 0 1 -6
q-12 -73 -12 -213q20 103 62 168q11 17 22 17q8 0 16 -8q16 -16 21 -60q3 -25 3 -85q15 91 52 157q11 19 21 19q7 0 16 -9q21 -21 19 -71q-4 -90 -4 -105q0 -91 24 -99q16 -6 31.5 24.5t19.5 70.5q1 12 6 2q8 -7 8 -27z" />
    <glyph glyph-name="n" unicode="n" horiz-adv-x="218" 
d="M46 84q23 110 59 174q10 18 21 18q17 0 29 -20q9 -15 9 -45q-2 -177 27 -185q14 -4 28 23.5t15 63.5q0 9 5 3q7 -10 8 -23q2 -45 -11.5 -69t-36.5 -24q-59 0 -71 79q-6 41 -6 146q-2 14 -7 3q-50 -110 -62 -236q-1 -11 -9 -9q-31 6 -33 32q-5 51 -2 129q3 84 12 131
q5 25 26 31q5 1 7 0t1 -6q-14 -95 -9 -216z" />
    <glyph glyph-name="o" unicode="o" horiz-adv-x="203" 
d="M173 153q1 -15 1 -29q0 -61 -22 -96.5t-56 -35.5q-44 0 -69 43q-22 36 -22 84q0 43 16 89q19 54 50 70q14 7 27 -8q21 4 41 -20q21 -27 30 -72q5 3 14 11q7 7 7 -1q0 -18 -17 -35zM100 251q-9 1 -9 -15q0 -20 12 -39q13 -23 33 -26q-9 77 -36 80zM138 140q-30 -1 -50 22
q-18 20 -20 50q-21 -44 -21 -103q0 -41 14 -70q12 -22 24 -25q21 -5 37.5 32.5t15.5 93.5z" />
    <glyph glyph-name="p" unicode="p" horiz-adv-x="228" 
d="M49 98q-5 -79 35 -79q21 0 41 26q25 31 35 87q4 23 4 46q0 33 -7.5 55.5t-16.5 24.5q-24 5 -53 -39q-33 -50 -38 -121zM41 18q0 -179 12 -288q1 -5 -1 -6q-2 -2 -7 0q-33 10 -37 51q-6 68 -6 160q0 214 23 347q5 29 27 38q6 3 7 1l-1 -6q-7 -48 -12 -128q26 100 82 100
q16 0 32 -10q44 -26 44 -106q0 -31 -8 -66q-13 -55 -41 -85.5t-60 -30.5q-33 0 -54 29z" />
    <glyph glyph-name="q" unicode="q" horiz-adv-x="222" 
d="M156 183q3 71 -25 79q-16 5 -42 -36t-37 -95q-6 -29 -6 -53q0 -64 28 -69q23 -4 50 46q29 55 32 128zM170 253q6 27 26 35q4 2 6 0t1 -6q-21 -139 -21 -310q0 -117 11 -221q0 -5 -2 -7q-3 -2 -8 0q-32 14 -35 52q-9 122 -1 249q-21 -59 -62 -59q-38 0 -61 33
q-19 29 -19 70q0 31 10 69q17 63 47 98q28 32 57 32q32 0 51 -35z" />
    <glyph glyph-name="r" unicode="r" horiz-adv-x="211" 
d="M51 236q49 -3 88 50q6 9 15 0q15 -16 15 -31q0 -7 -3 -15q-36 -79 -36 -167q0 -66 27 -66q38 0 65 100q1 11 8 2q4 -4 1 -31q-13 -101 -66 -101q-39 0 -59 43q-16 33 -16 75q0 56 23 123q-24 -12 -55 -12h-8q-1 -19 -7 -91q-5 -60 -5 -94q0 -26 3 -46q1 -5 -2 -6
q-2 -2 -7 0q-28 9 -29 52q-1 33 8 93q11 72 13 99q-31 16 -29 57q1 28 12 45q9 14 20 14q24 0 24 -93z" />
    <glyph glyph-name="s" unicode="s" horiz-adv-x="191" 
d="M31 88q16 -34 41 -54q22 -18 41 -18q21 0 21 23q0 20 -27 83t-27 100q0 12 2 22q-22 -35 -51 -156zM16 55q-2 -5 -8 -11q-5 -4 -7 1q-2 7 6 35q0 2 -5 21q-8 32 5 46q6 6 10 -21q26 135 72 178q9 9 19 9q12 0 23 -12q6 -7 -2 -13q-14 -12 -14 -39q0 -42 31 -112
q20 -47 20 -79q0 -33 -21 -52.5t-47 -19.5q-51 0 -82 69z" />
    <glyph glyph-name="t" unicode="t" horiz-adv-x="126" 
d="M25 352q-37 -3 -74 -10q-5 -1 -6 2q-2 2 0 5q4 23 30 26q18 2 54 4q12 59 20 86q5 18 22 24q4 1 5 0t0 -6q-7 -36 -15 -102q91 2 161 -9q5 -1 2 -6q-10 -14 -29 -13q-69 5 -137 2q-9 -87 -11 -166q-4 -172 33 -172q15 0 32 24t25 66q0 4 2 4t3 -2q7 -7 6 -25
q-1 -39 -15 -65q-17 -29 -45 -29q-7 0 -15 2q-41 10 -56 58q-12 41 -9 132q2 83 17 170z" />
    <glyph glyph-name="u" unicode="u" horiz-adv-x="221" 
d="M134 50q-13 -43 -41 -59q-12 -7 -26 -7q-22 0 -36 17q-27 34 -27 119q0 70 18 137q8 30 28 33q5 1 7 0q1 -1 0 -6q-13 -67 -13 -147q0 -65 11 -95q9 -25 27 -25q28 0 39 101l14 125q5 29 31 35q5 1 7 -1q1 -1 0 -6q-11 -81 -11 -147q0 -103 28 -103q11 0 23.5 26.5
t17.5 64.5q0 12 6 2q7 -12 7 -31q-1 -90 -51 -90q-41 0 -59 57z" />
    <glyph glyph-name="v" unicode="v" horiz-adv-x="205" 
d="M154 177q-30 34 -25 77q4 32 16 32q6 0 13 -10q23 -36 23 -110q0 -23 -3 -44q-8 -70 -36 -109q-23 -32 -48 -32q-47 0 -71 76q-15 48 -15 111q0 58 12 95q7 21 22 31q4 3 6 1t1 -7q-8 -46 -8 -90q0 -78 22 -133q19 -49 41 -48q23 1 38 52q14 48 12 108z" />
    <glyph glyph-name="w" unicode="w" horiz-adv-x="333" 
d="M147 48q-21 -57 -64 -59q-46 -2 -67 71q-9 30 -9 71q0 70 20 122q7 18 23 25q3 2 6 0q2 -2 1 -7q-14 -56 -14 -112q0 -61 15 -102.5t33 -38.5q28 4 37 67q6 42 6 142q0 33 33 44q6 2 8 0t1 -7q-5 -42 -5 -84q0 -76 15 -124q15 -51 39 -49q22 2 34 41q12 36 12 93
q0 73 -19 142q-2 5 1 7q2 1 6 0q13 -5 21 -27q24 -69 24 -133q0 -119 -72 -145q-11 -4 -21 -4q-47 0 -64 67z" />
    <glyph glyph-name="x" unicode="x" horiz-adv-x="221" 
d="M95 92q28 -71 57 -77q25 -5 50 24t36 73q0 8 5 1t4 -23q-7 -100 -78 -100q-63 0 -97 57q-21 -45 -39 -104q-4 -13 -10 -2q-8 15 -1 42q12 44 35 97q-35 92 -28 188q2 27 17 36q7 4 7 -3q4 -91 29 -170q48 89 108 149q8 8 10 -4q5 -29 -20 -59q-46 -55 -85 -125z" />
    <glyph glyph-name="y" unicode="y" horiz-adv-x="205" 
d="M125 39q-23 -56 -60 -56q-20 0 -34 18q-26 35 -26 118q0 68 17 139q7 29 26 32q5 1 7 0q1 -1 0 -6q-13 -69 -13 -146q0 -65 12 -96t28 -28q28 5 38 104q4 50 14 124q8 31 30 36q8 2 8 -5q-10 -78 -10 -173q0 -37 5.5 -110.5t5.5 -110.5q0 -81 -51 -121q-23 -18 -46 -18
q-26 0 -46.5 23t-28.5 59q-4 19 -4 34q0 17 6 28q2 5 6 5q3 -1 5 -7q13 -53 35 -81t45 -28q41 0 41 83q0 21 -3 51q-5 62 -7 132z" />
    <glyph glyph-name="z" unicode="z" horiz-adv-x="212" 
d="M140 64q-27 -42 -68 -66q-18 -10 -26 -10t-12 8q-10 21 14.5 51.5t57.5 38.5q42 59 42 116q0 47 -31 47q-24 0 -52 -32.5t-41 -79.5q-3 -10 -8 -1q-10 16 -3 53q8 40 34 67t56 27q32 0 56 -33q20 -28 20 -68q0 -48 -27 -98q47 -20 47 -104q0 -116 -74 -196
q-27 -29 -55 -29t-45 28q-15 24 -15 54q0 73 75 126q16 11 33 9q10 0 2 -7q-39 -36 -61 -82q-19 -40 -19 -71q0 -28 17 -28t42 29.5t43 77.5q24 64 24 112q0 49 -26 61z" />
    <glyph glyph-name="braceleft" unicode="{" horiz-adv-x="155" 
d="M34 308q31 -8 42 -45q7 -24 10 -82q8 -156 24 -201q12 -33 34 -53q5 -5 4 -9t-7 -3q-44 7 -66 47q-19 36 -25 108q-2 26 -4 118q-1 49 -4 63q-5 27 -24 36q-15 7 -18 24q-2 10 7 11q25 8 33 40q5 18 7 70q4 94 6 116q7 70 25 106q25 49 66 53q6 1 8 -3q1 -4 -4 -9
q-19 -17 -33 -54q-22 -58 -27 -202q-4 -113 -54 -131z" />
    <glyph glyph-name="bar" unicode="|" horiz-adv-x="127" 
d="M90 741q4 2 5 0q2 -2 1 -7q-19 -171 -19 -449q0 -241 18 -378q1 -5 -2 -7q-2 -1 -8 0q-40 6 -46 62q-10 93 -10 246q0 327 29 488q6 34 32 45z" />
    <glyph glyph-name="braceright" unicode="}" horiz-adv-x="154" 
d="M121 318q-53 16 -57 131q-5 144 -26 201q-13 36 -34 55q-5 5 -4 8t8 3q40 -1 66 -52q19 -37 26 -107q2 -24 6 -115q2 -54 6 -70q8 -33 32 -40q12 -4 9 -13q-5 -17 -19 -23q-18 -8 -23 -35q-2 -8 -4 -63q-2 -60 -4 -119q-6 -73 -26 -108q-23 -41 -66 -46q-6 -1 -7 3
q-1 3 4 8q21 19 34 54q19 51 23 200q2 57 10 83q12 38 46 45z" />
    <glyph glyph-name="asciitilde" unicode="~" horiz-adv-x="654" 
d="M145 183q3 68 -24 75q-16 4 -40 -34q-25 -41 -34 -94q-4 -27 -4 -49q0 -67 26 -72q24 -4 47 43q25 52 29 131zM145 60q-17 -76 -62 -76q-39 0 -61 36q-20 31 -20 72q0 29 9 64q15 61 44 96q27 32 55 32q35 0 53 -42q7 17 23 20q4 1 5.5 -0.5t0.5 -5.5q-16 -68 -16 -137
q0 -91 22 -97q18 -5 37 45q21 56 27 148q-33 15 -31 58q1 28 11 43t20 15q7 0 12 -8q11 -19 11 -85q48 -3 90 49q7 8 14 1q15 -16 15 -32q0 -7 -3 -14q-36 -78 -36 -170q0 -67 27 -67q24 0 47 56q24 60 29 146q-31 16 -28 56q4 59 31 59q23 0 23 -93q49 -3 87 51q7 10 15 0
q17 -17 17 -33q0 -6 -3 -12q-35 -81 -35 -167q0 -63 25 -63q15 0 32 24q20 28 33 77q2 9 8 1q5 -10 2 -30q-14 -101 -66 -101q-38 0 -58 40q-16 32 -16 74q0 54 22 122q-26 -13 -56 -13h-7q-4 -92 -26 -153q-26 -70 -66 -70q-9 0 -19 4q-58 23 -58 116q0 56 23 125
q-24 -12 -56 -12h-7q-6 -216 -77 -216q-8 0 -16 3q-37 13 -47 64z" />
    <glyph glyph-name="Adieresis" unicode="&#xc4;" horiz-adv-x="539" 
d="M405 173q-109 -2 -221 -18q-68 -129 -145 -189q-29 -23 -59 -23q-12 0 -20 4q-11 5 -1 11q90 53 173 188q-54 -9 -97 -23q-7 -2 -9 0q-1 1 0 7q10 40 39 48q36 10 95 18q114 214 175 514q3 16 18 10q33 -13 34 -52q7 -233 57 -461q28 -2 43 -4q11 -2 5 -8
q-16 -21 -41 -22q33 -137 70 -221q4 -9 -7 -9q-33 -1 -53 43q-30 67 -56 187zM208 201q91 9 190 7q-46 241 -45 448q-43 -245 -145 -455zM409 814q23 -5 23 -37q0 -13 -8 -22.5t-21 -6.5q-23 3 -23 28q0 13 9 26.5t20 11.5zM317 817q10 -3 17.5 -19t4.5 -27q-7 -26 -28 -21
q-23 5 -23 28q0 11 9.5 26.5t19.5 12.5z" />
    <glyph glyph-name="Aring" unicode="&#xc5;" horiz-adv-x="539" 
d="M381 798q0 25 -17 28q-21 4 -25 -30q-1 -13 5 -21t14 -8q23 0 23 31zM408 795q-2 -48 -54 -43q-18 2 -32 16t-10 36q6 38 46 38q20 0 35.5 -14t14.5 -33zM406 173q-108 -2 -222 -18q-68 -128 -144 -189q-28 -23 -59 -23q-12 0 -23 4.5t0 10.5q91 52 173 188
q-51 -9 -95 -23q-9 -3 -10 -1q0 1 1 8q7 39 39 48q37 10 94 18q116 218 175 514q3 16 17 10q35 -14 36 -52q7 -238 56 -461q55 -3 48 -12q-16 -21 -41 -22q33 -137 70 -221q4 -9 -6 -9q-35 -1 -54 43q-31 70 -55 187zM208 201q91 9 190 7q-48 238 -46 447
q-42 -243 -144 -454z" />
    <glyph glyph-name="Ccedilla" unicode="&#xc7;" horiz-adv-x="480" 
d="M222 -41q-84 15 -139 86q-62 81 -63 209q-1 179 86 313q80 125 174 127q85 1 126 -81q31 -61 27 -133q-5 -86 -54 -100q-6 -2 -8 -1q-2 2 0 9q10 40 10 87q0 78 -26 133q-28 60 -73 58q-64 -2 -132 -112q-75 -124 -78 -283q-2 -129 46 -208.5t130 -77.5q66 1 115.5 57.5
t66.5 160.5q2 10 8 2q8 -10 7 -43q-4 -97 -57 -152q-48 -50 -121 -54h-6q-1 -6 -1 -18q32 2 43 -18q6 -10 6 -22q0 -27 -23 -36q-9 -4 -20 -4q-22 0 -34 12q-6 6 3 7q42 6 42 26q0 3 -1 5q-7 15 -46 -2q-8 -3 -8 4v49z" />
    <glyph glyph-name="Eacute" unicode="&#xc9;" horiz-adv-x="355" 
d="M62 633q-5 -1 -43 -9q-7 -1 -9 0q-1 1 0 8q8 39 39 45q83 15 197 15q71 0 133 -6q11 -1 5 -10q-13 -20 -42 -20q-134 0 -247 -17q-14 -175 -13 -372q96 14 208 8q7 0 4 -7q-10 -20 -37 -21q-103 -5 -175 -18q2 -150 13 -248q117 29 251 31q5 0 6 -2t0 -5q-10 -23 -40 -26
q-101 -10 -200 -40q-18 -6 -30 0l-22 11q-8 5 -10 19q-11 95 -9 253q-11 -3 -34 -8q-6 -2 -8 0q-2 1 -1 7q5 34 35 39q3 1 8 1q5 245 21 372zM179 727q-29 -14 -49 -4q-8 4 -1 10q55 41 117 66q8 3 18 3q22 0 37 -15q8 -8 -4 -12q-61 -20 -118 -48z" />
    <glyph glyph-name="Ntilde" unicode="&#xd1;" horiz-adv-x="415" 
d="M335 -3q-16 97 -16 276q0 265 24 377q6 27 29 36q6 2 6 -5q-17 -118 -17 -346q0 -245 21 -379q2 -10 -8 -13.5t-19 -3.5q-18 0 -32 16q-74 87 -148 265q-69 166 -103 322q-5 -86 -5 -194q0 -263 25 -401q1 -4 -1 -6q-2 -1 -7 0q-33 4 -40 48q-16 98 -16 293q0 237 20 334
q6 29 29 39q11 5 13 -7q32 -169 99 -349q69 -187 146 -302zM303 715q-12 -30 -41 -33q-16 -2 -53.5 15t-55.5 17q-11 0 -20 -5q-5 -3 -7 -2q-1 1 0 7q8 32 41 35q17 1 56 -15.5t56 -16.5q10 0 18 4q4 -1 6 -6z" />
    <glyph glyph-name="Odieresis" unicode="&#xd6;" horiz-adv-x="527" 
d="M326 772q22 -4 22 -36q0 -7 -2 -14q-7 -19 -26 -16q-22 4 -22 27q0 13 8.5 27t19.5 12zM225 771q11 -3 18 -18.5t4 -27.5q-8 -28 -28 -22q-23 7 -23 29q0 13 9.5 27.5t19.5 11.5zM108 456q-33 -92 -36 -201q-3 -129 46.5 -211.5t135.5 -83.5q78 -1 132 78t62 200
q1 24 1 48q0 157 -57 267q-55 106 -123 100q-47 -4 -78.5 -60.5t-31.5 -127.5q0 -62 26 -109q3 -6 2 -8q-1 -3 -6 -2q-25 3 -45 30q-23 31 -28 80zM114 541q16 57 55 94q46 43 109 42q89 -2 152 -115.5t63 -276.5q0 -33 -3 -66q-13 -149 -88 -224q-58 -58 -137 -62
q-92 -4 -162 77q-77 89 -76 235q2 169 87 296z" />
    <glyph glyph-name="Udieresis" unicode="&#xdc;" horiz-adv-x="457" 
d="M338 749q22 -5 22 -36q0 -14 -8 -23.5t-21 -6.5q-22 5 -22 28q0 12 9 26t20 12zM238 748q22 -4 22 -37q0 -36 -28 -29q-23 6 -23 28q0 13 8.5 26.5t20.5 11.5zM366 147q-17 -217 -134 -217q-35 0 -75 20q-133 65 -134 262q-1 113 27 249q25 128 57 189q12 24 32 28
q6 1 7 -2q0 -2 -2 -8q-33 -80 -55 -210t-19 -228q6 -215 104 -259q17 -8 36 -8q47 0 83 48q42 57 54 166q7 62 16 228q9 137 19 198q7 42 31 51q7 2 9 0t1 -9q-24 -135 -20 -375q3 -203 23 -315q1 -5 -1 -6q-2 -2 -7 0q-34 11 -40 52t-12 146z" />
    <glyph glyph-name="aacute" unicode="&#xe1;" horiz-adv-x="235" 
d="M122 316q-22 -9 -39 0q-10 2 -1 8q37 25 63 36q29 12 46 -6q7 -8 -2 -11q-16 -5 -67 -27zM144 184q3 69 -24 76q-16 4 -40.5 -36t-33.5 -93q-4 -26 -4 -47q0 -65 29 -71q21 -4 44 42q26 51 29 129zM162 244q7 15 23 19q4 1 5.5 -0.5t0.5 -5.5q-16 -65 -16 -134
q0 -94 22 -99q11 -2 27 23q19 29 24 69q0 6 5 1q8 -8 8 -31q0 -42 -14.5 -66.5t-38.5 -24.5q-13 0 -27 8q-27 15 -36 60q-16 -74 -63 -74q-39 0 -61 34q-18 29 -18 71q0 29 8 63q15 61 44 96q26 32 55 32q34 0 52 -41z" />
    <glyph glyph-name="agrave" unicode="&#xe0;" horiz-adv-x="235" 
d="M127 313q-22 10 -66 28q-9 1 -2 9q11 13 29 13q9 0 17 -5q23 -13 62 -36q7 -5 0 -9q-17 -10 -40 0zM144 184q3 69 -24 76q-16 4 -40.5 -36t-33.5 -93q-4 -26 -4 -47q0 -65 29 -71q21 -4 44 42q26 51 29 129zM162 244q7 15 23 19q4 1 5.5 -0.5t0.5 -5.5q-16 -65 -16 -134
q0 -94 22 -99q11 -2 27 23q19 29 24 69q0 6 5 1q8 -8 8 -31q0 -42 -14.5 -66.5t-38.5 -24.5q-13 0 -27 8q-27 15 -36 60q-16 -74 -63 -74q-39 0 -61 34q-18 29 -18 71q0 29 8 63q15 61 44 96q26 32 55 32q34 0 52 -41z" />
    <glyph glyph-name="acircumflex" unicode="&#xe2;" horiz-adv-x="235" 
d="M144 184q3 69 -24 76q-16 4 -40.5 -36t-33.5 -93q-4 -26 -4 -47q0 -65 29 -71q21 -4 44 42q26 51 29 129zM162 244q7 15 23 19q4 1 5.5 -0.5t0.5 -5.5q-16 -65 -16 -134q0 -94 22 -99q11 -2 27 23q19 29 24 69q0 6 5 1q8 -8 8 -31q0 -42 -14.5 -66.5t-38.5 -24.5
q-13 0 -27 8q-27 15 -36 60q-16 -74 -63 -74q-39 0 -61 34q-18 29 -18 71q0 29 8 63q15 61 44 96q26 32 55 32q34 0 52 -41zM114 328q-46 -32 -68 -24q-8 3 -2 9q23 22 60 46q11 7 20 1q23 -16 59 -46q8 -8 -1 -10q-14 -3 -40 8q-14 6 -28 16z" />
    <glyph glyph-name="adieresis" unicode="&#xe4;" horiz-adv-x="235" 
d="M130 337q4 24 21 22q9 -1 14 -14t2 -23q-6 -19 -22 -16q-20 6 -15 31zM62 339q5 24 21 20q9 -2 13.5 -14t1.5 -23q-5 -18 -21 -15q-21 4 -15 32zM144 184q3 69 -24 76q-16 4 -40.5 -36t-33.5 -93q-4 -26 -4 -47q0 -65 29 -71q21 -4 44 42q26 51 29 129zM162 244
q7 15 23 19q4 1 5.5 -0.5t0.5 -5.5q-16 -65 -16 -134q0 -94 22 -99q11 -2 27 23q19 29 24 69q0 6 5 1q8 -8 8 -31q0 -42 -14.5 -66.5t-38.5 -24.5q-13 0 -27 8q-27 15 -36 60q-16 -74 -63 -74q-39 0 -61 34q-18 29 -18 71q0 29 8 63q15 61 44 96q26 32 55 32q34 0 52 -41z
" />
    <glyph glyph-name="atilde" unicode="&#xe3;" horiz-adv-x="235" 
d="M98 355q10 0 33.5 -10t36.5 -10q10 0 19 4q3 2 5 0t0 -6q-10 -25 -39 -26q-12 -1 -36.5 9t-37.5 10q-8 0 -15 -2q-5 -1 -6 0q-2 2 0 6q13 24 40 25zM144 184q3 69 -24 76q-16 4 -40.5 -36t-33.5 -93q-4 -26 -4 -47q0 -65 29 -71q21 -4 44 42q26 51 29 129zM162 244
q7 15 23 19q4 1 5.5 -0.5t0.5 -5.5q-16 -65 -16 -134q0 -94 22 -99q11 -2 27 23q19 29 24 69q0 6 5 1q8 -8 8 -31q0 -42 -14.5 -66.5t-38.5 -24.5q-13 0 -27 8q-27 15 -36 60q-16 -74 -63 -74q-39 0 -61 34q-18 29 -18 71q0 29 8 63q15 61 44 96q26 32 55 32q34 0 52 -41z
" />
    <glyph glyph-name="aring" unicode="&#xe5;" horiz-adv-x="235" 
d="M153 339q-3 -38 -44 -33q-38 4 -32 40q5 31 36 31q16 0 28.5 -11t11.5 -27zM131 341q0 21 -14 22q-17 2 -19 -22q-2 -22 16 -22q17 0 17 22zM144 184q3 69 -24 76q-16 4 -40.5 -36t-33.5 -93q-4 -26 -4 -47q0 -65 29 -71q21 -4 44 42q26 51 29 129zM162 244q7 15 23 19
q4 1 5.5 -0.5t0.5 -5.5q-16 -65 -16 -134q0 -94 22 -99q11 -2 27 23q19 29 24 69q0 6 5 1q8 -8 8 -31q0 -42 -14.5 -66.5t-38.5 -24.5q-13 0 -27 8q-27 15 -36 60q-16 -74 -63 -74q-39 0 -61 34q-18 29 -18 71q0 29 8 63q15 61 44 96q26 32 55 32q34 0 52 -41z" />
    <glyph glyph-name="ccedilla" unicode="&#xe7;" horiz-adv-x="188" 
d="M77 -11q-72 24 -72 129q0 14 1 29q6 69 33 111q25 38 55 38q12 0 22 -7q40 -25 40 -67q0 -26 -11.5 -42.5t-25.5 -17.5q-3 0 -6 4q10 28 10 58q0 45 -17 47t-37 -42q-21 -48 -23 -105q-3 -92 33 -110q9 -4 19 -4q28 0 58 33q27 31 39 69q4 12 8 2t-1 -36q-9 -41 -33 -67
q-27 -27 -64 -26v-6q-1 -4 -1 -6q22 0 27 -11q3 -5 3 -11q0 -20 -19 -25q-22 -6 -31 4q-6 5 1 6q27 5 24 17q-3 11 -27 2q-5 -2 -5 5v29z" />
    <glyph glyph-name="eacute" unicode="&#xe9;" horiz-adv-x="179" 
d="M93 315q-24 -10 -40 -1q-7 4 0 8q41 27 63 37q27 13 46 -5q5 -8 -3 -11q-24 -10 -66 -28zM44 102q36 8 58 51q18 35 18 75q0 31 -12 34q-16 4 -36 -33q-22 -40 -27 -93q-2 -23 -1 -34zM45 85q6 -57 31 -66q7 -3 16 -3q29 0 58.5 26.5t43.5 70.5q1 4 4 5q2 0 3 -4
q3 -13 0 -29q-8 -43 -34.5 -68.5t-62.5 -25.5q-18 0 -36 7q-25 10 -43 39q-23 35 -23 83q0 19 4 39q11 62 37 98q24 32 52 32q13 0 25 -8q34 -24 34 -69q0 -16 -4 -33q-10 -42 -40.5 -67t-64.5 -27z" />
    <glyph glyph-name="egrave" unicode="&#xe8;" horiz-adv-x="179" 
d="M42 342q-9 3 -1 11q10 10 23 10q11 0 23 -7q23 -13 62 -37q7 -5 -2 -9q-18 -9 -39 2.5t-66 29.5zM44 102q36 8 58 51q18 35 18 75q0 31 -12 34q-16 4 -36 -33q-22 -40 -27 -93q-2 -23 -1 -34zM45 85q6 -57 31 -66q7 -3 16 -3q29 0 58.5 26.5t43.5 70.5q1 4 4 5q2 0 3 -4
q3 -13 0 -29q-8 -43 -34.5 -68.5t-62.5 -25.5q-18 0 -36 7q-25 10 -43 39q-23 35 -23 83q0 19 4 39q11 62 37 98q24 32 52 32q13 0 25 -8q34 -24 34 -69q0 -16 -4 -33q-10 -42 -40.5 -67t-64.5 -27z" />
    <glyph glyph-name="ecircumflex" unicode="&#xea;" horiz-adv-x="179" 
d="M99 329q-5 -3 -14 -8.5t-14 -8.5q-22 -13 -40 -6q-8 3 -2 8q32 27 61 47q10 7 19 0q42 -29 60 -46q8 -6 -1 -8q-17 -6 -41 6q-8 5 -28 16zM44 102q36 8 58 51q18 35 18 75q0 31 -12 34q-16 4 -36 -33q-22 -40 -27 -93q-2 -23 -1 -34zM45 85q6 -57 31 -66q7 -3 16 -3
q29 0 58.5 26.5t43.5 70.5q1 4 4 5q2 0 3 -4q3 -13 0 -29q-8 -43 -34.5 -68.5t-62.5 -25.5q-18 0 -36 7q-25 10 -43 39q-23 35 -23 83q0 19 4 39q11 62 37 98q24 32 52 32q13 0 25 -8q34 -24 34 -69q0 -16 -4 -33q-10 -42 -40.5 -67t-64.5 -27z" />
    <glyph glyph-name="edieresis" unicode="&#xeb;" horiz-adv-x="179" 
d="M113 340q4 23 22 21q8 -1 13 -13.5t2 -23.5q-5 -19 -21 -15q-20 5 -16 31zM66 361q9 -1 13.5 -12.5t2.5 -24.5q-4 -23 -22 -15q-15 6 -15 23q0 10 6 20t15 9zM44 102q36 8 58 51q18 35 18 75q0 31 -12 34q-16 4 -36 -33q-22 -40 -27 -93q-2 -23 -1 -34zM45 85
q6 -57 31 -66q7 -3 16 -3q29 0 58.5 26.5t43.5 70.5q1 4 4 5q2 0 3 -4q3 -13 0 -29q-8 -43 -34.5 -68.5t-62.5 -25.5q-18 0 -36 7q-25 10 -43 39q-23 35 -23 83q0 19 4 39q11 62 37 98q24 32 52 32q13 0 25 -8q34 -24 34 -69q0 -16 -4 -33q-10 -42 -40.5 -67t-64.5 -27z" />
    <glyph glyph-name="iacute" unicode="&#xed;" horiz-adv-x="111" 
d="M47 281q-21 -12 -41 -5q-9 2 -1 9q31 25 55 40t46 0q8 -6 -2 -11q-21 -12 -57 -33zM132 114q5 -10 5 -22q1 -46 -17 -76.5t-45 -30.5q-7 0 -15 3q-53 19 -55 119q-1 71 16 124q7 22 26 26q4 0 7 -4q-13 -62 -13 -125q0 -108 24 -116q14 -5 33.5 25t27.5 76q2 10 6 1z" />
    <glyph glyph-name="igrave" unicode="&#xec;" horiz-adv-x="111" 
d="M132 114q5 -10 5 -22q1 -46 -17 -76.5t-45 -30.5q-7 0 -15 3q-53 19 -55 119q-1 71 16 124q7 22 26 26q4 0 7 -4q-13 -62 -13 -125q0 -108 24 -116q14 -5 33.5 25t27.5 76q2 10 6 1zM-25 316q-6 3 -1 11l23 4q13 2 23 -4q24 -14 54 -40q6 -5 -1 -8q-20 -8 -38.5 3.5
t-59.5 33.5z" />
    <glyph glyph-name="icircumflex" unicode="&#xee;" horiz-adv-x="111" 
d="M132 114q5 -10 5 -22q1 -46 -17 -76.5t-45 -30.5q-7 0 -15 3q-53 19 -55 119q-1 71 16 124q7 22 26 26q4 0 7 -4q-13 -62 -13 -125q0 -108 24 -116q14 -5 33.5 25t27.5 76q2 10 6 1zM46 299q-8 -4 -25 -14q-23 -13 -40 -7q-7 2 -1 8q24 24 57 45q10 6 19 0q41 -30 56 -44
q6 -5 -1 -8q-12 -5 -39 6q-12 5 -26 14z" />
    <glyph glyph-name="idieresis" unicode="&#xef;" horiz-adv-x="111" 
d="M132 114q5 -10 5 -22q1 -46 -17 -76.5t-45 -30.5q-7 0 -15 3q-53 19 -55 119q-1 71 16 124q7 22 26 26q4 0 7 -4q-13 -62 -13 -125q0 -108 24 -116q14 -5 33.5 25t27.5 76q2 10 6 1zM79 331q17 -3 17 -29q0 -29 -22 -24q-16 4 -16 21q0 10 6 21.5t15 10.5zM2 311
q4 24 21 20q8 -2 13 -14t3 -23q-4 -18 -21 -15q-21 4 -16 32z" />
    <glyph glyph-name="ntilde" unicode="&#xf1;" horiz-adv-x="218" 
d="M46 84q23 110 59 174q10 18 21 18q17 0 29 -20q9 -15 9 -45q-2 -177 27 -185q14 -4 28 23.5t15 63.5q0 9 5 3q7 -10 8 -23q2 -45 -11.5 -69t-36.5 -24q-59 0 -71 79q-6 41 -6 146q-2 14 -7 3q-50 -110 -62 -236q-1 -11 -9 -9q-31 6 -33 32q-5 51 -2 129q3 84 12 131
q5 25 26 31q5 1 7 0t1 -6q-14 -95 -9 -216zM77 367q10 0 33.5 -12t36.5 -12q8 0 16 4q4 2 6 0q1 -1 0 -5q-12 -31 -39 -32q-12 -1 -36.5 12.5t-39.5 13.5q-5 0 -11 -2q-4 -2 -6 0q-2 1 0 6q13 27 40 27z" />
    <glyph glyph-name="oacute" unicode="&#xf3;" horiz-adv-x="203" 
d="M85 308q-22 -10 -40 0q-9 2 0 8q42 28 61 36q30 12 47 -6q7 -7 -2 -10q-3 -1 -66 -28zM173 153q1 -15 1 -29q0 -61 -22 -96.5t-56 -35.5q-44 0 -70 43q-21 37 -21 84q0 44 16 89q20 54 50 70q14 7 27 -8q21 4 41 -20q21 -27 30 -72q5 3 14 11q7 7 7 -1q0 -18 -17 -35z
M100 251q-9 1 -9 -15q0 -20 12 -39q13 -23 33 -26q-9 77 -36 80zM138 140q-30 -1 -50 22q-18 20 -20 50q-21 -44 -21 -103q0 -41 14 -70q12 -22 24 -25q21 -5 37.5 32.5t15.5 93.5z" />
    <glyph glyph-name="ograve" unicode="&#xf2;" horiz-adv-x="203" 
d="M101 305q-9 4 -31.5 14.5t-32.5 15t-3 11.5q18 18 46 3q7 -3 61 -38q8 -5 -1 -9q-16 -7 -39 3zM173 153q1 -15 1 -29q0 -61 -22 -96.5t-56 -35.5q-44 0 -70 43q-21 37 -21 84q0 44 16 89q20 54 50 70q14 7 27 -8q21 4 41 -20q21 -27 30 -72q5 3 14 11q7 7 7 -1
q0 -18 -17 -35zM100 251q-9 1 -9 -15q0 -20 12 -39q13 -23 33 -26q-9 77 -36 80zM138 140q-30 -1 -50 22q-18 20 -20 50q-21 -44 -21 -103q0 -41 14 -70q12 -22 24 -25q21 -5 37.5 32.5t15.5 93.5z" />
    <glyph glyph-name="ocircumflex" unicode="&#xf4;" horiz-adv-x="203" 
d="M173 153q1 -15 1 -29q0 -61 -22 -96.5t-56 -35.5q-44 0 -70 43q-21 37 -21 84q0 44 16 89q20 54 50 70q14 7 27 -8q21 4 41 -20q21 -27 30 -72q5 3 14 11q7 7 7 -1q0 -18 -17 -35zM100 251q-9 1 -9 -15q0 -20 12 -39q13 -23 33 -26q-9 77 -36 80zM138 140q-30 -1 -50 22
q-18 20 -20 50q-21 -44 -21 -103q0 -41 14 -70q12 -22 24 -25q21 -5 37.5 32.5t15.5 93.5zM97 322q-9 -6 -24 -15q-21 -13 -40 -7q-10 2 -2 9q24 20 56 44q9 7 20 1q37 -26 57 -45q5 -5 -1 -8q-16 -7 -39 6q-8 5 -27 15z" />
    <glyph glyph-name="odieresis" unicode="&#xf6;" horiz-adv-x="203" 
d="M107 331q4 23 22 21q8 -1 13 -13.5t2 -23.5q-5 -18 -21 -15q-21 4 -16 31zM41 332q5 23 22 20q7 -1 12 -13.5t3 -23.5q-3 -18 -21 -15q-22 3 -16 32zM173 153q1 -15 1 -29q0 -61 -22 -96.5t-56 -35.5q-44 0 -70 43q-21 37 -21 84q0 44 16 89q20 54 50 70q14 7 27 -8
q21 4 41 -20q21 -27 30 -72q5 3 14 11q7 7 7 -1q0 -18 -17 -35zM100 251q-9 1 -9 -15q0 -20 12 -39q13 -23 33 -26q-9 77 -36 80zM138 140q-30 -1 -50 22q-18 20 -20 50q-21 -44 -21 -103q0 -41 14 -70q12 -22 24 -25q21 -5 37.5 32.5t15.5 93.5z" />
    <glyph glyph-name="otilde" unicode="&#xf5;" horiz-adv-x="203" 
d="M75 349q10 0 34 -12t38 -12q9 0 17 3q4 1 5 -1t-1 -5q-13 -25 -39 -24q-12 1 -37.5 12t-40.5 11q-5 0 -11 -1q-5 -1 -6 1q-2 2 1 6q15 23 40 22zM173 153q1 -15 1 -29q0 -61 -22 -96.5t-56 -35.5q-44 0 -70 43q-21 37 -21 84q0 44 16 89q20 54 50 70q14 7 27 -8
q21 4 41 -20q21 -27 30 -72q5 3 14 11q7 7 7 -1q0 -18 -17 -35zM100 251q-9 1 -9 -15q0 -20 12 -39q13 -23 33 -26q-9 77 -36 80zM138 140q-30 -1 -50 22q-18 20 -20 50q-21 -44 -21 -103q0 -41 14 -70q12 -22 24 -25q21 -5 37.5 32.5t15.5 93.5z" />
    <glyph glyph-name="uacute" unicode="&#xfa;" horiz-adv-x="221" 
d="M116 301q-23 -10 -40 -2q-8 4 0 9q39 26 60 38q11 6 22 6q14 0 24 -10q6 -7 -1 -10q-24 -12 -65 -31zM134 50q-13 -43 -41 -59q-12 -7 -26 -7q-22 0 -36 17q-27 34 -27 119q0 70 18 137q8 30 28 33q5 1 7 0q1 -1 0 -6q-13 -67 -13 -147q0 -65 11 -95q9 -25 27 -25
q28 0 39 101l14 125q5 29 31 35q5 1 7 -1q1 -1 0 -6q-11 -81 -11 -147q0 -103 28 -103q11 0 23.5 26.5t17.5 64.5q0 12 6 2q7 -12 7 -31q-1 -90 -51 -90q-41 0 -59 57z" />
    <glyph glyph-name="ugrave" unicode="&#xf9;" horiz-adv-x="221" 
d="M45 334q-9 4 -1 11q19 16 46 2q28 -15 60 -40q3 -2 2 -6q0 -3 -3 -4q-19 -7 -40 4t-64 33zM134 50q-13 -43 -41 -59q-12 -7 -26 -7q-22 0 -36 17q-27 34 -27 119q0 70 18 137q8 30 28 33q5 1 7 0q1 -1 0 -6q-13 -67 -13 -147q0 -65 11 -95q9 -25 27 -25q28 0 39 101
l14 125q5 29 31 35q5 1 7 -1q1 -1 0 -6q-11 -81 -11 -147q0 -103 28 -103q11 0 23.5 26.5t17.5 64.5q0 12 6 2q7 -12 7 -31q-1 -90 -51 -90q-41 0 -59 57z" />
    <glyph glyph-name="ucircumflex" unicode="&#xfb;" horiz-adv-x="221" 
d="M107 335l-25 -15q-21 -13 -40 -6q-9 3 -2 8q9 8 56 44q9 7 20 1q36 -26 57 -44q7 -6 -1 -9q-16 -7 -39 6q-4 3 -12.5 8t-13.5 7zM134 50q-13 -43 -41 -59q-12 -7 -26 -7q-22 0 -36 17q-27 34 -27 119q0 70 18 137q8 30 28 33q5 1 7 0q1 -1 0 -6q-13 -67 -13 -147
q0 -65 11 -95q9 -25 27 -25q28 0 39 101l14 125q5 29 31 35q5 1 7 -1q1 -1 0 -6q-11 -81 -11 -147q0 -103 28 -103q11 0 23.5 26.5t17.5 64.5q0 12 6 2q7 -12 7 -31q-1 -90 -51 -90q-41 0 -59 57z" />
    <glyph glyph-name="udieresis" unicode="&#xfc;" horiz-adv-x="221" 
d="M129 336q6 25 21 22q8 -2 13.5 -14t2.5 -23q-5 -17 -21 -15q-22 3 -16 30zM86 356q9 -1 13.5 -12.5t2.5 -22.5q-4 -18 -21 -15q-17 2 -17 21q0 9 6.5 19.5t15.5 9.5zM134 50q-13 -43 -41 -59q-12 -7 -26 -7q-22 0 -36 17q-27 34 -27 119q0 70 18 137q8 30 28 33q5 1 7 0
q1 -1 0 -6q-13 -67 -13 -147q0 -65 11 -95q9 -25 27 -25q28 0 39 101l14 125q5 29 31 35q5 1 7 -1q1 -1 0 -6q-11 -81 -11 -147q0 -103 28 -103q11 0 23.5 26.5t17.5 64.5q0 12 6 2q7 -12 7 -31q-1 -90 -51 -90q-41 0 -59 57z" />
    <glyph glyph-name="dagger" unicode="&#x2020;" horiz-adv-x="292" 
d="M165 623q59 0 108 -7q8 -1 4 -7q-13 -20 -40 -20q-49 0 -74 -2q-6 -147 -1 -252q0 -5 -3 -7q-2 -1 -6 1q-22 10 -25 42q-10 90 -8 213q-40 -2 -96 -13q-5 -1 -7 1t-1 7q10 34 40 38q27 3 65 5q2 44 5 68q6 44 44 52q4 1 5 -1t0 -8q-4 -38 -10 -110z" />
    <glyph glyph-name="degree" unicode="&#xb0;" horiz-adv-x="276" 
d="M169 667q40 -12 63 -51.5t24 -96.5q1 -65 -28.5 -102t-75.5 -37q-52 0 -83 41q-29 38 -29 93q0 54 26 101q32 55 81 55q11 0 22 -3zM217 552q-3 28 -20 58q-18 34 -37 37q-27 5 -52.5 -32.5t-28.5 -89.5q-3 -55 19 -91q19 -30 45 -32q30 -2 52.5 32.5t22.5 91.5
q0 13 -1 26z" />
    <glyph glyph-name="cent" unicode="&#xa2;" horiz-adv-x="369" 
d="M210 32q3 -45 8 -92q1 -6 -2 -8q-2 -2 -7 0q-33 11 -38 54q-2 19 -4 50q-63 14 -104 65q-47 59 -48 150q-2 118 50 210q48 87 116 106q5 50 10 73q7 31 27 39q4 1 5 0q1 -2 0 -6q-5 -30 -10 -101q66 -1 101 -58q29 -48 23 -99q-7 -66 -44 -76q-5 -1 -7 0t0 7q9 32 9 66
q0 58 -23 98t-60 39q-15 -262 -3 -490q93 14 107 168q1 13 10 4q10 -10 11 -44q2 -148 -127 -155zM165 61q-3 54 -3 124q0 189 16 354q-47 -26 -80 -97q-38 -79 -39 -178q-1 -80 28.5 -135t77.5 -68z" />
    <glyph glyph-name="sterling" unicode="&#xa3;" horiz-adv-x="360" 
d="M128 200q-59 -11 -102 -22q-6 -2 -9 0t-2 8q5 35 37 41t72 10q-5 13 -49 66q-35 42 -36 84q-1 63 41 123q47 66 111 67q68 1 103 -57q29 -48 22 -100q-9 -66 -43 -76q-5 -1 -7 0q-3 2 -2 6q9 32 9 66q0 56 -23.5 97t-58.5 40q-33 -1 -67 -54q-37 -56 -37 -117
q0 -45 26 -83q20 -29 41 -59q51 5 106 7q4 0 5 -2t-1 -6q-10 -20 -44 -27q-27 -3 -55 -6q7 -60 -39 -120q91 17 187 15q9 0 6 -9q-8 -22 -40 -25q-89 -9 -180 -32q-13 -3 -23 8q-6 6 -16 20q-6 9 26 53q38 52 42 84z" />
    <glyph glyph-name="section" unicode="&#xa7;" horiz-adv-x="416" 
d="M125 39q-23 -56 -60 -56q-20 0 -34 18q-26 35 -26 118q0 68 17 139q7 29 26 32q5 1 7 0q1 -1 0 -6q-13 -69 -13 -146q0 -65 12 -96t28 -28q28 5 38 104q4 50 14 124q8 31 30 36q8 2 8 -5q-10 -78 -10 -173q0 -37 5.5 -110.5t5.5 -110.5q0 -81 -51 -121q-23 -18 -46 -18
q-26 0 -46.5 23t-28.5 59q-4 19 -4 34q0 17 6 28q2 5 6 5q3 -1 5 -7q13 -53 35 -81t45 -28q41 0 41 83q0 21 -3 51q-5 62 -7 132zM256 236q49 -3 88 50q6 9 15 0q15 -16 15 -31q0 -7 -3 -15q-36 -79 -36 -167q0 -66 27 -66q38 0 65 100q1 11 8 2q4 -4 1 -31
q-13 -101 -66 -101q-39 0 -59 43q-16 33 -16 75q0 56 23 123q-24 -12 -55 -12h-8q-1 -19 -7 -91q-5 -60 -5 -94q0 -26 3 -46q1 -5 -2 -6q-2 -2 -7 0q-28 9 -29 52q-1 33 8 93q11 72 13 99q-31 16 -29 57q1 28 12 45q9 14 20 14q24 0 24 -93z" />
    <glyph glyph-name="bullet" unicode="&#x2022;" horiz-adv-x="172" 
d="M86 217q16 -1 28 -18t12 -38q0 -52 -43 -47q-38 4 -38 46q0 20 11.5 39t29.5 18z" />
    <glyph glyph-name="paragraph" unicode="&#xb6;" horiz-adv-x="418" 
d="M215 237q-92 9 -147 59q-53 47 -53 112q0 86 58 150q68 72 187 80q81 5 120 -15q18 -9 22 -22q1 -5 0 -6q-1 -2 -6 -1q-17 4 -46 6q-8 -123 -8 -271q0 -238 19 -369q1 -5 -1 -6t-7 0q-42 10 -47 54q-9 79 -9 220q0 208 16 374q-22 0 -32 -1q-20 -170 -20 -388
q0 -150 12 -244q1 -5 -1 -6t-7 0q-40 10 -45 54q-8 80 -5 220z" />
    <glyph glyph-name="germandbls" unicode="&#xdf;" horiz-adv-x="253" 
d="M143 253q34 6 56 -23q26 -31 27 -95q1 -101 -69 -131q-13 -5 -24 -5q-27 0 -43.5 24t-16.5 55q0 9 1 17t5 9q3 1 5 -6q11 -33 29.5 -53t36.5 -15q14 3 24 31q13 32 11 79q-4 91 -44 91q-7 0 -16 -3q-23 -8 -38 10q-8 10 1 15q70 39 85 130q5 27 5 51q0 81 -34 81
q-24 0 -47 -41q-27 -49 -37 -130q-8 -69 -8 -143q0 -115 19 -222q1 -4 -2 -6t-8 0q-30 10 -36 52q-10 72 -10 174q0 85 8 151q11 94 42 146q28 47 66 47q14 0 29 -8q57 -31 57 -113q0 -28 -7 -60q-15 -72 -67 -109z" />
    <glyph glyph-name="registered" unicode="&#xae;" horiz-adv-x="590" 
d="M314 41q-126 -11 -207 92q-72 92 -72 221q0 134 73.5 230t180.5 104q118 8 192 -87q65 -84 73 -211q8 -140 -56 -237q-66 -102 -184 -112zM290 660q-87 -7 -146.5 -97.5t-59.5 -212.5q0 -15 1 -30q9 -128 76 -196q57 -58 134 -52q96 7 154 86.5t58 206.5q0 110 -51 198
q-63 106 -166 97zM231 258q5 -78 11 -112q1 -6 -1 -7q-2 -2 -8 0q-32 10 -35 40q-13 137 5 296q3 28 24 42q3 2 6 1t3 -5q-8 -76 -6 -197q85 -5 147 32q56 34 56 78q0 53 -49 83q-43 27 -98 26q-69 -1 -127 -31q-3 -2 -5 0t-1 6q2 13 18 29t50 27.5t64 11.5q76 0 125 -44.5
t50 -108.5q1 -61 -53.5 -102t-143.5 -40q82 -74 134 -102q8 -4 0 -8q-21 -10 -48 3q-56 27 -118 82z" />
    <glyph glyph-name="copyright" unicode="&#xa9;" horiz-adv-x="590" 
d="M313 42q-126 -11 -206 92q-72 93 -72 221q0 134 73.5 229.5t182.5 103.5q118 8 191 -87q65 -84 72 -210q8 -140 -56 -237q-67 -102 -185 -112zM291 661q-87 -8 -147.5 -98.5t-60.5 -211.5q0 -15 1 -30q9 -128 76 -196q57 -58 134 -52q96 7 154.5 85.5t58.5 203.5
q0 112 -50 201q-62 108 -166 98zM412 327q11 -12 9 -42q-4 -55 -36 -93q-36 -41 -88 -41q-50 0 -87 36q-43 42 -50 118q-2 17 -2 34q0 95 45 170q43 70 96 77q43 5 74 -35q26 -35 27 -74q1 -49 -27 -61q-3 1 -6 7q2 44 -16 90q-21 53 -52 48q-32 -5 -64 -71
q-36 -76 -33 -170q2 -69 32 -109q26 -36 59 -35q38 1 68 46q28 42 39 102q2 13 12 3z" />
    <glyph glyph-name="trademark" unicode="&#x2122;" horiz-adv-x="582" 
d="M156 650q-75 -7 -131 -20q-6 -1 -8 1q-2 3 0 10q12 39 39 43q75 11 215 7l2 24q4 18 16 13q35 -14 35 -40q52 -4 75 -7q8 -1 4 -7q-15 -22 -42 -20q-15 1 -30 1q33 -155 69 -269q22 129 88 314q4 11 14 5q18 -11 27 -20t8 -27q-15 -218 5 -379q1 -6 -2 -8q-2 -2 -9 1
q-35 14 -39 50q-5 40 -5 98q0 110 14 210q-60 -200 -72 -322q-1 -9 -12 -8q-34 4 -49 44q-37 100 -67 274q-6 -251 10 -377q1 -7 -2 -9q-2 -1 -9 1q-34 12 -39 51q-15 130 6 371q-39 0 -78 -3q-16 -217 0 -372q1 -7 -1 -8t-9 1q-35 13 -38 51q-3 32 -3 77q0 132 18 249z" />
    <glyph glyph-name="acute" unicode="&#xb4;" horiz-adv-x="440" 
d="M157 181q3 74 -24 82q-17 5 -41 -34q-27 -40 -39 -96q-6 -29 -6 -54q0 -62 28 -70q23 -3 49 44q30 53 33 128zM170 250q0 1 1 4v3q3 22 23 29q7 3 7 -5q-9 -69 -9 -165q0 -40 5 -120.5t5 -120.5q0 -84 -47 -123q-25 -21 -52 -21q-29 0 -53 23t-34 60q-11 43 0 68q2 5 6 5
t6 -7q15 -56 42 -87q24 -26 49 -26q45 0 45 83q0 21 -3 50q-7 72 -7 160q-20 -75 -68 -75q-38 0 -61 35q-20 31 -20 71q0 32 11 71q19 63 46.5 96.5t54.5 33.5q32 0 53 -42zM280 236q49 -3 88 50q6 9 15 0q15 -16 15 -31q0 -7 -3 -15q-36 -79 -36 -167q0 -66 27 -66
q38 0 65 100q1 11 8 2q4 -4 1 -31q-14 -105 -66 -105q-38 0 -59 43q-16 35 -16 77q0 54 23 120q-14 -7 -55 -7h-8q-1 -19 -7 -91q-5 -60 -5 -94q0 -26 3 -46q1 -5 -2 -6q-2 -2 -7 0q-28 9 -29 52q-1 33 8 93q11 72 13 99q-31 16 -29 57q1 28 12 45q9 14 20 14q24 0 24 -93z
" />
    <glyph glyph-name="dieresis" unicode="&#xa8;" horiz-adv-x="366" 
d="M99 46q-31 10 -54 48q2 -278 46 -278q25 0 25 101q0 72 -17 129zM118 81q5 -1 9 -1q48 0 52 134q-30 16 -28 56q2 60 32 60q3 0 5 -1q17 -10 17 -92q49 -3 89 49q7 9 15 0q22 -24 12 -45q-35 -79 -35 -168q0 -66 25 -66q15 0 32 24q20 28 33 78q2 8 9 1q5 -5 1 -31
q-14 -101 -67 -101q-38 0 -58 42q-16 33 -16 76q0 55 23 123q-27 -13 -56 -13h-8q-3 -128 -47 -155q-11 -7 -24 -8q23 -67 23 -133q0 -47 -12.5 -86.5t-38.5 -39.5q-14 0 -32 12q-45 31 -60 127q-10 63 -8 181q1 84 17 206q19 142 43 198q11 26 28 29q5 1 6 0q2 -1 0 -7
q-40 -150 -52 -357q32 -9 71 -92z" />
    <glyph glyph-name="AE" unicode="&#xc6;" horiz-adv-x="693" 
d="M360 211q-125 -17 -218 -37q-48 -116 -82 -221q-3 -9 -11 -3q-21 17 -21 43q0 12 4 26q17 55 54 142q-20 -5 -59 -16q-7 -2 -9.5 0.5t-1.5 9.5q8 39 39 47q17 5 54 12q125 279 241 439q12 17 33 20q82 12 181 12q72 0 125 -7q9 -1 6 -7q-13 -22 -42 -22q-138 0 -254 -20
q-8 -154 2 -376q131 11 215 10q7 0 3 -7q-12 -22 -40 -24q-68 -4 -176 -16q6 -136 20 -237q129 33 265 30q9 0 6 -7q-11 -21 -39 -24q-108 -10 -213 -42q-19 -6 -30 0q-15 7 -22 12q-10 6 -12 20q-13 84 -18 243zM163 224q76 12 196 25q-6 216 7 369q-107 -176 -203 -394z
" />
    <glyph glyph-name="Oslash" unicode="&#xd8;" horiz-adv-x="517" 
d="M479 222q-13 -149 -88 -226q-59 -59 -136 -62q-73 -3 -135 51q-11 -26 -18 -49q-2 -7 -10 -1q-19 13 -19 39q0 14 6 31q2 9 6 15q-70 89 -69 228q2 169 88 296q17 57 55 93q45 44 107 43q73 -2 129 -79q6 9 20 27q24 25 46 22q8 -1 4 -7q-15 -23 -50 -74q67 -113 67 -281
q0 -33 -3 -66zM100 58q46 110 129 265q79 147 144 246q-53 90 -115 85q-47 -4 -78.5 -59.5t-31.5 -126.5q0 -62 26 -109q4 -6 2 -9q-1 -3 -7 -2q-25 3 -45 30q-22 31 -27 80q-33 -91 -36 -202q-3 -117 39 -198zM393 531q-163 -271 -262 -518q46 -51 112 -51q77 -1 132.5 78
t62.5 201q1 23 1 45q0 138 -46 245z" />
    <glyph glyph-name="plusminus" unicode="&#xb1;" horiz-adv-x="353" 
d="M382 81q-5 -35 -21 -61q-20 -34 -52 -34q-9 0 -18 3q-67 19 -82 163q-10 -6 -36 -12q4 -68 -18.5 -107.5t-59.5 -39.5q-44 0 -69 42q-21 35 -21 83q0 16 2 34q6 44 24 79.5t39 46.5q14 8 28 -8q22 5 44 -23.5t29 -77.5q17 1 35 12q-2 49 0 96q4 110 25 197q24 100 55 100
q12 0 25 -15q30 -37 30 -118q0 -36 -6 -72q-21 -124 -86 -187q6 -168 51 -168q20 0 41 28.5t33 73.5q2 8 6 0q5 -11 2 -35zM249 219q40 59 52 154q5 44 5 84q0 68 -11 76q-10 8 -25 -69q-16 -80 -20 -170q-1 -21 -1 -75zM100 251q-10 1 -10 -16q0 -19 12 -37q13 -21 35 -27
q-9 77 -37 80zM138 139h-1q-31 4 -49.5 24.5t-20.5 47.5q-21 -55 -21 -102q0 -41 15 -69q12 -23 25 -26q20 -5 36.5 31.5t15.5 93.5z" />
    <glyph glyph-name="yen" unicode="&#xa5;" horiz-adv-x="334" 
d="M23 341q-35 -3 -72 -9q-9 0 -6 7q7 23 30 26q17 2 53 4q10 52 18 76q7 20 22 23q3 0 5 -5q-7 -41 -13 -92q85 2 163 -9q6 0 1 -6q-9 -11 -28 -11q-97 2 -139 -1q-8 -100 -9 -153q-4 -167 30 -174q21 -8 44.5 52.5t28.5 142.5q-34 16 -32 58q1 29 11 46q9 14 20 14
q6 0 10 -6q13 -18 13 -87q47 -4 90 49q6 8 14 0q16 -16 16 -33q0 -6 -3 -12q-36 -80 -36 -168q0 -66 26 -66q14 0 31 24q20 28 33 78q1 6 5 5q2 0 4 -4q5 -13 2 -31q-14 -101 -68 -101q-38 0 -58 42q-16 32 -16 74q0 57 24 125q-27 -13 -56 -13h-8q-4 -97 -24 -155
q-22 -65 -60 -65q-7 0 -14 2q-74 21 -67 195q3 78 15 158z" />
    <glyph glyph-name="mu" unicode="&#xb5;" horiz-adv-x="427" 
d="M449 83q-4 -90 -53 -90q-8 0 -17 3q-27 10 -40 55q-13 -39 -43 -60q-11 -7 -24 -7q-23 0 -37 17q-26 33 -26 118q0 32 4 66q-15 -25 -39 -38q5 -71 -17.5 -113t-59.5 -42q-45 0 -70 43q-22 36 -22 84q0 16 2 33q5 43 24 80q19 34 40 46q14 8 27 -8q21 4 42 -21.5
t30 -71.5q38 18 56 80q9 30 28 33q5 1 7 0q1 -1 0 -6q-13 -72 -13 -150q0 -63 11 -92q9 -25 27 -25q29 0 39 101q5 55 14 125q6 29 32 35q4 1 6 -1t1 -6q-11 -84 -11 -150q0 -100 27 -100q10 0 22.5 27t17.5 64q1 10 8 2q8 -8 7 -31zM101 251q-9 1 -9 -16q0 -20 11 -38
q13 -22 34 -25q-11 76 -36 79zM138 140q-31 0 -49 21t-20 51q-18 -38 -22 -81q-5 -50 12 -86q12 -28 27 -31q21 -5 37 32t15 94z" />
    <glyph glyph-name="mu" unicode="&#x3bc;" horiz-adv-x="427" 
d="M449 83q-4 -90 -53 -90q-8 0 -17 3q-27 10 -40 55q-13 -39 -43 -60q-11 -7 -24 -7q-23 0 -37 17q-26 33 -26 118q0 32 4 66q-15 -25 -39 -38q5 -71 -17.5 -113t-59.5 -42q-45 0 -70 43q-22 36 -22 84q0 16 2 33q5 43 24 80q19 34 40 46q14 8 27 -8q21 4 42 -21.5
t30 -71.5q38 18 56 80q9 30 28 33q5 1 7 0q1 -1 0 -6q-13 -72 -13 -150q0 -63 11 -92q9 -25 27 -25q29 0 39 101q5 55 14 125q6 29 32 35q4 1 6 -1t1 -6q-11 -84 -11 -150q0 -100 27 -100q10 0 22.5 27t17.5 64q1 10 8 2q8 -8 7 -31zM101 251q-9 1 -9 -16q0 -20 11 -38
q13 -22 34 -25q-11 76 -36 79zM138 140q-31 0 -49 21t-20 51q-18 -38 -22 -81q-5 -50 12 -86q12 -28 27 -31q21 -5 37 32t15 94z" />
    <glyph glyph-name="ordfeminine" unicode="&#xaa;" horiz-adv-x="230" 
d="M44 192q57 94 57 267q0 72 -11 78q-10 5 -23.5 -62.5t-18.5 -135.5q-5 -78 -4 -147zM44 149q3 -135 16 -216q0 -4 -4 -7q-35 4 -41 53q-11 95 -11 220q0 78 5 148q5 75 22 143q22 89 51 89q12 0 25 -16q29 -36 29 -119q0 -70 -21 -144q-21 -77 -54 -121q11 -8 26 -8
q52 0 79 65q7 16 25 24q7 3 7 -5q-7 -48 -7 -107q0 -86 17 -227q3 -29 3 -50q0 -68 -45 -101q-18 -13 -38 -13q-43 0 -57 57q-8 34 3 48q7 7 9 -1q22 -69 60 -69q9 0 15 5q12 10 13 37q0 18 -5 80q-12 147 -12 206q0 38 3 66q-30 -46 -77 -46q-20 0 -36 9zM164 296
q2 31 26 33q7 2 15 -4t9 -17q3 -30 -25 -35q-13 -2 -19.5 4.5t-5.5 18.5z" />
    <glyph glyph-name="ordmasculine" unicode="&#xba;" horiz-adv-x="248" 
d="M146 347q-31 0 -89 -4q-4 -53 -9 -152q-2 -172 33 -172q33 0 52 70q-4 37 -3 94q2 74 16 164zM182 372q102 0 163 -13q5 -1 1 -6q-10 -14 -28 -12q-66 6 -139 6q-9 -95 -10 -156q-2 -160 28 -171q15 -6 34.5 19t28.5 71q1 4 5 1q7 -7 6 -25q-1 -39 -16 -65
q-17 -30 -45 -30q-50 0 -67 54q-17 -54 -55 -54q-7 0 -15 2q-40 11 -54 59q-12 40 -10 131q1 69 14 158q-15 -1 -72 -9q-9 0 -6 7q9 23 30 26q16 2 54 5q11 54 18 74.5t22 23.5q3 0 5 -5q-4 -20 -14 -92q58 2 91 2q7 43 11 54q11 37 29 41q2 0 4 -5q-8 -43 -13 -91z" />
    <glyph glyph-name="ae" unicode="&#xe6;" horiz-adv-x="317" 
d="M183 102q36 8 58 51q17 35 17 75q0 31 -11 34q-16 5 -36 -32q-22 -40 -27 -94q-2 -23 -1 -34zM148 184q2 31 -5 54q-5 20 -14 22q-16 4 -42 -35q-27 -42 -38 -94q-6 -30 -6 -54q0 -59 26 -64q22 -4 46 42q28 51 33 129zM148 64q-19 -76 -66 -76q-38 0 -60 33
q-20 29 -20 69q0 31 11 68q18 60 48 95q28 32 58 32q40 0 51 -47q28 51 64 51q13 0 25 -8q34 -23 34 -68q0 -16 -4 -34q-10 -41 -40 -66t-65 -28q5 -57 29 -66q7 -3 16 -3q29 0 59.5 26.5t43.5 70.5q1 4 4 5q2 0 3 -4q3 -12 0 -29q-8 -43 -35 -68.5t-63 -25.5q-18 0 -37 7
q-44 17 -56 66z" />
    <glyph glyph-name="oslash" unicode="&#xf8;" horiz-adv-x="203" 
d="M73 -4q-3 1 -9 4l-6 -18q-2 -7 -8 -3q-19 12 -13 35l1 4q-34 32 -34 97q0 18 3 37q6 42 26.5 78t42.5 48q14 7 28 -8q21 2 39 -15q5 8 14 23q3 5 7 -1q9 -14 0 -32q-2 -3 -6 -11q22 -38 22 -104q0 -64 -24 -101t-60 -37q-11 0 -23 4zM51 58q31 88 77 171q-14 26 -31 22
q-44 -46 -52 -118q-5 -42 6 -75zM143 157q-1 24 -5 39q-36 -77 -67 -172q7 -8 15 -10q24 -5 42.5 38t14.5 105z" />
    <glyph glyph-name="questiondown" unicode="&#xbf;" horiz-adv-x="386" 
d="M208 569q23 -9 28 -53q1 -12 1 -23q0 -59 -42 -118l-80 -102q-44 -64 -45 -134q-1 -61 25.5 -101t74.5 -42q62 -3 103 60t41 153q0 18 -2 35q-1 7 1 8t8 -2q37 -20 32 -99q-4 -64 -47 -117q-52 -65 -132 -61q-74 4 -113 56t-35 127q4 70 50 135q41 51 83 103
q44 60 44 121q0 23 -5 47q-1 5 2 7t8 0zM179 649q3 37 32 31q27 -6 27 -37q0 -13 -9 -27q-10 -17 -22 -13q-12 3 -20.5 17t-7.5 29z" />
    <glyph glyph-name="exclamdown" unicode="&#xa1;" horiz-adv-x="142" 
d="M103 531q2 -34 2 -79q0 -262 -29 -436q-5 -31 -30 -40q-5 -2 -5 5q21 174 21 433q0 93 -4 164q0 5 2 6.5t7 0.5q34 -9 36 -54zM48 665q2 38 32 31q26 -6 26 -37q0 -14 -8 -27q-10 -16 -23 -13q-12 3 -20 17t-7 29z" />
    <glyph glyph-name="logicalnot" unicode="&#xac;" horiz-adv-x="290" 
d="M225 298q4 29 27 33q19 3 22 -22q3 -31 -25 -35q-12 -1 -19 5.5t-5 18.5zM268 -78q4 -31 4 -53q0 -66 -44 -98q-18 -13 -38 -13q-44 0 -59 57q-9 32 4 48q5 7 8 -1q23 -69 61 -69q9 0 16 5q17 13 8 117q-13 154 -13 215q0 33 2 58q-15 -28 -44 -42q5 -72 -18 -113
t-60 -41q-45 0 -69 43q-21 36 -21 84q0 15 2 32q5 44 23.5 79t39.5 47q15 9 27 -7q21 4 42.5 -22.5t29.5 -72.5q37 13 59 62q8 17 25 24q3 0 6 -5q-8 -49 -8 -111q0 -82 17 -223zM99 250q-8 1 -8 -14q0 -20 11 -39q14 -23 34 -26q-9 76 -37 79zM138 139q-30 1 -49 22.5
t-21 49.5q-22 -46 -22 -108q0 -39 14 -66q12 -22 25 -24q21 -4 37.5 33t15.5 93z" />
    <glyph glyph-name="florin" unicode="&#x192;" horiz-adv-x="532" 
d="M26 291q6 30 33 30q13 0 10 -21q-4 -22 -23 -30q-10 -2 -16.5 2.5t-3.5 18.5zM370 199q-3 -92 -25 -153q-25 -70 -65 -70q-9 0 -19 4q-59 23 -59 116q0 56 25 125q-25 -12 -57 -12h-8q-3 -103 -26 -164t-60 -61q-8 0 -16 3q-55 20 -55 120q0 75 16 124q7 21 26 26
q4 1 5 0q2 -2 1 -6q-13 -61 -13 -123q0 -116 29 -116q20 0 40 49q23 59 30 154q-33 15 -31 58q1 28 12 44q8 14 19 14q24 0 24 -93q47 -3 89 50q6 8 14 0q15 -15 15 -31q0 -8 -3 -15q-36 -77 -36 -168q0 -69 28 -69q25 0 47 55q24 60 29 146q-32 16 -30 57q1 28 12 45
q10 14 20 14q15 0 19 -36q3 -20 3 -57q49 -3 88 51q7 9 15 0q22 -24 13 -45q-35 -81 -35 -165q0 -65 26 -65q14 0 32 24q20 28 32 77q3 11 9 1q5 -10 2 -30q-14 -101 -66 -101q-38 0 -58 41q-16 32 -16 74q0 53 21 120q-24 -12 -54 -12h-9z" />
    <glyph glyph-name="guillemotleft" unicode="&#xab;" horiz-adv-x="398" 
d="M219 98q-5 -79 35 -79q21 0 41 26q25 31 35 87q4 23 4 46q0 33 -7.5 55.5t-16.5 24.5q-24 5 -53 -39q-33 -50 -38 -121zM46 95q0 -80 7 -153q12 -126 41 -126q23 0 23 101q0 65 -14 119q-33 16 -57 59zM174 40q-15 -12 -34 -12q17 -58 17 -115q0 -49 -13 -91
q-11 -38 -38 -38q-14 0 -31 12q-70 48 -70 250q0 26 1 58q3 90 19 208q19 145 44 199q11 23 26 26q5 1 6 0t-1 -7q-40 -150 -52 -356q43 -18 80 -113q32 -6 48 29l7 105q8 79 16 100q7 18 23 25q6 3 7 1l-1 -6q-7 -48 -12 -128q26 100 82 100q16 0 32 -10q44 -26 44 -106
q0 -31 -8 -66q-13 -55 -41 -85.5t-60 -30.5q-33 0 -54 29q0 -179 12 -288q1 -5 -1 -6q-2 -2 -7 0q-33 10 -37 51q-9 101 -4 265z" />
    <glyph glyph-name="guillemotright" unicode="&#xbb;" horiz-adv-x="431" 
d="M398 105q-12 -55 -39.5 -85.5t-59.5 -30.5q-33 0 -54 29q-2 -174 12 -288q1 -5 -1 -6q-2 -2 -7 0q-33 10 -37 51q-6 68 -6 159q0 138 12 262q-18 -36 -46 -49q5 -71 -17.5 -113t-59.5 -42q-44 0 -69 41q-22 35 -22 82q0 18 3 37q6 44 23.5 79.5t38.5 46.5q14 8 27 -8
q22 4 43.5 -22t28.5 -71q45 19 61 106q5 28 27 37q5 2 6 1t0 -6q-7 -49 -12 -129q26 101 81 101q16 0 33 -10q43 -25 43 -99q0 -32 -9 -73zM99 251q-9 1 -9 -15q0 -19 12.5 -40t32.5 -24q-7 76 -36 79zM344 258q-23 5 -53 -39q-33 -50 -38 -121q-5 -79 35 -79q21 0 41 26
q24 31 35 87q5 28 5 53q0 67 -25 73zM138 140q-31 0 -50 21.5t-21 50.5q-21 -45 -21 -104q0 -41 15 -69q12 -22 24 -25q21 -5 37.5 32.5t15.5 93.5z" />
    <glyph glyph-name="ellipsis" unicode="&#x2026;" horiz-adv-x="341" 
d="M243 24q-1 13 7 25.5t19 14.5q13 3 22 -11.5t9 -27.5q0 -30 -26 -32q-29 -2 -31 31zM146 26q0 14 8.5 25t19.5 12q12 1 21.5 -13t9.5 -27q0 -26 -27 -28q-32 -2 -32 31zM110 21q0 -36 -31 -32q-24 3 -24 33q0 14 8.5 28t20.5 11q11 -1 18.5 -13t7.5 -27z" />
    <glyph glyph-name="uni00A0" unicode="&#xa0;" horiz-adv-x="225" 
 />
    <glyph glyph-name="Agrave" unicode="&#xc0;" horiz-adv-x="539" 
d="M406 173q-109 -2 -222 -18q-70 -128 -145 -189q-28 -23 -58 -23q-12 0 -21 4q-12 5 -1 11q89 50 172 188q-51 -9 -95 -23q-7 -2 -9 0q-2 1 -1 7q10 40 39 48q36 10 94 18q115 216 176 514q3 15 17 10q34 -13 35 -52q7 -233 57 -461q30 -2 44 -4q8 -1 4 -8
q-14 -22 -41 -22q32 -132 71 -221q4 -9 -7 -9q-34 -1 -53 43q-33 74 -56 187zM208 201q93 9 190 7q-46 241 -45 447q-42 -245 -145 -454zM346 753q-63 34 -116 52q-10 4 -2 12q15 15 34 15q10 0 20 -5q70 -34 116 -69q10 -7 -1 -10q-22 -10 -51 5z" />
    <glyph glyph-name="Atilde" unicode="&#xc3;" horiz-adv-x="539" 
d="M405 173q-113 -2 -222 -19q-68 -127 -145 -188q-29 -22 -59 -22q-11 0 -20 3q-12 5 -1 11q91 54 174 188q-54 -9 -97 -23q-5 -2 -7 -1q-2 0 -1 8q6 39 39 48q37 10 94 18q114 214 175 514q3 15 17 10q35 -14 36 -52q7 -238 56 -461q29 -2 43 -4q11 -2 5 -8
q-16 -21 -41 -22q33 -137 70 -221q4 -9 -7 -9q-33 -1 -53 43q-29 66 -56 187zM207 201q93 9 191 7q-48 238 -46 448q-42 -245 -145 -455zM446 761q-15 -27 -42 -26q-15 1 -54 22.5t-59 21.5q-8 0 -14 -2.5t-8 -1.5q-3 1 0 7q14 31 46 30q17 -1 56 -24t57 -23q6 0 12 2
q4 -1 6 -6z" />
    <glyph glyph-name="Otilde" unicode="&#xd5;" horiz-adv-x="527" 
d="M370 727q-13 -29 -39 -30q-15 -1 -54.5 17t-58.5 18q-10 0 -19 -4q-4 -2 -6 0q-2 1 0 6q10 33 42 34q17 1 56 -18.5t57 -19.5q9 0 16 3q4 2 6 0t0 -6zM107 458q-34 -96 -36 -203q-2 -130 47 -212t135 -83q78 -1 133.5 78t62.5 200q1 22 1 43q0 159 -57 271
q-55 107 -123 101q-47 -4 -78.5 -60t-31.5 -127q0 -62 26 -110q3 -6 1 -8q-1 -3 -7 -2q-25 3 -45 31q-23 31 -28 81zM114 541q16 57 55 94q45 43 109 42q89 -2 152 -115.5t63 -276.5q0 -33 -3 -66q-13 -149 -88 -224q-58 -58 -137 -62q-92 -4 -163 77q-77 90 -75 235
q3 169 87 296z" />
    <glyph glyph-name="OE" unicode="&#x152;" horiz-adv-x="835" 
d="M837 670q-15 -22 -43 -21q-160 8 -288 -13q-13 -159 -13 -379q113 17 217 13q8 0 4 -7q-10 -20 -37 -22q-98 -8 -183 -23q4 -159 12 -239q141 35 281 30q8 0 5 -7q-9 -22 -39 -24q-96 -7 -230 -42q-19 -5 -31 0q-6 2 -20 12q-9 6 -12 20q-2 32 -7 104q-62 -134 -188 -138
q-93 -3 -162 78q-77 89 -76 236q2 170 89 296q15 56 54 94q46 43 108 42q57 -1 105 -51.5t78 -134.5q4 50 12 137q-15 -3 -44 -9q-7 -1 -8 0q-1 2 0 8q8 39 39 45q77 14 196 14q106 0 176 -11q9 -2 5 -8zM446 208q-7 -2 -27 -7q-6 -1 -7 0q-2 2 -1 8q4 33 33 39q1 0 3 1h3
q7 170 -52 294q-56 117 -128 111q-47 -4 -78.5 -60t-31.5 -126q0 -62 26 -109q4 -6 2 -9q-1 -3 -7 -2q-25 3 -45 30q-22 31 -27 80q-34 -90 -37 -202q-3 -129 46 -210q50 -84 136 -84q72 0 125 68.5t67 177.5z" />
    <glyph glyph-name="oe" unicode="&#x153;" horiz-adv-x="312" 
d="M336 85q-8 -43 -34.5 -68.5t-62.5 -25.5q-18 0 -37 7q-27 11 -44 40q-23 -45 -64 -45q-44 0 -69 43q-21 37 -21 84q0 44 16 88q19 52 50 70q14 8 27 -9q37 6 61 -51q27 71 72 71q13 0 24 -8q35 -26 35 -71q0 -14 -4 -31q-10 -42 -40.5 -62t-66.5 -18q3 -69 33 -80
q7 -3 16 -3q28 0 58 26.5t44 70.5q1 4 4 5q2 0 3 -4q3 -13 0 -29zM178 136q0 -6 -2 -19q38 2 59 41q18 32 18 71q0 30 -11 33q-15 4 -36 -33q-22 -40 -28 -93zM136 104q-66 14 -81 72q-5 -15 -8 -45q-4 -51 11 -86q13 -28 26 -31q18 -4 33 21.5t19 68.5zM88 247
q-7 -8 -7 -27q0 -28 14 -56q16 -32 42 -42q0 16 -1 35q-2 34 -12.5 64t-24.5 30q-3 0 -6 -0.5t-5 -3.5z" />
    <glyph glyph-name="endash" unicode="&#x2013;" horiz-adv-x="344" 
d="M300 209q-12 -20 -40 -20q-122 -1 -231 -21q-5 -1 -7 1t-1 7q9 34 40 38q112 14 236 2q7 0 3 -7z" />
    <glyph glyph-name="emdash" unicode="&#x2014;" horiz-adv-x="401" 
d="M357 205q-11 -19 -39 -19q-189 0 -289 -17q-5 -2 -7 0q-3 2 -1 8q9 31 37 35q58 8 145 8q86 0 152 -8q7 -1 2 -7z" />
    <glyph glyph-name="quotedblleft" unicode="&#x201c;" horiz-adv-x="199" 
d="M177 456q9 -26 -2 -42q-5 -7 -10 1q-16 26 -37 84q-22 62 -22 87q0 27 19 40q10 7 12 -4q14 -88 40 -166zM129 438q15 -26 6 -42q-3 -8 -9 -1q-24 26 -55 80q-37 62 -37 89q0 19 13 32q8 8 12 -4q27 -77 70 -154z" />
    <glyph glyph-name="quotedblright" unicode="&#x201d;" horiz-adv-x="200" 
d="M33 455q24 68 44 163q2 11 12 4q18 -13 18 -40q0 -25 -25 -87q-22 -54 -40 -83q-4 -7 -9 0q-10 15 0 43zM80 435q36 62 74 152q4 10 12 2q12 -12 12 -30q0 -26 -38 -88q-33 -53 -58 -80q-6 -7 -9 1q-8 17 7 43z" />
    <glyph glyph-name="quoteleft" unicode="&#x2018;" horiz-adv-x="128" 
d="M105 458q9 -27 -1 -42q-6 -9 -33.5 56.5t-34.5 102.5q-1 7 -1 13q0 28 19 40q10 7 12 -4q17 -95 39 -166z" />
    <glyph glyph-name="quoteright" unicode="&#x2019;" horiz-adv-x="138" 
d="M35 425q30 76 53 161q3 10 11 4q17 -13 17 -38q0 -24 -29 -87q-26 -57 -45 -83q-5 -7 -10 1q-8 14 3 42z" />
    <glyph glyph-name="divide" unicode="&#xf7;" 
 />
    <glyph glyph-name="ydieresis" unicode="&#xff;" horiz-adv-x="205" 
d="M125 39q-23 -56 -60 -56q-20 0 -34 18q-26 35 -26 118q0 68 17 139q7 29 26 32q5 1 7 0q1 -1 0 -6q-13 -69 -13 -146q0 -65 12 -96t28 -28q28 5 38 104q4 50 14 124q8 31 30 36q8 2 8 -5q-10 -78 -10 -173q0 -37 5.5 -110.5t5.5 -110.5q0 -81 -51 -121q-23 -18 -46 -18
q-26 0 -46.5 23t-28.5 59q-4 19 -4 34q0 17 6 28q2 5 6 5q3 -1 5 -7q13 -53 35 -81t45 -28q41 0 41 83q0 21 -3 51q-5 62 -7 132zM127 334q5 24 18 22q8 -1 15 -12.5t6 -22.5q-3 -20 -21 -17q-23 4 -18 30zM59 332q3 22 19 20q9 -1 15.5 -11.5t4.5 -21.5q-4 -16 -19 -15
q-23 2 -20 28z" />
    <glyph glyph-name="Ydieresis" unicode="&#x178;" horiz-adv-x="436" 
d="M352 104q-26 -157 -119 -161t-149 102q-53 100 -50 247q4 185 70 322q10 22 31 24q5 1 6 -2q0 -1 -2 -7q-58 -139 -63 -328q-4 -153 41 -247q40 -81 92 -81q44 0 80 50q40 58 50 162q7 110 15 220q9 131 25 202q10 41 33 52q7 3 10 0t1 -11q-15 -52 -26 -163t-11 -209
q0 -143 26 -368q5 -40 5 -74q0 -144 -90 -202q-42 -27 -91 -27q-115 0 -174 128q-16 34 -5 57q5 10 9 -1q28 -68 81 -110t106 -42q31 0 56 15q67 42 67 173q0 34 -4 77q-8 67 -20 202zM294 715q5 33 24 29q11 -2 19.5 -16.5t6.5 -28.5q-3 -24 -25 -21q-30 4 -25 37zM188 712
q4 31 24 28q11 -2 19 -16.5t7 -28.5q-3 -24 -25 -21q-30 4 -25 38z" />
    <glyph glyph-name="currency" unicode="&#xa4;" horiz-adv-x="400" 
d="M90 318q-43 -3 -82 -10q-6 -1 -8 1q-1 2 0 7q8 34 37 37q25 2 58 4q15 83 58 140t97 61q50 3 79 -35q23 -31 23 -71q0 -55 -32 -67q-4 -1 -5 0q-2 1 -1 6q2 13 2 28q0 48 -15 80q-17 41 -51 38q-32 -3 -65 -50q-36 -53 -49 -129q86 2 169 -9q7 -2 3 -7q-12 -19 -39 -19
q-67 1 -138 -2q-1 -11 -1 -33q0 -6 1 -17v-17q76 3 126 1q7 0 4 -7q-10 -20 -37 -21q-51 -2 -88 -7q18 -86 71 -104q16 -6 32 -6q43 0 75.5 40t46.5 108q2 8 7 3q8 -8 6 -33q-15 -144 -122 -144q-23 0 -49 8q-81 25 -106 124q-60 -7 -86 -14q-7 -2 -9 0t-1 8q7 30 38 35
q12 2 52 6q-3 23 -2 50q1 24 1 17z" />
    <glyph glyph-name="guilsinglleft" unicode="&#x2039;" horiz-adv-x="393" 
d="M45 104q37 7 58 50q17 35 17 75q0 30 -10 33q-16 5 -36 -32q-22 -40 -27 -94q-2 -22 -2 -32zM231 237q47 -4 90 49q7 9 15 0q22 -24 12 -45q-35 -79 -35 -168q0 -66 25 -66q15 0 32 24q20 28 33 78q2 8 9 1q5 -5 1 -31q-14 -101 -67 -101q-38 0 -58 42q-16 33 -16 76
q0 55 23 123q-27 -13 -56 -13q-6 0 -9 1q-6 -100 -36 -158q-33 -61 -86 -61q-50 0 -79 40q-25 35 -25 88q0 20 4 43q10 62 37 98q24 32 51 32q14 0 25 -8q35 -26 35 -70q0 -15 -4 -32q-21 -89 -106 -94q6 -73 50 -73q23 0 47 23q28 25 42 68q17 53 23 110q-32 16 -30 57
q2 60 32 60q3 0 5 -1q18 -11 16 -92z" />
    <glyph glyph-name="guilsinglright" unicode="&#x203a;" horiz-adv-x="389" 
d="M409 79q-14 -101 -67 -101q-38 0 -58 42q-15 33 -15 75q0 55 22 122q-18 -9 -42 -9q-11 0 -17 1q-15 -51 -57 -65q4 -75 -18.5 -115t-61.5 -40q-45 0 -70 43q-21 35 -21 84q0 18 3 37q7 44 27 81q20 33 42 46q12 9 27 -10q22 4 43 -23.5t27 -73.5q28 10 40 43
q-28 17 -26 54q2 33 15 50q11 14 22 9q10 -4 15 -33q4 -27 0 -59q42 -4 78 49q6 9 15 0q22 -22 12 -45q-36 -84 -36 -168q0 -66 26 -66q15 0 32 24q20 28 34 78q2 7 8 1q5 -5 1 -31zM102 250q-15 -6 -3 -39q12 -34 40 -40q-4 37 -15.5 60t-21.5 19zM140 139q-31 3 -49 24.5
t-19 51.5q-21 -44 -26 -84q-2 -15 -2 -29q0 -39 14 -66q12 -23 25 -25q24 -5 40.5 32t16.5 96z" />
    <glyph glyph-name="daggerdbl" unicode="&#x2021;" horiz-adv-x="637" 
d="M476 199q-3 -92 -26 -153q-25 -69 -67 -69q-9 0 -18 3q-58 20 -58 114q0 56 24 125q-27 -14 -56 -14h-9q-7 -212 -73 -212q-43 0 -60 57q-14 -42 -40 -61q-10 -7 -24 -7q-24 0 -39 19q-26 33 -26 119q0 70 17 136q8 30 28 33q5 1 7 0q1 -1 0 -6q-13 -71 -13 -151
q0 -58 9 -86q11 -36 30 -31q29 8 38 103q2 19 14 124q3 30 32 35q4 1 6 -1t1 -6q-12 -84 -12 -152q0 -90 22 -97q20 -7 39 57q18 60 22 134q-33 14 -31 57q1 29 12 46q9 14 19 14q7 0 12 -8q11 -19 11 -85q46 -4 90 48q8 9 14 2q21 -25 12 -46q-35 -80 -35 -167
q0 -67 27 -67q23 0 46 55q24 60 29 146q-31 16 -28 56q2 32 15 49q11 14 21 9q18 -8 18 -92q49 -3 87 51q7 10 16 0q22 -24 13 -45q-35 -81 -35 -165q0 -65 26 -65q14 0 31 24q20 28 33 77q2 9 8 1q6 -9 3 -30q-14 -101 -67 -101q-38 0 -58 40q-16 32 -16 74q0 54 22 122
q-26 -13 -55 -13h-8z" />
    <glyph glyph-name="periodcentered" unicode="&#xb7;" horiz-adv-x="324" 
d="M26 291q6 24 23 29q12 3 17.5 -1.5t3.5 -17.5q-2 -21 -24 -30q-7 -3 -14 1.5t-6 18.5zM163 237q48 -3 90 49q6 8 14 0q22 -23 12 -45q-35 -80 -35 -168q0 -66 26 -66q14 0 31 24q20 28 33 78q2 9 8 1q5 -10 2 -31q-13 -101 -67 -101q-38 0 -58 42q-16 32 -16 75
q0 56 24 125q-27 -14 -56 -14h-8q-3 -101 -25.5 -161t-58.5 -60q-8 0 -17 3q-57 22 -57 119q0 76 16 125q7 21 26 25q4 0 6 -4q-12 -59 -12 -121q0 -109 23 -118q20 -8 42 41q26 57 34 158q-33 14 -31 57q1 29 11 46q9 14 20 14q6 0 10 -6q13 -18 13 -87z" />
    <glyph glyph-name="periodcentered" unicode="&#x2219;" horiz-adv-x="324" 
d="M26 291q6 24 23 29q12 3 17.5 -1.5t3.5 -17.5q-2 -21 -24 -30q-7 -3 -14 1.5t-6 18.5zM163 237q48 -3 90 49q6 8 14 0q22 -23 12 -45q-35 -80 -35 -168q0 -66 26 -66q14 0 31 24q20 28 33 78q2 9 8 1q5 -10 2 -31q-13 -101 -67 -101q-38 0 -58 42q-16 32 -16 75
q0 56 24 125q-27 -14 -56 -14h-8q-3 -101 -25.5 -161t-58.5 -60q-8 0 -17 3q-57 22 -57 119q0 76 16 125q7 21 26 25q4 0 6 -4q-12 -59 -12 -121q0 -109 23 -118q20 -8 42 41q26 57 34 158q-33 14 -31 57q1 29 11 46q9 14 20 14q6 0 10 -6q13 -18 13 -87z" />
    <glyph glyph-name="quotesinglbase" unicode="&#x201a;" horiz-adv-x="599" 
d="M43 104q36 6 58 48q18 36 18 75q0 31 -12 34q-26 7 -47 -62q-17 -56 -17 -95zM438 199q-4 -92 -26 -153q-25 -70 -65 -70q-9 0 -19 4q-59 23 -59 116q0 55 24 124q-24 -12 -56 -12h-9q-6 -101 -36 -159q-33 -62 -87 -62q-50 0 -78 40q-25 35 -25 88q0 21 4 44
q10 61 35 95t53 34q13 0 25 -8q35 -25 35 -69q0 -16 -4 -33q-23 -89 -106 -94q6 -73 50 -73q24 0 49 24t40 68q13 39 22 111q-32 17 -30 57q1 28 12 45q9 14 20 14q24 0 22 -93q47 -4 90 49q8 10 15 1q14 -17 14 -32q0 -7 -3 -14q-36 -77 -36 -168q0 -67 28 -67q24 0 46 55
q25 59 30 145q-31 16 -29 57q1 28 12 45q10 14 20 14q23 0 23 -93q46 -3 87 51q7 9 15 0q22 -24 13 -45q-35 -81 -35 -165q0 -65 26 -65q14 0 31 24q20 28 34 77q4 13 8 1q3 -9 1 -30q-12 -101 -65 -101q-8 0 -17 3q-58 20 -58 111q0 54 22 122q-26 -13 -55 -13h-8z" />
    <glyph glyph-name="quotedblbase" unicode="&#x201e;" horiz-adv-x="598" 
d="M618 77q-13 -101 -66 -101q-38 0 -58 42q-16 33 -16 75q0 54 22 122q-23 -13 -55 -13q-5 0 -9 1q-3 -93 -25 -156q-26 -70 -66 -70q-9 0 -18 3q-58 22 -58 115q0 56 23 124q-21 -10 -43 -10q-11 0 -16 1q-17 -53 -57 -67q4 -75 -18.5 -115t-61.5 -40q-45 0 -70 41
q-21 36 -21 84q0 19 3 39q16 98 69 126q13 7 27 -9q21 4 42 -23t27 -74q28 12 40 45q-28 19 -26 56q2 32 14 47t23 10q10 -4 15 -32q4 -27 0 -58q38 -6 79 48q7 9 15 0q22 -23 11 -46q-37 -81 -37 -167q0 -69 28 -69q25 0 48 56q25 62 29 148q-32 14 -29 55q4 59 31 59
q24 0 24 -92q47 -3 89 49q6 7 14 0q23 -21 12 -45q-35 -78 -35 -165q0 -66 26 -66q14 0 31 24q20 28 34 77q4 13 8 1q4 -10 1 -30zM103 249q-13 -6 -3 -39q11 -36 39 -40q-4 37 -15.5 60t-20.5 19zM141 138q-31 3 -49.5 24.5t-19.5 51.5q-27 -55 -27 -116q0 -39 14 -65
q11 -22 25 -24q23 -4 40 33t17 96z" />
    <glyph glyph-name="perthousand" unicode="&#x2030;" horiz-adv-x="446" 
d="M145 184q3 69 -24 76q-16 4 -40.5 -36t-33.5 -93q-5 -26 -5 -49q0 -66 27 -71q24 -5 47 42q25 52 29 131zM145 62q-17 -77 -62 -77q-39 0 -61 37q-19 30 -19 72q0 29 8 63q15 61 44 96q26 32 55 32q35 0 53 -41q7 16 23 19q4 1 5.5 -0.5t0.5 -5.5q-16 -67 -16 -136
q0 -91 22 -97q18 -5 36 43q22 55 28 146q-33 14 -31 57q1 29 12 46q9 14 19 14q21 0 23 -93q49 -3 89 49q7 9 15 0q22 -23 12 -45q-36 -79 -36 -169q0 -65 26 -65q15 0 32 24q20 28 33 78q1 6 5 5q2 0 4 -4q4 -11 1 -31q-14 -101 -67 -101q-38 0 -58 42q-16 33 -16 76
q0 55 23 123q-27 -13 -56 -13h-7q-6 -211 -76 -211q-8 0 -17 3q-36 14 -47 64z" />
    <glyph glyph-name="Acircumflex" unicode="&#xc2;" horiz-adv-x="539" 
d="M355 777q-22 -14 -43 -28q-28 -15 -49 -7q-10 2 -1 10q46 41 86 67q9 6 17 0q5 -4 84 -64q7 -6 -1 -10q-24 -13 -50 3q-19 11 -43 29zM405 173q-112 -2 -221 -19q-69 -127 -145 -188q-28 -23 -59 -23q-11 0 -20 4q-12 5 -2 11q94 55 174 188q-52 -9 -96 -23q-5 -2 -7 -2
q-4 0 -4 3q0 1 1 6q10 40 39 48q36 10 95 18q117 218 174 514q3 16 18 10q34 -13 35 -52q7 -238 56 -461q31 -2 45 -4q7 -1 3 -8q-13 -21 -40 -22q32 -132 71 -221q4 -9 -7 -9q-35 -1 -54 43q-30 67 -56 187zM208 201q93 9 190 7q-48 238 -46 447q-42 -243 -144 -454z" />
    <glyph glyph-name="Ecircumflex" unicode="&#xca;" horiz-adv-x="355" 
d="M207 758q-14 -10 -41 -27t-50 -9q-10 3 -1 11q30 25 86 68q8 6 16 0q30 -22 84 -62q9 -6 -1 -11q-26 -14 -50 2q-6 4 -20.5 13.5t-22.5 14.5zM61 633q-28 -6 -43 -9q-6 -1 -9 0q-2 2 -1 8q10 40 39 45q82 15 196 15q72 0 135 -6q12 -1 6 -10q-14 -20 -43 -20
q-134 0 -247 -17q-12 -166 -12 -371q102 13 208 7q7 -1 4 -7q-11 -20 -38 -21q-100 -5 -174 -17q4 -166 12 -249q119 29 251 31q5 0 6 -2t0 -5q-11 -23 -39 -26q-105 -10 -201 -40q-18 -6 -31 0q-7 4 -20 11q-9 5 -11 19q-10 90 -10 252q-11 -2 -33 -7q-6 -2 -8 0t0 7
q4 34 34 39q3 1 7 1q5 249 22 372z" />
    <glyph glyph-name="Aacute" unicode="&#xc1;" horiz-adv-x="539" 
d="M404 173q-107 -2 -221 -18q-68 -129 -145 -189q-29 -23 -59 -23q-11 0 -20 4q-13 4 -1 11q90 53 173 188q-35 -10 -102 -24q-2 1 -3 8q7 39 39 48q36 10 94 18q114 214 175 514q3 16 18 10q33 -13 34 -52q7 -233 57 -461q29 -2 43 -4q11 -2 5 -8q-16 -21 -41 -22
q33 -137 70 -221q4 -9 -7 -9q-33 -1 -53 43q-29 65 -56 187zM207 201q93 9 190 7q-46 241 -45 448q-43 -245 -145 -455zM369 754q-29 -14 -50 -4q-7 4 0 10q50 39 116 66q8 3 17 3q23 0 38 -15q8 -8 -3 -12q-53 -16 -118 -48z" />
    <glyph glyph-name="Edieresis" unicode="&#xcb;" horiz-adv-x="355" 
d="M62 633q-2 0 -44 -9q-7 -1 -8 0q-2 2 -1 8q5 39 39 45q83 15 196 15q71 0 134 -6q10 -1 5 -10q-12 -20 -41 -20q-135 0 -248 -17q-13 -185 -12 -372q96 14 208 8q7 0 3 -7q-10 -20 -37 -21q-102 -5 -174 -18q2 -145 12 -248q117 29 251 31q5 0 6 -2q2 -1 0 -5
q-9 -23 -40 -26q-105 -10 -199 -40q-18 -6 -31 0q-12 5 -21.5 11t-10.5 19q-11 95 -9 252q-18 -3 -33 -7q-7 -2 -9 0t-1 7q6 33 36 39q1 0 4 1h3q5 251 22 372zM130 758q2 13 11.5 21t16.5 6q22 -6 22 -38q0 -12 -8 -22.5t-20 -7.5q-28 7 -22 41zM258 788q22 -5 22 -38
q0 -13 -8 -23t-21 -6q-22 6 -22 29q0 13 8.5 26.5t20.5 11.5z" />
    <glyph glyph-name="Egrave" unicode="&#xc8;" horiz-adv-x="355" 
d="M62 633q-9 -1 -45 -9q-6 -1 -8 0q-1 2 0 8q8 39 39 45q82 15 195 15q71 0 135 -6q11 -1 5 -10q-13 -20 -42 -20q-141 0 -246 -17q-14 -174 -13 -371q102 13 208 7q6 -1 3 -7q-10 -20 -37 -21q-103 -6 -174 -18q2 -145 12 -248q117 29 251 31q4 0 5 -2t0 -5
q-11 -23 -39 -26q-105 -11 -200 -40q-16 -7 -31 0q-7 3 -18.5 10t-12.5 20q-11 95 -9 252q-20 -3 -34 -7q-6 -2 -8 0t-1 7q6 33 35 39q2 1 4.5 1.5t3.5 0.5q5 250 22 371zM240 729q-41 25 -115 53q-10 4 -3 11q15 15 36 15q10 0 19 -4q57 -27 114 -70q8 -6 0 -9
q-11 -6 -22 -6q-13 0 -29 10z" />
    <glyph glyph-name="Iacute" unicode="&#xcd;" horiz-adv-x="365" 
d="M188 641q-100 -10 -180 -31q-6 -2 -8 0t-1 8q8 38 36 45q60 15 161 18q8 25 29 34q4 1 5 0q2 -2 1 -6q-1 -6 -3 -27q115 3 194 -9q9 -1 4 -9q-11 -17 -40 -17q-99 2 -162 -4q-15 -171 -15 -386q0 -181 13 -288q112 3 177 -8q7 -1 3 -8q-11 -19 -39 -19q-90 1 -192 -9
q-119 -11 -190 -34q-5 -2 -7 1q-1 2 0 8q6 38 36 47q55 16 173 21q-10 10 -12 26q-8 71 -8 198q0 275 25 449zM206 736q-28 -15 -51 -3q-7 4 0 9q65 45 117 66q8 3 18 3q22 0 37 -15q7 -8 -3 -11q-60 -19 -118 -49z" />
    <glyph glyph-name="Icircumflex" unicode="&#xce;" horiz-adv-x="365" 
d="M221 762q-18 -12 -36 -25q-23 -14 -39 -14q-29 0 -17 12q35 33 85 70q12 5 18 0q19 -16 83 -63q7 -5 -1 -9q-20 -11 -49 2q-11 5 -44 27zM190 641q-97 -9 -181 -31q-6 -2 -9 1q-1 1 0 7q10 38 37 45q60 15 161 18q8 25 29 34q4 1 5 0q2 -2 1 -6q-1 -6 -3 -27
q126 2 194 -9q9 -1 4 -9q-11 -17 -41 -17q-99 1 -161 -4q-15 -170 -15 -386q0 -181 13 -288q109 3 175 -8q10 -2 5 -8q-14 -19 -39 -19q-238 4 -382 -43q-6 -2 -9 1q-1 2 0 8q10 39 38 47q55 16 173 21q-10 10 -12 26q-8 71 -8 198q0 275 25 449z" />
    <glyph glyph-name="Idieresis" unicode="&#xcf;" horiz-adv-x="365" 
d="M190 641q-97 -9 -181 -31q-6 -2 -9 1q-1 1 0 7q10 38 37 45q60 15 160 18q7 25 30 34q4 1 5 0q2 -2 1 -6q-1 -8 -4 -27q115 3 194 -9q10 -1 4 -9q-10 -17 -40 -17q-99 1 -161 -4q-15 -170 -15 -386q0 -181 13 -288q109 3 175 -8q10 -2 5 -8q-14 -19 -39 -19
q-239 4 -382 -43q-6 -2 -9 1q-1 2 0 8q10 39 38 47q55 16 173 21q-10 10 -12 26q-9 73 -9 203q0 276 26 444zM176 791q22 -6 22 -37q0 -12 -8.5 -23t-19.5 -8q-22 6 -22 29q0 12 9 27t19 12zM276 794q23 -5 23 -38q0 -7 -3 -15q-7 -17 -25 -14q-22 4 -22 29q0 12 8 26t19 12
z" />
    <glyph glyph-name="Igrave" unicode="&#xcc;" horiz-adv-x="365" 
d="M190 641q-97 -9 -181 -31q-6 -2 -9 1q-1 1 0 7q10 38 37 45q60 15 161 18q8 25 29 34q4 1 5 0q2 -2 1 -6q-1 -6 -3 -27q126 2 194 -9q9 -1 4 -9q-11 -17 -41 -17q-99 1 -161 -4q-15 -170 -15 -386q0 -181 13 -288q110 3 176 -8q8 -1 4 -8q-11 -19 -39 -19
q-238 4 -382 -43q-6 -2 -9 1q-1 2 0 8q10 39 38 47q55 16 173 21q-10 10 -12 26q-8 71 -8 198q0 275 25 449zM234 740q-60 33 -117 53q-10 4 -2 11q16 14 35 14q11 0 20 -4q54 -24 115 -69q8 -6 0 -10q-23 -11 -51 5z" />
    <glyph glyph-name="Oacute" unicode="&#xd3;" horiz-adv-x="527" 
d="M252 704q-26 -14 -51 -2q-9 4 0 10q53 36 117 66q8 4 17 4q21 0 37 -16q9 -9 -2 -12q-61 -19 -118 -50zM107 458q-34 -96 -36 -203q-2 -129 47.5 -211.5t134.5 -83.5q77 -1 132.5 78t62.5 200q1 23 1 45q0 158 -57 269q-55 107 -123 101q-47 -4 -78.5 -60.5t-31.5 -127.5
q0 -62 26 -109q3 -6 2 -8q-2 -3 -7 -2q-25 3 -45 31q-23 31 -28 81zM114 541q16 57 55 94q45 43 109 42q89 -2 151.5 -114.5t62.5 -274.5q0 -34 -3 -69q-14 -149 -88 -224q-58 -58 -136 -62q-92 -4 -163 77q-77 90 -75 235q3 169 87 296z" />
    <glyph glyph-name="Ocircumflex" unicode="&#xd4;" horiz-adv-x="527" 
d="M272 735q-14 -9 -41 -26t-50 -8q-8 3 -1 9q43 39 86 68q10 6 17 0q29 -23 83 -64q9 -7 -1 -11q-30 -14 -93 32zM107 458q-34 -96 -36 -203q-2 -129 47.5 -211.5t134.5 -83.5q77 -1 132.5 78t62.5 200q1 22 1 44q0 159 -57 270q-55 107 -123 101q-47 -4 -78.5 -60.5
t-31.5 -127.5q0 -62 26 -109q3 -6 2 -8q-2 -3 -8 -2q-25 3 -46 32.5t-26 79.5zM114 540q16 57 55 94q45 44 109 43q88 -2 151 -115t63 -275q0 -34 -3 -68q-14 -149 -88 -224q-58 -58 -136 -62q-92 -4 -163 77q-77 90 -75 235q3 171 87 295z" />
    <glyph glyph-name="Ograve" unicode="&#xd2;" horiz-adv-x="527" 
d="M304 703q-36 22 -116 53q-11 4 -2 12q16 14 35 14q10 0 19 -4q54 -25 115 -70q7 -5 0 -9q-25 -12 -51 4zM108 456q-32 -92 -35 -201q-4 -130 45.5 -212t135.5 -83q77 -1 132.5 78t62.5 200q1 22 1 43q0 159 -57 271q-55 107 -123 101q-47 -4 -78.5 -60t-31.5 -127
q0 -62 26 -110q3 -6 1 -8q-1 -3 -7 -2q-24 3 -44 30q-23 31 -28 80zM117 545q17 56 55 91q44 42 106 41q89 -2 152 -115.5t63 -276.5q0 -33 -3 -66q-13 -149 -88 -224q-57 -58 -136 -62q-92 -4 -163 77q-77 89 -76 235q2 171 90 300z" />
    <glyph glyph-name="Uacute" unicode="&#xda;" horiz-adv-x="457" 
d="M271 689q-28 -15 -51 -3q-8 3 0 9q65 45 117 66q9 3 18 3q22 0 36 -15q8 -9 -2 -12q-57 -16 -118 -48zM366 142q-19 -212 -135 -212q-34 0 -75 20q-132 64 -133 262q-1 113 27 249q25 128 57 189q12 24 32 28q6 1 7 -2q1 -2 -1 -8q-33 -78 -55 -210q-22 -128 -20 -228
q5 -215 104 -259q17 -8 36 -8q48 0 84 48q41 57 54 166q8 69 16 228q7 140 17 198q8 47 37 52q3 1 4 -2q1 -2 0 -8q-23 -149 -19 -375q3 -211 24 -315q1 -5 -1 -6q-2 -2 -8 0q-34 10 -40 52q-9 61 -12 141z" />
    <glyph glyph-name="Ucircumflex" unicode="&#xdb;" horiz-adv-x="457" 
d="M288 721q-15 -9 -42 -26t-50 -8q-9 2 -1 9q30 25 86 67q10 6 18 0q26 -21 84 -63q8 -6 -2 -11q-26 -12 -50 4q-14 9 -43 28zM366 140q-20 -209 -135 -209q-35 0 -75 19q-129 62 -133 262q-2 112 25 249q25 128 57 189q12 23 32 28q6 1 7 -1q2 -3 -1 -9
q-33 -79 -54.5 -209t-19.5 -229q5 -216 105 -259q17 -7 35 -7q48 0 84 47q41 57 53 166q7 63 16 228q8 138 18 198q7 41 32 51q7 3 9 0q2 -2 1 -9q-24 -155 -20 -375q3 -203 23 -315q1 -5 -1 -6q-2 -2 -7 0q-34 11 -40 52q-8 50 -11 139z" />
    <glyph glyph-name="Ugrave" unicode="&#xd9;" horiz-adv-x="457" 
d="M300 686q-45 25 -116 53q-9 3 -2 10q16 16 36 16q10 0 19 -5q66 -32 114 -70q7 -6 -2 -10t-19 -4q-11 0 -30 10zM366 142q-18 -212 -134 -212q-35 0 -75 20q-131 64 -134 262q-1 112 26 249q26 127 57 189q12 23 33 28q6 1 7 -1q1 -3 -2 -9q-32 -78 -54 -210
q-20 -127 -19 -228q3 -215 103 -259q17 -8 36 -8q48 0 84 48q42 57 54 166q7 66 16 228q7 139 17 198q8 49 38 52q3 0 3 -2q1 -2 0 -8q-22 -161 -19 -375q3 -211 24 -315q1 -4 -1 -6q-3 -2 -8 0q-32 10 -39 52q-10 56 -13 141z" />
    <glyph glyph-name="circumflex" unicode="&#x2c6;" horiz-adv-x="279" 
d="M141 654q-22 -13 -60 -36q-24 -13 -47 -3q-10 4 -2 9q39 24 101 76q8 8 17 0q67 -56 96 -76q8 -5 -1 -9q-21 -9 -47 4q-31 15 -57 35z" />
    <glyph glyph-name="tilde" unicode="&#x2dc;" horiz-adv-x="301" 
d="M18 299q2 29 26 33q21 4 24 -22q3 -31 -25 -35q-13 -2 -19.5 4.5t-5.5 19.5zM-73 -136q6 10 10 -1q23 -70 60 -70q9 0 15 6q12 9 13 37q0 18 -5 80q-12 148 -12 207q0 126 37 139q4 1 6 0q2 -2 1 -5q-8 -48 -8 -108q0 -75 17 -226q3 -29 3 -51q0 -68 -44 -100
q-18 -13 -38 -13q-43 0 -57 57q-8 33 2 48zM141 236q49 -3 88 50q6 9 15 0q15 -16 15 -31q0 -7 -3 -15q-36 -79 -36 -167q0 -66 27 -66q38 0 65 100q1 11 8 2q4 -4 1 -31q-13 -101 -66 -101q-39 0 -59 43q-16 33 -16 75q0 56 23 123q-24 -12 -55 -12h-8q-1 -19 -7 -91
q-5 -60 -5 -94q0 -26 3 -46q1 -5 -2 -6q-2 -2 -7 0q-28 9 -29 52q-1 33 8 93q11 72 13 99q-31 16 -29 57q1 28 12 45q9 14 20 14q24 0 24 -93z" />
    <glyph glyph-name="macron" unicode="&#xaf;" horiz-adv-x="421" 
d="M331 79q-3 20 -6 146q0 16 -6 3q-52 -120 -61 -236q-1 -12 -11 -9q-31 8 -33 32q-5 59 1 176q-15 -31 -43 -44q5 -71 -17.5 -113t-59.5 -42q-44 0 -69 41q-22 36 -22 82q0 18 3 37q6 44 23.5 79.5t38.5 46.5q14 8 27 -8q21 4 43 -22t29 -71q45 20 57 98q4 24 27 31
q7 2 7 -6q-14 -94 -9 -216q22 107 59 174q10 18 20 18q7 0 19 -8q21 -16 20 -57q-5 -176 28 -185q12 -3 26 24.5t16 62.5q0 6 5 3q6 -4 7 -23q3 -45 -11 -69t-37 -24q-58 0 -71 79zM99 251q-9 1 -9 -15q0 -19 12.5 -40t32.5 -24q-9 76 -36 79zM138 140q-31 0 -50 21.5
t-21 50.5q-18 -38 -22 -81q-5 -50 12 -86q12 -28 27 -31q22 -5 38.5 32.5t15.5 93.5z" />
    <glyph glyph-name="macron" unicode="&#x2c9;" horiz-adv-x="421" 
d="M331 79q-3 20 -6 146q0 16 -6 3q-52 -120 -61 -236q-1 -12 -11 -9q-31 8 -33 32q-5 59 1 176q-15 -31 -43 -44q5 -71 -17.5 -113t-59.5 -42q-44 0 -69 41q-22 36 -22 82q0 18 3 37q6 44 23.5 79.5t38.5 46.5q14 8 27 -8q21 4 43 -22t29 -71q45 20 57 98q4 24 27 31
q7 2 7 -6q-14 -94 -9 -216q22 107 59 174q10 18 20 18q7 0 19 -8q21 -16 20 -57q-5 -176 28 -185q12 -3 26 24.5t16 62.5q0 6 5 3q6 -4 7 -23q3 -45 -11 -69t-37 -24q-58 0 -71 79zM99 251q-9 1 -9 -15q0 -19 12.5 -40t32.5 -24q-9 76 -36 79zM138 140q-31 0 -50 21.5
t-21 50.5q-18 -38 -22 -81q-5 -50 12 -86q12 -28 27 -31q22 -5 38.5 32.5t15.5 93.5z" />
    <glyph glyph-name="cedilla" unicode="&#xb8;" horiz-adv-x="404" 
d="M377 122q-9 -70 -37 -109q-23 -32 -48 -32q-46 0 -71 76q-18 54 -14 134q-12 -27 -34 -41q1 -14 1 -27q0 -61 -22 -96t-56 -35q-44 0 -70 43q-21 37 -21 85q0 15 2 32q5 43 23.5 79t39.5 47q14 8 27 -8q21 4 42 -21t30 -70q28 20 49 84q7 21 22 31q4 3 7 1q2 -2 1 -7
q-8 -46 -8 -90q0 -78 22 -133q20 -51 42 -48q23 3 37 52t12 109q-29 34 -25 76q3 32 16 32q6 0 13 -10q23 -36 23 -110q0 -23 -3 -44zM100 251q-9 1 -9 -16q0 -20 11 -38q13 -22 34 -25q-9 76 -36 79zM138 140q-30 -1 -49 21t-21 51q-22 -45 -22 -107q0 -39 15 -66
q12 -22 24 -25q21 -5 37.5 32.5t15.5 93.5z" />
    <glyph glyph-name="Scaron" unicode="&#x160;" horiz-adv-x="395" 
d="M234 237q50 -3 90 49q7 9 15 0q22 -24 12 -45q-36 -80 -36 -168q0 -66 26 -66q14 0 31 24q20 28 33 78q2 9 8 1q6 -9 3 -31q-14 -101 -67 -101q-39 0 -59 42q-16 33 -16 76q0 56 24 124q-27 -14 -56 -14h-9q-5 -99 -37 -158q-33 -62 -87 -62q-14 0 -30 5q-74 23 -74 129
q0 13 1 27q7 69 34 109q24 38 54 38q12 0 23 -7q38 -23 39 -68q1 -27 -12 -45q-10 -14 -24 -16q-5 -1 -5 0q-1 2 0 6q9 27 9 55q0 47 -17 49t-37 -41q-20 -46 -24 -103q-2 -38 7 -69q12 -44 44 -44q25 0 50 24t41 68q12 33 21 111q-31 14 -29 56q1 29 12 46q9 14 19 14
q25 0 23 -93z" />
    <glyph glyph-name="scaron" unicode="&#x161;" horiz-adv-x="457" 
d="M297 237q51 -3 88 49q7 10 16 0q21 -23 11 -45q-36 -80 -36 -168q0 -66 26 -66q15 0 32 24q21 28 34 78q2 8 8 1q4 -6 1 -31q-13 -101 -66 -101q-38 0 -59 42q-17 33 -17 76q0 56 24 123q-26 -13 -55 -13h-8q-9 -225 -108 -225q-43 0 -74 38q-26 34 -32 81q-1 10 8 17
q40 21 63 61q20 35 20 68q0 38 -21 38q-28 0 -57 -64q-33 -71 -33 -164q0 -38 6 -77q1 -5 -1 -6.5t-7 -0.5q-34 13 -38 53q-8 75 -8 165q0 197 30 336q6 30 29 39q4 1 6 -1q1 -2 0 -5q-29 -183 -26 -378q14 78 50 116q17 18 38 18q22 0 41 -21q25 -28 25 -70q0 -84 -82 -125
q13 -92 55 -92q32 0 60.5 61t31.5 145q-34 17 -31 57q4 60 33 60q3 0 5 -1q18 -11 18 -92z" />
    <glyph glyph-name="brokenbar" unicode="&#xa6;" horiz-adv-x="429" 
d="M270 237q22 -1 47 13.5t40 35.5q7 10 16 0q21 -23 11 -45q-35 -78 -35 -167q0 -67 26 -67q15 0 32 24q20 28 33 78q2 9 8 1q4 -8 1 -31q-13 -101 -66 -101q-38 0 -58 42q-16 32 -16 75q0 56 23 124q-27 -13 -56 -13h-8q-10 -212 -74 -212q-43 0 -60 57q-14 -42 -41 -60
q-11 -7 -24 -7q-23 0 -37 17q-27 34 -27 120q0 69 17 136q8 30 29 33q4 0 6 -3q0 -1 -1 -3q-11 -68 -11 -145q0 -63 9 -92q10 -33 30 -30q27 4 37 101q11 104 14 124q5 30 31 36q5 1 7 -1q1 -1 0 -6q-10 -82 -10 -147q0 -94 22 -102q19 -7 38 58q19 62 21 133q-31 16 -29 57
q2 60 31 60q3 0 5 -1q21 -13 19 -92z" />
    <glyph glyph-name="Eth" unicode="&#xd0;" horiz-adv-x="324" 
d="M24 295q4 30 26 33q19 3 22 -21q2 -14 -6 -24t-19 -12t-18 4.5t-5 19.5zM132 114q5 -10 5 -22q1 -46 -17 -76.5t-45 -30.5q-7 0 -15 3q-53 19 -55 119q-1 71 16 124q7 22 26 26q4 0 7 -4q-13 -62 -13 -125q0 -108 24 -116q14 -5 33.5 25t27.5 76q2 10 6 1zM198 92
q28 -71 57 -77q25 -5 50 24t36 73q0 8 5 1t4 -23q-7 -100 -78 -100q-63 0 -97 57q-21 -45 -39 -104q-4 -13 -10 -2q-8 15 -1 42q12 44 35 97q-35 92 -28 188q2 27 17 36q7 4 7 -3q4 -91 29 -170q48 89 108 149q8 8 10 -4q5 -29 -20 -59q-46 -55 -85 -125z" />
    <glyph glyph-name="eth" unicode="&#xf0;" horiz-adv-x="418" 
d="M258 229q46 -3 87 51q7 9 15 0q22 -24 13 -45q-35 -81 -35 -165q0 -65 26 -65q14 0 32 24q20 28 33 77q4 13 8 1q3 -9 1 -30q-12 -101 -65 -101q-8 0 -17 3q-57 19 -57 111q0 53 21 122q-26 -13 -54 -13h-9q-4 -92 -26 -153q-25 -70 -65 -70q-9 0 -19 4q-58 23 -58 116
q0 55 23 124q-25 -12 -56 -12h-8q-1 -20 -7 -96q-5 -63 -5 -98q0 -27 3 -46q1 -5 -2 -6q-2 -2 -7 0q-27 11 -28 52q-1 33 8 98q10 78 12 104q-30 15 -27 55q4 59 30 59q24 0 24 -92q50 -3 88 49q7 9 16 0q22 -22 11 -45q-36 -79 -36 -169q0 -66 28 -66q24 0 47 54
q24 60 29 146q-31 16 -29 56q1 28 12 45q10 14 20 14q23 0 23 -93z" />
    <glyph glyph-name="Yacute" unicode="&#xdd;" horiz-adv-x="434" 
d="M134 50q-13 -43 -41 -59q-12 -7 -26 -7q-22 0 -36 17q-27 34 -27 119q0 70 18 137q8 30 28 33q5 1 7 0q1 -1 0 -6q-13 -67 -13 -147q0 -65 11 -95q9 -25 27 -25q28 0 39 101l14 125q5 29 31 35q5 1 7 -1q1 -1 0 -6q-11 -81 -11 -147q0 -103 28 -103q11 0 23.5 26.5
t17.5 64.5q0 12 6 2q7 -12 7 -31q-1 -90 -51 -90q-41 0 -59 57zM308 92q28 -71 57 -77q25 -5 50 24t36 73q0 8 5 1t4 -23q-7 -100 -78 -100q-63 0 -97 57q-21 -45 -39 -104q-4 -13 -10 -2q-8 15 -1 42q12 44 35 97q-35 92 -28 188q2 27 17 36q7 4 7 -3q4 -91 29 -170
q48 89 108 149q8 8 10 -4q5 -29 -20 -59q-46 -55 -85 -125z" />
    <glyph glyph-name="yacute" unicode="&#xfd;" horiz-adv-x="395" 
d="M31 88q16 -34 41 -54q22 -18 41 -18q21 0 21 23q0 20 -27 83t-27 100q0 12 2 22q-22 -35 -51 -156zM16 55q-2 -5 -8 -11q-5 -4 -7 1q-2 7 6 35q0 2 -5 21q-8 32 5 46q6 6 10 -21q26 135 72 178q9 9 19 9q12 0 23 -12q6 -7 -2 -13q-14 -12 -14 -39q0 -42 31 -112
q20 -47 20 -79q0 -33 -21 -52.5t-47 -19.5q-51 0 -82 69zM235 236q49 -3 88 50q6 9 15 0q15 -16 15 -31q0 -7 -3 -15q-36 -79 -36 -167q0 -66 27 -66q38 0 65 100q1 11 8 2q4 -4 1 -31q-13 -101 -66 -101q-39 0 -59 43q-16 33 -16 75q0 56 23 123q-24 -12 -55 -12h-8
q-1 -19 -7 -91q-5 -60 -5 -94q0 -26 3 -46q1 -5 -2 -6q-2 -2 -7 0q-28 9 -29 52q-1 33 8 93q11 72 13 99q-31 16 -29 57q1 28 12 45q9 14 20 14q24 0 24 -93z" />
    <glyph glyph-name="Thorn" unicode="&#xde;" horiz-adv-x="330" 
d="M155 178q3 74 -23 83q-17 6 -43 -33.5t-38 -95.5q-6 -27 -6 -51q0 -32 9.5 -51.5t19.5 -21.5q23 -5 49 43q29 53 32 127zM197 -173q16 -10 32 -10q15 0 26 8.5t11 41.5q0 16 -5 76q-10 119 -10 176q0 66 10 106q7 29 28 35q4 -1 7 -5q-9 -53 -9 -113q0 -66 15 -196
q3 -28 3 -49q0 -60 -37 -94q-22 -20 -50 -20q-17 0 -33 7q-29 -61 -83 -61q-29 0 -53 23t-34 60q-12 44 1 69q7 13 11 -3q15 -56 42 -87q24 -26 49 -26q31 0 41 42q-19 18 -30 40q-19 40 -13 67q1 7 5 6q4 0 7 -6q17 -36 35 -57q0 7 -3 42q-7 82 -7 163q-19 -79 -69 -79
q-38 0 -60 35q-19 29 -19 70q0 33 11 72q18 62 47 97q26 32 54 32t51 -38q1 6 1 5q4 22 25 27q4 1 5.5 -0.5t0.5 -4.5q-9 -69 -9 -164q0 -94 9 -215q3 -41 -3 -72zM260 296q2 31 27 33q8 2 15.5 -4t8.5 -17q2 -31 -26 -35q-11 -2 -18.5 4.5t-6.5 18.5z" />
    <glyph glyph-name="minus" unicode="&#xad;" horiz-adv-x="538" 
d="M568 91q0 -52 -18 -78q-15 -20 -35 -18q-36 3 -56 33q-23 35 -23 116q0 17 1 52t1 51q0 13 -5 1q-42 -102 -46 -234q0 -9 -9 -8q-36 4 -39 40q-3 68 -11 176q-3 21 -10 5q-50 -112 -56 -231q0 -10 -11 -7q-31 8 -34 28q-8 57 0 175q-16 -33 -45 -45q1 -15 1 -28
q0 -59 -21.5 -93t-55.5 -34q-44 0 -70 43q-21 36 -21 83q0 16 2 34q6 44 24 79.5t40 46.5q13 7 27 -8q21 4 42 -22t29 -71q47 21 58 105q5 24 28 34q4 2 6 0t1 -6q-12 -81 -12 -213q21 102 63 168q12 19 23 19q7 0 16 -9q17 -18 21 -61q1 -11 1 -85q17 94 52 157
q10 19 22 19q9 0 19 -12q21 -24 18 -66q-5 -69 -5 -106q0 -90 24 -99q16 -6 31.5 24.5t18.5 70.5q1 8 7 2q7 -7 7 -28zM100 251q-8 1 -8 -16q0 -19 11 -38q13 -22 33 -25q-9 76 -36 79zM138 140q-30 0 -49 21t-22 51q-21 -49 -21 -103q0 -41 15 -69q12 -23 24 -26
q21 -5 37.5 32.5t15.5 93.5z" />
    <glyph glyph-name="minus" unicode="&#x2212;" horiz-adv-x="538" 
d="M568 91q0 -52 -18 -78q-15 -20 -35 -18q-36 3 -56 33q-23 35 -23 116q0 17 1 52t1 51q0 13 -5 1q-42 -102 -46 -234q0 -9 -9 -8q-36 4 -39 40q-3 68 -11 176q-3 21 -10 5q-50 -112 -56 -231q0 -10 -11 -7q-31 8 -34 28q-8 57 0 175q-16 -33 -45 -45q1 -15 1 -28
q0 -59 -21.5 -93t-55.5 -34q-44 0 -70 43q-21 36 -21 83q0 16 2 34q6 44 24 79.5t40 46.5q13 7 27 -8q21 4 42 -22t29 -71q47 21 58 105q5 24 28 34q4 2 6 0t1 -6q-12 -81 -12 -213q21 102 63 168q12 19 23 19q7 0 16 -9q17 -18 21 -61q1 -11 1 -85q17 94 52 157
q10 19 22 19q9 0 19 -12q21 -24 18 -66q-5 -69 -5 -106q0 -90 24 -99q16 -6 31.5 24.5t18.5 70.5q1 8 7 2q7 -7 7 -28zM100 251q-8 1 -8 -16q0 -19 11 -38q13 -22 33 -25q-9 76 -36 79zM138 140q-30 0 -49 21t-22 51q-21 -49 -21 -103q0 -41 15 -69q12 -23 24 -26
q21 -5 37.5 32.5t15.5 93.5z" />
    <glyph glyph-name="multiply" unicode="&#xd7;" horiz-adv-x="401" 
d="M427 90q-7 -100 -79 -100q-40 0 -70 27q-15 12 -25 31q-25 -52 -40 -105q-3 -11 -10 -2q-10 12 -2 42q13 49 35 98q-19 49 -26 121q-11 -34 -37 -51q1 -14 1 -26q0 -62 -22 -97.5t-56 -35.5q-44 0 -69 43q-22 37 -22 84q0 16 2 33q5 43 23.5 79t40.5 47q14 7 27 -8
q21 4 41.5 -21t29.5 -70q33 24 39 89q2 27 16 36q9 6 9 -3q3 -84 28 -170q51 93 109 149q8 7 9 -4q4 -31 -19 -59q-47 -56 -86 -126q30 -71 58 -76q25 -4 50 24.5t35 72.5q2 7 6 1q5 -7 4 -23zM99 251q-8 0 -8 -16q0 -17 10 -36t26 -24l9 -3q-9 79 -37 79zM138 140
q-29 0 -48.5 21.5t-21.5 50.5q-22 -46 -22 -103q0 -41 15 -69q12 -23 24 -26q21 -5 37.5 32.5t15.5 93.5z" />
    <glyph glyph-name="uni00B9" unicode="&#xb9;" horiz-adv-x="530" 
d="M430 -15q-11 -4 -22 -4q-46 0 -64 67q-20 -56 -62 -59q-47 -4 -69 71q-14 46 -4 123q-16 -24 -37 -34q1 -14 1 -27q0 -60 -21.5 -95t-55.5 -35q-44 0 -70 43q-21 36 -21 83q0 16 2 34q6 44 24 79t40 47q13 7 27 -8q21 4 42 -21.5t29 -70.5q27 13 46 55q18 39 34 45
q4 1 6 0q1 -2 0 -7q-14 -56 -14 -112q0 -61 15 -102.5t33 -38.5q44 7 44 209q0 33 31 44q6 2 9 0q2 -2 1 -7q-5 -43 -5 -86q0 -74 14.5 -123.5t38.5 -47.5q22 2 35 40t13 96q0 72 -19 140q-2 6 0 8q2 1 7 -1q14 -6 21 -27q23 -68 23 -131q0 -120 -72 -147zM100 251
q-9 1 -9 -16q0 -20 11 -38q13 -23 33 -25q-7 76 -35 79zM138 140q-31 -1 -50 22q-18 20 -21 50q-21 -55 -21 -103q0 -41 15 -69q12 -23 25 -26q20 -5 36.5 32.5t15.5 93.5z" />
    <glyph glyph-name="uni00B2" unicode="&#xb2;" horiz-adv-x="321" 
d="M234 295q1 11 8.5 21.5t17.5 11.5q18 2 22 -22q5 -30 -25 -36q-11 -2 -17.5 4.5t-5.5 20.5zM342 113q5 -7 5 -22q1 -46 -17 -76.5t-45 -30.5q-7 0 -15 3q-54 19 -55 119q0 39 6 78q-20 -28 -47 -39q5 -71 -18 -113t-60 -42q-44 0 -70 43q-21 37 -21 84q0 16 2 33
q6 44 24.5 79.5t39.5 46.5q14 7 27 -7q21 4 42.5 -23t29.5 -73q39 13 60 59q10 21 27 25q4 0 7 -4q-13 -61 -13 -125q0 -109 24 -117q15 -5 34 24.5t27 76.5q1 8 6 1zM100 249q-8 0 -8 -16q0 -19 11 -38q13 -22 34 -25q-11 78 -37 79zM138 138q-5 0 -7 1q-25 3 -43 23
t-21 48q-21 -55 -21 -103q0 -42 14 -70q12 -22 26 -25q21 -4 37 32.5t15 93.5z" />
    <glyph glyph-name="uni00B3" unicode="&#xb3;" horiz-adv-x="408" 
d="M378 153q1 -15 1 -28q0 -62 -22 -97.5t-56 -35.5q-44 0 -70 43q-21 36 -21 83q0 39 11 72q-21 -28 -49 -40q1 -15 1 -29q0 -60 -21.5 -94.5t-55.5 -34.5q-44 0 -70 43q-21 36 -21 83q0 16 2 34q6 44 24 79.5t40 46.5q13 7 27 -8q21 4 42 -22t29 -71q37 14 81 77
q13 19 25 24q16 7 28 -8q21 4 41 -20q21 -27 30 -72q5 3 14 11q7 7 7 -1q0 -18 -17 -35zM306 251q-9 1 -9 -16q0 -20 11 -39q13 -22 33 -25q-9 77 -35 80zM100 250q-7 1 -8 -11q-1 -9 2 -22q10 -39 42 -45q-9 76 -36 78zM343 140q-30 -1 -49 21t-22 51q-21 -49 -21 -103
q0 -41 15 -69q12 -23 24 -26q21 -5 37.5 32.5t15.5 93.5zM138 140q-30 -1 -49.5 20t-21.5 52q-21 -49 -21 -103q0 -41 15 -69q12 -23 24 -26q21 -5 37.5 32.5t15.5 93.5z" />
    <glyph glyph-name="onehalf" unicode="&#xbd;" horiz-adv-x="449" 
d="M144 184q3 69 -24 76q-16 4 -40.5 -36t-33.5 -93q-4 -26 -4 -47q0 -65 29 -71q21 -4 44 42q26 51 29 129zM162 244q7 15 23 19q4 1 5.5 -0.5t0.5 -5.5q-16 -65 -16 -134q0 -94 22 -99q11 -3 28 24t23 68q0 6 5 1q8 -8 8 -31q0 -42 -14.5 -66.5t-38.5 -24.5q-13 0 -27 8
q-27 15 -36 60q-16 -74 -63 -74q-39 0 -61 34q-18 29 -18 71q0 29 8 63q15 61 44 96q26 32 55 32q34 0 52 -41zM323 92q28 -71 57 -77q25 -5 50 24t36 73q0 8 5 1t4 -23q-7 -100 -78 -100q-63 0 -97 57q-21 -45 -39 -104q-4 -13 -10 -2q-8 15 -1 42q12 44 35 97
q-35 92 -28 188q2 27 17 36q7 4 7 -3q4 -91 29 -170q48 89 108 149q8 8 10 -4q5 -29 -20 -59q-46 -55 -85 -125z" />
    <glyph glyph-name="onequarter" unicode="&#xbc;" horiz-adv-x="398" 
d="M327 -242q-23 -18 -46 -18q-27 0 -48 23t-28 59q-2 12 -3 22q-2 27 6 40q6 10 9 -2q13 -53 37 -82q21 -27 44 -27q40 0 40 79q0 23 -3 55q-5 54 -7 125q-22 -50 -57 -50q-20 0 -35 19q-27 36 -27 119q0 32 4 66q-15 -25 -41 -39q1 -15 1 -28q0 -59 -21.5 -93t-54.5 -34
q-44 0 -70 42q-22 36 -22 83q0 17 2 35q6 44 24 79.5t40 46.5q13 7 27 -8q21 4 42 -22t29 -71q42 19 55 80q6 30 28 33q5 1 7 0q1 -1 0 -6q-13 -72 -13 -146q0 -66 13 -96t28 -27q27 5 36 103q9 95 15 125t30 35q7 2 7 -5q-9 -73 -9 -165q0 -38 5 -114.5t5 -115.5
q0 -82 -49 -120zM100 251q-9 1 -9 -16q0 -19 11 -38q14 -22 34 -25q-9 76 -36 79zM138 140q-31 0 -50 21t-21 51q-21 -49 -21 -103q0 -41 15 -69q12 -23 24 -26q21 -5 37.5 32.5t15.5 93.5z" />
    <glyph glyph-name="threequarters" unicode="&#xbe;" horiz-adv-x="392" 
d="M44 102q36 8 58 51q18 35 18 75q0 31 -12 34q-16 4 -36 -33q-22 -40 -27 -93q-2 -23 -1 -34zM45 85q6 -57 31 -66q7 -3 16 -3q29 0 58.5 26.5t43.5 70.5q1 4 4 5q2 0 3 -4q3 -13 0 -29q-8 -43 -34.5 -68.5t-62.5 -25.5q-18 0 -36 7q-25 10 -43 39q-23 35 -23 83
q0 19 4 39q11 62 37 98q24 32 52 32q13 0 25 -8q34 -24 34 -69q0 -16 -4 -33q-10 -42 -40.5 -67t-64.5 -27zM266 92q28 -71 57 -77q25 -5 50 24t36 73q0 8 5 1t4 -23q-7 -100 -78 -100q-63 0 -97 57q-21 -45 -39 -104q-4 -13 -10 -2q-8 15 -1 42q12 44 35 97q-35 92 -28 188
q2 27 17 36q7 4 7 -3q4 -91 29 -170q48 89 108 149q8 8 10 -4q5 -29 -20 -59q-46 -55 -85 -125z" />
    <glyph glyph-name="glyph217" 
 />
    <glyph glyph-name="glyph218" 
 />
    <glyph glyph-name="glyph219" 
 />
    <glyph glyph-name="glyph220" 
 />
    <glyph glyph-name="glyph221" 
 />
    <glyph glyph-name="glyph222" 
 />
    <glyph glyph-name="glyph223" 
 />
    <glyph glyph-name="glyph224" 
 />
    <glyph glyph-name="glyph225" 
 />
    <glyph glyph-name="glyph226" 
 />
    <glyph glyph-name="glyph227" 
 />
    <glyph glyph-name="glyph228" 
 />
    <glyph glyph-name="glyph229" 
 />
    <glyph glyph-name="glyph230" 
 />
    <glyph glyph-name="glyph231" 
 />
    <glyph glyph-name="glyph232" 
 />
    <glyph glyph-name="glyph233" 
 />
    <glyph glyph-name="glyph234" 
 />
    <glyph glyph-name="glyph235" 
 />
    <glyph glyph-name="glyph236" 
 />
    <glyph glyph-name="glyph237" 
 />
    <glyph glyph-name="glyph238" 
 />
    <glyph glyph-name="glyph239" 
 />
    <glyph glyph-name="glyph240" 
 />
    <glyph glyph-name="approxequal" unicode="&#x2248;" horiz-adv-x="230" 
d="M44 192q57 94 57 267q0 72 -11 78q-10 5 -23.5 -62.5t-18.5 -135.5q-5 -78 -4 -147zM44 149q3 -135 16 -216q0 -4 -4 -7q-35 4 -41 53q-11 95 -11 220q0 78 5 148q5 75 22 143q22 89 51 89q12 0 25 -16q29 -36 29 -119q0 -70 -21 -144q-21 -77 -54 -121q11 -8 26 -8
q52 0 79 65q7 16 25 24q7 3 7 -5q-7 -48 -7 -107q0 -86 17 -227q3 -29 3 -50q0 -68 -45 -101q-18 -13 -38 -13q-43 0 -57 57q-8 34 3 48q7 7 9 -1q22 -69 60 -69q9 0 15 5q12 10 13 37q0 18 -5 80q-12 147 -12 206q0 38 3 66q-30 -46 -77 -46q-20 0 -36 9zM164 296
q2 31 26 33q7 2 15 -4t9 -17q3 -30 -25 -35q-13 -2 -19.5 4.5t-5.5 18.5z" />
    <glyph glyph-name="approxequal" unicode="&#x22f2;" horiz-adv-x="230" 
d="M44 192q57 94 57 267q0 72 -11 78q-10 5 -23.5 -62.5t-18.5 -135.5q-5 -78 -4 -147zM44 149q3 -135 16 -216q0 -4 -4 -7q-35 4 -41 53q-11 95 -11 220q0 78 5 148q5 75 22 143q22 89 51 89q12 0 25 -16q29 -36 29 -119q0 -70 -21 -144q-21 -77 -54 -121q11 -8 26 -8
q52 0 79 65q7 16 25 24q7 3 7 -5q-7 -48 -7 -107q0 -86 17 -227q3 -29 3 -50q0 -68 -45 -101q-18 -13 -38 -13q-43 0 -57 57q-8 34 3 48q7 7 9 -1q22 -69 60 -69q9 0 15 5q12 10 13 37q0 18 -5 80q-12 147 -12 206q0 38 3 66q-30 -46 -77 -46q-20 0 -36 9zM164 296
q2 31 26 33q7 2 15 -4t9 -17q3 -30 -25 -35q-13 -2 -19.5 4.5t-5.5 18.5z" />
    <glyph glyph-name="dotlessi" unicode="&#x131;" horiz-adv-x="111" 
d="M132 114q5 -10 5 -22q1 -46 -17 -76.5t-45 -30.5q-7 0 -15 3q-53 19 -55 119q-1 71 16 124q7 22 26 26q4 0 7 -4q-13 -62 -13 -125q0 -108 24 -116q14 -5 33.5 25t27.5 76q2 10 6 1z" />
    <glyph glyph-name="breve" unicode="&#x2d8;" horiz-adv-x="279" 
d="M141 654q-22 -13 -60 -36q-24 -13 -47 -3q-10 4 -2 9q39 24 101 76q8 8 17 0q67 -56 96 -76q8 -5 -1 -9q-21 -9 -47 4q-31 15 -57 35z" />
    <glyph glyph-name="ring" unicode="&#x2da;" horiz-adv-x="135" 
d="M77 761q39 -7 38 -47q-2 -47 -54 -44q-18 1 -31.5 15.5t-9.5 36.5q3 19 19.5 31t37.5 8zM91 716q0 27 -19 30q-11 2 -19.5 -7.5t-9.5 -22.5q-2 -30 22 -30q26 0 26 30z" />
    <glyph glyph-name="uni20B6" unicode="&#x20b6;" horiz-adv-x="654" 
d="M295 688q193 0 292 -123q43 -57 43 -128v-1q0 -134 -150 -198q-81 -33 -194 -33q-8 0 -21 5v0q0 -22 2 -79q29 1 54 1h20q72 0 153 -8q4 -2 4 -5q0 -10 -42 -21q-16 -3 -41 -3h-25q-54 0 -121 -4q0 -33 14 -144q1 0 1 -4q0 -2 -3 -5h-1q-29 0 -44 29q-5 7 -10 55
q-3 55 -3 66h-1q-59 -7 -62 -7q-5 0 -7 4v2q0 9 14 23q11 11 42 17q4 0 12 1q-1 27 -1 42v48q0 232 29 362q8 23 25 31l6 1q3 0 3 -2q-19 -121 -19 -346q0 -3 1 -22q10 -1 12 -1q207 0 295 104q29 39 29 84q0 117 -149 184q-70 28 -146 28h-18q-111 0 -189 -56
q-46 -37 -46 -85q0 -64 83 -103q18 -8 56 -16q4 -3 4 -4q-11 -14 -39 -14q-37 0 -76 19q-60 36 -60 104q0 45 27 91q41 65 139 97q51 14 108 14z" />
    <glyph glyph-name="uni20B6" unicode="&#x20cf;" horiz-adv-x="654" 
d="M295 688q193 0 292 -123q43 -57 43 -128v-1q0 -134 -150 -198q-81 -33 -194 -33q-8 0 -21 5v0q0 -22 2 -79q29 1 54 1h20q72 0 153 -8q4 -2 4 -5q0 -10 -42 -21q-16 -3 -41 -3h-25q-54 0 -121 -4q0 -33 14 -144q1 0 1 -4q0 -2 -3 -5h-1q-29 0 -44 29q-5 7 -10 55
q-3 55 -3 66h-1q-59 -7 -62 -7q-5 0 -7 4v2q0 9 14 23q11 11 42 17q4 0 12 1q-1 27 -1 42v48q0 232 29 362q8 23 25 31l6 1q3 0 3 -2q-19 -121 -19 -346q0 -3 1 -22q10 -1 12 -1q207 0 295 104q29 39 29 84q0 117 -149 184q-70 28 -146 28h-18q-111 0 -189 -56
q-46 -37 -46 -85q0 -64 83 -103q18 -8 56 -16q4 -3 4 -4q-11 -14 -39 -14q-37 0 -76 19q-60 36 -60 104q0 45 27 91q41 65 139 97q51 14 108 14z" />
    <glyph glyph-name="uni20B6" unicode="&#x20ce;" horiz-adv-x="654" 
d="M295 688q193 0 292 -123q43 -57 43 -128v-1q0 -134 -150 -198q-81 -33 -194 -33q-8 0 -21 5v0q0 -22 2 -79q29 1 54 1h20q72 0 153 -8q4 -2 4 -5q0 -10 -42 -21q-16 -3 -41 -3h-25q-54 0 -121 -4q0 -33 14 -144q1 0 1 -4q0 -2 -3 -5h-1q-29 0 -44 29q-5 7 -10 55
q-3 55 -3 66h-1q-59 -7 -62 -7q-5 0 -7 4v2q0 9 14 23q11 11 42 17q4 0 12 1q-1 27 -1 42v48q0 232 29 362q8 23 25 31l6 1q3 0 3 -2q-19 -121 -19 -346q0 -3 1 -22q10 -1 12 -1q207 0 295 104q29 39 29 84q0 117 -149 184q-70 28 -146 28h-18q-111 0 -189 -56
q-46 -37 -46 -85q0 -64 83 -103q18 -8 56 -16q4 -3 4 -4q-11 -14 -39 -14q-37 0 -76 19q-60 36 -60 104q0 45 27 91q41 65 139 97q51 14 108 14z" />
    <glyph glyph-name="uni20B6" unicode="&#x20cd;" horiz-adv-x="654" 
d="M295 688q193 0 292 -123q43 -57 43 -128v-1q0 -134 -150 -198q-81 -33 -194 -33q-8 0 -21 5v0q0 -22 2 -79q29 1 54 1h20q72 0 153 -8q4 -2 4 -5q0 -10 -42 -21q-16 -3 -41 -3h-25q-54 0 -121 -4q0 -33 14 -144q1 0 1 -4q0 -2 -3 -5h-1q-29 0 -44 29q-5 7 -10 55
q-3 55 -3 66h-1q-59 -7 -62 -7q-5 0 -7 4v2q0 9 14 23q11 11 42 17q4 0 12 1q-1 27 -1 42v48q0 232 29 362q8 23 25 31l6 1q3 0 3 -2q-19 -121 -19 -346q0 -3 1 -22q10 -1 12 -1q207 0 295 104q29 39 29 84q0 117 -149 184q-70 28 -146 28h-18q-111 0 -189 -56
q-46 -37 -46 -85q0 -64 83 -103q18 -8 56 -16q4 -3 4 -4q-11 -14 -39 -14q-37 0 -76 19q-60 36 -60 104q0 45 27 91q41 65 139 97q51 14 108 14z" />
    <glyph glyph-name="uni20B6" unicode="&#x20cc;" horiz-adv-x="654" 
d="M295 688q193 0 292 -123q43 -57 43 -128v-1q0 -134 -150 -198q-81 -33 -194 -33q-8 0 -21 5v0q0 -22 2 -79q29 1 54 1h20q72 0 153 -8q4 -2 4 -5q0 -10 -42 -21q-16 -3 -41 -3h-25q-54 0 -121 -4q0 -33 14 -144q1 0 1 -4q0 -2 -3 -5h-1q-29 0 -44 29q-5 7 -10 55
q-3 55 -3 66h-1q-59 -7 -62 -7q-5 0 -7 4v2q0 9 14 23q11 11 42 17q4 0 12 1q-1 27 -1 42v48q0 232 29 362q8 23 25 31l6 1q3 0 3 -2q-19 -121 -19 -346q0 -3 1 -22q10 -1 12 -1q207 0 295 104q29 39 29 84q0 117 -149 184q-70 28 -146 28h-18q-111 0 -189 -56
q-46 -37 -46 -85q0 -64 83 -103q18 -8 56 -16q4 -3 4 -4q-11 -14 -39 -14q-37 0 -76 19q-60 36 -60 104q0 45 27 91q41 65 139 97q51 14 108 14z" />
    <glyph glyph-name="uni20B6" unicode="&#x20cb;" horiz-adv-x="654" 
d="M295 688q193 0 292 -123q43 -57 43 -128v-1q0 -134 -150 -198q-81 -33 -194 -33q-8 0 -21 5v0q0 -22 2 -79q29 1 54 1h20q72 0 153 -8q4 -2 4 -5q0 -10 -42 -21q-16 -3 -41 -3h-25q-54 0 -121 -4q0 -33 14 -144q1 0 1 -4q0 -2 -3 -5h-1q-29 0 -44 29q-5 7 -10 55
q-3 55 -3 66h-1q-59 -7 -62 -7q-5 0 -7 4v2q0 9 14 23q11 11 42 17q4 0 12 1q-1 27 -1 42v48q0 232 29 362q8 23 25 31l6 1q3 0 3 -2q-19 -121 -19 -346q0 -3 1 -22q10 -1 12 -1q207 0 295 104q29 39 29 84q0 117 -149 184q-70 28 -146 28h-18q-111 0 -189 -56
q-46 -37 -46 -85q0 -64 83 -103q18 -8 56 -16q4 -3 4 -4q-11 -14 -39 -14q-37 0 -76 19q-60 36 -60 104q0 45 27 91q41 65 139 97q51 14 108 14z" />
    <glyph glyph-name="uni20B6" unicode="&#x20ca;" horiz-adv-x="654" 
d="M295 688q193 0 292 -123q43 -57 43 -128v-1q0 -134 -150 -198q-81 -33 -194 -33q-8 0 -21 5v0q0 -22 2 -79q29 1 54 1h20q72 0 153 -8q4 -2 4 -5q0 -10 -42 -21q-16 -3 -41 -3h-25q-54 0 -121 -4q0 -33 14 -144q1 0 1 -4q0 -2 -3 -5h-1q-29 0 -44 29q-5 7 -10 55
q-3 55 -3 66h-1q-59 -7 -62 -7q-5 0 -7 4v2q0 9 14 23q11 11 42 17q4 0 12 1q-1 27 -1 42v48q0 232 29 362q8 23 25 31l6 1q3 0 3 -2q-19 -121 -19 -346q0 -3 1 -22q10 -1 12 -1q207 0 295 104q29 39 29 84q0 117 -149 184q-70 28 -146 28h-18q-111 0 -189 -56
q-46 -37 -46 -85q0 -64 83 -103q18 -8 56 -16q4 -3 4 -4q-11 -14 -39 -14q-37 0 -76 19q-60 36 -60 104q0 45 27 91q41 65 139 97q51 14 108 14z" />
    <glyph glyph-name="uni20B6" unicode="&#x20c9;" horiz-adv-x="654" 
d="M295 688q193 0 292 -123q43 -57 43 -128v-1q0 -134 -150 -198q-81 -33 -194 -33q-8 0 -21 5v0q0 -22 2 -79q29 1 54 1h20q72 0 153 -8q4 -2 4 -5q0 -10 -42 -21q-16 -3 -41 -3h-25q-54 0 -121 -4q0 -33 14 -144q1 0 1 -4q0 -2 -3 -5h-1q-29 0 -44 29q-5 7 -10 55
q-3 55 -3 66h-1q-59 -7 -62 -7q-5 0 -7 4v2q0 9 14 23q11 11 42 17q4 0 12 1q-1 27 -1 42v48q0 232 29 362q8 23 25 31l6 1q3 0 3 -2q-19 -121 -19 -346q0 -3 1 -22q10 -1 12 -1q207 0 295 104q29 39 29 84q0 117 -149 184q-70 28 -146 28h-18q-111 0 -189 -56
q-46 -37 -46 -85q0 -64 83 -103q18 -8 56 -16q4 -3 4 -4q-11 -14 -39 -14q-37 0 -76 19q-60 36 -60 104q0 45 27 91q41 65 139 97q51 14 108 14z" />
    <glyph glyph-name="uni20B6" unicode="&#x20c8;" horiz-adv-x="654" 
d="M295 688q193 0 292 -123q43 -57 43 -128v-1q0 -134 -150 -198q-81 -33 -194 -33q-8 0 -21 5v0q0 -22 2 -79q29 1 54 1h20q72 0 153 -8q4 -2 4 -5q0 -10 -42 -21q-16 -3 -41 -3h-25q-54 0 -121 -4q0 -33 14 -144q1 0 1 -4q0 -2 -3 -5h-1q-29 0 -44 29q-5 7 -10 55
q-3 55 -3 66h-1q-59 -7 -62 -7q-5 0 -7 4v2q0 9 14 23q11 11 42 17q4 0 12 1q-1 27 -1 42v48q0 232 29 362q8 23 25 31l6 1q3 0 3 -2q-19 -121 -19 -346q0 -3 1 -22q10 -1 12 -1q207 0 295 104q29 39 29 84q0 117 -149 184q-70 28 -146 28h-18q-111 0 -189 -56
q-46 -37 -46 -85q0 -64 83 -103q18 -8 56 -16q4 -3 4 -4q-11 -14 -39 -14q-37 0 -76 19q-60 36 -60 104q0 45 27 91q41 65 139 97q51 14 108 14z" />
    <glyph glyph-name="uni20B6" unicode="&#x20c7;" horiz-adv-x="654" 
d="M295 688q193 0 292 -123q43 -57 43 -128v-1q0 -134 -150 -198q-81 -33 -194 -33q-8 0 -21 5v0q0 -22 2 -79q29 1 54 1h20q72 0 153 -8q4 -2 4 -5q0 -10 -42 -21q-16 -3 -41 -3h-25q-54 0 -121 -4q0 -33 14 -144q1 0 1 -4q0 -2 -3 -5h-1q-29 0 -44 29q-5 7 -10 55
q-3 55 -3 66h-1q-59 -7 -62 -7q-5 0 -7 4v2q0 9 14 23q11 11 42 17q4 0 12 1q-1 27 -1 42v48q0 232 29 362q8 23 25 31l6 1q3 0 3 -2q-19 -121 -19 -346q0 -3 1 -22q10 -1 12 -1q207 0 295 104q29 39 29 84q0 117 -149 184q-70 28 -146 28h-18q-111 0 -189 -56
q-46 -37 -46 -85q0 -64 83 -103q18 -8 56 -16q4 -3 4 -4q-11 -14 -39 -14q-37 0 -76 19q-60 36 -60 104q0 45 27 91q41 65 139 97q51 14 108 14z" />
    <glyph glyph-name="uni20B6" unicode="&#x20c6;" horiz-adv-x="654" 
d="M295 688q193 0 292 -123q43 -57 43 -128v-1q0 -134 -150 -198q-81 -33 -194 -33q-8 0 -21 5v0q0 -22 2 -79q29 1 54 1h20q72 0 153 -8q4 -2 4 -5q0 -10 -42 -21q-16 -3 -41 -3h-25q-54 0 -121 -4q0 -33 14 -144q1 0 1 -4q0 -2 -3 -5h-1q-29 0 -44 29q-5 7 -10 55
q-3 55 -3 66h-1q-59 -7 -62 -7q-5 0 -7 4v2q0 9 14 23q11 11 42 17q4 0 12 1q-1 27 -1 42v48q0 232 29 362q8 23 25 31l6 1q3 0 3 -2q-19 -121 -19 -346q0 -3 1 -22q10 -1 12 -1q207 0 295 104q29 39 29 84q0 117 -149 184q-70 28 -146 28h-18q-111 0 -189 -56
q-46 -37 -46 -85q0 -64 83 -103q18 -8 56 -16q4 -3 4 -4q-11 -14 -39 -14q-37 0 -76 19q-60 36 -60 104q0 45 27 91q41 65 139 97q51 14 108 14z" />
    <glyph glyph-name="uni20B6" unicode="&#x20c5;" horiz-adv-x="654" 
d="M295 688q193 0 292 -123q43 -57 43 -128v-1q0 -134 -150 -198q-81 -33 -194 -33q-8 0 -21 5v0q0 -22 2 -79q29 1 54 1h20q72 0 153 -8q4 -2 4 -5q0 -10 -42 -21q-16 -3 -41 -3h-25q-54 0 -121 -4q0 -33 14 -144q1 0 1 -4q0 -2 -3 -5h-1q-29 0 -44 29q-5 7 -10 55
q-3 55 -3 66h-1q-59 -7 -62 -7q-5 0 -7 4v2q0 9 14 23q11 11 42 17q4 0 12 1q-1 27 -1 42v48q0 232 29 362q8 23 25 31l6 1q3 0 3 -2q-19 -121 -19 -346q0 -3 1 -22q10 -1 12 -1q207 0 295 104q29 39 29 84q0 117 -149 184q-70 28 -146 28h-18q-111 0 -189 -56
q-46 -37 -46 -85q0 -64 83 -103q18 -8 56 -16q4 -3 4 -4q-11 -14 -39 -14q-37 0 -76 19q-60 36 -60 104q0 45 27 91q41 65 139 97q51 14 108 14z" />
    <glyph glyph-name="uni20B6" unicode="&#x20c4;" horiz-adv-x="654" 
d="M295 688q193 0 292 -123q43 -57 43 -128v-1q0 -134 -150 -198q-81 -33 -194 -33q-8 0 -21 5v0q0 -22 2 -79q29 1 54 1h20q72 0 153 -8q4 -2 4 -5q0 -10 -42 -21q-16 -3 -41 -3h-25q-54 0 -121 -4q0 -33 14 -144q1 0 1 -4q0 -2 -3 -5h-1q-29 0 -44 29q-5 7 -10 55
q-3 55 -3 66h-1q-59 -7 -62 -7q-5 0 -7 4v2q0 9 14 23q11 11 42 17q4 0 12 1q-1 27 -1 42v48q0 232 29 362q8 23 25 31l6 1q3 0 3 -2q-19 -121 -19 -346q0 -3 1 -22q10 -1 12 -1q207 0 295 104q29 39 29 84q0 117 -149 184q-70 28 -146 28h-18q-111 0 -189 -56
q-46 -37 -46 -85q0 -64 83 -103q18 -8 56 -16q4 -3 4 -4q-11 -14 -39 -14q-37 0 -76 19q-60 36 -60 104q0 45 27 91q41 65 139 97q51 14 108 14z" />
    <glyph glyph-name="uni20B6" unicode="&#x20c3;" horiz-adv-x="654" 
d="M295 688q193 0 292 -123q43 -57 43 -128v-1q0 -134 -150 -198q-81 -33 -194 -33q-8 0 -21 5v0q0 -22 2 -79q29 1 54 1h20q72 0 153 -8q4 -2 4 -5q0 -10 -42 -21q-16 -3 -41 -3h-25q-54 0 -121 -4q0 -33 14 -144q1 0 1 -4q0 -2 -3 -5h-1q-29 0 -44 29q-5 7 -10 55
q-3 55 -3 66h-1q-59 -7 -62 -7q-5 0 -7 4v2q0 9 14 23q11 11 42 17q4 0 12 1q-1 27 -1 42v48q0 232 29 362q8 23 25 31l6 1q3 0 3 -2q-19 -121 -19 -346q0 -3 1 -22q10 -1 12 -1q207 0 295 104q29 39 29 84q0 117 -149 184q-70 28 -146 28h-18q-111 0 -189 -56
q-46 -37 -46 -85q0 -64 83 -103q18 -8 56 -16q4 -3 4 -4q-11 -14 -39 -14q-37 0 -76 19q-60 36 -60 104q0 45 27 91q41 65 139 97q51 14 108 14z" />
    <glyph glyph-name="uni20B6" unicode="&#x20c2;" horiz-adv-x="654" 
d="M295 688q193 0 292 -123q43 -57 43 -128v-1q0 -134 -150 -198q-81 -33 -194 -33q-8 0 -21 5v0q0 -22 2 -79q29 1 54 1h20q72 0 153 -8q4 -2 4 -5q0 -10 -42 -21q-16 -3 -41 -3h-25q-54 0 -121 -4q0 -33 14 -144q1 0 1 -4q0 -2 -3 -5h-1q-29 0 -44 29q-5 7 -10 55
q-3 55 -3 66h-1q-59 -7 -62 -7q-5 0 -7 4v2q0 9 14 23q11 11 42 17q4 0 12 1q-1 27 -1 42v48q0 232 29 362q8 23 25 31l6 1q3 0 3 -2q-19 -121 -19 -346q0 -3 1 -22q10 -1 12 -1q207 0 295 104q29 39 29 84q0 117 -149 184q-70 28 -146 28h-18q-111 0 -189 -56
q-46 -37 -46 -85q0 -64 83 -103q18 -8 56 -16q4 -3 4 -4q-11 -14 -39 -14q-37 0 -76 19q-60 36 -60 104q0 45 27 91q41 65 139 97q51 14 108 14z" />
    <glyph glyph-name="uni20B6" unicode="&#x20c1;" horiz-adv-x="654" 
d="M295 688q193 0 292 -123q43 -57 43 -128v-1q0 -134 -150 -198q-81 -33 -194 -33q-8 0 -21 5v0q0 -22 2 -79q29 1 54 1h20q72 0 153 -8q4 -2 4 -5q0 -10 -42 -21q-16 -3 -41 -3h-25q-54 0 -121 -4q0 -33 14 -144q1 0 1 -4q0 -2 -3 -5h-1q-29 0 -44 29q-5 7 -10 55
q-3 55 -3 66h-1q-59 -7 -62 -7q-5 0 -7 4v2q0 9 14 23q11 11 42 17q4 0 12 1q-1 27 -1 42v48q0 232 29 362q8 23 25 31l6 1q3 0 3 -2q-19 -121 -19 -346q0 -3 1 -22q10 -1 12 -1q207 0 295 104q29 39 29 84q0 117 -149 184q-70 28 -146 28h-18q-111 0 -189 -56
q-46 -37 -46 -85q0 -64 83 -103q18 -8 56 -16q4 -3 4 -4q-11 -14 -39 -14q-37 0 -76 19q-60 36 -60 104q0 45 27 91q41 65 139 97q51 14 108 14z" />
    <glyph glyph-name="uni20B6" unicode="&#x20c0;" horiz-adv-x="654" 
d="M295 688q193 0 292 -123q43 -57 43 -128v-1q0 -134 -150 -198q-81 -33 -194 -33q-8 0 -21 5v0q0 -22 2 -79q29 1 54 1h20q72 0 153 -8q4 -2 4 -5q0 -10 -42 -21q-16 -3 -41 -3h-25q-54 0 -121 -4q0 -33 14 -144q1 0 1 -4q0 -2 -3 -5h-1q-29 0 -44 29q-5 7 -10 55
q-3 55 -3 66h-1q-59 -7 -62 -7q-5 0 -7 4v2q0 9 14 23q11 11 42 17q4 0 12 1q-1 27 -1 42v48q0 232 29 362q8 23 25 31l6 1q3 0 3 -2q-19 -121 -19 -346q0 -3 1 -22q10 -1 12 -1q207 0 295 104q29 39 29 84q0 117 -149 184q-70 28 -146 28h-18q-111 0 -189 -56
q-46 -37 -46 -85q0 -64 83 -103q18 -8 56 -16q4 -3 4 -4q-11 -14 -39 -14q-37 0 -76 19q-60 36 -60 104q0 45 27 91q41 65 139 97q51 14 108 14z" />
    <glyph glyph-name="uni20B6" unicode="&#x20bf;" horiz-adv-x="654" 
d="M295 688q193 0 292 -123q43 -57 43 -128v-1q0 -134 -150 -198q-81 -33 -194 -33q-8 0 -21 5v0q0 -22 2 -79q29 1 54 1h20q72 0 153 -8q4 -2 4 -5q0 -10 -42 -21q-16 -3 -41 -3h-25q-54 0 -121 -4q0 -33 14 -144q1 0 1 -4q0 -2 -3 -5h-1q-29 0 -44 29q-5 7 -10 55
q-3 55 -3 66h-1q-59 -7 -62 -7q-5 0 -7 4v2q0 9 14 23q11 11 42 17q4 0 12 1q-1 27 -1 42v48q0 232 29 362q8 23 25 31l6 1q3 0 3 -2q-19 -121 -19 -346q0 -3 1 -22q10 -1 12 -1q207 0 295 104q29 39 29 84q0 117 -149 184q-70 28 -146 28h-18q-111 0 -189 -56
q-46 -37 -46 -85q0 -64 83 -103q18 -8 56 -16q4 -3 4 -4q-11 -14 -39 -14q-37 0 -76 19q-60 36 -60 104q0 45 27 91q41 65 139 97q51 14 108 14z" />
    <glyph glyph-name="uni20B6" unicode="&#x20be;" horiz-adv-x="654" 
d="M295 688q193 0 292 -123q43 -57 43 -128v-1q0 -134 -150 -198q-81 -33 -194 -33q-8 0 -21 5v0q0 -22 2 -79q29 1 54 1h20q72 0 153 -8q4 -2 4 -5q0 -10 -42 -21q-16 -3 -41 -3h-25q-54 0 -121 -4q0 -33 14 -144q1 0 1 -4q0 -2 -3 -5h-1q-29 0 -44 29q-5 7 -10 55
q-3 55 -3 66h-1q-59 -7 -62 -7q-5 0 -7 4v2q0 9 14 23q11 11 42 17q4 0 12 1q-1 27 -1 42v48q0 232 29 362q8 23 25 31l6 1q3 0 3 -2q-19 -121 -19 -346q0 -3 1 -22q10 -1 12 -1q207 0 295 104q29 39 29 84q0 117 -149 184q-70 28 -146 28h-18q-111 0 -189 -56
q-46 -37 -46 -85q0 -64 83 -103q18 -8 56 -16q4 -3 4 -4q-11 -14 -39 -14q-37 0 -76 19q-60 36 -60 104q0 45 27 91q41 65 139 97q51 14 108 14z" />
    <glyph glyph-name="uni20B6" unicode="&#x20bd;" horiz-adv-x="654" 
d="M295 688q193 0 292 -123q43 -57 43 -128v-1q0 -134 -150 -198q-81 -33 -194 -33q-8 0 -21 5v0q0 -22 2 -79q29 1 54 1h20q72 0 153 -8q4 -2 4 -5q0 -10 -42 -21q-16 -3 -41 -3h-25q-54 0 -121 -4q0 -33 14 -144q1 0 1 -4q0 -2 -3 -5h-1q-29 0 -44 29q-5 7 -10 55
q-3 55 -3 66h-1q-59 -7 -62 -7q-5 0 -7 4v2q0 9 14 23q11 11 42 17q4 0 12 1q-1 27 -1 42v48q0 232 29 362q8 23 25 31l6 1q3 0 3 -2q-19 -121 -19 -346q0 -3 1 -22q10 -1 12 -1q207 0 295 104q29 39 29 84q0 117 -149 184q-70 28 -146 28h-18q-111 0 -189 -56
q-46 -37 -46 -85q0 -64 83 -103q18 -8 56 -16q4 -3 4 -4q-11 -14 -39 -14q-37 0 -76 19q-60 36 -60 104q0 45 27 91q41 65 139 97q51 14 108 14z" />
    <glyph glyph-name="uni20B6" unicode="&#x20bc;" horiz-adv-x="654" 
d="M295 688q193 0 292 -123q43 -57 43 -128v-1q0 -134 -150 -198q-81 -33 -194 -33q-8 0 -21 5v0q0 -22 2 -79q29 1 54 1h20q72 0 153 -8q4 -2 4 -5q0 -10 -42 -21q-16 -3 -41 -3h-25q-54 0 -121 -4q0 -33 14 -144q1 0 1 -4q0 -2 -3 -5h-1q-29 0 -44 29q-5 7 -10 55
q-3 55 -3 66h-1q-59 -7 -62 -7q-5 0 -7 4v2q0 9 14 23q11 11 42 17q4 0 12 1q-1 27 -1 42v48q0 232 29 362q8 23 25 31l6 1q3 0 3 -2q-19 -121 -19 -346q0 -3 1 -22q10 -1 12 -1q207 0 295 104q29 39 29 84q0 117 -149 184q-70 28 -146 28h-18q-111 0 -189 -56
q-46 -37 -46 -85q0 -64 83 -103q18 -8 56 -16q4 -3 4 -4q-11 -14 -39 -14q-37 0 -76 19q-60 36 -60 104q0 45 27 91q41 65 139 97q51 14 108 14z" />
    <glyph glyph-name="uni20B6" unicode="&#x20bb;" horiz-adv-x="654" 
d="M295 688q193 0 292 -123q43 -57 43 -128v-1q0 -134 -150 -198q-81 -33 -194 -33q-8 0 -21 5v0q0 -22 2 -79q29 1 54 1h20q72 0 153 -8q4 -2 4 -5q0 -10 -42 -21q-16 -3 -41 -3h-25q-54 0 -121 -4q0 -33 14 -144q1 0 1 -4q0 -2 -3 -5h-1q-29 0 -44 29q-5 7 -10 55
q-3 55 -3 66h-1q-59 -7 -62 -7q-5 0 -7 4v2q0 9 14 23q11 11 42 17q4 0 12 1q-1 27 -1 42v48q0 232 29 362q8 23 25 31l6 1q3 0 3 -2q-19 -121 -19 -346q0 -3 1 -22q10 -1 12 -1q207 0 295 104q29 39 29 84q0 117 -149 184q-70 28 -146 28h-18q-111 0 -189 -56
q-46 -37 -46 -85q0 -64 83 -103q18 -8 56 -16q4 -3 4 -4q-11 -14 -39 -14q-37 0 -76 19q-60 36 -60 104q0 45 27 91q41 65 139 97q51 14 108 14z" />
    <glyph glyph-name="uni20B6" unicode="&#x20ba;" horiz-adv-x="654" 
d="M295 688q193 0 292 -123q43 -57 43 -128v-1q0 -134 -150 -198q-81 -33 -194 -33q-8 0 -21 5v0q0 -22 2 -79q29 1 54 1h20q72 0 153 -8q4 -2 4 -5q0 -10 -42 -21q-16 -3 -41 -3h-25q-54 0 -121 -4q0 -33 14 -144q1 0 1 -4q0 -2 -3 -5h-1q-29 0 -44 29q-5 7 -10 55
q-3 55 -3 66h-1q-59 -7 -62 -7q-5 0 -7 4v2q0 9 14 23q11 11 42 17q4 0 12 1q-1 27 -1 42v48q0 232 29 362q8 23 25 31l6 1q3 0 3 -2q-19 -121 -19 -346q0 -3 1 -22q10 -1 12 -1q207 0 295 104q29 39 29 84q0 117 -149 184q-70 28 -146 28h-18q-111 0 -189 -56
q-46 -37 -46 -85q0 -64 83 -103q18 -8 56 -16q4 -3 4 -4q-11 -14 -39 -14q-37 0 -76 19q-60 36 -60 104q0 45 27 91q41 65 139 97q51 14 108 14z" />
    <glyph glyph-name="uni20B6" unicode="&#x20b9;" horiz-adv-x="654" 
d="M295 688q193 0 292 -123q43 -57 43 -128v-1q0 -134 -150 -198q-81 -33 -194 -33q-8 0 -21 5v0q0 -22 2 -79q29 1 54 1h20q72 0 153 -8q4 -2 4 -5q0 -10 -42 -21q-16 -3 -41 -3h-25q-54 0 -121 -4q0 -33 14 -144q1 0 1 -4q0 -2 -3 -5h-1q-29 0 -44 29q-5 7 -10 55
q-3 55 -3 66h-1q-59 -7 -62 -7q-5 0 -7 4v2q0 9 14 23q11 11 42 17q4 0 12 1q-1 27 -1 42v48q0 232 29 362q8 23 25 31l6 1q3 0 3 -2q-19 -121 -19 -346q0 -3 1 -22q10 -1 12 -1q207 0 295 104q29 39 29 84q0 117 -149 184q-70 28 -146 28h-18q-111 0 -189 -56
q-46 -37 -46 -85q0 -64 83 -103q18 -8 56 -16q4 -3 4 -4q-11 -14 -39 -14q-37 0 -76 19q-60 36 -60 104q0 45 27 91q41 65 139 97q51 14 108 14z" />
    <glyph glyph-name="uni20B6" unicode="&#x20b8;" horiz-adv-x="654" 
d="M295 688q193 0 292 -123q43 -57 43 -128v-1q0 -134 -150 -198q-81 -33 -194 -33q-8 0 -21 5v0q0 -22 2 -79q29 1 54 1h20q72 0 153 -8q4 -2 4 -5q0 -10 -42 -21q-16 -3 -41 -3h-25q-54 0 -121 -4q0 -33 14 -144q1 0 1 -4q0 -2 -3 -5h-1q-29 0 -44 29q-5 7 -10 55
q-3 55 -3 66h-1q-59 -7 -62 -7q-5 0 -7 4v2q0 9 14 23q11 11 42 17q4 0 12 1q-1 27 -1 42v48q0 232 29 362q8 23 25 31l6 1q3 0 3 -2q-19 -121 -19 -346q0 -3 1 -22q10 -1 12 -1q207 0 295 104q29 39 29 84q0 117 -149 184q-70 28 -146 28h-18q-111 0 -189 -56
q-46 -37 -46 -85q0 -64 83 -103q18 -8 56 -16q4 -3 4 -4q-11 -14 -39 -14q-37 0 -76 19q-60 36 -60 104q0 45 27 91q41 65 139 97q51 14 108 14z" />
    <glyph glyph-name="uni20B6" unicode="&#x20b7;" horiz-adv-x="654" 
d="M295 688q193 0 292 -123q43 -57 43 -128v-1q0 -134 -150 -198q-81 -33 -194 -33q-8 0 -21 5v0q0 -22 2 -79q29 1 54 1h20q72 0 153 -8q4 -2 4 -5q0 -10 -42 -21q-16 -3 -41 -3h-25q-54 0 -121 -4q0 -33 14 -144q1 0 1 -4q0 -2 -3 -5h-1q-29 0 -44 29q-5 7 -10 55
q-3 55 -3 66h-1q-59 -7 -62 -7q-5 0 -7 4v2q0 9 14 23q11 11 42 17q4 0 12 1q-1 27 -1 42v48q0 232 29 362q8 23 25 31l6 1q3 0 3 -2q-19 -121 -19 -346q0 -3 1 -22q10 -1 12 -1q207 0 295 104q29 39 29 84q0 117 -149 184q-70 28 -146 28h-18q-111 0 -189 -56
q-46 -37 -46 -85q0 -64 83 -103q18 -8 56 -16q4 -3 4 -4q-11 -14 -39 -14q-37 0 -76 19q-60 36 -60 104q0 45 27 91q41 65 139 97q51 14 108 14z" />
    <glyph glyph-name="uni0410" unicode="&#x410;" horiz-adv-x="523" 
d="M332 722q20 0 37 -25q8 -10 8 -82q8 -130 19 -222q15 -107 33 -187q47 -3 47 -6v-2q0 -10 -23 -23q-9 -3 -14 -3h-3q18 -83 44 -162l24 -63v-2q-1 -4 -7 -4h-1q-41 0 -66 94q-16 44 -36 136q-72 0 -220 -18q-25 -49 -63 -104q-71 -94 -114 -105q-6 -3 -17 -3q-21 2 -23 8
q1 4 29 22q21 14 62 59q54 64 79 109l2 4v1v0q-18 0 -95 -23h-4q-1 0 -3 4q0 19 18 41q17 14 52 20l61 10q59 114 111 284q27 91 57 237q2 3 6 5zM345 680q-16 -97 -36 -171q-51 -174 -111 -288q-10 -19 -10 -20h1q88 7 179 7h25v0q-48 244 -48 444v25v3v0z" />
    <glyph glyph-name="uni0411" unicode="&#x411;" horiz-adv-x="612" 
d="M280 701q268 0 348 -18l2 -2q-4 -11 -25 -20q-24 -7 -32 -7q-36 1 -90 2q-263 -1 -263 -9q-69 -9 -128 -51q-44 -36 -44 -82q0 -65 81 -102q22 -10 62 -18q2 -3 2 -5v-1q-12 -12 -40 -12q-52 0 -95 30q-44 35 -44 93q0 61 47 116q43 41 88 60q72 26 131 26zM280 627l3 -4
q-23 -135 -23 -319v-31q0 -151 17 -277q44 -12 101 -12q94 0 158 57q30 33 30 74v7q0 59 -70 103q-25 16 -89 33q-53 12 -97 12q-15 -1 -18 -1v2q19 24 74 24q85 0 156 -47q72 -55 72 -129q0 -86 -82 -142q-62 -36 -136 -36h-21q-104 0 -180 68q-19 19 -19 34v5q0 5 2 5h2
q2 0 25 -16q27 -18 55 -29q-16 16 -16 65q-5 67 -5 173q0 242 31 355q10 18 21 22q4 3 9 4z" />
    <glyph glyph-name="uni0412" unicode="&#x412;" horiz-adv-x="651" 
d="M283 701h16q163 0 263 -98q66 -67 66 -153q0 -119 -129 -184l-8 -3l34 -25q58 -55 58 -119q0 -71 -58 -124q-63 -54 -161 -54h-9q-114 0 -186 72q-14 17 -14 30v4q0 4 3 6q3 0 28 -18q45 -28 51 -28q-16 16 -16 80q-5 60 -5 157v3q0 240 30 354q15 25 30 25h1q1 0 2 -3
q-22 -134 -22 -305v-11q0 -13 -1 -18q1 -7 1 -19v-11q0 -140 16 -264q48 -12 99 -12q95 0 158 62q26 32 26 73q0 79 -100 123l-16 5q-36 -9 -73 -9h-5q-63 0 -76 15q-3 3 -3 7v1q0 13 28 28q19 6 44 6h15q24 0 64 -8q73 18 119 59q44 43 44 98q0 114 -143 180
q-71 31 -154 31h-14q-119 0 -199 -62q-37 -36 -37 -80q0 -57 68 -95q25 -14 65 -22q5 0 8 -5q0 -10 -32 -13q-3 -1 -7 -1q-43 0 -85 25q-50 36 -50 95v5q0 57 43 112q86 88 223 88z" />
    <glyph glyph-name="uni0413" unicode="&#x413;" horiz-adv-x="651" 
d="M282 695q270 0 346 -21l1 -1q-6 -14 -28 -23q-21 -6 -27 -6q-91 2 -103 2q-250 0 -250 -9q-59 -8 -115 -47q-34 -19 -51 -67q-3 -11 -3 -23v-7q0 -71 96 -111q16 -6 46 -12l2 -6q-13 -13 -35 -13h-13q-46 0 -91 34q-40 37 -40 93v5q0 68 55 129q55 49 96 61q66 22 114 22
zM282 616q2 -3 2 -6q-23 -145 -23 -352q0 -166 17 -313v-4l-2 -2h-4q-16 0 -32 22t-16 88q-4 50 -4 144v36q0 241 32 361q8 16 22 23q6 3 8 3z" />
    <glyph glyph-name="uni0414" unicode="&#x414;" horiz-adv-x="690" 
d="M280 699h8q207 0 318 -198q50 -97 50 -219q0 -202 -124 -294q-68 -47 -159 -47h-15q-126 0 -195 84q-6 12 -6 22q1 4 2 4h2q2 0 43 -24q20 -12 39 -19q-15 17 -15 74q-5 53 -5 130v59q0 202 29 327q15 26 30 26h1q2 0 2 -1q-22 -144 -22 -332q0 -157 17 -294
q43 -10 87 -10q171 0 231 141q22 56 22 126q0 244 -185 356q-72 39 -149 39h-16q-116 0 -185 -61q-33 -36 -33 -73v-7q0 -58 77 -97q26 -11 61 -18l3 -5q-9 -12 -36 -12h-2q-68 0 -111 46q-26 32 -26 69v12q0 53 42 108q82 88 220 88z" />
    <glyph glyph-name="uni0415" unicode="&#x415;" horiz-adv-x="355" 
d="M241 691q77 0 143 -8l2 -4q-12 -25 -47 -25h-10q-136 0 -233 -18q-13 -159 -13 -370q68 9 134 9q44 -1 77 -3l2 -2v-3q-11 -24 -55 -24q-35 0 -157 -16v-1q0 -128 11 -247q134 31 249 31h6q1 0 2 -3v-1q0 -13 -24 -27q-16 -3 -91 -13q-66 -13 -135 -33h-6q-19 0 -41 19
q-11 0 -14 171q-1 0 -1 66v29l-38 -8h-1q-2 0 -4 4q0 25 27 42q17 3 17 6q0 170 21 369h-1q-41 -10 -49 -10v0q-2 0 -4 4q6 29 19 42q8 9 47 14q82 10 167 10z" />
    <glyph glyph-name="uni0401" unicode="&#x401;" horiz-adv-x="355" 
d="M62 633q-2 0 -44 -9q-7 -1 -8 0q-2 2 -1 8q5 39 39 45q83 15 196 15q71 0 134 -6q10 -1 5 -10q-12 -20 -41 -20q-135 0 -248 -17q-13 -185 -12 -372q96 14 208 8q7 0 3 -7q-10 -20 -37 -21q-102 -5 -174 -18q2 -145 12 -248q117 29 251 31q5 0 6 -2q2 -1 0 -5
q-9 -23 -40 -26q-105 -10 -199 -40q-18 -6 -31 0q-12 5 -21.5 11t-10.5 19q-11 95 -9 252q-18 -3 -33 -7q-7 -2 -9 0t-1 7q6 33 36 39q1 0 4 1h3q5 251 22 372zM130 758q2 13 11.5 21t16.5 6q22 -6 22 -38q0 -12 -8 -22.5t-20 -7.5q-28 7 -22 41zM258 788q22 -5 22 -38
q0 -13 -8 -23t-21 -6q-22 6 -22 29q0 13 8.5 26.5t20.5 11.5z" />
    <glyph glyph-name="uni0416" unicode="&#x416;" horiz-adv-x="789" 
d="M744 699q8 -11 8 -23q-9 -64 -155 -255q-28 -42 -139 -161l-55 -52q111 -110 155 -143q74 -57 122 -85q3 0 3 -4q0 -5 -20 -11h-3q-50 6 -178 109q-42 35 -84 73v-8q0 -56 15 -183q1 0 1 -4q-1 -6 -4 -6q-34 0 -47 39q-12 73 -12 168v3q-3 0 -57 -63q-70 -68 -97 -85
q-53 -41 -73 -41q-8 0 -18 9v1q0 5 8 8q42 30 127 114q63 66 95 107q-52 60 -87 104q-104 128 -177 261q-38 64 -42 100q2 22 6 22q3 0 19 -33q41 -74 127 -193q57 -79 115 -145q50 -59 52 -59v2q1 277 34 401q14 25 27 25l3 -5q-20 -131 -20 -370q1 -43 1 -53
q120 122 130 142q60 68 114 139q81 109 102 154z" />
    <glyph glyph-name="uni0417" unicode="&#x417;" horiz-adv-x="494" 
d="M178 680q75 17 169 -35q122 -93 111 -206q0 -110 -116 -175l-15 -6v-2q54 -28 79 -90q8 -24 8 -47v-4q0 -66 -51 -116q-61 -56 -161 -56q-116 0 -184 74q-11 15 -11 27v3q0 4 3 5q2 0 35 -22q68 -45 169 -45q83 0 143 53q32 32 32 79q0 68 -79 112q-13 6 -31 12
q-37 -8 -72 -8q-59 0 -75 13q-2 3 -2 6v4q0 11 25 25q21 8 47 8q37 0 69 -10q73 19 116 60q41 42 41 88v12q-10 75 -72 136q-66 57 -157 61q-14 2 -26 2h12q-82 -2 -116 -69q-4 -16 -4 -28v-4q0 -52 57 -103q28 -21 28 -24v-1q-1 -4 -12 -5q-33 0 -82 46q-29 36 -29 76v2
q0 57 53 113q44 39 98 39z" />
    <glyph glyph-name="uni0418" unicode="&#x418;" horiz-adv-x="399" 
d="M56 682h2q12 0 22 -22q1 -6 3 -12q-6 -181 -7 -246v-73v-3q0 -75 9 -290q0 -13 1 -29h1q95 208 186 492q41 136 52 164q6 15 11 18h4q12 0 23 -20q2 -6 3 -13l-5 -319q0 -101 13 -342v-4q0 -29 -27 -38q-9 -1 -11 -1l-3 5q-10 212 -13 358q0 54 10 253v2h-1
q-60 -220 -142 -418q-55 -136 -86 -189q-10 -10 -23 -10h-3q-26 0 -31 70q-11 161 -11 266q0 173 21 400z" />
    <glyph glyph-name="uni0419" unicode="&#x419;" horiz-adv-x="399" 
d="M153 791q3 -10 13 -26q12 -24 55 -31q56 -2 91 63h4v0q8 -7 0 -30q-8 -19 -25 -32q-19 -17 -53 -21q-19 -2 -39 2q-56 12 -68 56q-3 11 -3 13q0 9 8 13q12 2 17 -7zM56 682h2q12 0 22 -22q1 -6 3 -12q-6 -181 -7 -246v-73v-3q0 -75 9 -290q0 -13 1 -29h1q95 208 186 492
q41 136 52 164q6 15 11 18h4q12 0 23 -20q2 -6 3 -13l-5 -319q0 -101 13 -342v-4q0 -29 -27 -38q-9 -1 -11 -1l-3 5q-10 212 -13 358q0 54 10 253v2h-1q-60 -220 -142 -418q-55 -136 -86 -189q-10 -10 -23 -10h-3q-26 0 -31 70q-11 161 -11 266q0 173 21 400z" />
    <glyph glyph-name="uni041A" unicode="&#x41a;" horiz-adv-x="374" 
d="M427 693q6 0 9 -23q-6 -59 -150 -250q-50 -68 -146 -168q-22 -21 -53 -50q94 -94 140 -130q80 -64 136 -97q3 0 5 -4q0 -6 -20 -11h-5q-41 6 -141 80q-43 32 -120 103v-1q0 -59 15 -191q1 0 2 -5q-2 -5 -3 -5h-3q-33 0 -46 41q-12 77 -12 208q-12 9 -12 21q5 15 12 18v40
q0 260 32 387q13 28 28 28q2 -3 2 -4q-19 -127 -19 -376q0 -9 1 -42q101 98 131 137q97 112 160 204q34 49 55 89q1 0 2 1z" />
    <glyph glyph-name="uni041B" unicode="&#x41b;" horiz-adv-x="496" 
d="M335 690h2q17 0 35 -26q7 -16 7 -76q0 -51 18 -226q19 -141 47 -259q18 -74 48 -158q-2 -8 -9 -8h-5q-41 0 -70 128q-33 160 -48 274q-19 138 -19 258q-5 -42 -22 -112q-31 -123 -73 -227q-77 -179 -97 -206q-77 -114 -123 -114h-4q-18 0 -24 12q2 6 28 22q18 15 58 60
q63 89 83 134q14 24 55 128q32 78 71 228q15 70 33 162q4 6 9 6z" />
    <glyph glyph-name="uni041C" unicode="&#x41c;" horiz-adv-x="479" 
d="M51 705h2q14 -2 38 -20q15 -16 15 -41q66 -314 119 -488l10 -31q13 -14 26 72q24 152 70 300q33 103 54 159q9 12 8 14q4 0 42 -33q8 -10 8 -26q-10 -177 -10 -293q0 -234 14 -358q6 -30 -4 -30q-15 4 -31 24q-19 26 -19 65q-6 54 -6 203q0 162 16 296l2 90l-21 -62
q-46 -148 -81 -311q-21 -99 -31 -189q0 -6 -2 -6h-4q-23 0 -46 23q-20 16 -54 137q-43 152 -73 334v12l-14 54q-13 -165 -14 -271q0 -235 15 -366q3 -24 -1.5 -27t-24 9.5t-25.5 51.5q-11 79 -11 197v22q0 195 28 464q2 25 5 25z" />
    <glyph glyph-name="uni041D" unicode="&#x41d;" horiz-adv-x="464" 
d="M419 728l2 -3q-20 -147 -20 -455h9q36 0 36 -9q-14 -23 -43 -23h-2q0 -152 19 -311q-4 -2 -5 -2q-34 0 -46 40q-15 75 -15 240v33q-81 0 -236 -22q1 -8 1 -9q0 -105 18 -252q-1 -4 -3 -4h-1q-40 0 -51 51q-10 85 -10 189v15v0q-50 -10 -88 -22h-4q-1 0 -2 2v2q0 27 23 48
q0 4 47 15q24 3 24 4q0 243 30 387q10 21 27 30l4 1h1q2 0 2 -4q-18 -133 -18 -335v-72q87 12 179 12h34q7 0 24 -1q0 151 18 344q14 92 20 92q13 19 26 19z" />
    <glyph glyph-name="uni041E" unicode="&#x41e;" horiz-adv-x="527" 
d="M260 680h8q101 0 168 -161q40 -100 40 -231q-2 -277 -162 -344q-31 -11 -60 -11h-8q-91 0 -162 97q-58 86 -58 213q0 166 82 295q3 1 10 27q14 38 46 73q44 42 96 42zM155 470v-4q0 -62 27 -113v0q0 -5 -4 -6q-36 0 -61 58q-13 33 -13 52v0q-35 -110 -35 -213
q0 -177 93 -256q38 -28 83 -28q107 0 166 154q23 70 23 172q0 195 -84 317q-39 52 -83 52q-68 0 -104 -117q-8 -34 -8 -68z" />
    <glyph glyph-name="uni041F" unicode="&#x41f;" horiz-adv-x="528" 
d="M150 680h2q2 0 3 -5q0 -4 -3 -19q95 14 206 14h6q23 0 55 -2q11 12 18 12h2q2 -1 2 -6q0 -1 -1 -8h1q58 -2 58 -8v-3q-16 -22 -36 -22h-27q-13 -124 -13 -296v-108q0 -16 1 -49h-1q1 -3 5 -102q6 -83 13 -142q0 -2 -2 -3q-37 0 -51 41q-12 78 -12 193v86q0 232 27 379
q-79 0 -248 -24q-8 -2 -8 -4q-11 -109 -11 -267v-108q0 -16 1 -49h-1q2 -3 5 -102q6 -83 14 -142q0 -2 -3 -3q-36 0 -51 41q-12 78 -12 193v86q0 197 21 346q-17 -4 -79 -23h-2q-2 0 -4 6q0 18 17 42q10 13 50 22q30 4 30 6q0 9 21 25q4 3 7 3z" />
    <glyph glyph-name="uni0420" unicode="&#x420;" horiz-adv-x="653" 
d="M295 692q204 0 302 -139q33 -55 33 -115q0 -148 -179 -210q-73 -23 -152 -23h-8h-5q-10 0 -22 6v-2q0 -128 19 -271l-3 -2h-1q-34 0 -47 39q-12 76 -12 193v11q0 12 -1 16q1 8 1 18v18q0 225 29 354q8 20 23 28q3 2 6 2h3q1 -1 1 -2q-19 -123 -19 -348q1 -17 1 -24h13
q209 0 296 106q28 39 28 83q0 113 -137 181q-72 34 -169 34q-125 0 -203 -62q-40 -36 -40 -81q0 -63 81 -102q21 -10 59 -18l3 -4v0q-12 -14 -39 -14q-40 0 -82 23q-54 37 -54 102q0 63 50 120q83 83 225 83z" />
    <glyph glyph-name="uni0421" unicode="&#x421;" horiz-adv-x="480" 
d="M281 693h4q101 0 140 -131q8 -33 8 -63v-7q0 -85 -46 -109q-10 -4 -13 -4h-3q-1 0 -1 2v1q6 32 9 59q1 14 1 24v19q0 98 -49 160q-22 21 -46 21q-84 0 -167 -171q-47 -111 -47 -233q0 -162 82 -241q40 -33 91 -33q104 0 161 126q23 66 23 86q2 10 4 10q11 0 13 -33v-4
q0 -133 -99 -193q-44 -22 -91 -22q-110 0 -184 105q-52 77 -52 198q0 215 131 366q64 67 131 67z" />
    <glyph glyph-name="uni0422" unicode="&#x422;" horiz-adv-x="419" 
d="M276 682h19q120 0 194 -13l2 -2q0 -9 -24 -20q-8 -3 -13 -3q-73 2 -79 2q-70 -1 -117 -4q-13 -151 -13 -329v-30q0 -203 18 -337q-3 -3 -5 -3q-14 0 -33 20q-14 23 -14 53q-8 75 -8 205q0 252 23 419h-1q-27 0 -141 -14q-32 -5 -68 -14q-4 0 -6 6q0 17 18 37
q14 13 125 23q59 4 123 4z" />
    <glyph glyph-name="uni0423" unicode="&#x423;" horiz-adv-x="436" 
d="M423 662h2q4 -2 4 -6l-14 -64q-25 -166 -25 -315q0 -145 31 -409v-25v-17q0 -153 -116 -209q-33 -13 -66 -13h-5q-120 0 -180 142q-4 12 -4 23q3 25 8 25h2q1 0 16 -32q15 -31 54 -70q63 -56 124 -56q89 0 117 108q9 35 9 79v1q0 49 -19 216l-6 62v0q-11 -67 -36 -107
q-35 -52 -86 -52h-10q-109 0 -168 164q-24 76 -24 162v14q0 190 76 340q13 17 29 17q4 -2 4 -3q-66 -161 -66 -363q0 -176 71 -267q31 -35 65 -35q66 0 109 105q25 76 25 148q23 363 46 405q16 32 33 32z" />
    <glyph glyph-name="uni0424" unicode="&#x424;" horiz-adv-x="690" 
d="M337 610q-13 -164 -13 -336q1 -24 1 -28h21q202 1 286 102q30 39 16 90q-9 81 -141 151q-70 22 -124 22h-9q-19 0 -37 -1zM311 656v1q11 30 26 35h5q1 0 1 -1q-1 -11 -2 -33q17 1 35 1h4q92 0 179 -45q28 -16 60 -46q37 -36 47 -56q32 -47 30 -106q-4 -82 -92 -137
q-92 -64 -246 -60h-10q-11 0 -23 5q0 -127 19 -275q-2 -1 -4 -1h-4q-29 0 -44 39q-12 75 -12 218v13q0 234 23 399q-111 -15 -180 -78q-45 -55 -44 -100q-7 -110 122 -153q21 -10 62 -21q12 -1 12 -5v-1q-12 -14 -35 -14h-6q-62 0 -116 40q-63 35 -79 128q-12 73 44 145
q79 92 228 108z" />
    <glyph glyph-name="uni0425" unicode="&#x425;" horiz-adv-x="385" 
d="M20 667h2q2 0 9 -29q42 -149 96 -268q15 -33 17 -34q50 105 128 221q32 46 67 86q21 21 43 21t22 -7v0q0 -3 -17 -24q-78 -100 -131 -187q-56 -91 -89 -160q60 -121 138 -227q22 -31 64 -75q10 -10 11 -12v-1q-3 -8 -20 -8q-44 0 -136 129q-41 62 -63 105q-19 37 -20 38
q-46 -94 -90 -222q-12 -38 -23 -78q-1 -3 -4 -3q-7 0 -15 21q-1 7 -1 12v1q0 33 40 154q32 86 70 166q-45 98 -85 227q-27 98 -27 119q0 24 14 35z" />
    <glyph glyph-name="uni0426" unicode="&#x426;" horiz-adv-x="568" 
d="M442 -40q-53 3 -64 83q-9 30 -12 109q-19 -209 -135 -209q-34 0 -75 20q-132 63 -133 257q-1 111 27 245q25 126 57 186q12 23 32 27q6 1 7 -2q1 -2 -1 -8q-33 -76 -55 -206q-22 -126 -20 -224q5 -211 104 -254q17 -8 36 -8q48 0 84 47q41 56 54 163q8 68 16 224
q7 137 17 194q8 47 37 51q3 1 4 -2q1 -2 0 -7q-23 -147 -19 -369q2 -155 15 -234q7 -40 42 -54q50 2 71 -17t8 -152q-10 -17 -27 -24h-5q-2 0 -2 3q9 96 -0.5 127t-62.5 34z" />
    <glyph glyph-name="uni0427" unicode="&#x427;" horiz-adv-x="435" 
d="M132 680q4 0 4 -2q0 -1 -10 -15q-24 -38 -40 -85q-28 -80 -28 -133v-6q0 -111 86 -151q31 -12 59 -12h4q75 0 122 71q19 35 22 61q8 44 16 138q11 91 21 112q6 9 16 16q6 4 10 4q2 -1 2 -4q-17 -156 -17 -398q0 -205 16 -336q-1 -2 -3 -3v0q-40 0 -47 56q-9 82 -9 205v23
q0 61 1 101v1v0q-16 -47 -54 -68q-33 -17 -71 -17h-12q-58 0 -132 35q-82 46 -82 136q0 93 54 206q17 31 39 52q13 13 33 13z" />
    <glyph glyph-name="uni0428" unicode="&#x428;" horiz-adv-x="783" 
d="M129 685q5 -1 5 -2v-3q-25 -57 -49 -174q-27 -140 -27 -234v-23q0 -187 80 -255q30 -22 60 -22h2q70 0 114 109q17 44 25 113q8 81 18 273q12 150 25 173q15 21 28 21h1q4 -2 4 -5q-21 -147 -21 -328q0 -168 9 -196q10 -49 29 -86q28 -52 67 -67q17 -7 34 -7h2
q71 0 115 109q17 44 25 113q7 81 18 273q11 150 24 173q16 21 29 21h1q4 -2 4 -5q-22 -147 -22 -328q0 -235 26 -367q-2 -5 -6 -5q-11 1 -29 17q-9 10 -13 25q-5 11 -7 53q-8 73 -8 99h-1q0 -45 -25 -127q-37 -85 -110 -85q-63 0 -134 62q-37 41 -46 68q-12 23 -19 51
q-2 7 -2 10q-1 0 -3 -23q-18 -84 -31 -102q-35 -66 -101 -66q-61 0 -131 59q-79 77 -79 232q0 157 54 351q22 69 42 94q12 11 23 11z" />
    <glyph glyph-name="uni0429" unicode="&#x429;" horiz-adv-x="901" 
d="M690 151h-2q0 -53 -28 -135q-37 -76 -106 -76q-64 0 -137 66q-47 53 -62 120v1h-1q0 -30 -27 -111q-37 -76 -107 -76q-63 0 -136 64q-73 80 -73 225q0 169 62 376q28 78 55 78h1l6 -1v-3q-27 -64 -54 -201q-21 -124 -21 -192v-52q0 -151 66 -225q33 -34 68 -34h12
q70 0 116 132q17 49 26 223q8 167 22 269q9 45 17 45q10 16 23 16l5 -4q-21 -147 -21 -337q0 -176 14 -207q15 -54 31 -78q41 -59 87 -59h14q63 0 109 110q25 82 25 144q5 55 21 307q12 107 24 107q11 17 24 17q5 -2 5 -5q-21 -153 -21 -307v-50q0 -23 -1 -45
q3 -139 15 -213q7 -40 42 -54q50 2 71 -17t8 -153q-10 -17 -27 -24h-5q-2 0 -2 3q10 96 0 127.5t-63 34.5t-64 83q-9 30 -12 109z" />
    <glyph glyph-name="uni042A" unicode="&#x42a;" horiz-adv-x="528" 
d="M124 683q53 0 101 -8q1 -2 1 -4q-38 -190 -38 -371v-47q0 -137 16 -261q44 -11 90 -11h15q84 0 148 57q27 32 27 65v14q0 59 -80 104q-88 36 -160 36h-5q-7 0 -20 -1l-1 2v1q20 23 73 23q81 0 153 -47q68 -54 68 -124q0 -86 -85 -141q-58 -32 -134 -32h-5q-101 0 -167 53
q-34 26 -34 45v9q0 1 1 2h2q3 0 36 -23q26 -14 41 -20q-15 15 -15 72q-4 55 -4 153v7q0 145 12 243q13 98 27 151q1 2 6 18q-11 -1 -20 -1h-13q-64 0 -143 -13q-4 2 -4 5q3 17 11 26q14 14 36 14q28 4 64 4z" />
    <glyph glyph-name="uni042B" unicode="&#x42b;" horiz-adv-x="646" 
d="M154 685q3 -3 3 -5q-39 -191 -39 -375v-48q0 -138 17 -264q44 -12 91 -12h15q86 0 150 58q27 33 27 66v15q0 59 -81 105q-89 36 -162 36h-5h-20l-1 1v1q20 24 74 24q82 0 155 -48q68 -55 68 -126q0 -86 -86 -142q-58 -32 -135 -32h-5q-103 0 -170 53q-34 26 -34 45v10
q0 1 2 2h1q3 0 37 -23q26 -15 41 -21q-15 16 -15 73q-4 56 -4 155v7q0 143 12 241q11 94 25 147q10 38 14 38q7 13 25 19zM595 683q3 -3 3 -4q-17 -155 -17 -376v-47q0 -184 16 -315q-1 -2 -3 -3h-1q-34 0 -45 43q-10 77 -10 228q0 305 27 443q8 20 23 28q5 3 7 3z" />
    <glyph glyph-name="uni042C" unicode="&#x42c;" horiz-adv-x="449" 
d="M143 678q3 -3 3 -5q-38 -190 -38 -373v-47q0 -137 16 -263q44 -11 90 -11h15q84 0 147 57q26 33 26 66v15q0 58 -79 104q-87 36 -159 36h-5h-20v1v1q19 23 72 23q81 0 152 -47q67 -55 67 -125q0 -86 -84 -142q-58 -32 -133 -32h-5q-101 0 -166 54q-34 26 -34 45v9
q0 1 2 2h1q3 0 36 -23q25 -15 41 -20q-15 15 -15 72q-5 56 -5 154v7q0 142 13 239q11 93 24 146q10 38 13 38q7 13 25 19z" />
    <glyph glyph-name="uni042D" unicode="&#x42d;" horiz-adv-x="474" 
d="M180 693h5q102 0 192 -154q69 -123 69 -276v-8q0 -185 -131 -270q-49 -28 -105 -28q-109 0 -164 97q-26 55 -26 112v11q0 26 12 33q3 0 7 -29q12 -49 26 -79q57 -115 157 -115q101 0 149 127q23 63 23 144h-1q-100 9 -178 9h-24q-63 0 -84 22v4q0 5 31 6q60 5 122 5h12
q77 0 121 -7q0 40 -18 117q-14 49 -32 89q-22 46 -58 95q-54 67 -105 67q-61 0 -88 -114q-8 -35 -8 -71v-9q0 -43 12 -89q-1 -3 -2 -3h-2q-15 0 -35 19q-25 32 -25 94v8q0 74 43 139q41 54 105 54z" />
    <glyph glyph-name="uni042E" unicode="&#x42e;" horiz-adv-x="685" 
d="M81 693q3 -2 3 -4q-19 -152 -19 -401v-54q34 4 67 4h9q30 0 61 -3q-1 13 -1 20v8q0 167 88 296q17 60 58 96q43 37 93 37h10q63 0 120 -68q91 -122 91 -317v-2q0 -249 -144 -328q-41 -20 -83 -20h-10q-81 0 -150 78q-31 40 -43 69q-14 32 -21 65q-5 27 -5 34h-1
q-8 -1 -19 -1h-14q-49 0 -105 -8v-4q0 -87 15 -216l2 -13q-1 -4 -4 -4h-1q-36 0 -49 40q-12 75 -12 219v22q0 284 31 424q7 19 25 28q6 3 8 3zM332 483q0 -62 28 -112v-2q0 -5 -4 -5q-24 0 -48 30q-10 16 -16 31q-11 32 -11 46q-1 0 -11 -34q-24 -88 -24 -173
q0 -168 86 -247q41 -33 93 -33q100 0 160 130q33 74 33 185v12q0 181 -83 302q-41 53 -86 53h-2q-65 0 -102 -100q-13 -40 -13 -83z" />
    <glyph glyph-name="uni042F" unicode="&#x42f;" horiz-adv-x="501" 
d="M95 541q22 24 26 24q59 59 135 59h3q42 0 90 -25q37 -28 45 -44q11 -58 -5 -291v-16q0 -4 -2 -5h-32q-78 0 -148 20q-156 58 -156 163v5q0 60 44 110zM451 665l-2 3q-13 0 -26 -19q-5 0 -14 -54q-40 59 -144 66q-63 0 -116 -25q-21 -7 -70 -53q-59 -66 -59 -139v-13
q0 -118 136 -187q95 -40 197 -40h6l-42 -41q-76 -71 -131 -113q-47 -35 -86 -58v-4q0 -4 23 -7q27 0 103 52q42 23 161 133h1q0 -1 -1 -1q0 -26 -3 -79q-7 -102 -15 -142q0 -3 3 -5h4q31 0 45 36q12 80 12 183v79q0 35 -1 72q2 234 19 356z" />
    <glyph glyph-name="uni0430" unicode="&#x430;" horiz-adv-x="235" 
d="M144 184q3 69 -24 76q-16 4 -40.5 -36t-33.5 -93q-4 -26 -4 -47q0 -65 29 -71q21 -4 44 42q26 51 29 129zM162 244q7 15 23 19q4 1 5.5 -0.5t0.5 -5.5q-16 -65 -16 -134q0 -94 22 -99q11 -3 28 24t23 68q0 6 5 1q8 -8 8 -31q0 -42 -14.5 -66.5t-38.5 -24.5q-13 0 -27 8
q-27 15 -36 60q-16 -74 -63 -74q-39 0 -61 34q-18 29 -18 71q0 29 8 63q15 61 44 96q26 32 55 32q34 0 52 -41z" />
    <glyph glyph-name="uni0431" unicode="&#x431;" horiz-adv-x="203" 
d="M130 587q46 0 72 -6l1 -3q-5 -14 -16 -21q-7 -3 -15 -3q-111 0 -118 -7.5t-0.5 -20t32.5 -67.5q37 -77 65 -164q11 -33 22 -83q6 -31 6 -38h1q14 12 15 12h2q1 0 1 -4q0 -17 -17 -36v-25q0 -100 -51 -131q-13 -7 -27 -7h-4q-54 0 -82 76q-8 28 -8 53q0 57 29 119l13 20
q21 25 35 25q12 0 19 -12v-3v-3q0 -7 -6 -17q-1 -5 -1 -10v-1q0 -27 25 -55q13 -9 22 -10v0q0 16 -23 93q-25 85 -56 147q-49 100 -54 118l-3 14q0 22 14.5 32.5t45 14t61.5 3.5zM73 205q-20 -47 -20 -103q0 -64 31 -93q7 -4 10 -4h3q26 0 43 66q5 24 5 50v12h-5
q-37 0 -59 44q-7 16 -7 28v0h-1z" />
    <glyph glyph-name="uni0432" unicode="&#x432;" horiz-adv-x="194" 
d="M83 585q20 0 37 -39q11 -31 11 -80q0 -91 -35 -181q-6 -13 -12 -25h1q8 4 16 4q36 0 63 -60q16 -44 16 -93q0 -79 -49 -117q-20 -13 -41 -13h-4q-20 0 -34 15q3 -19 4 -34q-1 -3 -4 -3h-1q-9 0 -23 12q-14 18 -14 44q-7 74 -7 168v49v5v4v30q0 78 18 197q7 34 12 46
q19 71 46 71zM46 252v-16v0q53 85 53 244q0 67 -11 67q-12 0 -30 -113q-12 -82 -12 -182zM47 113v-2q0 -71 31 -102q8 -7 17 -7h1q24 0 39 54q5 26 5 52q0 72 -27 116q-10 14 -20 14q-31 0 -42 -74q-4 -27 -4 -51z" />
    <glyph glyph-name="uni0433" unicode="&#x433;" horiz-adv-x="188" 
d="M12 67.5q2 35.5 43 64t63.5 47.5t20 41.5t-19 34.5t-39.5 9.5t-35 -19t-8.5 -33t7.5 -26t-8 -5.5t-21.5 15.5t-9.5 36.5t22.5 43.5t59 18.5t62 -21t24 -59t-44.5 -70t-65.5 -51.5t-19 -38.5t21 -31t34.5 -13q27 -1 57 32q27 31 39 69q4 12 8 2t-1 -36q-9 -41 -33 -66
q-26 -28 -61 -28q-41 1 -69.5 24.5t-26.5 59z" />
    <glyph glyph-name="uni0434" unicode="&#x434;" horiz-adv-x="222" 
d="M115 291h6q28 0 48 -40q2 0 4 15q8 14 17 17q6 3 8 3h1q2 0 3 -5q-9 -71 -9 -148v-22q0 -27 10 -222v-19q0 -100 -75 -135q-12 -4 -25 -5q-51 0 -83 69q-10 34 -10 53q2 35 13 35q5 0 12 -28q34 -92 87 -92q32 0 41 54q1 13 1 20v15q0 9 -8 112q-2 39 -2 83v4h-1
q-21 -71 -63 -71h-6q-42 0 -66 47q-13 26 -13 56v6q0 66 44 147q35 51 66 51zM48 82v-10q0 -48 23 -62l5 -1h5q25 0 56 71q20 50 20 109v12q0 43 -17 58q-5 2 -11 3q-23 0 -60 -79q-21 -55 -21 -101z" />
    <glyph glyph-name="uni0435" unicode="&#x435;" horiz-adv-x="178" 
d="M44 102q36 8 58 51q18 35 18 75q0 31 -12 34q-16 4 -36 -33q-22 -40 -27 -93q-2 -23 -1 -34zM45 85q6 -57 31 -66q7 -3 16 -3q29 0 58.5 26.5t43.5 70.5q1 4 4 5q2 0 3 -4q3 -13 0 -29q-8 -43 -34.5 -68.5t-62.5 -25.5q-18 0 -36 7q-25 10 -43 39q-23 35 -23 83
q0 19 4 39q11 62 37 98q24 32 52 32q13 0 25 -8q34 -24 34 -69q0 -16 -4 -33q-10 -42 -40.5 -67t-64.5 -27z" />
    <glyph glyph-name="uni0451" unicode="&#x451;" horiz-adv-x="177" 
d="M113 340q4 23 22 21q8 -1 13 -13.5t2 -23.5q-5 -19 -21 -15q-20 5 -16 31zM66 361q9 -1 13.5 -12.5t2.5 -24.5q-4 -23 -22 -15q-15 6 -15 23q0 10 6 20t15 9zM44 102q36 8 58 51q18 35 18 75q0 31 -12 34q-16 4 -36 -33q-22 -40 -27 -93q-2 -23 -1 -34zM45 85
q6 -57 31 -66q7 -3 16 -3q29 0 58.5 26.5t43.5 70.5q1 4 4 5q2 0 3 -4q3 -13 0 -29q-8 -43 -34.5 -68.5t-62.5 -25.5q-18 0 -36 7q-25 10 -43 39q-23 35 -23 83q0 19 4 39q11 62 37 98q24 32 52 32q13 0 25 -8q34 -24 34 -69q0 -16 -4 -33q-10 -42 -40.5 -67t-64.5 -27z" />
    <glyph glyph-name="uni0436" unicode="&#x436;" horiz-adv-x="430" 
d="M233 299q2 0 5 -5q-5 -28 -5 -72v-13q0 -18 2 -51q2 1 3 1q14 0 29 4q0 33 24 85q12 22 46 33h10q22 0 49 -35q7 -17 7 -35v-1q0 -42 -31 -54q-2 -1 -6 -1q-3 5 -4 5q10 25 10 56v1q0 41 -19 41q-21 0 -47 -87q-5 -32 -5 -55v-22q0 -59 30 -77q10 -4 17 -4h2q38 0 77 67
l16 36h1q4 0 5 -18q0 -43 -34 -85q-27 -25 -58 -25q-66 0 -87 76q-5 25 -5 52v8q-4 -4 -28 -4v-1q4 -76 12 -135l-5 -4h-4q-15 0 -33 31q-5 29 -9 106h-1q-4 0 -29 -1q0 -27 -15 -78q-31 -51 -80 -51q-55 0 -72 58v12q0 29 9 29l5 1h1q5 -15 12 -37q22 -34 44 -34
q15 0 27 11q21 31 21 85v11q0 60 -34 117q-15 18 -29 18q-15 0 -21 -31q-1 -12 -1 -26q0 -17 9 -45q-6 -4 -10 -4q-22 0 -38 37q-2 11 -2 17q0 55 71 77h13q44 0 77 -69q12 -36 12 -60q13 1 28 2q0 1 1 1q-1 23 -1 37v3q0 78 28 97q7 5 10 5z" />
    <glyph glyph-name="uni0437" unicode="&#x437;" horiz-adv-x="213" 
d="M140 64q-27 -42 -68 -66q-18 -10 -26 -10t-12 8q-10 21 14.5 51.5t57.5 38.5q42 59 42 116q0 47 -31 47q-24 0 -52 -32.5t-41 -79.5q-3 -10 -8 -1q-10 16 -3 53q8 40 34 67t56 27q32 0 56 -33q20 -28 20 -68q0 -48 -27 -98q47 -20 47 -104q0 -116 -74 -196
q-27 -29 -55 -29t-45 28q-15 24 -15 54q0 73 75 126q16 11 33 9q10 0 2 -7q-39 -36 -61 -82q-19 -40 -19 -71q0 -28 17 -28t42 29.5t43 77.5q24 64 24 112q0 49 -26 61z" />
    <glyph glyph-name="uni0438" unicode="&#x438;" horiz-adv-x="221" 
d="M51 291h1q3 0 3 -3q-14 -71 -14 -149v-5q0 -90 22 -112q8 -6 16 -6q30 0 40 117l13 114q5 18 16 25q11 6 17 6h1q4 0 4 -2v-1q-12 -88 -12 -152q0 -103 28 -103q14 0 30 43q5 11 9 37q2 10 2 17q1 1 2 1q4 0 9 -17q2 -8 2 -17v-4q0 -55 -23 -78q-4 -3 -7 -5q-9 -5 -21 -5
q-40 0 -58 56h-1q-3 -12 -9 -25q-23 -40 -57 -40q-44 0 -58 73q-5 30 -5 64q0 74 20 145q10 26 30 26z" />
    <glyph glyph-name="uni0439" unicode="&#x439;" horiz-adv-x="221" 
d="M84 360q3 -3 8 -10q9 -9 20 -8q19 0 30 19q1 1 2 1v0q2 -2 1 -12q-4 -12 -10 -17q-8 -9 -20 -11q-7 -1 -14 1q-20 6 -27 27q-1 5 -1 6q0 4 3 6q6 1 8 -2zM51 291h1q3 0 3 -3q-14 -71 -14 -149v-5q0 -90 22 -112q8 -6 16 -6q30 0 40 117l13 114q5 18 16 25q11 6 17 6h1
q4 0 4 -2v-1q-12 -88 -12 -152q0 -103 28 -103q14 0 30 43q5 11 9 37q2 10 2 17q1 1 2 1q4 0 9 -17q2 -8 2 -17v-4q0 -55 -23 -78q-4 -3 -7 -5q-9 -5 -21 -5q-40 0 -58 56h-1q-3 -12 -9 -25q-23 -40 -57 -40q-44 0 -58 73q-5 30 -5 64q0 74 20 145q10 26 30 26z" />
    <glyph glyph-name="uni043A" unicode="&#x43a;" horiz-adv-x="193" 
d="M44 309l4 -3q-8 -86 -8 -120q1 -49 1 -60l1 -3q43 23 70 112q11 48 11 72l4 1h1q15 0 18 -27q0 -42 -28 -113q-15 -33 -45 -65q0 -19 17 -63q14 -27 47 -25q34 4 59 76l10 33h1q9 -5 9 -24q0 -76 -53 -107q-17 -7 -31 -7q-50 0 -78 55q-8 19 -8 25h-1v-2q0 -15 11 -82
q-2 -5 -7 -5q-16 4 -31 24q-12 25 -12 84v57q0 73 9 139q8 18 20 24q4 4 9 4z" />
    <glyph glyph-name="uni043B" unicode="&#x43b;" horiz-adv-x="258" 
d="M168 308h2q10 0 10 -21q3 0 6 -144q4 -42 14 -71q18 -50 29 -50q17 0 33 61q5 24 5 42h3q11 -14 11 -36q0 -78 -37 -94q-8 -1 -14 -1q-54 0 -74 106q-6 32 -6 72v35h-1l-27 -122q-22 -75 -37 -88q-11 -8 -28 -8h-3q-38 0 -48 64q-2 15 -2 32v4q0 26 11 37h1q2 0 2 -1v-3
q2 -40 25 -94q8 -8 13 -8h3q10 6 30 84q39 154 71 199q5 5 8 5z" />
    <glyph glyph-name="uni043C" unicode="&#x43c;" horiz-adv-x="390" 
d="M167 308h4q12 0 12 -35q2 0 4 -206q4 -43 13 -43q0 -1 1 -1h5q9 6 22 53q32 116 53 196q14 36 27 36h3q12 0 12 -38q1 -9 4 -125q-2 -47 6 -80q10 -37 25 -43h1q17 0 34 61q5 28 5 41h2q6 0 11 -30v-14q0 -65 -35 -84q-7 -2 -13 -2h-2q-52 0 -67 129q-3 24 -3 53v30h-1
q-31 -143 -51 -188q-15 -23 -36 -23h-4q-23 0 -32 27q-14 44 -14 116q-2 0 -2 51v16h-1q-33 -149 -54 -197q-13 -19 -35 -19h-7q-41 0 -49 79v25q0 21 11 33h3q0 -40 28 -100q7 -6 10 -6h4q10 8 31 90q40 155 71 196q2 0 4 2z" />
    <glyph glyph-name="uni043D" unicode="&#x43d;" horiz-adv-x="219" 
d="M161 308h2q2 0 2 -2q-13 -130 -13 -202q0 -63 17 -87q6 -5 11 -5h4q18 0 38 64q3 8 7 38l2 1q11 -13 11 -26v-15q0 -70 -36 -86q-6 -3 -15 -3q-48 0 -69 58q-4 12 -8 56q1 13 1 28h-1q-67 -4 -67 -8q5 -119 5 -135q0 -3 -4 -5h-2q-36 5 -36 35q-3 23 -3 54v32
q0 114 21 184q15 20 26 20h2q2 0 2 -2q-12 -80 -12 -135v-9q2 1 3 1q64 5 69 6q13 130 22 130q13 13 21 13z" />
    <glyph glyph-name="uni043E" unicode="&#x43e;" horiz-adv-x="204" 
d="M173 153q1 -15 1 -29q0 -61 -22 -96.5t-56 -35.5q-44 0 -69 43q-22 36 -22 84q0 43 16 89q19 54 50 70q14 7 27 -8q21 4 41 -20q21 -27 30 -72q5 3 14 11q7 7 7 -1q0 -18 -17 -35zM100 251q-9 1 -9 -15q0 -20 12 -39q13 -23 33 -26q-9 77 -36 80zM138 140q-30 -1 -50 22
q-18 20 -20 50q-21 -44 -21 -103q0 -41 14 -70q12 -22 24 -25q21 -5 37.5 32.5t15.5 93.5z" />
    <glyph glyph-name="uni043F" unicode="&#x43f;" horiz-adv-x="223" 
d="M46 84q23 110 59 174q10 18 21 18q17 0 29 -20q9 -15 9 -45q-2 -177 27 -185q14 -4 28 23.5t15 63.5q0 9 5 3q7 -10 8 -23q2 -45 -11.5 -69t-36.5 -24q-59 0 -71 79q-6 41 -6 146q-2 14 -7 3q-50 -110 -62 -236q-1 -11 -9 -9q-31 6 -33 32q-5 51 -2 129q3 84 12 131
q5 25 26 31q5 1 7 0t1 -6q-14 -95 -9 -216z" />
    <glyph glyph-name="uni0440" unicode="&#x440;" horiz-adv-x="227" 
d="M49 98q-5 -79 35 -79q21 0 41 26q25 31 35 87q4 23 4 46q0 33 -7.5 55.5t-16.5 24.5q-24 5 -53 -39q-33 -50 -38 -121zM41 18q0 -179 12 -288q1 -5 -1 -6q-2 -2 -7 0q-33 10 -37 51q-6 68 -6 160q0 214 23 347q5 29 27 38q6 3 7 1l-1 -6q-7 -48 -12 -128q26 100 82 100
q16 0 32 -10q44 -26 44 -106q0 -31 -8 -66q-13 -55 -41 -85.5t-60 -30.5q-33 0 -54 29z" />
    <glyph glyph-name="uni0441" unicode="&#x441;" horiz-adv-x="187" 
d="M203 114q4 -10 -1 -36q-9 -41 -33 -66q-26 -28 -61 -28q-52 0 -80 43q-23 36 -23 91q0 14 1 29q6 69 33 111q25 38 55 38q12 0 22 -7q40 -25 40 -67q0 -26 -11.5 -42.5t-25.5 -17.5q-3 0 -6 4q10 28 10 58q0 45 -17 47t-37 -42q-21 -48 -23 -105q-3 -92 33 -110
q9 -4 19 -4q28 0 58 33q27 31 39 69q4 12 8 2z" />
    <glyph glyph-name="uni0442" unicode="&#x442;" horiz-adv-x="336" 
d="M361 91q0 -100 -54 -97q-32 1 -54.5 34t-22.5 108q0 20 2 57t2 51q0 10 -3 10t-6 -7q-42 -103 -46 -234q0 -9 -9 -8q-34 4 -37 41q-3 67 -10 176q-1 12 -5 12t-8 -9q-50 -105 -57 -229q-1 -10 -9 -8q-30 7 -32 27q-4 31 -4 78q0 141 15 194q6 20 25 28q5 2 7 1q2 0 1 -6
q-12 -73 -12 -213q20 103 62 168q11 17 22 17q8 0 16 -8q16 -16 21 -60q3 -25 3 -85q15 91 52 157q11 19 21 19q7 0 16 -9q21 -21 19 -71q-4 -90 -4 -105q0 -91 24 -99q16 -6 31.5 24.5t19.5 70.5q1 12 6 2q8 -7 8 -27z" />
    <glyph glyph-name="uni0443" unicode="&#x443;" horiz-adv-x="204" 
d="M125 39q-23 -56 -60 -56q-20 0 -34 18q-26 35 -26 118q0 68 17 139q7 29 26 32q5 1 7 0q1 -1 0 -6q-13 -69 -13 -146q0 -65 12 -96t28 -28q28 5 38 104q4 50 14 124q8 31 30 36q8 2 8 -5q-10 -78 -10 -173q0 -37 5.5 -110.5t5.5 -110.5q0 -81 -51 -121q-23 -18 -46 -18
q-26 0 -46.5 23t-28.5 59q-4 19 -4 34q0 17 6 28q2 5 6 5q3 -1 5 -7q13 -53 35 -81t45 -28q41 0 41 83q0 21 -3 51q-5 62 -7 132z" />
    <glyph glyph-name="uni0444" unicode="&#x444;" horiz-adv-x="388" 
d="M192 88v-9q0 -40 23 -56q5 -4 12 -4q36 -1 58 49q21 52 21 97q0 46 -14 80q-10 25 -33.5 23.5t-45.5 -40.5q-17 -35 -18 -90q-3 -35 -3 -50zM54 153q-5 -62 15 -112q7 -12 14 -18q4 -4 21 -3q35 3 40 68q3 16 3 31v4q0 50 -4 91q-6 52 -39 52q-39 -14 -44 -59
q-6 -28 -6 -54zM195 9q-5 5 -10 12v-18q0 -155 12 -267q-2 -3 -4 -3q-17 4 -27 15q-7 9 -9 16q-4 7 -6 27q-5 69 -5 142v17q0 38 1 60q-18 -14 -44 -14h-1q-21 0 -44 16q-18 13 -23.5 23.5t-15.5 33.5q-11 39 -11 82q0 63 31 104q22 30 47 35h4q21 7 36 -1q16 -9 24 -22
q10 -18 10 -22q5 14 10 41q5 19 16 27q11 7 14 7h1l1 -1q-6 -35 -7 -63q0 -1 -1 -6v-1q6 12 13 20q22 24 62 24h3q22 -2 34 -19q32 -25 37 -100v-5q4 -53 -18 -109q-16 -33 -35 -45q-24 -14 -20 -10q11 -6 39.5 0t49.5 38.5t35 74.5q4 12 9 2q4 -10 -2 -40
q-10 -41 -33 -65.5t-72 -30.5t-77 12q-13 4 -23 12q0 -1 -1 -2v3z" />
    <glyph glyph-name="uni0445" unicode="&#x445;" horiz-adv-x="278" 
d="M136 94q0 -12 -13.5 -59.5t-59.5 -48.5q-27 -1 -42 25q-26 38 -15 95q1 11 6 10q23 -2 26 -28q2 -28 5 -49q8 -22 27 -17t29 34t15 62t0.5 70t-13.5 52.5t-26 5.5t-29 -53q-2 -4 -4 -4q-20 3 -20 40t30 51.5t52 -3t34 -83.5l1 1q1 20 15.5 49t39 40t48 -9t24 -47
t-8.5 -40.5t-28 -15.5q-9 0 -3.5 15t2 46.5t-25.5 16t-34 -45.5t-12 -71q-1 -33 8.5 -62t28.5 -43.5t49.5 10.5t40.5 71q4 11 7 2q4 -10 -1 -35q-8 -39 -31.5 -63.5t-65 -19.5t-56.5 101v0z" />
    <glyph glyph-name="uni0446" unicode="&#x446;" horiz-adv-x="229" 
d="M52 291q0 -1 1 -1q-9 -56 -13 -116v-55q0 -80 27 -97q4 -2 8 -2h3q32 0 43 151q8 71 11 85q7 14 21 20q9 3 11 3q5 0 5 -2q-9 -65 -9 -89q-2 0 -2 -2q-1 -37 -1 -54q0 -3 -1 -6q1 -5 1 -10v-16q4 -57 12 -65q5 -11 15 -11h1q21 0 40 86v8q0 2 3 4h6q10 0 10 -21v-7
q0 -40 -15 -72v-7q0 -56 18 -84q3 -5 3 -7q-2 -6 -7 -6h-6q-8 0 -23.5 9t-42 -5.5t-48.5 25.5q3 6 18 0.5t34.5 6t45.5 -0.5v1q-19 33 -19 45q-8 -4 -16 -4h-7q-22 0 -42 36q-4 7 -8 19h-1q-3 -20 -25 -46q-19 -19 -42 -19q-34 0 -50 49q-11 34 -11 89v13q0 64 22 135
q10 20 30 20z" />
    <glyph glyph-name="uni0447" unicode="&#x447;" horiz-adv-x="228" 
d="M155 291q23 -15 23 -36q0 -6 -14 -69q-14 -58 -14 -99v-7v-5.5v-5.5v-9q0 -51 25 -51h4q33 0 60 98q2 7 4 7q7 -4 7 -11v-3q0 -58 -19.5 -92t-64.5 -31t-51 105v15q0 15 3 36q-38 -22 -65.5 -17.5t-37.5 24.5t-10 23l-2 19q-8 34 15 87q16 21 38 21l1 -3
q-25 -74 -17 -113l2 -5q0 -15 20 -15h1q59 2 71.5 69.5t17.5 67.5h3z" />
    <glyph glyph-name="uni0448" unicode="&#x448;" horiz-adv-x="322" 
d="M150 291h1q2 0 2 -1v-2q-4 -26 -7 -42q-7 -53 -7 -111q0 -94 23 -115q8 -6 16 -6v0q31 0 41 122l13 111q3 12 9 19q8 8 13 9q8 4 11 4h2q4 0 4 -3q-12 -89 -12 -154q0 -79 17 -99q5 -5 10 -5h2q12 0 27 36q6 15 12 42q2 12 2 20l1 1h1q6 -6 8 -15q3 -10 3 -21
q0 -51 -18 -76q-13 -16 -34 -16q-41 0 -59 58h-1q0 -7 -12 -31q-24 -36 -55 -36q-36 0 -52 46v0q-12 -37 -45 -37q-40 0 -58 54q-3 7 -5 28q-3 30 -3 63v2q0 50 8 111q3 12 9 19q8 8 13 9q8 4 11 4h2q4 0 4 -3q-12 -89 -12 -154q0 -79 17 -99q5 -5 10 -5h2q10 0 23 27
q6 10 13 38q-1 15 -1 35q0 76 21 148q10 25 30 25z" />
    <glyph glyph-name="uni0449" unicode="&#x449;" horiz-adv-x="352" 
d="M270 -2q-15 6 -30 30q-4 7 -7 18l-1 4q-7 -26 -23 -45q-19 -20 -42 -20q-35 0 -50 45q-5 -14 -14 -25q-7 -6 -12 -8q-9 -3 -19 -3h-1q-9 0 -24 7q-19 13 -31 51q-6 37 -6 83v5q0 52 8 111q6 18 16 25q10 5 16 5h1q4 0 4 -4q-12 -85 -12 -152q0 -81 19 -99q6 -4 8 -4h2
q15 0 33 55q0 1 2 10q-1 16 -1 29v10q0 67 18 138q9 29 32 29h1q1 0 1 -1v-1q-12 -72 -12 -104v-1q-1 -23 -1 -42v-11q0 -89 23 -110q7 -5 13 -5h2q29 0 40 127q9 94 11 107q6 17 19 24q9 5 14 5q4 0 4 -3q-4 -40 -7 -89l-1 -1q-1 -18 -1 -22v-11h-1q0 -1 1 -1l-1 -4v-48
l1 -1h-1l1 -1v-9q0 -22 7 -51q1 -6 5 -12.5t14 -6.5q21 0 39 83v8q0 1 3 3h7q10 0 10 -19v-7q0 -38 -15 -68v-6q0 -57 18 -85q2 -5 2 -7q-2 -6 -7 -6h-6q-8 0 -23 9t-41.5 -5.5t-47.5 25.5q3 6 17.5 0.5t34 6t45.5 -0.5v1q-17 30 -19 43v3q-9 -4 -16 -4h-7q-7 0 -12 3z" />
    <glyph glyph-name="uni044A" unicode="&#x44a;" horiz-adv-x="262" 
d="M53 299q53 -2 53 -8q3 0 5 -6q-4 -70 -4 -107v-17q17 16 53 16h1q38 0 65 -46q12 -26 12 -54v-2q0 -58 -57 -80q-18 -5 -34 -5q-32 0 -57 25q-20 19 -22 64q0 129 12 197h-1q-36 0 -69 -8q-7 0 -12 21q0 9 55 10zM105 83q0 -47 36 -64q6 -2 12 -2h3q27 0 38 30q2 9 2 25
v4q0 56 -39 70q-5 2 -10 2q-24 0 -37 -27q-5 -14 -5 -38z" />
    <glyph glyph-name="uni044B" unicode="&#x44b;" horiz-adv-x="290" 
d="M82 147v0q0 -13 25 -37q9 -7 17 -10v1q-7 29 -20 36q-13 10 -21 10h-1zM36 83q0 -47 36 -65q6 -2 12 -2h3q26 0 37 31q2 2 2 20q-18 0 -41 20q-22 26 -22 48q-1 0 -2 9q-21 -15 -21 -29q-3 -2 -4 -32zM183 101q-4 -11 -15 -24h-1v-2q0 -58 -56 -81q-17 -5 -33 -5
q-45 0 -70 46q-8 24 -8 63q1 6 1 11v6q0 170 30 183q8 6 14 6h2q0 -1 1 -3q-11 -78 -11 -118q1 -11 1 -21q18 15 53 15h1q37 0 63 -45q3 -5 9 -22q3 0 17 20h2q0 99 17 158q9 16 27 16q1 0 3 -3q-13 -82 -13 -176q0 -91 21 -105l5 -1h3q18 0 42 57q5 15 12 45l1 1
q8 -8 8 -24v-11q0 -60 -39 -89q-11 -5 -19 -5h-3q-25 0 -47 31q-17 33 -18 77z" />
    <glyph glyph-name="uni044C" unicode="&#x44c;" horiz-adv-x="193" 
d="M45 304h2q0 -1 1 -3q-11 -78 -11 -118q1 -11 1 -21q18 15 53 15h1q37 0 63 -45q3 -5 9 -22q3 0 17 20h1q3 0 4 -12v-1q0 -19 -18 -40h-1v-2q0 -58 -56 -81q-17 -5 -33 -5q-45 0 -70 46q-8 24 -8 63q1 6 1 11v6q0 170 30 183q8 6 14 6zM82 147v0q0 -13 25 -37q9 -7 17 -10
v1q-7 29 -20 36q-13 10 -21 10h-1zM36 83q0 -47 36 -65q6 -2 12 -2h3q26 0 37 31q2 2 2 20q-18 0 -41 20q-22 26 -22 48q-1 0 -2 9q-21 -15 -21 -29q-3 -2 -4 -32z" />
    <glyph glyph-name="uni044D" unicode="&#x44d;" horiz-adv-x="207" 
d="M95 296h3q44 0 71 -50q11 -20 18.5 -47t8 -77.5t-20.5 -88.5q-6 -13 -23 -28q-25 -20 -51 -20q-49 0 -70 39q-4 9 -4 18v1q0 12 5 21q7 12 14 12h2q-1 0 3 -14q14 -51 46 -51q13 0 27 9q13 15 20 42q6 28 6 43q-39 5 -74 5h-9q-21 0 -31 22v2t11 2q27 3 59 3v0
q21 0 44 -2v2q0 25 -14 68q-9 24 -18 39q-19 28 -35 28h-2q-18 0 -24 -31q-2 -9 -3 -28q0 -25 10 -51q-4 -3 -6 -3q-15 0 -31 18q-11 17 -11 36q0 46 47 70q18 11 32 11z" />
    <glyph glyph-name="uni044E" unicode="&#x44e;" horiz-adv-x="325" 
d="M211 267v-3q0 -23 16 -48q3 -5 13 -15q15 -11 23 -11l4 1q-3 28 -8 48q-14 45 -36 45h-2q-10 0 -10 -17zM184 239q-24 -53 -24 -116v-4q0 -65 32 -99q10 -9 19 -9q26 0 44 54q12 34 12 88v6h-7q-39 0 -63 44q-8 21 -8 36h-5zM324 207v-3q1 0 0 3zM46 158q45 6 73 6
q5 41 18 75q10 26 24 46q24 28 40 28q8 0 18 -11h9q29 0 55 -51q10 -22 14 -43q2 -10 5 -10q6 3 22 17v-8q0 2 -1 4q0 -19 -19 -39v-40q0 -84 -44 -124q-19 -17 -40 -17h-4q-61 0 -90 81q-9 29 -9 54q-38 -2 -70 -6q5 -120 5 -136q0 -3 -4 -5h-2q-36 5 -36 35q-3 23 -3 54
v32q0 114 21 184q15 20 26 20h2q2 0 2 -2q-12 -80 -12 -135v-9z" />
    <glyph glyph-name="uni044F" unicode="&#x44f;" horiz-adv-x="232" 
d="M63 166q0 -42 22 -56h4q21 0 42 61q15 53 15 70q0 24 -19 32q-3 1 -5 1q-13 0 -30 -15q-18 -20 -23 -43q-6 -27 -6 -50zM110 300h9q17 0 30 -23h1q0 9 8 14q8 6 12 6h1q3 0 5 -6q-7 -55 -7 -118q-2 -51 -2 -68q0 -39 10 -65q12 -18 18 -18q24 0 35 37q7 28 7 50v2
q0 1 3 5q19 -8 19 -29v-8q0 -35 -15 -59q-6 -9 -10 -13q-23 -15 -38 -15h-7q-31 0 -44 54h-1q-20 -53 -57 -53h-9q-24 0 -55 35q-17 25 -17 40q2 29 11 29h3q4 -1 13 -28q5 -11 23 -32q18 -15 27 -15q39 0 51 92v1h-1q-10 -21 -25 -27q-5 -2 -14 -2q-30 0 -45 28
q-12 21 -12 35q-2 10 -2 27q0 58 34 104q17 20 41 20z" />
    </font>
</defs>
</svg>
