<?xml version="1.0" standalone="no"?>
<!DOCTYPE svg PUBLIC "-//W3C//DTD SVG 1.1//EN" "http://www.w3.org/Graphics/SVG/1.1/DTD/svg11.dtd" >
<svg xmlns="http://www.w3.org/2000/svg" xmlns:xlink="http://www.w3.org/1999/xlink" version="1.1">
<metadata>
Created by FontForge 20190801 at Sat Apr 12 18:30:02 2014
 By Jimmy Wärting
Copyright (c) 2014 by Fontfirma. All rights reserved.
</metadata>
<defs>
<font id="Nord-Medium" horiz-adv-x="528" >
  <font-face 
    font-family="Nord"
    font-weight="500"
    font-stretch="normal"
    units-per-em="1000"
    panose-1="0 0 0 0 0 0 0 0 0 0"
    ascent="750"
    descent="-250"
    x-height="438"
    cap-height="723"
    bbox="49 -411.279 976 992.685"
    underline-thickness="50"
    underline-position="-100"
    unicode-range="U+0020-20AC"
  />
<missing-glyph horiz-adv-x="500" 
 />
    <glyph glyph-name=".notdef" horiz-adv-x="500" 
 />
    <glyph glyph-name="B" unicode="B" horiz-adv-x="442" 
d="M333 361c32 -18 60 -47 77 -80c20 -40 26 -85 17 -128c-8 -40 -29 -78 -60 -105c-32 -29 -73 -46 -117 -49c-16 -2 -33 -1 -49 -1h-126c-14 0 -25 12 -25 25v49v125v162v163v126v50c0 14 11 25 25 25h14h142c7 0 15 0 23 -1c23 -2 44 -7 65 -17c37 -17 69 -46 88 -82
c21 -39 29 -83 21 -127c-6 -40 -27 -79 -57 -107c-11 -11 -24 -20 -38 -28zM256 671c-18 2 -37 2 -55 2h-101v-24v-124v-139h26h80c17 0 34 -1 50 1c13 2 26 6 38 10c8 4 16 9 24 14c3 2 5 3 7 5c1 1 2 1 2 2c4 3 8 6 12 10s7 8 11 12c0 1 1 2 1 2v0c2 2 3 4 5 7
c5 7 10 16 13 24c5 12 9 24 11 37c1 13 1 26 0 39c-2 12 -6 25 -11 37c-3 8 -8 16 -13 24c-2 2 -3 5 -5 7l-2 2c-3 4 -7 8 -10 12c-4 4 -8 7 -13 11l-1 1v0c-3 2 -5 3 -7 5c-8 5 -16 9 -24 13c-12 5 -25 9 -38 10zM380 173c1 13 1 25 0 38c-2 13 -6 25 -11 37
c-3 9 -8 17 -13 25c-2 2 -3 4 -5 7c-1 0 -1 1 -2 2c-3 4 -7 8 -10 11c-4 4 -8 8 -13 11c0 1 -1 1 -1 2v0c-3 1 -5 3 -7 4c-8 6 -16 10 -24 14c-12 5 -25 8 -38 10c-14 2 -28 1 -43 1h-113v-136v-125v-25h26h80c17 0 34 -1 50 1c13 2 26 5 38 10c8 4 16 8 24 14c3 1 5 3 7 5
c1 0 2 1 2 1c4 4 8 7 12 11s7 8 11 12c0 1 1 1 1 2v0c2 2 3 4 5 6c5 8 10 16 13 25c5 12 9 24 11 37z" />
    <glyph glyph-name="C" unicode="C" horiz-adv-x="448" 
d="M412 217c14 0 26 -11 26 -25c-1 -67 -36 -131 -93 -166c-36 -21 -80 -32 -121 -27c-23 3 -44 9 -65 19c-18 8 -35 20 -50 35c-29 28 -50 66 -56 106c-2 17 -3 32 -3 48v135v152v36c0 33 9 66 25 95c20 35 52 65 89 81c21 9 42 15 66 17c21 2 43 0 63 -6
c40 -10 76 -33 101 -65c14 -18 25 -37 33 -58c7 -20 10 -42 11 -63c0 -14 -12 -25 -26 -25s-25 11 -25 25c0 6 0 12 -1 18c-2 13 -6 25 -10 37c-4 9 -9 17 -14 25c-2 2 -3 4 -5 7c-1 0 -1 1 -2 2c-3 4 -7 8 -10 11c-4 4 -8 8 -13 12h-1c0 1 0 1 -1 1c-2 2 -4 3 -6 5
c-8 5 -16 9 -24 13c-12 4 -24 8 -37 10c-13 1 -26 1 -38 0c-13 -2 -25 -6 -37 -10c-9 -4 -17 -9 -25 -14c-2 -2 -5 -3 -7 -5c-1 0 -1 -1 -2 -2c-4 -3 -8 -7 -12 -10c-3 -4 -7 -8 -11 -13l-1 -1v-1c-2 -2 -3 -4 -5 -6c-5 -8 -9 -16 -13 -24c-5 -12 -8 -25 -10 -37
c-1 -6 -1 -13 -1 -19v-102v-162v-57c0 -12 0 -24 1 -36c2 -13 5 -25 10 -37c4 -9 8 -17 14 -25c1 -2 3 -4 4 -7c1 0 2 -1 2 -2c4 -4 7 -8 11 -11c4 -4 8 -8 12 -11l2 -2v0c2 -1 4 -3 6 -4c8 -6 16 -10 25 -14c12 -5 24 -8 37 -10c12 -1 25 -1 38 0c13 2 25 5 37 10
c9 4 17 8 25 14c2 1 4 3 6 4c1 1 2 2 3 2l11 11s8 8 11 12l2 2v0c1 2 3 4 4 6c5 8 10 16 14 25c4 12 8 24 10 37c1 6 1 12 1 19c0 14 11 25 25 25zM330 645v0c-1 0 -1 0 0 0z" />
    <glyph glyph-name="D" unicode="D" horiz-adv-x="415" 
d="M405 537v-27v-138v-64v-112c0 -36 -8 -71 -27 -103c-20 -34 -52 -63 -89 -79c-21 -9 -43 -15 -66 -16c-8 -1 -15 -1 -23 -1h-124c-14 0 -26 12 -26 25v0v51v126v163v162v125v50c0 14 12 26 26 26h4h128c37 0 74 -10 105 -30c37 -23 64 -57 80 -97c7 -19 11 -40 12 -61z
M353 175c1 10 1 20 1 30v52v115v120c0 19 1 38 -1 57c-2 12 -5 25 -10 37c-4 9 -9 17 -14 25c-1 3 -3 5 -5 7c0 1 -1 2 -2 2c-3 4 -6 8 -10 12s-8 7 -12 11c-1 0 -1 1 -2 1v0c-2 2 -4 3 -6 5c-8 5 -17 10 -26 14c-12 5 -24 8 -37 10c-10 1 -19 1 -29 1h-99v-25v-126v-163
v-163v-125v-24h73c18 0 37 -1 55 1c13 2 25 5 38 10c8 4 17 9 25 14c2 2 4 3 6 5c1 0 2 1 3 2c4 3 7 6 11 10s8 8 11 12c1 1 1 2 2 2v0c1 2 3 4 4 7c5 8 10 16 14 25c5 12 8 25 10 38v1z" />
    <glyph glyph-name="E" unicode="E" horiz-adv-x="432" 
d="M101 649v-126v-134h67h117h111c14 0 26 -11 26 -25s-12 -26 -26 -26c-34 0 -69 1 -104 1h-100h-91v-142v-125v-24h43h161h91c14 0 26 -12 26 -26c0 -13 -12 -25 -26 -25h-68h-161h-91c-14 0 -26 12 -26 25v0v51v126v163v162v125v50c0 14 12 26 26 26h68h161h91
c14 0 26 -12 26 -26c0 -13 -12 -25 -26 -25h-68h-161h-66v-25z" />
    <glyph glyph-name="a" unicode="a" horiz-adv-x="579" 
d="M535 155l33 -123c3 -12 -4 -25 -17 -29c-12 -3 -25 5 -28 17c-8 29 -16 57 -24 86l-6 21c-19 -38 -49 -71 -87 -94c-71 -44 -164 -45 -237 -3c-72 41 -118 118 -119 201c0 83 44 162 115 205c72 42 165 43 238 1c32 -19 60 -46 80 -78v83c0 13 11 24 24 24s23 -11 23 -24
v-23v-151v-97c2 -6 3 -11 5 -16zM471 208c1 9 2 17 2 26c0 8 -1 16 -2 24c-2 15 -6 29 -11 43c0 2 -1 3 -2 5c0 1 -1 3 -1 4l-6 12c-5 8 -10 16 -15 23c-1 1 -2 2 -2 3c-2 2 -3 3 -4 5c-3 3 -6 7 -9 10c-6 7 -13 13 -20 19c-1 0 -1 0 -2 1h-1c-1 2 -3 3 -5 4
c-4 3 -7 5 -11 7c-8 5 -16 9 -24 13h-1s-2 1 -3 1l-6 3c-4 1 -9 2 -13 4c-8 2 -16 4 -25 5c-16 2 -33 2 -50 0c-14 -2 -29 -6 -42 -11c-2 -1 -4 -1 -5 -2c-2 0 -4 -1 -4 -2c-4 -1 -8 -3 -12 -6c-9 -4 -16 -9 -24 -14l-3 -3s-3 -2 -4 -3c-4 -3 -7 -6 -10 -9
c-7 -6 -13 -13 -19 -20c0 -1 -1 -1 -1 -2c0 0 -1 0 -1 -1c-1 -2 -2 -3 -4 -5c-2 -4 -5 -8 -7 -11c-5 -8 -9 -16 -12 -24c0 -1 0 -1 -1 -1c0 -1 0 -2 -1 -3c-1 -2 -1 -4 -2 -6c-2 -5 -3 -9 -4 -13c-2 -8 -4 -17 -5 -25c-2 -17 -2 -33 0 -50c2 -15 5 -29 10 -43
c1 -1 2 -3 2 -5c1 -1 2 -3 2 -4l6 -12c5 -8 9 -16 15 -23c1 -1 1 -2 2 -3c1 -2 3 -3 4 -5c3 -3 6 -6 9 -10c6 -6 13 -12 20 -18c0 -1 1 -1 1 -1l1 -1c2 -1 4 -3 6 -4c3 -2 7 -5 11 -7c8 -5 16 -9 24 -13v0c1 0 2 -1 3 -1c3 -1 5 -2 7 -2c4 -2 8 -3 13 -4c8 -3 16 -4 25 -6
c16 -2 33 -2 50 0c14 3 28 6 42 11c2 1 3 1 5 2c1 1 3 2 4 2l12 6c8 4 16 9 24 15c1 0 2 1 3 2s3 2 4 4c4 2 7 5 10 8c7 7 13 14 19 21l1 1c0 1 0 1 1 1c1 2 2 4 3 5c3 4 5 8 8 12c4 7 9 15 12 24v0c1 1 1 2 1 3c1 2 2 4 3 7c1 4 3 8 4 13c2 8 4 16 5 24z" />
    <glyph glyph-name="b" unicode="b" horiz-adv-x="473" 
d="M432 348c20 -36 31 -78 31 -119v0v0c0 -28 -5 -57 -15 -83c-15 -38 -39 -72 -71 -97c-16 -12 -33 -23 -52 -31c-21 -9 -42 -14 -64 -17c-14 -2 -28 -2 -43 -2c-20 0 -41 3 -60 11c-20 8 -39 19 -55 35c-14 13 -27 30 -36 48c-11 24 -17 50 -17 78v29v126v166v144v62
c0 13 10 23 23 23s24 -10 24 -23v-40v-132v-93c76 47 176 48 252 1c34 -22 63 -51 83 -86zM149 408v0c2 1 1 0 0 0zM346 84v0c1 1 2 2 0 0zM403 159v0c0 1 1 1 0 0zM415 204c1 8 1 17 2 25v0v0c-1 9 -1 17 -2 26c-3 17 -7 33 -13 49v0c-1 1 -1 2 -1 2l-3 6c-2 4 -4 8 -7 12
c-4 8 -9 16 -15 23c0 1 -1 2 -2 3s-2 3 -4 5l-9 9c-6 7 -13 13 -20 18v1c-1 0 -2 1 -3 2c-2 1 -4 2 -5 3c-4 3 -8 5 -12 7c-7 5 -14 8 -22 12c-1 0 -4 2 -5 2c-2 1 -5 2 -7 2c-4 2 -8 3 -13 4c-8 3 -16 4 -25 6c-17 2 -35 2 -52 0c-10 -2 -20 -4 -30 -7c-6 -2 -11 -4 -17 -6
c-1 0 -2 0 -2 -1h-1c-2 -1 -5 -2 -7 -3c-10 -5 -19 -11 -28 -17c-3 -2 -5 -3 -7 -5c-1 -1 -2 -2 -3 -2c-2 -2 -4 -3 -5 -5v-15v-140v-41c0 -9 0 -19 1 -28c1 -7 2 -14 4 -20c2 -4 3 -7 4 -11v-1c1 -1 2 -3 3 -5c3 -7 7 -13 12 -20c0 0 1 0 1 -1l3 -3c2 -3 5 -6 7 -8l9 -9
c1 0 2 -1 2 -2c1 0 3 -1 3 -1c6 -5 12 -9 19 -12l6 -3h1c3 -1 7 -3 10 -4c7 -2 13 -3 20 -4c9 -1 18 -1 27 -1c10 0 20 0 29 1c12 2 24 5 36 9c2 1 4 2 7 3c1 0 4 1 5 2c3 1 6 2 9 4c8 4 16 9 24 14c2 1 4 3 6 5v0c1 0 1 0 1 1c4 2 7 5 11 8c6 7 13 13 19 20c1 1 3 5 4 5
c0 1 1 2 1 3c3 4 6 7 8 11c5 8 9 16 13 25v1c1 0 1 1 1 1c1 2 2 5 2 7c2 4 3 8 5 13c2 8 4 17 5 25z" />
    <glyph glyph-name="c" unicode="c" horiz-adv-x="479" 
d="M98 260c-1 -8 -1 -16 -1 -25v-2v-1c0 -9 0 -17 1 -25c2 -14 6 -27 10 -40c1 -2 2 -5 3 -7v-1c0 0 1 0 1 -1c2 -4 3 -8 6 -12c4 -8 9 -16 14 -23c1 -2 2 -3 3 -4s2 -3 3 -4c3 -3 6 -7 9 -10c6 -7 13 -13 20 -19l2 -2c2 -1 4 -2 5 -4c4 -2 8 -5 12 -7c8 -5 16 -9 24 -13
c1 0 2 -1 3 -1c2 -1 4 -1 6 -2c5 -2 9 -3 13 -4c9 -3 17 -4 26 -6c16 -2 33 -2 49 0c13 2 25 5 37 9c3 1 7 3 10 4h1c1 1 2 1 3 2c5 2 11 5 17 8c6 4 11 7 17 11c1 1 3 2 4 3v0v0c3 2 5 4 7 6c10 9 18 18 26 28s25 8 34 0c4 -5 6 -11 6 -17c0 -7 -2 -12 -6 -17
c-13 -15 -28 -29 -44 -41c-73 -53 -174 -58 -251 -14c-35 20 -65 49 -86 84c-21 36 -32 77 -32 119v1v2c0 19 2 38 7 56c19 80 82 145 161 168c43 12 90 12 132 -1c44 -14 84 -40 113 -75c4 -6 6 -10 6 -17c0 -6 -2 -12 -6 -17c-9 -8 -26 -10 -34 0c-8 11 -17 20 -27 29
c-2 1 -4 3 -6 4c-1 1 -4 4 -5 4c-5 4 -11 7 -16 11c-6 3 -12 6 -19 9c0 0 -2 1 -3 1c0 0 -1 1 -2 1c-2 1 -5 2 -8 3c-12 4 -24 7 -36 9c-16 1 -33 1 -49 0c-13 -2 -27 -6 -40 -10c-2 -1 -5 -2 -7 -3h-1c0 0 0 -1 -1 -1l-12 -6c-8 -4 -16 -9 -23 -14c-2 -1 -3 -2 -4 -3
s-3 -2 -4 -3c-3 -3 -7 -6 -10 -9c-7 -6 -13 -13 -19 -20c-1 -1 -1 -2 -2 -2c-1 -2 -2 -4 -4 -6c-2 -3 -5 -7 -7 -11c-5 -8 -9 -16 -13 -24c0 -1 0 -2 -1 -3c-1 -2 -1 -4 -2 -7c-2 -4 -3 -8 -4 -13c-3 -8 -4 -16 -6 -25zM136 350v0c2 2 1 1 0 0zM168 85v0c-2 2 -1 1 0 0z
M112 157v0v0z" />
    <glyph glyph-name="d" unicode="d" horiz-adv-x="589" 
d="M544 151c11 -41 22 -82 33 -122c4 -13 -4 -26 -16 -29c-12 -4 -26 4 -29 16c-4 17 -9 33 -13 49c-5 18 -10 37 -15 55c-29 -49 -75 -88 -129 -107c-40 -14 -83 -17 -125 -10c-40 7 -78 25 -110 51c-63 50 -97 134 -88 214c5 41 19 80 43 114c23 32 54 60 90 78
c38 18 80 27 122 25c41 -3 82 -15 116 -37c27 -17 50 -39 68 -64v34v153v68c0 13 11 23 24 23c12 0 23 -10 23 -23v-2v-88v-159v-153v-65zM488 216c1 8 2 17 2 26s-1 18 -2 27c-1 8 -3 17 -5 25c-2 5 -3 10 -5 14c0 2 -1 5 -2 7c0 1 -2 4 -2 5c-3 7 -7 14 -11 21
c-3 4 -5 9 -8 13c-1 1 -2 3 -4 5c0 1 -1 2 -2 3c-6 7 -11 13 -17 19l-10 10c-2 1 -4 3 -6 4c0 1 -3 3 -4 3c-6 5 -13 10 -20 14c-4 2 -8 4 -13 7c-2 1 -4 2 -6 2c-1 1 -3 2 -4 2c-16 7 -32 11 -49 14c-17 2 -35 2 -53 0c-9 -2 -17 -4 -26 -6c-4 -1 -9 -3 -14 -4l-6 -3
c-1 0 -4 -1 -5 -2c-7 -3 -15 -7 -22 -11c-4 -2 -8 -5 -12 -8c-2 -1 -3 -2 -5 -3c-1 -1 -3 -2 -4 -3c-6 -5 -12 -11 -18 -17c-4 -3 -7 -7 -10 -10c-2 -2 -3 -4 -4 -5l-4 -4c-4 -7 -9 -14 -13 -21c-2 -4 -5 -8 -7 -12l-3 -6c0 -1 -1 -4 -2 -5c-6 -16 -10 -32 -13 -49
c-2 -17 -2 -35 0 -53c1 -8 3 -17 6 -25c1 -5 2 -10 4 -14c1 -3 2 -5 2 -7c1 -1 2 -4 2 -5c4 -7 7 -14 12 -21c2 -4 5 -9 7 -13c2 -1 3 -3 4 -5l3 -3c5 -7 10 -13 16 -19c4 -3 7 -7 11 -10c2 -1 3 -3 5 -4c1 -1 3 -3 4 -3c7 -5 13 -10 20 -14c5 -2 9 -4 13 -7c2 -1 4 -2 6 -2
c1 -1 4 -2 5 -2c15 -7 32 -11 48 -14c18 -2 36 -2 53 0c9 2 18 4 26 6c5 1 9 3 14 4l6 3c1 0 4 1 5 2c8 3 15 7 22 11c4 2 8 5 12 8l6 3c0 1 2 2 3 3c7 5 13 11 19 17c3 3 6 7 10 10c1 2 2 4 4 5c1 1 2 3 3 4c5 7 9 14 13 21c3 4 5 8 7 12l3 6c1 1 2 4 2 5c6 16 11 32 13 49
z" />
    <glyph glyph-name="e" unicode="e" horiz-adv-x="497" 
d="M483 365c3 -5 4 -13 2 -18c-2 -7 -6 -11 -11 -14c-9 -7 -19 -15 -29 -22c-38 -28 -76 -56 -115 -84c-42 -31 -85 -63 -128 -94c-15 -12 -31 -23 -46 -34c4 -5 9 -9 14 -13c0 0 1 0 1 -1c0 0 1 0 1 -1l6 -3c3 -3 7 -5 11 -8l24 -12v0c2 -1 3 -1 4 -1l6 -3c4 -1 9 -3 13 -4
c8 -2 16 -4 25 -5c19 -2 39 -2 58 0c11 2 22 4 32 7c6 2 11 4 16 6c1 0 2 1 3 1c3 2 5 3 7 4c10 5 20 10 28 17c2 1 3 2 4 3c2 1 4 3 6 4c4 4 8 7 12 11c9 9 24 9 33 0s9 -24 0 -33c-39 -38 -89 -61 -142 -67c-39 -4 -79 0 -115 14c-38 14 -72 38 -97 69
c-26 32 -45 69 -52 110c-6 41 -4 85 12 124c15 38 38 72 69 98c32 25 69 44 110 51c22 3 44 5 66 2c25 -3 48 -9 71 -19c41 -18 76 -48 101 -85zM171 385v0c4 2 2 1 0 0zM136 349v0c-1 -1 -1 -2 0 0zM172 85v0c1 -1 2 -2 0 0zM261 234c43 32 86 63 129 94l39 30l-12 12
c-5 5 -10 10 -15 14c-1 1 -2 2 -3 2c-1 1 -2 2 -4 3c-3 2 -5 4 -8 5c-6 4 -13 8 -20 11c-2 1 -3 2 -5 3c-1 0 -2 1 -3 1c-2 1 -5 2 -7 3c-13 4 -27 8 -41 10c-16 2 -33 2 -50 0c-15 -2 -29 -6 -43 -11l-6 -3c-1 0 -2 0 -3 -1l-12 -6c-8 -4 -16 -9 -24 -15c-1 0 -1 -1 -2 -2
c-2 -1 -4 -2 -5 -4c-4 -3 -7 -6 -10 -9c-7 -6 -13 -13 -19 -20v-1c-1 0 -1 -1 -1 -1c-2 -2 -3 -4 -4 -6c-3 -3 -5 -7 -8 -11l-12 -24v0c-1 -1 -1 -2 -1 -4l-3 -6c-1 -4 -2 -9 -4 -13c-2 -8 -4 -16 -5 -25c-2 -16 -2 -33 0 -50c2 -15 6 -29 11 -43c1 -2 3 -6 3 -7
c0 0 1 -1 1 -2l6 -12s4 -8 6 -11l21 15z" />
    <glyph glyph-name="F" unicode="F" horiz-adv-x="398" 
d="M100 649v-125v-121h10h155h98c13 0 23 -10 23 -23s-10 -23 -23 -23h-36h-155h-72v-158v-125v-50c0 -13 -11 -25 -25 -25s-25 12 -25 25v50v125v162v163v125v50c0 13 11 25 25 25h35h155h98c14 0 25 -12 25 -26c0 -13 -11 -25 -25 -25h-35h-155h-73v-24z" />
    <glyph glyph-name="G" unicode="G" horiz-adv-x="469" 
d="M434 372c14 0 25 -12 25 -25v-1v-131c0 -27 -2 -54 -11 -79c-15 -41 -41 -75 -76 -100c-68 -49 -165 -50 -234 -1c-35 25 -61 58 -76 99c-9 24 -12 49 -12 75v121v154v36c0 34 9 69 26 100c20 35 51 65 87 82c41 20 86 26 131 18c42 -8 82 -30 111 -62
c34 -38 54 -86 54 -137c0 -14 -11 -26 -25 -26s-25 12 -25 26c0 6 -1 12 -2 19c-2 13 -5 27 -10 39c-5 10 -10 19 -15 27c-2 3 -4 5 -5 8h-1c0 1 -1 2 -2 2c-3 5 -7 9 -11 13s-9 8 -13 11l-2 2h-1c-2 2 -4 4 -6 5c-9 5 -17 10 -26 14c-13 5 -27 9 -40 11c-14 2 -28 2 -41 0
c-14 -2 -27 -6 -40 -11c-9 -4 -18 -9 -27 -15c-2 -1 -5 -3 -7 -5c-1 0 -2 -1 -3 -2c-4 -3 -8 -7 -12 -11s-8 -9 -12 -13c0 -1 -1 -1 -1 -2l-1 -1c-1 -2 -3 -4 -4 -6c-6 -9 -11 -18 -15 -27c-5 -13 -9 -26 -11 -39c-1 -13 -1 -25 -1 -38v-60v-162v-59c0 -13 0 -26 1 -38
c3 -14 6 -27 11 -40c4 -9 9 -18 15 -26c2 -3 3 -5 5 -8c1 0 1 -1 2 -2c4 -4 7 -9 11 -12c5 -5 9 -9 13 -12c1 -1 2 -1 2 -2h1c2 -2 4 -3 6 -5l27 -15c13 -5 26 -8 40 -10s27 -2 41 0s27 5 40 10c9 5 18 9 26 15c3 2 5 3 8 5c0 1 1 2 2 2c4 4 9 8 12 12c5 4 9 8 12 13
c1 0 1 1 2 2v0c2 2 3 5 5 7c5 8 10 17 15 26c5 13 8 26 10 40c2 12 2 25 2 38v100h-94c-14 0 -25 12 -25 26c0 13 11 25 25 25h1h118z" />
    <glyph glyph-name="H" unicode="H" horiz-adv-x="499" 
d="M489 357v-1v-1v-153v-126v-50c0 -14 -11 -25 -25 -25s-25 11 -25 25v47v124v134h-113h-161h-65v-129v-126v-50c0 -14 -11 -25 -25 -25s-25 11 -25 25v47v124v162v163v125v51c0 13 11 25 25 25s25 -12 25 -25v-48v-124v-145h122h162h55v141v125v51c0 13 11 25 25 25
s25 -12 25 -25v-48v-124v-162v-7z" />
    <glyph glyph-name="I" unicode="I" horiz-adv-x="111" 
d="M76 724c13 0 25 -12 25 -25v-50v-125v-162v-163v-125v-50c0 -13 -12 -25 -25 -25c-14 0 -26 12 -26 25v50v125v162v163v125v50c0 13 12 25 26 25z" />
    <glyph glyph-name="J" unicode="J" horiz-adv-x="449" 
d="M435 160c-8 -40 -29 -78 -58 -106c-15 -14 -32 -26 -50 -35c-21 -10 -42 -16 -65 -19c-43 -5 -89 5 -126 27c-18 11 -35 25 -49 41c-15 19 -26 38 -35 60c-5 13 5 28 18 31c6 2 13 1 19 -2c6 -4 9 -9 12 -15v-2c4 -9 9 -18 15 -26c1 -2 3 -4 4 -7v0c1 0 2 -1 2 -2
c4 -4 7 -8 11 -12s8 -8 13 -11c0 -1 1 -1 2 -2c2 -2 4 -3 7 -5c8 -5 16 -10 25 -14c13 -5 26 -8 39 -11c13 -1 26 -1 39 0c14 3 27 6 39 11c9 4 18 9 26 14c2 2 4 3 7 5c0 1 1 1 2 2c4 3 8 7 12 11s8 8 11 12c1 1 1 2 2 2v1c2 2 3 4 5 6c5 8 10 17 14 26c5 12 8 25 10 38
c2 12 2 23 2 35v110v163v148v39h-25h-124c-14 0 -25 12 -25 26c0 13 11 25 25 25h50h124c14 0 25 -12 25 -25v-24v-122v-166v-140c0 -29 2 -58 -3 -87zM146 81v0c-1 1 -1 1 0 0zM355 105v0v0z" />
    <glyph glyph-name="K" unicode="K" horiz-adv-x="559" 
d="M536 720c11 -6 16 -22 9 -34s-14 -23 -22 -35l-75 -123c-28 -45 -56 -90 -83 -135c-11 -17 -21 -34 -31 -51c20 -33 41 -66 62 -99c28 -46 57 -92 86 -137l42 -69c8 -12 3 -28 -9 -35s-27 -2 -34 10l-6 9c-21 34 -43 68 -64 103c-29 45 -57 91 -86 137
c-12 18 -23 37 -34 55h-104h-86v-117v-125v-50c0 -13 -12 -25 -26 -25s-25 12 -25 25v50v125v162v163v125v50c0 13 11 25 25 25s26 -12 26 -25v-50v-125v-157h94h94c5 8 10 15 15 23l75 123c28 45 56 90 83 135l39 63c7 12 23 17 35 9z" />
    <glyph glyph-name="f" unicode="f" horiz-adv-x="418" 
d="M321 702c40 -21 69 -56 85 -97c5 -12 -5 -26 -16 -29c-6 -2 -13 -1 -18 2c-6 3 -8 8 -11 14v1c-1 2 -2 3 -2 4c-2 4 -3 7 -5 10c-3 6 -7 11 -11 17c-1 0 -1 1 -1 1c-1 1 -2 3 -3 4c-3 2 -5 5 -7 7c-5 5 -9 9 -14 12l-2 2c-1 1 -3 2 -4 3c-3 2 -6 4 -9 5l-9 6
c-2 0 -3 1 -5 2h-2c-11 5 -22 8 -34 10c-13 1 -25 1 -38 0c-7 -1 -14 -3 -21 -5c-5 -1 -9 -3 -13 -4c-1 -1 -1 -1 -2 -1c-1 -1 -3 -2 -5 -3c-7 -3 -15 -8 -22 -13c0 0 -1 -1 -2 -1c-1 -2 -3 -3 -4 -4c-3 -3 -6 -5 -9 -8s-6 -7 -9 -10c-1 -1 -2 -2 -2 -3c-1 -1 -2 -2 -2 -3
c-5 -7 -10 -14 -14 -21c-1 -2 -1 -4 -2 -6v-1c-1 0 -1 -1 -1 -1c-2 -4 -3 -8 -4 -12c-2 -7 -4 -14 -5 -22c-2 -14 -1 -27 -1 -41v-114h38h123c13 0 24 -10 24 -23s-11 -23 -24 -23h-58h-103v-124v-146v-63c0 -12 -11 -23 -24 -23c-12 0 -23 11 -23 23v22v118v165v146v65
c0 42 15 82 41 115c25 32 61 55 100 64c44 10 91 4 130 -17zM107 592v0c0 -1 -1 -2 0 0zM180 666v0c-1 0 -3 -1 0 0z" />
    <glyph glyph-name="g" unicode="g" horiz-adv-x="587" 
d="M559 468c13 -3 20 -16 17 -28c-3 -9 -5 -17 -7 -25c-11 -40 -22 -79 -33 -119v-6v-107v-163v-144c0 -29 2 -59 -3 -88c-5 -40 -23 -78 -48 -110s-58 -56 -95 -72c-41 -17 -85 -21 -129 -14c-46 7 -90 30 -124 63c-10 9 -9 24 0 33c9 10 24 9 33 0c4 -4 8 -7 12 -11
c1 -1 5 -4 5 -4c2 -1 3 -2 4 -3c9 -6 19 -12 29 -16c2 -2 5 -3 8 -4c1 -1 2 -1 3 -2c5 -1 10 -3 15 -5c10 -3 20 -5 30 -6c16 -2 33 -2 50 0c15 2 30 6 44 11c1 1 6 2 6 3c1 0 2 1 3 1l12 6c8 4 16 9 23 15c1 0 2 1 3 2v0c1 1 3 2 5 4c3 3 6 6 10 9c6 6 12 13 18 20v0
c1 1 1 2 2 2c1 2 2 4 4 6c2 3 5 7 7 11c4 7 8 14 11 22c1 1 2 4 2 5c1 3 2 5 3 7c1 4 3 8 4 13c2 8 4 16 5 24c2 17 1 34 1 51c1 42 1 84 1 126v124c-29 -39 -69 -69 -116 -86c-39 -14 -83 -17 -124 -10c-40 7 -78 25 -110 51c-62 50 -97 133 -88 214c5 40 19 80 43 113
s54 60 90 78c38 18 80 28 121 25c42 -2 82 -15 117 -37c34 -22 62 -51 82 -86v-1c9 31 17 61 25 92c4 12 17 20 29 16zM488 215c1 9 1 18 1 27s0 17 -1 26c-2 9 -3 18 -6 26c-1 5 -3 9 -4 14l-3 6c0 1 -1 4 -2 5c-3 8 -7 15 -11 22c-2 4 -5 8 -7 12c-2 2 -3 4 -4 6
c-1 0 -2 2 -3 3c-5 6 -11 13 -16 19c-4 3 -7 6 -11 9l-5 5c-1 0 -3 2 -4 3c-7 5 -13 9 -20 13c-5 3 -9 5 -13 7l-6 3c-1 0 -4 1 -5 2c-15 6 -32 10 -48 13c-18 2 -35 2 -53 0c-9 -1 -17 -3 -26 -5c-4 -2 -9 -3 -14 -5c-2 -1 -4 -1 -6 -2c-1 -1 -4 -2 -5 -2
c-7 -4 -15 -7 -22 -11c-4 -3 -8 -5 -12 -8c-2 -1 -3 -3 -5 -4c-1 0 -3 -2 -4 -2c-6 -6 -12 -11 -18 -17c-4 -4 -7 -7 -10 -11c-2 -1 -3 -3 -4 -5l-4 -4c-4 -6 -9 -13 -13 -20c-2 -4 -5 -8 -7 -13l-3 -6c0 -1 -1 -3 -2 -4c-6 -16 -10 -32 -13 -49c-2 -17 -2 -35 0 -53
c2 -8 3 -17 6 -25c1 -5 3 -10 4 -14c1 -3 2 -5 2 -7c1 -1 2 -4 2 -5c4 -7 7 -14 12 -21c2 -4 5 -9 7 -13c2 -1 3 -3 4 -5l3 -3c5 -7 11 -13 16 -19c4 -3 7 -7 11 -10c2 -1 3 -3 5 -4c1 -1 3 -3 4 -3c7 -5 13 -10 20 -14c4 -2 9 -4 13 -6l6 -3c1 -1 4 -2 5 -2
c15 -6 31 -11 48 -13c18 -2 35 -2 53 0c9 1 17 3 26 5c4 1 9 3 14 4l6 3c1 0 4 1 5 2c7 3 15 7 22 11c4 2 8 5 12 8c2 1 3 2 5 3c1 1 3 2 4 3c6 5 12 11 18 17c4 3 7 7 10 10c2 2 3 4 4 5l4 4c4 7 9 14 13 21c2 4 5 8 7 12l3 6c0 1 1 4 2 5c6 16 10 32 13 48z" />
    <glyph glyph-name="h" unicode="h" horiz-adv-x="434" 
d="M359 428c31 -25 54 -62 62 -102c3 -18 3 -35 3 -53v-146v-103c0 -12 -10 -23 -23 -23s-23 11 -23 23v26v152v67c0 13 0 26 -1 39c-2 7 -3 15 -6 22c-1 4 -2 8 -4 11c0 1 0 2 -1 3s-1 3 -2 5c-4 7 -8 14 -13 20c0 1 -1 1 -1 2c-1 1 -2 3 -4 4c-2 3 -5 6 -8 9s-6 6 -9 8
l-3 3c-1 0 -2 1 -3 2c-6 4 -13 9 -21 12l-6 3v0v0c-4 2 -8 3 -12 5c-7 2 -14 3 -22 4c-16 2 -33 2 -49 0c-8 -1 -16 -2 -23 -5c-4 -1 -8 -2 -11 -4c-1 0 -2 0 -3 -1s-3 -1 -5 -2c-7 -4 -14 -8 -20 -13c-1 0 -2 -1 -2 -1c-1 -1 -3 -2 -4 -4c-3 -2 -6 -5 -9 -8s-6 -6 -8 -9
l-3 -3c0 -1 -1 -2 -2 -3c-5 -6 -9 -13 -12 -20c-1 -2 -2 -4 -3 -7v0h-1c-1 -4 -2 -8 -4 -12c-2 -7 -3 -14 -5 -21c-1 -12 -1 -23 -1 -35v-146v-103c0 -12 -10 -23 -23 -23s-24 11 -24 23v1v117v80v2v4v92v160v151v68c0 12 11 23 24 23s23 -11 23 -23v-4v-92v-160v-33
c11 13 25 24 39 33c17 10 37 18 57 22c17 4 33 4 51 4c42 0 82 -14 115 -41zM149 395v0c4 3 2 1 0 0zM351 370v0c2 -3 0 -1 0 0z" />
    <glyph glyph-name="i" unicode="i" horiz-adv-x="250" 
d="M203 592c-14 0 -26 12 -26 25c0 14 12 26 26 26c13 0 25 -12 25 -26c0 -13 -12 -25 -25 -25zM181 461c36 -15 59 -53 59 -91v-97v-163v-86c0 -12 -11 -23 -24 -23c-12 0 -23 11 -23 23v2v103v162v59v28c-1 3 -2 6 -3 8c0 2 -1 3 -1 5l-1 1c-2 4 -4 7 -6 10v1l-4 4l-5 5v0
h-1l-9 6c-1 0 -1 0 -2 1c-2 0 -3 1 -5 1c-3 1 -6 2 -8 2c-13 2 -25 1 -38 1h-37s-23 10 -23 23s10 24 23 24h24h38h9c13 -1 25 -4 37 -9z" />
    <glyph glyph-name="M" unicode="M" horiz-adv-x="683" 
d="M654 722c11 -3 19 -13 19 -24v-672c0 -14 -12 -26 -25 -26c-14 0 -26 12 -26 26v588c-11 -17 -227 -344 -239 -361c-10 -17 -32 -17 -43 0c-5 7 -217 327 -239 361v-588c0 -14 -12 -26 -25 -26c-14 0 -26 12 -26 26v672c0 11 8 21 19 24s22 -2 29 -12
c4 -7 141 -214 171 -259c27 -40 89 -134 93 -140c19 30 252 382 264 399c6 10 17 15 28 12z" />
    <glyph glyph-name="L" unicode="L" horiz-adv-x="395" 
d="M360 51c14 0 25 -12 25 -25c0 -14 -11 -26 -25 -26h-33h-154h-98c-14 0 -25 12 -25 26v49v124v162v162v124v50c0 14 11 25 25 25s25 -11 25 -25v-49v-124v-162v-162v-124v-25h9h154h97z" />
    <glyph glyph-name="N" unicode="N" horiz-adv-x="609" 
d="M573 723c14 0 26 -12 26 -25v-50v-124v-162v-162v-125v-49c0 -12 -8 -22 -19 -25c-12 -3 -22 3 -28 12c-2 2 -4 5 -6 7c-15 20 -29 40 -44 60c-26 35 -52 69 -77 104c-32 43 -64 86 -95 128c-33 45 -66 90 -99 134c-30 40 -60 80 -89 120c-14 18 -27 37 -41 55v-97v-162
v-162v-124v-50c0 -14 -12 -26 -25 -26c-14 0 -26 12 -26 26v49v124v162v162v125v50c0 11 8 21 19 24c12 3 22 -2 28 -12c2 -2 4 -4 6 -7c15 -20 29 -40 44 -60c26 -34 51 -69 77 -104c32 -42 64 -85 95 -128c33 -45 66 -89 99 -134c30 -40 59 -80 89 -120
c14 -18 27 -37 41 -55v97v162v162v125v50c0 13 12 25 25 25z" />
    <glyph glyph-name="O" unicode="O" horiz-adv-x="446" 
d="M436 442v-161v-87c-1 -69 -38 -134 -98 -168c-38 -22 -83 -29 -126 -22c-40 6 -79 26 -107 55c-14 14 -26 31 -35 49c-10 21 -16 42 -19 65c-1 12 -1 25 -1 38v136v150v33c0 35 10 70 28 99c22 37 55 64 94 80s84 18 124 6c41 -12 76 -37 102 -71c24 -32 38 -73 38 -113
v-89zM384 175c1 6 1 12 1 19v1v102v161v56c0 12 0 24 -1 35c-2 13 -5 25 -10 37c-4 8 -8 17 -14 24c-1 3 -3 5 -4 7l-2 2c-4 4 -7 8 -11 12c-3 4 -8 7 -12 11c0 0 -1 1 -2 1v0c-2 2 -4 3 -6 5c-8 5 -16 9 -24 13c-12 5 -24 8 -37 10s-26 2 -38 0c-13 -2 -25 -5 -37 -10
c-8 -4 -17 -8 -24 -13c-3 -2 -5 -3 -7 -5c-1 -1 -2 -1 -2 -2c-4 -3 -8 -7 -12 -10c-4 -4 -7 -8 -11 -12c0 -1 -1 -2 -1 -2v0c-2 -2 -3 -4 -5 -7c-5 -7 -10 -16 -13 -24c-5 -12 -9 -25 -11 -37c0 -6 -1 -13 -1 -19v-101v-162v-56c0 -12 0 -25 2 -37s5 -24 10 -36
c3 -9 8 -17 13 -25c2 -2 3 -4 5 -6c1 -1 1 -2 2 -3c3 -4 6 -7 10 -11s8 -8 12 -11c1 0 1 -1 2 -1v-1c2 -1 4 -3 7 -4c7 -5 16 -10 24 -13c12 -5 24 -9 37 -11c12 -1 25 -1 38 0c13 2 25 6 37 11c8 3 16 8 24 13c2 2 5 3 7 5c1 0 1 1 2 2c4 3 8 6 12 10c3 4 7 8 11 12
c0 1 0 1 1 2v0c2 2 3 4 4 6c6 8 10 16 14 25c5 12 8 24 10 37z" />
    <glyph glyph-name="P" unicode="P" horiz-adv-x="486" 
d="M424 635c25 -33 43 -70 49 -111c6 -42 2 -85 -14 -125c-15 -37 -39 -71 -71 -96c-32 -26 -70 -44 -111 -50c-21 -3 -43 -3 -64 -3h-112v-50v-125v-50c0 -13 -12 -25 -25 -25c-14 0 -26 12 -26 25v0v51v124v162v162v125v49c0 14 12 26 26 26h98h61c32 0 63 -5 92 -18
c38 -15 72 -39 97 -71zM424 462c2 16 2 33 0 50c-3 16 -7 32 -13 47c-5 12 -11 23 -19 34c-1 2 -3 5 -5 8v0l-3 3c-4 5 -9 10 -14 15c-4 5 -9 9 -14 13l-3 3h-1c-3 2 -5 4 -8 6c-10 7 -21 13 -33 18c-15 6 -31 10 -47 13c-21 2 -42 1 -63 1h-100v-25v-125v-162v-61h29h80
c18 0 36 0 54 2c16 2 32 6 47 12c12 6 23 12 34 19c3 2 5 4 8 6v0c1 1 2 2 4 3c5 4 10 8 14 13c5 5 9 10 14 15c0 1 1 2 2 3v0l6 9c7 10 13 21 18 32c6 16 10 31 13 48z" />
    <glyph glyph-name="m" unicode="m" horiz-adv-x="986" 
d="M885 439c36 -23 63 -57 78 -96c10 -24 13 -50 13 -76v-135v-106c0 -13 -11 -23 -23 -23c-13 0 -24 10 -24 23v14v144v69c0 14 1 27 -1 41c-1 9 -3 17 -6 25c-1 4 -3 8 -4 12c0 1 -1 2 -1 2l-3 6c-4 9 -9 17 -14 24l-2 2s-2 3 -4 4c-2 4 -5 7 -9 10c-3 3 -6 7 -10 10
c-1 1 -4 3 -4 3c-1 1 -2 1 -3 2c-7 5 -15 10 -23 14c-2 1 -4 1 -6 2v1h-1c-4 2 -9 3 -13 5c-8 2 -16 4 -23 5c-11 1 -22 1 -33 1c-10 0 -21 0 -31 -1c-9 -1 -17 -3 -25 -6c-4 -1 -8 -3 -12 -4c-1 -1 -1 -1 -2 -1l-6 -3c-8 -4 -16 -9 -24 -14c0 -1 -1 -1 -1 -2
c-2 -1 -4 -2 -5 -4c-4 -3 -7 -6 -10 -9s-6 -7 -10 -10c0 -1 -2 -4 -3 -4c0 -1 -1 -2 -2 -3c-5 -7 -9 -15 -13 -23l-3 -6v0l-1 -1c-1 -5 -3 -9 -4 -13c-3 -8 -4 -16 -6 -23c0 -7 -1 -14 -1 -21c0 -2 0 -4 -1 -7v-135v-106c0 -13 -10 -23 -23 -23s-24 10 -24 23v14v144v69
c0 14 1 27 -1 41c-1 9 -3 17 -5 25c-2 4 -3 8 -5 12c0 1 0 2 -1 2l-3 6c-4 9 -9 17 -14 24c0 1 -1 1 -1 2c-2 1 -3 3 -4 4c-3 4 -6 7 -9 10c-4 3 -7 7 -11 10c-1 1 -4 3 -4 3c-1 1 -2 1 -3 2c-7 5 -14 10 -22 14c-2 1 -4 1 -6 2c-1 0 -1 1 -1 1h-1c-4 2 -8 3 -13 5
c-7 2 -15 4 -23 5c-11 1 -22 1 -32 1c-11 0 -21 0 -32 -1c-8 -1 -16 -3 -24 -6c-5 -1 -9 -3 -13 -4c-1 -1 -1 -1 -2 -1l-6 -3c-8 -4 -16 -9 -23 -14c-1 -1 -2 -1 -2 -2c-2 -1 -3 -2 -5 -4c-3 -3 -7 -6 -10 -9s-6 -7 -9 -10c-1 -1 -3 -4 -4 -4c0 -1 -1 -2 -1 -3
c-5 -7 -10 -15 -14 -23l-3 -6v0c0 -1 0 -1 -1 -1c-1 -5 -3 -9 -4 -13c-2 -8 -4 -16 -5 -23s-2 -14 -2 -21v-4v-157v-86c0 -13 -11 -24 -23 -24c-13 0 -24 11 -24 24v0v100v162v59c0 9 1 18 0 28c-1 2 -1 5 -2 8c-1 2 -1 3 -2 5c0 1 0 1 -1 2c-1 4 -4 7 -6 10c0 1 -1 1 -1 2
l-4 4c-1 1 -3 3 -5 4v0v0c-3 3 -7 5 -11 7h-1v0c-2 1 -4 2 -6 2c-2 1 -5 1 -8 2c-12 1 -25 0 -38 0h-38s-23 11 -23 24c0 12 10 23 23 23h23h39s27 -1 40 -6c22 -8 41 -22 53 -43c5 -7 9 -16 11 -25c17 22 39 40 65 53c18 9 38 16 58 18c16 3 32 3 48 3c38 0 76 -9 109 -30
c28 -19 51 -44 67 -74c19 35 48 65 84 83c19 9 38 16 59 18c16 3 31 3 47 3c39 0 77 -9 109 -30zM165 417v0v0zM185 401v0c-1 2 -3 4 0 0zM334 411v0c-2 -1 -5 -2 0 0zM551 332c-1 1 -2 5 0 0v0zM701 411c-2 -1 -5 -2 0 0v0zM918 332c-1 1 -2 5 0 0v0z" />
    <glyph glyph-name="l" unicode="l" horiz-adv-x="107" 
d="M73 721c13 0 24 -11 24 -23v-50v-124v-162v-162v-125v-49c0 -13 -11 -24 -24 -24c-12 0 -23 11 -23 24v49v124v162v162v125v50c0 12 11 23 23 23z" />
    <glyph glyph-name="n" unicode="n" horiz-adv-x="620" 
d="M521 438c35 -23 62 -56 77 -96c9 -24 12 -49 12 -74v-136v-106c0 -13 -10 -23 -23 -23s-23 10 -23 23v14v145v68c0 14 0 28 -2 42c-1 8 -3 16 -5 24c-2 5 -3 9 -5 13c0 1 0 1 -1 2c0 2 -1 4 -2 6c-5 8 -9 16 -15 23c0 1 -1 2 -1 2c-1 2 -3 3 -4 5l-9 9c-3 4 -7 7 -10 10
l-3 3c-1 0 -3 2 -4 2c-7 5 -15 10 -23 14c-2 1 -4 2 -7 3v0c0 1 -1 1 -1 1c-5 2 -9 3 -13 4c-8 3 -16 4 -23 6c-11 1 -22 1 -33 1c-10 0 -21 0 -31 -1c-9 -2 -17 -3 -25 -6c-4 -1 -8 -3 -12 -4c-1 -1 -1 -1 -2 -1l-6 -3c-8 -4 -16 -9 -24 -14c0 -1 -1 -1 -2 -2s-3 -2 -4 -4
c-3 -2 -7 -5 -10 -9c-3 -3 -6 -6 -9 -10l-3 -3s-2 -3 -3 -4c-5 -7 -9 -14 -13 -22c-1 -3 -3 -5 -4 -7v-1v-1c-2 -4 -3 -8 -5 -13c-2 -7 -4 -15 -5 -23c-1 -7 -1 -14 -1 -21c0 -1 0 -2 -1 -4v-158v-86c0 -13 -10 -23 -23 -23s-23 10 -23 23v1v101v161v59c0 10 0 19 -1 28
c0 3 -1 6 -2 9c0 1 -1 3 -1 5c-1 0 -1 1 -1 2c-2 3 -4 7 -7 10c0 0 0 1 -1 1c-1 2 -2 3 -3 4c-2 2 -4 3 -5 5v0h-1c-3 2 -7 5 -10 6c-1 0 -1 1 -2 1v0c-2 1 -3 1 -5 2c-3 1 -6 1 -8 2c-13 1 -26 0 -39 0h-38c-12 0 -23 11 -23 23c0 13 11 24 23 24h26h37c14 0 28 -1 42 -7
c21 -9 40 -23 52 -44c4 -7 7 -15 10 -23c17 22 40 41 66 54c21 9 42 15 64 18c14 2 28 2 42 2c38 0 77 -10 109 -32zM185 402v0c-1 1 -3 4 0 0zM255 331v0c-1 -1 -1 -2 0 0zM334 411v0c-1 0 -4 -1 0 0zM472 412v0c-1 0 -2 1 0 0zM552 333v0c-1 1 -2 3 0 0z" />
    <glyph glyph-name="o" unicode="o" horiz-adv-x="527" 
d="M401 438c35 -21 64 -50 84 -84c21 -36 32 -77 32 -118c0 -82 -44 -161 -116 -202c-72 -42 -164 -42 -236 0c-70 42 -115 119 -115 202c0 82 44 160 115 202c72 41 164 42 236 0zM432 350v0c3 -4 1 -2 0 0zM397 385v0c-1 1 -2 1 0 0zM169 384v0c4 3 2 1 0 0zM134 349v0
c0 -1 -1 -2 0 0zM135 122v0c-3 3 -1 1 0 0zM170 87v0c1 -1 2 -2 0 0zM397 87v0c-3 -3 -1 -1 0 0zM432 123v0c1 1 2 1 0 0zM469 210c1 9 1 17 1 26c0 8 0 16 -1 24c-2 15 -6 30 -11 44c-1 1 -3 6 -3 6c0 1 0 2 -1 2l-6 12c-4 8 -9 16 -15 24c0 1 -1 1 -2 2c-1 2 -2 3 -3 5
c-3 3 -6 7 -9 10c-7 6 -13 13 -21 18v1c-1 0 -1 1 -2 1c-2 1 -3 3 -5 4c-4 2 -7 5 -11 7c-8 5 -16 9 -24 12l-1 1c-1 0 -2 0 -3 1c-2 1 -4 1 -6 2c-4 2 -9 3 -13 4c-8 2 -16 4 -24 5c-17 2 -34 2 -50 0c-15 -2 -29 -6 -43 -11c-2 0 -6 -2 -6 -2c-1 -1 -2 -1 -3 -2
c-4 -1 -8 -3 -12 -6c-8 -4 -16 -9 -23 -14c-1 -1 -2 -2 -3 -2c-2 -1 -3 -3 -5 -4c-3 -3 -6 -6 -10 -9c-6 -6 -12 -13 -18 -20l-1 -1c0 -1 -1 -1 -1 -1c-1 -2 -3 -4 -4 -6c-2 -3 -5 -7 -7 -11c-4 -8 -9 -16 -12 -24v0c-1 -1 -1 -2 -2 -3c0 -2 -1 -5 -2 -7c-1 -4 -3 -8 -4 -13
c-2 -8 -4 -16 -5 -24c-2 -17 -2 -33 0 -50c2 -15 6 -29 11 -43c1 -2 2 -6 2 -6c1 -1 1 -2 2 -3l6 -12c4 -8 9 -16 14 -23c1 -1 2 -2 2 -3c2 -1 3 -3 4 -5l9 -9c6 -7 13 -13 20 -19c1 0 1 0 1 -1c1 0 1 0 2 -1s3 -2 5 -3c4 -3 7 -5 11 -8l24 -12v0c1 0 2 -1 3 -1
c3 -1 5 -2 7 -3c4 -1 8 -2 13 -4c8 -2 16 -4 24 -5c17 -2 33 -2 50 0c15 2 29 6 43 11l6 3c1 0 2 1 3 1l12 6c8 4 16 9 23 15c1 0 2 1 3 2c2 1 3 2 5 4c3 2 6 5 10 8l18 21l1 1l1 1c1 2 2 3 4 5c2 4 5 8 7 11l12 24v1c1 1 1 2 1 3l3 6c1 4 3 9 4 13c2 8 4 16 5 24z" />
    <glyph glyph-name="p" unicode="p" horiz-adv-x="682" 
d="M670 273c9 -80 -25 -163 -88 -214c-31 -26 -68 -45 -108 -52c-46 -9 -94 -6 -137 11c-24 10 -46 22 -66 38c-7 6 -14 12 -21 19c-6 5 -11 10 -17 15v-90v-160v-121v-48c0 -12 -10 -23 -23 -23s-23 11 -23 23v5v74v137v165v159v118v34c0 6 0 12 -1 17c0 3 -1 6 -2 9
c0 1 0 2 -1 3c0 1 -1 2 -1 3c-2 3 -3 6 -5 8c-1 1 -1 1 -1 2c-2 1 -3 2 -4 4c-2 1 -3 2 -4 3v0l-1 1c-3 2 -6 4 -9 5c-1 0 -1 1 -1 1c-2 0 -3 1 -5 1c-3 1 -5 2 -8 2c-12 1 -24 0 -36 0h-35c-13 0 -23 11 -23 24s10 23 23 23h47c11 0 23 0 34 -1c21 -4 43 -15 56 -32
c9 -11 16 -24 20 -38c17 22 37 41 60 56c74 49 172 53 250 12c35 -19 66 -46 89 -79c23 -34 37 -74 41 -114zM609 326c0 1 -2 5 0 0v0zM547 406v0c4 -3 2 -1 0 0zM304 407v0c2 2 1 1 0 0zM503 64c1 0 5 2 0 0v0zM583 126v0c-3 -4 -1 -2 0 0zM623 221c2 18 2 36 0 54
c-1 10 -3 19 -6 28c-2 6 -3 11 -5 15c-1 3 -2 5 -3 8c0 0 0 1 -1 1c-3 9 -8 17 -12 25c-3 4 -6 8 -8 12c-2 2 -3 4 -4 5c0 1 -1 1 -1 1v1c-6 7 -12 14 -19 20l-10 10c-2 1 -4 3 -5 4c-1 0 -1 1 -2 1c-7 6 -15 11 -23 15c-4 3 -8 5 -13 7l-6 3c0 0 -1 1 -2 1
c-17 7 -34 11 -51 14c-18 2 -36 2 -54 0c-17 -2 -33 -7 -49 -13c-1 0 -1 -1 -1 -1c-1 0 -2 0 -3 -1c-2 -1 -5 -2 -7 -3c-4 -2 -9 -5 -13 -7c-5 -3 -10 -6 -14 -9c-2 -1 -4 -3 -6 -4c-1 -1 -2 -1 -2 -2v0c-8 -6 -16 -13 -23 -21c-4 -4 -8 -8 -11 -12c-1 -2 -5 -8 -1 -1v-1
c-12 -16 -23 -32 -34 -49l-1 -1v-21v-135v-12c2 -1 3 -2 4 -3l9 -9c16 -14 32 -29 48 -44c3 -2 6 -5 9 -7c1 -1 2 -2 3 -2c2 -2 4 -4 6 -5c10 -6 19 -12 29 -16c2 -1 4 -2 5 -3h2c1 -1 3 -2 5 -2l15 -6c10 -2 20 -5 30 -6c18 -2 36 -2 54 0c9 1 19 3 28 6c6 2 11 3 15 5
c3 1 5 2 8 3c0 0 1 0 1 1c9 3 17 8 25 12c4 3 8 6 12 8c2 2 4 3 5 4c1 0 1 1 1 1h1c7 6 14 12 20 19l10 10c1 2 3 4 4 5c0 1 1 2 1 2c6 7 11 15 15 23c3 4 5 8 7 13l3 6c0 0 1 1 1 2c7 17 11 34 14 51z" />
    <glyph glyph-name="k" unicode="k" horiz-adv-x="403" 
d="M381 517c11 -6 15 -21 8 -32c-9 -17 -18 -33 -27 -50c-26 -47 -51 -94 -77 -140c-12 -23 -25 -46 -37 -69l51 -93c18 -33 36 -65 54 -97c6 -11 3 -25 -8 -32c-11 -6 -26 -3 -32 8l-1 1c-19 36 -39 71 -59 106c-15 28 -30 55 -46 83h-3h-107v-3v-125v-50
c0 -12 -10 -23 -23 -23s-24 11 -24 23v50v125v162v163v125v50c0 12 11 23 24 23s23 -11 23 -23v-50v-125v-162v-114h110l21 39c25 47 51 93 76 140c15 27 30 55 45 82c6 11 21 14 32 8z" />
    <glyph glyph-name="j" unicode="j" horiz-adv-x="465" 
d="M308 568v0c-14 0 -25 11 -25 25s11 25 25 25s25 -11 25 -25s-11 -25 -25 -25zM432 469v0c13 0 23 -11 23 -23c0 -13 -10 -24 -23 -24h-36s-25 1 -38 0c2 0 4 0 7 1l-12 -3c-1 0 -3 -1 -5 -2c-4 -1 5 3 1 1c0 0 -1 -1 -2 -1c-3 -2 -6 -3 -9 -6c-5 -3 4 4 -1 0l-4 -4
c-1 -1 -2 -2 -3 -4c-1 -1 -2 -1 -3 -2c3 3 4 4 2 2c-2 -3 -4 -6 -6 -10c0 -1 -1 -2 -1 -3c2 4 2 5 1 3s-1 -4 -2 -6c-1 -3 -2 -7 -2 -11c0 2 0 4 1 7c-1 -8 -1 -15 -1 -22v-36v-128v-163v-158v-108v-23c0 -29 -8 -59 -24 -84c-23 -35 -60 -61 -101 -69c-24 -4 -50 -4 -73 4
c-24 7 -46 20 -64 37c-9 9 -9 24 0 33s24 9 33 0c2 -2 5 -4 7 -7c2 -1 7 -4 1 0c1 -1 3 -2 4 -3c5 -4 11 -7 17 -10c2 -1 3 -1 5 -2c-7 3 -1 0 0 0l9 -3c7 -2 13 -4 20 -4h-6c11 -1 23 -1 35 0c-2 0 -4 0 -6 -1c7 1 14 3 21 5c3 1 7 2 10 4c5 2 -5 -3 -1 -1c1 1 1 1 2 1
c1 1 3 1 4 2c6 3 12 7 18 11c5 4 -4 -3 0 0c1 1 3 2 4 3l7 7c2 3 5 5 7 8c2 2 6 7 1 1c1 1 2 2 2 3c4 6 8 11 11 17c0 2 1 4 2 5c2 4 -2 -5 -1 -1c1 0 1 1 1 2l3 9c2 7 4 14 5 20c-1 -2 -1 -4 -1 -6c2 15 1 31 1 46v113v159v162v124v34c0 13 1 26 5 38c8 22 22 42 43 53
c16 9 33 13 51 13h61z" />
    <glyph glyph-name="R" unicode="R" horiz-adv-x="501" 
d="M463 367c-18 -36 -46 -67 -79 -90c-4 -3 -9 -5 -13 -8v-2c21 -46 41 -92 61 -138c13 -31 27 -61 40 -92c3 -6 4 -12 2 -19c-1 -6 -6 -12 -11 -15c-6 -4 -13 -4 -20 -3c-5 2 -12 6 -15 12c-3 8 -7 16 -10 24c-20 46 -40 92 -61 138c-10 25 -21 49 -32 74
c-18 -6 -37 -10 -56 -12c-18 -2 -36 -1 -54 -1h-114v-142v-69c0 -14 -12 -25 -25 -25c-14 0 -26 11 -26 25v0v70v153v157v78c0 34 1 68 1 102c0 38 1 76 1 114c0 14 11 25 25 25v0h128c15 0 30 1 45 0c41 0 83 -12 119 -33c35 -20 65 -49 86 -83c21 -36 34 -77 35 -118
c2 -42 -7 -84 -27 -122zM368 328c6 5 11 10 16 14c5 5 9 11 14 16c0 1 1 2 2 3c0 0 1 1 1 2c2 2 4 5 6 8c7 10 13 21 18 33c6 16 11 32 13 49s2 35 0 52s-7 33 -13 49c-5 12 -11 24 -19 34c-2 4 -4 7 -6 9v1v0l-3 3c-4 5 -9 11 -14 15c-5 5 -10 10 -16 15c-1 0 -1 1 -2 2
c-1 0 -2 1 -2 1c-3 2 -6 4 -8 6c-11 7 -22 13 -34 18c-15 6 -32 11 -48 13c-24 3 -48 2 -71 2h-100v-90c-1 -34 -1 -68 -1 -101v-79v-118h38h80c18 0 36 0 54 2c16 2 33 7 48 13c12 5 24 12 35 19l9 6v1v0c1 0 2 1 3 2z" />
    <glyph glyph-name="Q" unicode="Q" horiz-adv-x="517" 
d="M483 0c13 0 24 -11 23 -24c0 -46 -30 -88 -74 -102c-19 -6 -40 -7 -59 -1c-17 5 -32 14 -45 26c-12 9 -22 20 -33 30c-3 2 -5 5 -8 7c-1 0 -1 1 -1 1c-1 1 -3 1 -4 2c-5 4 -10 7 -15 9s-10 3 -15 4s-10 1 -16 0c-5 -1 -9 -2 -14 -4c-4 -1 -7 -3 -10 -6h-1l-1 -1
s-3 -3 -5 -4c-8 -10 -24 -9 -33 0s-9 24 0 33c10 11 23 19 37 24c3 1 5 2 8 2c-26 4 -50 12 -72 26c-33 19 -60 48 -76 82c-13 27 -19 56 -19 86v95v152v94c0 69 37 134 97 168c34 20 74 29 113 25c22 -2 42 -7 62 -15c17 -8 33 -18 48 -30c29 -25 50 -58 61 -95
c5 -19 7 -39 7 -59v-109v-151v-76c0 -57 -26 -114 -71 -150c-16 -13 -33 -24 -53 -31c-14 -6 -28 -10 -43 -12h2c18 -5 33 -15 47 -27c11 -9 22 -19 33 -29c2 -3 5 -5 8 -8c1 0 2 -1 2 -2c1 0 2 -1 2 -1c5 -3 10 -6 16 -9c4 -2 8 -3 12 -4c5 0 10 0 15 1s10 2 15 4
c4 2 8 4 11 6c1 1 2 1 2 2h1c2 1 3 3 5 5l5 5c0 1 1 2 2 3c2 3 4 7 6 11c1 4 3 10 4 15v8c0 13 11 24 24 24zM359 97v0v0zM128 622v0c2 2 1 1 0 0zM152 74v0v0zM155 72c2 -2 4 -4 6 -5c8 -5 17 -10 25 -14c12 -5 25 -8 38 -10s27 -2 40 0s25 5 37 10c9 4 18 9 26 14
c2 2 5 3 7 5c1 1 2 1 2 2c4 4 8 7 12 11s7 8 11 12c0 1 1 1 2 2v0c2 3 3 5 5 7c5 8 9 16 13 25c5 12 9 25 11 38c0 6 1 13 1 20v12v119v149v49c0 11 0 22 -1 33c-2 13 -6 25 -11 37c-4 9 -8 18 -14 26c-1 2 -3 5 -5 7c0 1 -1 2 -2 3c-3 3 -7 7 -10 11c-4 4 -8 7 -13 11
c0 0 -1 1 -1 2h-1c-2 2 -5 3 -7 5c-8 5 -16 9 -25 13c-12 5 -24 9 -37 11c-13 1 -27 1 -40 0c-13 -2 -26 -6 -38 -11c-9 -4 -17 -8 -25 -14c-2 -1 -5 -3 -7 -5c-1 0 -2 -1 -3 -2c-3 -3 -7 -6 -11 -10s-8 -8 -11 -12c-1 -1 -1 -2 -2 -2v-1c-2 -2 -3 -4 -5 -7
c-5 -8 -10 -16 -14 -25c-4 -12 -8 -24 -10 -37c-1 -11 -1 -21 -1 -31v-119v-149v-49c0 -12 0 -23 1 -34c2 -13 6 -26 10 -38c4 -9 9 -18 15 -26c1 -2 3 -4 4 -6l3 -3c3 -4 6 -8 10 -11c4 -4 8 -8 12 -11l2 -2h1zM211 -58v0c-1 -1 -3 -2 0 0zM435 -72v0c-2 -2 -1 -1 0 0z" />
    <glyph glyph-name="S" unicode="S" horiz-adv-x="449" 
d="M428 257c7 -19 11 -40 11 -61c0 -41 -10 -81 -34 -115c-25 -35 -59 -61 -100 -74c-19 -6 -39 -9 -59 -9c-21 0 -41 1 -61 6c-46 10 -88 35 -120 69c-9 10 -10 26 0 36c10 9 27 10 36 0c5 -6 10 -11 16 -16c2 -2 5 -4 8 -7v0c2 -1 3 -2 5 -3c11 -8 23 -15 36 -20
c15 -6 30 -10 46 -13c17 -2 36 -2 53 0c13 2 26 5 37 10c9 4 18 8 25 14c2 1 4 2 6 4c1 0 2 1 3 2c4 3 7 6 11 10s8 8 11 12c0 1 1 1 1 2h1c1 2 3 4 4 7c5 7 9 15 13 24c5 11 8 24 10 36c2 14 2 27 0 41c-2 12 -5 25 -10 37c-4 8 -8 17 -14 25c-1 2 -2 4 -4 6l-2 2
c-3 4 -6 7 -10 11s-8 8 -12 11l-2 2v0c-2 1 -4 3 -6 4c-8 5 -16 10 -25 13c-11 5 -24 8 -36 10c-8 1 -16 1 -24 2c-13 0 -26 1 -38 4c-22 4 -44 13 -63 25c-36 23 -63 57 -78 97c-14 37 -16 81 -6 119c11 39 34 76 66 101c18 13 37 24 58 32c20 7 41 10 62 10h4
c63 -2 124 -29 167 -75c9 -10 10 -26 0 -36c-10 -9 -27 -10 -36 0c-5 5 -10 11 -16 15c-2 3 -5 5 -8 8v0c-2 1 -3 2 -5 3c-11 8 -23 15 -36 20c-14 6 -30 10 -46 13c-8 1 -16 1 -24 1h-3c-6 0 -11 0 -16 -1c-13 -2 -25 -5 -36 -10c-9 -4 -18 -8 -25 -14c-2 -1 -4 -2 -6 -4
c-1 0 -2 -1 -3 -2c-4 -3 -7 -6 -11 -10s-8 -8 -11 -12c0 -1 -1 -1 -1 -2h-1c-1 -2 -3 -4 -4 -6c-5 -8 -9 -16 -13 -25c-5 -11 -8 -24 -10 -36c-2 -14 -2 -28 0 -42c2 -13 5 -25 10 -37c4 -9 8 -17 14 -25c1 -2 2 -4 4 -6c0 -1 1 -1 2 -2c3 -4 6 -8 10 -12c4 -3 8 -7 12 -11
c1 0 1 -1 2 -1v0c2 -2 4 -3 6 -5c8 -5 16 -9 25 -13c11 -5 23 -8 36 -10c10 -1 19 -1 29 -1c14 -1 28 -2 41 -6c39 -10 76 -32 101 -64c14 -18 25 -36 33 -58z" />
    <glyph glyph-name="T" unicode="T" horiz-adv-x="560" 
d="M525 723c14 0 25 -11 25 -25s-11 -25 -25 -25v0h-113h-87v-25v-124v-162v-163v-124v-50c0 -14 -11 -26 -25 -26s-25 12 -25 26v49v125v162v162v125v25h-88h-112c-14 0 -25 11 -25 25s11 25 25 25v0h113h112h1h112h112z" />
    <glyph glyph-name="U" unicode="U" horiz-adv-x="474" 
d="M463 385v-141c0 -28 2 -57 -3 -85c-7 -40 -27 -78 -57 -106c-14 -14 -31 -26 -49 -35c-21 -9 -42 -15 -65 -18c-14 -2 -27 -1 -41 -1c-19 0 -37 2 -55 7c-39 11 -75 34 -100 66c-27 34 -43 76 -43 120v19v113v163v147v64c0 14 11 25 25 25s25 -11 25 -25v-24v-121v-165
v-141v-42c0 -10 0 -20 1 -30c2 -13 6 -26 11 -38c4 -9 8 -17 14 -25c1 -3 3 -5 4 -7h1c0 -1 1 -2 2 -2c3 -4 6 -8 10 -12s8 -7 12 -11c1 0 1 -1 2 -1v0c2 -2 4 -3 7 -5c7 -5 16 -10 24 -14c12 -4 25 -8 38 -10c10 -1 20 -1 31 -1c10 0 20 0 30 1c13 2 26 6 38 10
c9 5 17 9 25 15c2 1 5 3 7 4v0c1 1 1 2 2 3c4 3 8 6 12 10s7 8 11 12c0 1 1 1 1 2v0c2 2 3 4 5 6c5 8 9 17 13 25c5 12 9 25 11 37c1 12 1 24 1 36v113v164v147v64c0 14 11 25 25 25s25 -11 25 -25v-26v-122v-165z" />
    <glyph glyph-name="q" unicode="q" horiz-adv-x="684" 
d="M650 469c13 0 24 -11 24 -23c0 -13 -11 -24 -24 -24h-36c-11 0 -23 1 -35 0c-3 -1 -6 -1 -9 -2c-1 -1 -2 -1 -3 -1c-1 -1 -2 -1 -2 -2c-3 -1 -7 -3 -9 -5c-1 0 -1 0 -1 -1c-2 -1 -3 -2 -4 -3l-4 -4v-1v0l-6 -9c0 -1 -1 -1 -1 -2s-1 -3 -1 -4c-1 -3 -2 -6 -2 -8
c0 -4 -1 -7 -1 -10v-71v-135v-165v-160v-121v-48c0 -13 -10 -24 -23 -24s-23 11 -23 24v7v80v140v165v27c-3 -2 -5 -5 -8 -7c-17 -16 -34 -31 -53 -44c-77 -48 -178 -50 -256 -3c-35 20 -64 49 -85 83c-22 35 -34 75 -37 116c-2 42 7 84 25 122c18 36 44 67 77 91
c31 23 69 39 107 44c22 3 45 4 67 1c25 -3 48 -9 71 -19c21 -9 40 -21 57 -36c14 -11 27 -24 38 -39c1 2 1 4 2 5c8 22 22 42 43 53c16 9 33 13 51 13h61zM456 370v0c2 -3 1 -1 0 0zM220 432c-1 -1 -5 -2 0 0v0zM140 370v0c2 4 1 1 0 0zM113 170c1 -2 3 -5 0 0v0zM175 89v0
c-3 3 -1 1 0 0zM486 149c1 1 3 2 4 3v68v101l-1 1c-4 5 -8 11 -11 17l-21 30l-1 1c0 1 -1 1 -1 1c-2 2 -3 4 -5 6c-7 8 -14 15 -22 22c-2 2 -4 4 -7 6l-1 1s-1 0 -1 1c-4 3 -8 5 -12 8c-9 6 -18 11 -28 15c-1 1 -2 1 -4 2s-4 2 -7 3c-4 1 -9 3 -14 5c-10 2 -20 4 -29 6
c-18 2 -36 2 -54 0c-10 -2 -19 -4 -29 -6c-5 -2 -10 -3 -15 -5c-2 -1 -4 -2 -7 -3c0 0 -1 -1 -2 -1c-8 -4 -16 -8 -24 -13c-4 -2 -8 -5 -12 -8c-2 -1 -4 -2 -6 -4h-1v-1c-7 -5 -14 -12 -21 -18c-3 -4 -6 -7 -9 -11c-2 -1 -3 -3 -4 -5c-1 0 -1 -1 -2 -1
c-5 -8 -10 -15 -15 -23c-2 -4 -4 -9 -7 -13c-1 -2 -2 -4 -2 -6c-1 -1 -1 -2 -2 -3c-6 -16 -11 -33 -14 -51c-2 -18 -2 -36 0 -53c2 -10 4 -20 7 -29c1 -5 3 -10 5 -15c0 -3 1 -5 2 -7c1 -1 1 -1 1 -2c4 -9 8 -17 13 -25c3 -4 5 -8 8 -12c1 -2 2 -3 4 -5v-1c1 0 1 0 1 -1
c6 -7 12 -14 18 -20c4 -3 7 -7 11 -10c2 -1 3 -2 5 -4c1 0 1 -1 2 -1c7 -6 15 -11 23 -15c4 -3 8 -5 12 -7l6 -3c1 0 2 -1 3 -1c16 -7 33 -11 51 -14c18 -2 36 -2 53 0c15 2 30 6 45 11l6 3c1 0 5 2 6 2c4 2 9 5 14 7l15 9c2 2 4 3 6 5c1 1 4 3 5 4c7 5 13 11 19 17
c16 14 31 28 46 42z" />
    <glyph glyph-name="r" unicode="r" horiz-adv-x="438" 
d="M404 469c13 0 24 -11 24 -23c0 -13 -11 -24 -24 -24c-7 0 -14 0 -22 -1c-4 -1 -8 -1 -12 -2c-9 -2 -18 -5 -27 -9c-1 0 -2 0 -2 -1h-1c-2 -1 -4 -1 -6 -2c-4 -2 -8 -4 -11 -7c-5 -2 -9 -5 -13 -7c-1 -2 -3 -3 -5 -4v-1h-1c-7 -6 -14 -12 -20 -19c-3 -3 -6 -7 -9 -10
c-1 -1 -1 -2 -2 -3s-2 -3 -3 -5c-6 -8 -10 -16 -14 -24c-1 -1 -3 -6 -3 -6c0 -1 -1 -2 -1 -3c-1 -4 -3 -8 -4 -13l-6 -24c0 -7 -1 -15 -1 -22v-149v-86c0 -13 -10 -23 -23 -23s-24 10 -24 23v2v103v161v59c0 9 1 19 0 28c0 3 -1 6 -2 9c0 1 -1 2 -1 4c-1 1 -1 2 -2 2
c-1 4 -3 7 -6 10c0 0 0 1 -1 1c-1 2 -2 3 -3 4c-2 2 -4 3 -5 5v0h-1l-9 6c-1 0 -2 0 -2 1c-2 0 -4 1 -5 1c-3 1 -6 2 -9 2c-12 2 -25 1 -38 1h-37c-13 0 -23 10 -23 23s10 23 23 23h26h37c3 0 7 1 10 0c13 -1 25 -4 37 -9c29 -13 50 -41 56 -72c14 18 30 33 49 46
c34 23 75 35 116 35zM162 418v0c4 -1 2 0 0 0zM303 387v0v0z" />
    <glyph glyph-name="s" unicode="s" horiz-adv-x="322" 
d="M187 259c45 -2 88 -27 109 -67s21 -89 -1 -128c-22 -40 -65 -65 -110 -66c-21 0 -41 2 -61 9c-23 9 -45 22 -62 41c-9 10 -10 25 0 35s27 11 36 0c3 -3 6 -6 10 -9l3 -3s2 -2 3 -2c7 -5 14 -9 21 -12c9 -4 18 -6 27 -8c10 -1 21 -1 31 0c7 1 14 3 20 6c5 2 10 5 15 8
c1 0 2 1 3 2v0c3 3 5 5 8 7c2 2 4 5 6 7v1l3 3c3 5 5 9 7 14c3 7 5 13 6 20c1 8 1 15 0 23c-1 7 -3 14 -6 20c-2 5 -5 10 -8 15c0 1 -1 2 -2 3v0c-2 3 -5 5 -7 8c-2 2 -5 4 -7 6h-1l-3 3c-5 3 -9 5 -14 8c-6 2 -13 4 -20 5h-13c-8 0 -15 1 -23 3c-13 2 -26 6 -38 13
c-23 12 -43 32 -55 56c-9 19 -14 40 -13 62c0 23 6 45 18 65c23 39 65 63 111 63h4c41 -1 81 -19 110 -49c9 -11 10 -26 0 -36s-27 -10 -36 0l-10 10c-1 1 -2 2 -4 2l-2 2c-7 5 -14 9 -21 12c-9 4 -18 6 -27 8c-5 0 -9 1 -14 1h-3c-2 0 -5 -1 -8 -1c-7 -1 -13 -3 -20 -5
c-5 -3 -10 -5 -14 -8l-3 -3h-1c-2 -2 -5 -4 -7 -7c-2 -2 -5 -4 -7 -7v0c-1 -1 -2 -3 -2 -4c-3 -4 -6 -9 -8 -14c-2 -6 -4 -13 -5 -19c-1 -9 -1 -17 0 -25c1 -7 3 -13 5 -20c2 -5 5 -10 8 -14c1 -1 2 -2 2 -3l1 -1c2 -2 4 -5 7 -7c2 -3 4 -5 7 -7v0c1 -1 2 -2 4 -2
c4 -3 9 -6 14 -8c6 -2 12 -4 19 -5c6 -1 12 -1 18 -1zM133 405v0c2 1 1 0 0 0zM116 291v0c-1 2 0 1 0 0zM246 177v0c1 -2 1 -2 0 0zM229 64v0c-1 -1 -1 -1 0 0z" />
    <glyph glyph-name="t" unicode="t" horiz-adv-x="286" 
d="M97 406v-145v-60c0 -7 0 -14 1 -21v-1c2 -9 4 -18 7 -27c1 -3 1 -5 2 -8c1 -1 2 -3 2 -4c2 -3 3 -6 5 -9c4 -8 9 -16 14 -24h1c0 -1 1 -1 1 -2c2 -2 3 -3 4 -5c3 -3 6 -7 10 -10c3 -3 6 -6 10 -9c1 -1 3 -3 4 -3c1 -1 2 -2 3 -2c7 -5 15 -10 24 -14l6 -3c1 -1 2 -1 2 -1
c5 -2 9 -3 13 -5c8 -2 16 -4 24 -5c7 -1 14 -1 21 -1c13 0 23 -11 23 -24c0 -12 -10 -23 -23 -23c-22 0 -45 4 -66 11c-40 15 -74 40 -98 74c-24 33 -36 73 -37 112v2v25v121v164v146v46c0 12 11 23 23 23c13 0 24 -11 24 -23v-26v-104v-103h32h123c13 0 24 -10 24 -23
s-11 -23 -24 -23h-53h-102v-16z" />
    <glyph glyph-name="u" unicode="u" horiz-adv-x="436" 
d="M403 470c12 0 23 -11 23 -24v-29v-154v-63c0 -19 0 -37 -4 -56c-9 -39 -31 -76 -62 -101c-17 -14 -36 -25 -57 -32c-19 -7 -40 -11 -61 -11h-4h-4c-39 0 -78 13 -110 36c-33 26 -58 62 -68 103c-5 19 -6 39 -6 59v144v103c0 13 11 23 23 23c13 0 24 -10 24 -23v-22v-150
v-67c0 -14 -1 -27 1 -40c1 -8 3 -15 5 -22c1 -5 3 -9 4 -13c1 -1 1 -1 1 -2c1 -1 2 -3 2 -5c4 -7 9 -15 14 -22c0 0 1 -1 1 -2l4 -4c2 -3 5 -6 8 -9s6 -6 10 -9c1 -1 2 -2 3 -2l2 -2c7 -5 15 -10 22 -14c2 -1 4 -2 6 -2c0 -1 0 -1 1 -1h1c4 -2 8 -3 12 -4c7 -2 14 -4 21 -5
s13 -1 19 -1c1 0 3 0 4 -1c1 1 3 1 4 1c6 0 13 0 19 1c7 1 14 3 21 5c5 1 9 3 13 4c1 1 1 1 2 1c1 1 3 2 5 2c7 4 15 9 22 14c0 0 1 1 2 1l4 4c3 2 6 5 9 8s6 6 9 10l3 3c0 1 1 2 1 2c5 7 10 15 14 22c1 2 2 4 2 6h1v2c2 4 3 8 4 12c2 7 4 14 5 21c1 11 1 23 1 34v145v102
c0 13 11 24 24 24zM108 130v0c0 -1 1 -3 0 0zM182 57v0c1 -1 2 -1 0 0zM296 57v0c1 1 3 2 0 0zM369 131v0c1 2 1 3 0 0z" />
    <glyph glyph-name="W" unicode="W" horiz-adv-x="946" 
d="M917 723c13 -4 22 -18 17 -31c0 -2 0 -3 -1 -4l-21 -69c-14 -43 -27 -86 -41 -129c-16 -52 -32 -105 -49 -157c-15 -51 -31 -102 -47 -153c-12 -39 -24 -77 -36 -116l-15 -45c-3 -11 -12 -19 -24 -19c-11 0 -21 8 -24 19c-1 1 -1 2 -1 3c-7 23 -14 46 -21 68
c-14 43 -27 86 -40 129c-16 53 -32 105 -48 158c-16 51 -32 102 -47 153c-9 28 -18 55 -26 83l-39 -123c-16 -52 -32 -105 -49 -157c-16 -51 -31 -102 -47 -153c-12 -39 -24 -77 -36 -116l-15 -45c-3 -11 -12 -19 -24 -19c-11 0 -21 8 -24 19c-1 1 -1 2 -1 3
c-7 23 -14 46 -21 68c-14 43 -27 86 -40 129c-16 53 -32 105 -48 158l-48 153c-11 39 -23 77 -35 116c-5 15 -10 30 -14 46c-4 13 4 27 17 31c14 4 27 -5 32 -18c0 -1 0 -2 1 -3c7 -23 14 -46 21 -68c13 -44 26 -87 39 -130c16 -52 32 -105 49 -157c15 -51 31 -102 47 -153
c8 -28 17 -56 25 -83l39 123c16 52 32 105 49 157c16 51 31 102 47 153c12 38 24 77 36 115c5 16 10 31 15 46c1 3 2 6 4 9v0h1c3 4 7 7 12 9c2 0 3 0 4 1v0h1v0h1h1v0h1v0h1v0c2 0 3 -1 5 -1c4 -1 7 -3 10 -6v0v0c4 -3 6 -7 8 -12c0 -1 0 -2 1 -3c7 -23 14 -46 21 -68
c13 -44 26 -87 39 -130c16 -52 33 -105 49 -157c15 -51 31 -102 47 -153c8 -28 17 -56 25 -83l39 123c16 52 32 105 49 157c16 51 31 102 47 153c12 38 24 77 36 115c5 16 10 31 15 46c4 13 17 22 31 18z" />
    <glyph glyph-name="V" unicode="V" 
d="M517 692c0 -2 -1 -3 -1 -4l-21 -69c-14 -43 -27 -86 -41 -129c-16 -52 -33 -105 -49 -157l-48 -153c-12 -39 -24 -77 -36 -116c-4 -15 -9 -30 -14 -45c-3 -11 -13 -19 -24 -19c-12 0 -21 8 -25 19c0 1 0 2 -1 3c-7 23 -14 46 -21 68l-39 129c-17 53 -33 105 -49 158
c-15 51 -31 102 -47 153c-12 39 -24 77 -35 116c-5 15 -10 30 -15 46c-4 13 5 27 18 31c14 4 27 -5 31 -18c1 -1 1 -2 1 -3c7 -23 14 -46 21 -68c13 -44 27 -87 40 -130c16 -52 32 -105 48 -157c16 -51 32 -102 47 -153c9 -28 17 -56 26 -83c13 41 26 82 38 123
c17 52 33 105 49 157l48 153c12 38 24 77 36 115c5 16 10 31 14 46c4 13 18 22 31 18s22 -18 18 -31z" />
    <glyph glyph-name="X" unicode="X" horiz-adv-x="489" 
d="M406 561l-78 -141c-11 -19 -21 -38 -32 -57c1 -1 2 -2 2 -3l63 -114c25 -47 51 -94 77 -141c12 -23 25 -46 38 -69c6 -12 3 -28 -10 -35c-11 -7 -28 -3 -34 9c-10 19 -21 38 -31 56l-75 138c-20 37 -40 73 -60 110c-18 -31 -35 -62 -52 -94c-26 -46 -52 -93 -78 -140
c-13 -24 -26 -47 -39 -70c-7 -12 -23 -16 -34 -9c-13 7 -16 23 -10 35c3 4 5 9 8 13c21 37 41 75 62 112l78 141c11 18 21 37 32 56c-1 1 -2 3 -2 4l-63 114c-25 47 -51 94 -77 141c-12 23 -25 46 -38 69c-6 12 -3 27 10 34c11 7 27 3 34 -9c10 -18 21 -37 31 -56l75 -138
c20 -36 40 -73 60 -109c17 31 35 62 52 93l78 141l39 69c7 12 23 16 34 9c13 -7 16 -22 10 -34c-3 -5 -6 -9 -8 -14c-21 -37 -41 -74 -62 -111z" />
    <glyph glyph-name="Y" unicode="Y" horiz-adv-x="572" 
d="M549 720c12 -7 16 -22 9 -34c-1 -1 -1 -3 -2 -4c-15 -27 -31 -54 -46 -82c-26 -46 -52 -93 -78 -139c-24 -44 -49 -88 -74 -132c-9 -17 -19 -34 -28 -51v-6v-143v-104c0 -13 -12 -25 -26 -25c-13 0 -25 12 -25 25v13v142v96c-14 26 -29 52 -43 79c-26 46 -52 93 -77 139
c-25 45 -49 89 -73 133c-11 20 -22 39 -33 59c-6 12 -3 27 9 34s28 3 35 -9c1 -1 1 -2 2 -3c15 -27 29 -54 44 -81c26 -46 52 -93 77 -139c25 -45 49 -89 73 -133c4 -6 7 -13 11 -20c9 16 17 31 26 46c26 47 52 94 78 140c24 44 49 88 74 132c11 19 21 39 32 58
c7 12 23 16 35 9z" />
    <glyph glyph-name="Z" unicode="Z" horiz-adv-x="453" 
d="M418 51c14 0 25 -12 25 -26c0 -13 -11 -25 -25 -25h-1h-93h-162h-86c-9 0 -18 5 -22 13c-5 8 -4 17 0 25c3 7 7 15 11 22c15 29 30 59 45 88c22 44 44 88 67 132c25 50 50 99 75 149c24 46 47 93 71 139c17 34 35 69 52 103c0 1 1 1 1 2h-51h-162h-87
c-14 0 -25 12 -25 25c0 14 11 26 25 26v0h93h162h86c9 0 18 -5 22 -13c5 -8 4 -17 0 -25s-7 -15 -11 -22c-15 -30 -30 -59 -45 -88c-22 -44 -44 -88 -67 -132c-25 -50 -50 -99 -75 -149c-24 -46 -47 -93 -71 -139c-17 -35 -35 -69 -52 -103c-1 -1 -1 -2 -1 -2h52h163h86z
" />
    <glyph glyph-name="v" unicode="v" horiz-adv-x="465" 
d="M443 466c5 -3 9 -8 11 -14s0 -11 -3 -18v0c-10 -24 -21 -48 -31 -72c-20 -48 -41 -96 -61 -144c-20 -47 -40 -94 -61 -141l-27 -63c-4 -10 -17 -14 -26 -11c-9 2 -13 8 -16 16c0 0 -1 0 -1 1c-10 23 -20 47 -30 71l-60 144l-60 141c-9 22 -18 43 -27 64c-2 5 0 13 3 18
s8 9 14 11c6 1 12 1 18 -3c5 -3 8 -8 10 -14h1c10 -24 20 -48 30 -71l60 -144c20 -47 40 -95 60 -142c1 -3 3 -7 4 -10c4 8 8 17 11 25c21 48 41 96 62 144l60 141l27 63c2 5 9 9 14 11c6 1 13 1 18 -3z" />
    <glyph glyph-name="w" unicode="w" horiz-adv-x="823" 
d="M801 466c6 -3 10 -8 11 -14c2 -7 0 -12 -2 -18v0c-11 -24 -21 -48 -31 -72c-21 -48 -41 -96 -62 -144l-60 -141l-27 -63c-4 -10 -17 -14 -26 -11c-9 2 -13 8 -17 16v0l-30 72c-20 48 -40 95 -60 143s-40 95 -60 142c-2 4 -4 8 -5 12c-4 -9 -8 -17 -12 -26
c-20 -48 -41 -96 -61 -144l-60 -141c-9 -21 -18 -42 -28 -63c-4 -10 -17 -14 -26 -11c-9 2 -13 8 -16 16v0l-30 72c-21 48 -41 95 -61 143s-40 95 -60 142c-8 21 -17 42 -26 64c-3 5 -1 13 2 18s8 9 14 10c6 2 13 1 18 -2c6 -3 8 -8 11 -14v0c10 -24 20 -48 30 -71l60 -144
c20 -47 40 -94 60 -142c1 -3 3 -7 4 -10c4 8 7 16 11 24c21 48 41 96 61 144c21 47 41 94 61 141c9 21 18 42 27 64c2 5 9 9 14 10c2 1 5 1 7 1c4 0 9 -1 12 -3c6 -3 9 -8 11 -14v0c10 -24 20 -48 30 -71c21 -48 41 -96 61 -144c20 -47 40 -94 59 -142c2 -3 3 -7 5 -10
c3 8 7 16 11 24c20 48 41 96 61 144l60 141c9 21 18 42 27 64c3 5 9 9 14 10c6 2 13 1 18 -2z" />
    <glyph glyph-name="x" unicode="x" horiz-adv-x="345" 
d="M279 132c17 -32 35 -63 53 -95c6 -11 2 -25 -9 -32c-11 -6 -26 -3 -32 9c-2 3 -4 7 -6 11c-24 43 -48 85 -71 128c-7 12 -14 25 -21 38c-16 -28 -31 -55 -46 -83c-18 -31 -35 -63 -53 -94c-6 -12 -21 -15 -32 -9c-11 7 -14 21 -8 32c0 1 1 2 1 2c21 38 41 75 62 112
c15 28 31 56 46 83c-19 36 -38 71 -57 106c-18 31 -35 63 -52 94c-6 12 -3 26 8 32c11 7 26 3 32 -8c2 -4 4 -8 6 -11c24 -43 47 -86 70 -128c8 -14 15 -27 23 -41c15 29 31 57 46 85c18 32 35 64 52 95c6 11 21 15 32 8c11 -6 15 -20 9 -32c-1 -1 -2 -2 -2 -3l-63 -114
c-15 -28 -30 -55 -45 -83z" />
    <glyph glyph-name="y" unicode="y" horiz-adv-x="479" 
d="M457 466c6 -3 10 -8 11 -14c2 -6 0 -12 -2 -18l-12 -27c-14 -31 -28 -63 -42 -95c-20 -45 -40 -91 -60 -137c-23 -51 -45 -102 -67 -153c-21 -47 -42 -94 -63 -142c-15 -35 -31 -70 -46 -105c-6 -13 -12 -27 -18 -40c-5 -12 -22 -15 -32 -9c-5 3 -9 8 -11 14
c-2 7 0 12 3 18l12 27c13 32 27 64 41 95c20 46 40 92 61 137c0 2 1 4 2 6c-10 21 -19 42 -28 63l-63 144c-21 46 -41 93 -62 140c-9 21 -18 42 -28 63c-2 6 -4 11 -2 18c2 6 6 11 11 14c10 6 27 3 32 -9v0c11 -25 21 -49 32 -73l63 -144c21 -46 41 -93 62 -140
c3 -6 5 -12 8 -19c13 30 27 60 40 90c21 48 42 95 62 142c16 35 31 70 46 105c6 14 12 27 18 41c6 12 22 14 32 8z" />
    <glyph glyph-name="z" unicode="z" horiz-adv-x="435" 
d="M401 49c13 0 24 -11 24 -24c0 -12 -11 -23 -24 -23h-76h-161h-90c-10 0 -20 7 -22 17c-3 9 0 16 6 23c7 9 14 18 21 28c26 33 53 67 79 101c33 43 67 87 101 131c29 37 59 75 88 113c2 2 4 5 6 8h-27h-162h-89c-13 0 -24 11 -24 23c0 13 11 24 24 24h75h161h90
c10 0 20 -7 22 -18c3 -8 0 -15 -6 -22c-7 -10 -14 -19 -21 -28c-26 -34 -53 -67 -79 -101c-34 -44 -67 -87 -101 -131c-29 -38 -59 -75 -88 -113c-2 -3 -4 -6 -6 -8h28h162h89z" />
    <glyph glyph-name="uni0410" unicode="&#x410;" 
d="M503 79c5 -16 9 -31 14 -47c4 -13 -5 -27 -18 -31s-27 5 -31 18c0 1 0 2 -1 3c-7 22 -13 44 -20 66c-13 43 -27 86 -40 129c-3 11 -6 21 -9 31h-125h-101c-7 -22 -14 -44 -21 -67c-12 -38 -24 -77 -36 -116c-5 -15 -10 -31 -15 -46c-4 -13 -17 -22 -31 -18
c-13 4 -22 18 -18 31c1 1 1 3 1 4c7 22 14 44 21 67c14 43 27 86 40 129c17 52 33 105 50 158l48 153c12 39 24 78 36 116c5 16 9 31 14 47c4 10 13 18 25 18c11 0 21 -8 24 -18c0 -1 1 -2 1 -3c7 -23 14 -45 21 -67l39 -129c16 -53 33 -105 49 -158c15 -51 31 -102 47 -154
c12 -39 24 -77 36 -116zM310 299h72c-8 26 -16 51 -23 76c-16 52 -32 103 -48 154c-8 28 -17 56 -25 84c-13 -40 -26 -80 -38 -120c-16 -53 -33 -106 -49 -158c-4 -12 -8 -24 -11 -36h122z" />
    <glyph glyph-name="uni0411" unicode="&#x411;" horiz-adv-x="468" 
d="M293 420c80 -19 147 -86 161 -167c8 -44 3 -88 -15 -129c-17 -37 -45 -69 -79 -91s-75 -34 -115 -34h-46h-124c-14 0 -25 12 -25 26v49v125v163v162v125v50c0 14 11 25 25 25h18h147h102c14 0 26 -11 26 -25s-12 -25 -26 -25h-18h-147h-77v-24v-125v-100h48h77
c23 0 46 0 68 -5zM346 340v0c1 -1 1 -1 0 0zM372 111v0v0zM406 190c2 15 2 30 0 44s-6 28 -11 41c-5 10 -10 20 -16 30c-2 2 -4 4 -5 7c-1 1 -2 1 -3 2c-3 5 -7 9 -12 13c-4 5 -8 9 -13 12c0 1 -1 2 -2 2v0c-3 2 -5 4 -8 6c-9 6 -18 11 -28 15c-13 5 -27 9 -41 11
c-19 2 -37 2 -56 2h-111v-13v-162v-125v-25h38h79c17 0 34 0 50 1c14 3 28 6 41 12c10 4 20 9 29 16c3 1 5 3 7 5c1 0 2 1 3 2c5 4 9 8 13 12s8 9 12 13c1 1 1 2 2 2v1c2 2 4 5 5 7c6 9 11 19 16 28c5 14 9 27 11 41z" />
    <glyph glyph-name="uni0412" unicode="&#x412;" horiz-adv-x="471" 
d="M343 404c59 -30 104 -88 114 -154c4 -23 4 -46 1 -69c-3 -21 -9 -41 -18 -59c-17 -37 -45 -68 -79 -90c-34 -21 -74 -33 -114 -33h-47h-124c-14 0 -26 12 -26 25v50v125v163v162v125v50c0 14 12 26 26 26c1 0 2 0 3 -1c2 1 3 1 5 1h61h79c20 0 41 0 62 -4
c42 -8 79 -34 104 -68c25 -33 37 -77 33 -118c-2 -22 -8 -44 -19 -64c-9 -18 -21 -35 -36 -48c-8 -7 -16 -13 -25 -19zM348 342v0c2 -2 1 -1 0 0zM209 674h-108v-25v-125v-97h53h76h17h3c5 0 11 1 16 1c11 2 22 5 32 9c8 3 15 8 23 12c1 1 2 2 4 3l3 3l9 9c4 3 7 7 10 10
c0 1 1 1 1 1v0c1 2 2 4 4 6l12 21c4 11 7 21 8 32s1 22 0 33s-4 22 -8 32c-4 8 -8 15 -13 22c-1 2 -2 3 -3 5c-1 1 -2 2 -2 3l-9 9c-4 4 -7 7 -11 10c0 0 -1 0 -1 1v0c-2 1 -4 2 -5 4c-7 4 -14 8 -22 11c-10 5 -21 7 -32 9c-19 2 -38 1 -57 1zM375 112v0c-1 -2 -1 -1 0 0z
M409 191c2 15 2 30 0 44s-6 28 -11 42c-5 10 -10 20 -17 29c-1 3 -3 5 -5 7c-1 1 -1 2 -2 3c-4 5 -8 9 -12 13s-9 8 -13 12c-1 1 -2 1 -3 2v0c-2 2 -5 4 -7 5c-9 6 -19 12 -29 16c-13 5 -27 9 -41 11c-6 1 -12 1 -18 2h-1h-2h-37h-110v-15v-163v-125v-24h38h80
c16 0 33 -1 50 1c14 2 28 6 41 11c11 5 20 10 30 17c2 1 4 3 7 5c1 0 2 1 3 2c4 4 9 8 13 12s8 9 12 13c0 1 1 2 1 2l1 1c1 2 3 5 5 7c6 9 11 19 16 29c5 13 9 27 11 41z" />
    <glyph glyph-name="uni0413" unicode="&#x413;" horiz-adv-x="385" 
d="M349 725c14 0 26 -12 26 -25c0 -14 -12 -26 -26 -26h-23h-150h-75v-24v-126v-162v-163v-125v-50c0 -13 -12 -25 -26 -25c-13 0 -25 12 -25 25v50v125v163v162v126v50c0 13 12 25 25 25h24h150h100z" />
    <glyph glyph-name="uni0414" unicode="&#x414;" horiz-adv-x="626" 
d="M591 50c13 0 25 -11 25 -25v-43v-125c0 -14 -12 -25 -25 -25c-14 0 -26 11 -26 25v43v100h-116h-165h-146h-37v-18v-125c0 -14 -12 -25 -26 -25s-25 11 -25 25v43v125c0 14 11 25 25 25h11c8 8 15 15 22 23c4 5 9 10 13 16v0c1 1 2 3 3 4c2 2 4 5 6 7c14 21 27 44 37 68
c12 29 21 59 25 90c3 23 3 46 3 69v133v161v78c0 13 12 25 25 25h42h157h96c14 0 25 -12 25 -25v-46v-123v-162v-163v-125v-30h51zM382 50h108v25v123v162v163v125v25h-17h-157h-70v-16v-148v-152v-44c0 -23 -2 -47 -5 -70c-11 -70 -41 -137 -86 -193h62h165z" />
    <glyph glyph-name="uni0415" unicode="&#x415;" horiz-adv-x="383" 
d="M101 650v-125v-124h145h101c14 0 26 -12 26 -26c0 -13 -12 -25 -26 -25h-21h-150h-75v-150v-125v-25h145h101c14 0 26 -11 26 -25s-12 -26 -26 -26h-21h-150h-101c-13 0 -25 12 -25 26v49v125v163v162v125v50c0 14 12 25 25 25h22h149h101c14 0 26 -11 26 -25
s-12 -25 -26 -25h-21h-150h-75v-24z" />
    <glyph glyph-name="uni0416" unicode="&#x416;" horiz-adv-x="861" 
d="M808 113c13 -23 26 -46 39 -70c6 -12 3 -27 -9 -34s-28 -3 -35 9l-27 48c-25 45 -50 90 -75 136c-23 41 -46 82 -68 123l-6 9h-36h-114v-134v-125v-50c0 -14 -11 -25 -25 -25s-26 11 -26 25v49v125v135h-28h-125c-20 -35 -39 -70 -59 -105l-78 -141
c-13 -23 -26 -47 -39 -70c-7 -12 -23 -16 -35 -9s-15 22 -9 34c2 4 4 8 7 12c20 36 40 72 60 109c26 47 52 94 79 141c10 19 21 38 31 57v1c-20 37 -41 75 -61 112l-78 141c-12 24 -25 47 -38 70c-6 12 -3 28 9 35s28 3 35 -9c9 -16 17 -32 26 -48c25 -45 50 -91 74 -136
c23 -42 46 -83 69 -125c3 -6 7 -12 10 -18h33h117v139v125v50c0 14 12 25 26 25s25 -11 25 -25v-49v-125v-140h25h122c1 1 2 2 2 4c21 37 41 74 61 112l78 141c13 23 25 46 38 70c7 12 23 16 35 9s15 -23 9 -35c-3 -4 -5 -9 -8 -14c-20 -37 -41 -74 -61 -111
c-26 -48 -52 -95 -77 -142c-11 -19 -21 -38 -31 -57c19 -36 39 -71 59 -107c27 -47 53 -94 79 -142z" />
    <glyph glyph-name="uni0430" unicode="&#x430;" horiz-adv-x="578" 
d="M534 155c11 -41 22 -81 33 -122c3 -12 -4 -26 -16 -29c-13 -3 -26 4 -29 16c-8 29 -16 58 -24 86c-1 7 -3 14 -5 21c-20 -38 -50 -71 -87 -93c-72 -44 -164 -45 -237 -4c-72 41 -118 119 -119 202c0 82 44 161 115 203c72 43 165 44 237 2c33 -19 61 -46 81 -78v83
c0 13 10 24 23 24s23 -11 23 -24v-23v-151v-97c2 -5 3 -11 5 -16zM470 209c1 8 2 16 2 25c0 8 -1 16 -1 25c-3 14 -6 28 -11 42c-1 2 -2 3 -2 5c-1 1 -2 3 -2 4l-6 12c-4 8 -9 16 -15 24c0 1 -1 2 -2 3s-2 3 -4 4c-2 3 -5 7 -8 10c-7 7 -14 13 -21 19c0 0 -1 0 -1 1h-1
c-2 2 -4 3 -5 4c-4 3 -8 5 -12 7c-7 5 -15 9 -24 13v0c-1 0 -2 1 -3 1l-6 3c-5 1 -9 2 -13 4c-9 2 -17 4 -25 5c-17 2 -34 2 -50 0c-15 -2 -29 -6 -43 -11c-1 -1 -3 -1 -5 -2c-1 0 -3 -1 -4 -2l-12 -6c-8 -4 -16 -9 -23 -14l-3 -3c-2 -1 -3 -2 -5 -3l-9 -9
c-7 -6 -13 -13 -19 -20c0 -1 -1 -1 -1 -2c0 0 -1 0 -1 -1c-1 -1 -2 -3 -4 -5c-2 -4 -5 -7 -7 -11c-5 -8 -9 -16 -12 -24l-1 -1c0 -1 0 -2 -1 -3c-1 -2 -1 -4 -2 -6c-2 -4 -3 -9 -4 -13c-2 -8 -4 -16 -5 -25c-2 -16 -2 -33 0 -50c2 -14 5 -29 10 -42c1 -2 2 -4 2 -5
c1 -1 2 -3 2 -4l6 -12c4 -8 9 -16 15 -24c1 -1 1 -2 2 -3s2 -3 4 -4c3 -4 5 -7 9 -10c6 -7 13 -13 20 -19l1 -1c1 0 1 0 1 -1l6 -3c3 -3 7 -5 11 -8c7 -4 16 -8 24 -12v0c1 -1 2 -1 3 -1c2 -1 4 -2 7 -3c4 -1 8 -3 13 -4c8 -2 16 -4 24 -5c17 -2 34 -2 50 0c15 2 29 6 43 11
c1 0 3 1 5 2c1 0 3 1 4 1l12 6c8 5 16 10 23 15c1 1 2 2 3 2c2 2 3 3 5 4c3 3 6 6 10 9c6 6 12 13 18 20c0 1 1 1 1 2h1c1 2 3 4 4 6c2 4 5 7 7 11c5 8 9 16 13 24v0c0 1 0 3 1 4c1 2 1 4 2 6c2 4 3 9 4 13c2 8 4 16 5 25z" />
    <glyph glyph-name="uni0431" unicode="&#x431;" horiz-adv-x="547" 
d="M424 450c33 -22 62 -52 82 -87c20 -36 30 -77 31 -119c-1 -20 -3 -40 -8 -60c-20 -79 -81 -144 -158 -170c-40 -14 -83 -16 -125 -8c-40 7 -77 26 -108 51c-51 42 -83 105 -88 170v4v1v22v123v106c0 42 17 84 47 115c31 30 72 48 115 49h98c10 21 20 43 30 64
c5 12 22 15 32 9c5 -3 9 -8 11 -14c2 -7 0 -12 -3 -18c-11 -26 -23 -51 -35 -76c-3 -8 -12 -12 -20 -12h-1h-67c-19 0 -39 1 -59 -1c-6 -1 -12 -2 -18 -4c-4 -1 -8 -3 -11 -4v0h-1c-1 -1 -3 -2 -5 -3c-6 -3 -13 -7 -19 -11c0 -1 -2 -2 -3 -2c0 -1 -1 -1 -2 -2
c-2 -2 -5 -5 -8 -7c-2 -3 -5 -6 -7 -8c-1 -1 -2 -2 -2 -3l-2 -2c-4 -6 -8 -13 -11 -19c-1 -2 -2 -4 -3 -5v-1v0c-1 -3 -3 -7 -4 -11c-2 -6 -3 -12 -4 -19s-1 -15 -1 -24v-86c23 31 54 58 89 75c38 18 80 27 121 24s82 -15 117 -37zM488 218c1 9 2 17 2 26s-1 18 -2 27
s-3 17 -5 26c-2 4 -3 9 -5 14c-1 2 -1 4 -2 7c-1 1 -1 2 -1 3c-4 8 -8 16 -13 23c-2 5 -5 9 -7 13c-2 1 -3 3 -4 5l-2 2c-5 7 -11 14 -18 20l-10 10c-2 1 -4 3 -5 4s-3 2 -4 3c-7 5 -13 9 -21 13c-4 3 -8 5 -12 7l-6 3c-1 1 -4 2 -5 2c-15 6 -32 11 -48 13
c-18 2 -36 2 -53 0c-9 -1 -18 -3 -26 -5c-5 -2 -9 -3 -14 -5c-3 -1 -5 -1 -7 -2c-1 -1 -2 -1 -3 -1c-8 -4 -16 -8 -24 -13c-4 -2 -8 -5 -12 -7c-2 -2 -4 -3 -5 -4s-2 -1 -3 -2c-7 -5 -13 -11 -19 -18c-4 -3 -7 -6 -10 -10l-5 -5c0 -1 -2 -3 -2 -4c-5 -7 -10 -13 -14 -21
c-2 -4 -5 -8 -7 -12l-3 -6c0 -1 -1 -4 -2 -5c-6 -15 -10 -32 -13 -48c0 -6 -1 -12 -1 -18v-17s1 -12 1 -18c2 -9 3 -18 6 -26c1 -5 3 -9 4 -14c1 -2 2 -5 3 -7c0 -1 1 -2 1 -3l12 -24c3 -4 5 -8 8 -12c1 -2 2 -4 4 -5c0 -1 1 -2 1 -3c6 -7 12 -13 18 -19c3 -4 7 -7 11 -10
c1 -2 3 -3 5 -4c0 -1 3 -3 3 -3c7 -5 14 -10 21 -14c4 -2 8 -5 13 -7l6 -3c1 0 3 -1 4 -2c16 -6 32 -10 49 -13c17 -2 35 -2 53 0c8 2 17 4 25 6c5 1 10 3 14 4c3 1 5 2 8 3c1 0 2 1 2 1c9 4 17 8 24 12c4 3 9 5 12 8c2 1 4 2 6 4c1 0 1 1 2 1c7 6 14 12 20 18
c3 4 7 7 10 11c1 1 3 3 4 5c1 1 2 3 3 4c5 6 9 13 13 20c3 4 5 9 7 13l3 6c1 1 2 3 2 4c6 16 11 32 13 49z" />
    <glyph glyph-name="uni0432" unicode="&#x432;" horiz-adv-x="468" 
d="M299 418c79 -21 143 -88 155 -170c4 -23 4 -45 1 -68c-3 -21 -10 -40 -19 -59c-17 -36 -45 -67 -79 -88c-33 -21 -73 -33 -112 -33h-47h-124c-13 0 -24 11 -24 24v0v51v125v163v162v125v50c0 13 11 23 24 23h4h4h59c25 0 50 1 74 -3c41 -9 78 -34 103 -67s37 -77 33 -117
c-2 -23 -8 -44 -18 -64c-10 -18 -22 -35 -37 -48l-4 -4c2 0 5 -1 7 -2zM397 279v0c0 1 -1 1 0 0zM376 314c-1 2 -3 5 0 0v0zM255 451v0c-2 -2 -1 -1 0 0zM280 627v0c1 -2 0 -1 0 0zM196 675c-19 3 -39 1 -59 1h-40v-27v-125v-99h56h29c5 0 10 1 15 1c7 1 14 3 21 5
c3 1 7 3 10 4c1 0 1 0 2 1c2 1 3 1 5 2c7 4 14 8 20 12c0 1 1 1 1 1l4 4c3 2 6 5 9 7c2 3 5 6 8 9c0 1 1 2 2 3c0 0 1 2 2 2c4 7 8 13 12 20c0 2 1 4 2 6l1 1c1 4 2 7 3 11c2 6 4 13 5 20c1 11 1 23 0 34c-1 7 -3 14 -5 21c-1 4 -2 7 -4 11c0 0 0 1 -1 1c0 2 -1 4 -2 5
c-3 7 -8 14 -12 20c0 1 -1 1 -1 2l-4 4c-2 3 -5 5 -7 8c-3 3 -6 6 -9 8c-1 1 -2 1 -2 2c-1 1 -2 2 -3 2c-6 5 -13 9 -20 12l-6 3h-1c-3 1 -7 3 -10 4c-7 2 -14 3 -21 4zM311 61v0c1 0 1 0 0 0zM346 82c1 1 4 3 0 0v0zM409 191c2 14 2 29 0 44c-1 5 -1 10 -3 14
c-2 10 -4 19 -8 27v2c-1 0 -1 1 -1 1l-3 6l-6 12c-3 4 -5 8 -8 12c-1 2 -3 3 -4 5c0 1 -1 1 -1 2c-6 7 -12 14 -19 20c-3 2 -6 5 -9 7l-3 3c-2 1 -4 3 -6 4c-8 5 -16 10 -24 14c-1 0 -6 2 -6 2c-1 1 -2 1 -3 1c-4 2 -8 3 -13 5c-8 2 -16 4 -25 5c-19 2 -38 2 -58 2h-26
c-1 -1 -2 -1 -4 -1c0 0 -1 0 -1 1h-81v-18v-162v-125v-27h41h79c17 0 34 0 50 2c5 0 10 1 14 2c9 2 19 5 27 9h1c1 0 1 1 2 1l6 3l12 6c4 3 8 5 12 8c2 1 3 2 5 4c1 0 1 0 2 1c7 6 13 12 20 19c2 3 5 6 7 9c1 1 2 3 3 3c1 2 2 4 4 6c5 7 9 15 13 24c1 1 3 6 3 6c0 1 1 2 1 3
c2 4 3 8 5 12c2 9 4 17 5 26z" />
    <glyph glyph-name="uni0433" unicode="&#x433;" horiz-adv-x="334" 
d="M299 472c14 0 25 -12 25 -26s-11 -25 -25 -25h-111h-87v-18v-146v-158v-74c0 -14 -12 -25 -25 -25c-14 0 -26 11 -26 25v44v145v158v74c0 14 12 26 26 26h110h113z" />
    <glyph glyph-name="uni0434" unicode="&#x434;" horiz-adv-x="585" 
d="M551 48c13 0 24 -11 24 -24v-36v-130c0 -13 -11 -24 -24 -24c-14 0 -25 11 -25 24v36v106h-61h-162h-158h-46v-12v-130c0 -13 -11 -24 -24 -24c-14 0 -25 11 -25 24v36v130c0 13 11 24 25 24h1h45l2 2c6 5 11 10 15 15c3 3 5 5 7 8c1 2 2 3 4 4v1c8 10 15 21 20 32
c2 3 4 6 5 10c1 1 2 3 2 4l1 1l6 18c4 12 7 24 9 37c1 10 1 20 1 29v127v113c0 2 1 3 1 5c0 1 -1 2 -1 4c0 13 11 24 25 24h8h141c36 -1 73 -1 109 -1c13 0 24 -11 24 -24v-28v-141v-165v-75h51zM187 48h135h130v24v141v165v55h-126c-28 0 -56 1 -84 1v-68v-148
c0 -27 -3 -55 -10 -82c-10 -32 -25 -62 -45 -88z" />
    <glyph glyph-name="uni0435" unicode="&#x435;" horiz-adv-x="499" 
d="M384 453c41 -18 76 -48 101 -86c4 -5 4 -13 3 -19c-2 -7 -6 -11 -12 -15c-10 -7 -19 -14 -29 -21c-38 -29 -76 -57 -114 -85c-43 -31 -86 -62 -129 -94c-14 -11 -29 -21 -44 -32c4 -4 7 -7 11 -10c1 -1 2 -1 3 -2c0 0 0 -1 1 -1c2 -2 5 -4 8 -6c10 -6 21 -12 32 -17
c15 -6 31 -10 47 -13c9 -1 17 -1 25 -1c2 0 3 -1 4 -1c2 0 3 1 4 1c9 0 17 0 25 1c16 3 32 7 47 13c12 5 23 11 33 18l9 6v0c1 1 2 2 3 2c5 5 10 9 14 14c10 9 26 9 36 0c10 -10 10 -27 0 -36c-44 -44 -104 -69 -167 -69h-4h-4c-69 0 -137 31 -181 85c-26 32 -45 69 -52 110
c-7 42 -4 86 12 125c14 38 38 73 69 99c32 25 70 44 111 51c22 4 44 5 66 2c25 -3 49 -9 72 -19zM262 238c42 31 85 62 128 94c12 9 25 18 38 28c-1 0 -2 1 -3 2c-6 7 -13 14 -21 20c-1 1 -2 2 -3 2c-1 2 -3 3 -5 4c-4 3 -8 6 -12 8c-8 5 -16 9 -24 13c-16 6 -31 10 -48 13
c-16 2 -33 2 -50 0c-16 -3 -32 -7 -47 -13c-11 -5 -23 -11 -33 -18c-3 -2 -5 -4 -8 -6h-1l-3 -3c-5 -4 -10 -9 -14 -13c-5 -5 -10 -10 -15 -16c0 -1 -1 -2 -2 -3v-1c-2 -2 -4 -5 -6 -8c-7 -10 -13 -21 -18 -32c-6 -15 -10 -31 -13 -47c-1 -17 -1 -34 0 -50
c3 -16 7 -32 13 -47c4 -9 8 -17 13 -25c7 4 13 9 19 13c38 29 76 57 115 85z" />
    <glyph glyph-name="uni0436" unicode="&#x436;" horiz-adv-x="732" 
d="M718 42c7 -12 3 -28 -9 -35s-28 -3 -35 9c-1 4 -3 7 -5 10c-23 42 -47 84 -70 126c-11 19 -21 38 -32 58v0h-51h-103v-111v-74c0 -14 -12 -25 -25 -25c-14 0 -26 11 -26 25v44v141h-49h-108c-18 -33 -37 -66 -55 -98c-17 -32 -35 -64 -53 -96c-6 -12 -23 -16 -34 -9
c-12 7 -16 23 -9 35c0 0 0 1 1 2c20 37 41 73 61 110c15 28 31 55 46 83c-19 34 -38 69 -56 103c-18 32 -35 63 -52 95c-7 12 -3 27 9 35c11 6 28 3 34 -9c2 -4 4 -7 6 -10c22 -42 45 -84 68 -126c11 -20 22 -39 33 -59l3 -6h48h107v113v74c0 14 12 25 26 25
c13 0 25 -11 25 -25v-44v-143h46h106l57 105c18 32 35 64 52 96c7 12 23 15 35 9c12 -8 16 -23 9 -35c0 -1 -1 -2 -1 -3c-21 -37 -42 -75 -62 -113c-15 -27 -30 -55 -45 -82c18 -33 37 -66 55 -100c18 -32 35 -63 53 -95z" />
    <glyph glyph-name="uni0417" unicode="&#x417;" horiz-adv-x="472" 
d="M349 390c35 -18 66 -46 86 -81c20 -37 30 -80 26 -121c-3 -23 -8 -45 -17 -66c-8 -18 -20 -35 -33 -51c-54 -63 -148 -88 -226 -58c-40 15 -74 41 -99 76c-24 34 -36 76 -36 117c0 14 11 26 25 26s25 -12 25 -26c0 -6 1 -13 1 -20c3 -14 6 -27 11 -40
c5 -10 10 -19 15 -27c2 -3 4 -5 5 -8c1 0 2 -1 3 -2c3 -5 7 -9 11 -13s8 -8 13 -11l2 -2l1 -1c2 -1 4 -3 6 -4c9 -6 18 -11 27 -15c13 -5 26 -9 40 -11c14 -1 28 -1 41 0c14 2 28 6 41 11c9 4 18 9 27 15c2 2 4 3 7 5c1 1 2 2 3 2c4 4 8 8 12 11c4 5 8 9 12 14c0 0 1 1 1 2
h1c1 2 3 4 4 7c6 8 11 17 15 27c5 13 9 26 11 40s2 27 0 41s-6 27 -11 40c-4 10 -9 19 -15 27c-1 3 -3 5 -5 7c-1 1 -1 2 -2 3c-4 4 -7 9 -11 12c-4 5 -9 9 -13 12c-1 1 -2 1 -2 2h-1c-2 2 -4 3 -6 5c-9 6 -18 11 -27 15c-13 5 -27 9 -41 11c-6 1 -13 1 -20 1
c-5 0 -9 1 -13 4c-8 4 -14 13 -14 22c0 14 12 25 25 25c6 0 12 1 18 1c11 2 23 5 33 10c8 3 16 7 23 12c2 2 4 3 6 4l2 2c3 3 7 6 10 9c4 4 7 8 11 12c0 0 0 1 1 1v1c1 1 3 3 4 5c5 7 9 15 12 22c4 11 7 22 9 34c2 11 2 23 0 35c-2 11 -5 22 -9 33c-4 8 -8 16 -13 23
c-1 2 -2 4 -4 6l-1 1c-3 4 -6 8 -10 11c-3 4 -7 7 -11 10c0 1 -1 1 -1 1c-1 0 -1 1 -1 1c-2 1 -4 2 -5 4c-8 4 -15 8 -23 12c-10 4 -22 7 -33 9c-12 1 -23 1 -35 0c-12 -2 -23 -5 -33 -9c-9 -4 -16 -8 -24 -13c-1 -1 -3 -3 -5 -4c-1 -1 -2 -1 -2 -2c-4 -3 -7 -6 -10 -9
c-4 -4 -7 -7 -10 -11l-2 -2v0c-1 -2 -3 -4 -4 -6c-5 -7 -9 -14 -12 -22c-2 -5 -4 -9 -5 -14c-4 -13 -18 -21 -31 -17c-13 3 -22 17 -18 31c3 9 7 18 11 26c17 38 49 70 87 87c22 9 44 15 68 16c21 1 43 -2 63 -8c40 -14 75 -41 98 -77c23 -38 31 -82 24 -126
c-6 -40 -28 -78 -59 -105c-8 -6 -16 -12 -24 -17z" />
    <glyph glyph-name="uni0418" unicode="&#x418;" horiz-adv-x="575" 
d="M547 722c11 -3 18 -13 18 -24v-49v-124v-162v-162v-125v-50c0 -14 -11 -25 -25 -25s-25 11 -25 25v49v124v162v162v94c-20 -29 -41 -58 -61 -88l-90 -129c-31 -46 -63 -92 -95 -138c-28 -41 -57 -82 -86 -124c-20 -30 -41 -60 -62 -89c-8 -12 -16 -23 -24 -35
c-6 -9 -16 -15 -28 -12c-11 3 -19 13 -19 25v48v124v162v162v125v50c0 14 12 25 26 25c13 0 25 -11 25 -25v-49v-124v-161v-163v-94c20 30 40 59 61 88c30 44 60 87 89 130c32 46 64 92 95 137c29 42 58 83 86 124c21 30 42 60 62 90c8 12 16 23 24 35c7 9 17 14 29 11z" />
    <glyph glyph-name="uni041A" unicode="&#x41a;" horiz-adv-x="534" 
d="M510 719c12 -7 17 -23 10 -35l-15 -24c-24 -39 -49 -78 -73 -117c-27 -46 -55 -91 -83 -136c-11 -17 -21 -35 -32 -52c1 -1 1 -2 2 -3l69 -111c28 -45 57 -91 85 -136c14 -22 28 -44 41 -67c8 -11 3 -27 -9 -34s-27 -3 -34 9c-4 5 -7 10 -10 16c-23 37 -46 73 -69 110
c-28 46 -57 91 -85 136c-11 17 -21 35 -32 52h-58h-116v-127v-124v-50c0 -14 -11 -26 -25 -26s-26 12 -26 26v49v124v163v162v124v50c0 14 12 26 26 26s25 -12 25 -26v-49v-125v-147h66h104l9 15l72 117c28 45 56 90 84 136c13 21 27 43 40 65c7 11 22 16 34 9z" />
    <glyph glyph-name="uni041B" unicode="&#x41b;" horiz-adv-x="523" 
d="M498 79c4 -15 9 -31 14 -46c4 -13 -5 -28 -18 -31c-13 -4 -27 4 -31 17c0 2 -1 3 -1 4c-7 22 -14 45 -20 67c-13 43 -26 86 -40 129c-15 52 -31 105 -47 157c-16 51 -31 102 -47 153c-8 28 -17 55 -25 83c-12 -41 -25 -81 -37 -121c-16 -52 -32 -105 -49 -157
c-15 -51 -31 -102 -47 -153c-12 -39 -24 -77 -36 -116c-4 -15 -9 -30 -14 -46c-4 -13 -17 -21 -31 -17c-13 3 -21 18 -17 31c0 1 0 2 1 3c7 23 14 45 21 68l39 129c16 52 33 105 49 157c16 51 31 102 47 153c12 38 24 77 36 116c4 15 9 30 14 45c3 11 13 19 24 19
c12 0 21 -8 25 -19c0 -1 0 -2 1 -3c6 -22 13 -45 20 -67l39 -129c16 -52 32 -105 48 -157c16 -51 31 -102 47 -153c11 -39 23 -78 35 -116z" />
    <glyph glyph-name="uni041C" unicode="&#x41c;" horiz-adv-x="646" 
d="M618 722c11 -3 18 -13 18 -24v-49v-124v-162v-162v-125v-50c0 -14 -11 -25 -25 -25s-25 11 -25 25v49v124v162v162v90l-51 -78l-90 -138c-23 -35 -45 -69 -67 -103c-4 -6 -9 -13 -13 -19c-10 -16 -33 -17 -44 0v1c-2 2 -4 5 -5 7c-19 29 -38 59 -58 88
c-29 45 -59 90 -88 135c-23 36 -46 72 -70 107v-88v-162v-162v-125v-50c0 -14 -11 -25 -25 -25s-25 11 -25 25v49v124v162v162v125v50c0 11 7 21 18 24c12 3 23 -2 29 -11c2 -3 4 -6 5 -9c19 -29 39 -58 58 -87c29 -46 59 -91 88 -136c27 -41 54 -83 81 -124
c5 -7 9 -15 14 -22c14 21 27 42 41 63c30 45 59 91 89 136c27 41 54 83 81 124c12 18 24 37 35 55c7 9 18 14 29 11z" />
    <glyph glyph-name="uni041E" unicode="&#x41e;" horiz-adv-x="447" 
d="M437 442v-162v-87c-1 -68 -38 -133 -98 -167c-39 -22 -83 -29 -127 -23c-40 6 -78 26 -106 56c-14 14 -27 31 -35 49c-10 21 -16 42 -19 64c-2 13 -1 26 -1 39v136v150v33c0 35 9 70 27 99c22 37 56 64 95 81c39 15 84 17 124 5c41 -12 76 -37 102 -71
c24 -32 38 -73 38 -113v-89zM385 174c1 7 1 13 1 19v2v101v162v56c0 12 0 24 -1 35c-2 13 -5 25 -10 37c-4 8 -9 17 -14 24c-1 3 -3 5 -5 7c0 1 -1 2 -1 2c-4 4 -7 8 -11 12s-8 7 -12 11c0 0 -1 1 -2 1v0c-2 2 -4 3 -6 5c-8 5 -16 9 -25 13c-11 5 -24 8 -36 10
c-13 2 -26 2 -39 0c-12 -2 -24 -5 -36 -10c-9 -4 -17 -8 -25 -13c-2 -2 -4 -3 -7 -5c0 -1 -1 -1 -2 -2c-4 -3 -7 -7 -11 -10c-4 -4 -8 -8 -11 -12c-1 -1 -1 -2 -2 -2v0c-1 -2 -3 -4 -4 -7c-5 -7 -10 -16 -14 -24c-5 -12 -8 -25 -10 -37c-1 -6 -1 -13 -1 -19v-101v-162v-57
c0 -12 0 -24 1 -36c2 -12 6 -25 10 -36c4 -9 9 -17 14 -25c1 -2 3 -4 5 -7c0 0 1 -1 1 -2c4 -4 7 -8 11 -11c4 -4 8 -8 12 -11l2 -2v0c2 -1 4 -3 6 -4c8 -5 16 -10 25 -14c12 -5 24 -8 36 -10c13 -1 26 -1 39 0c12 2 25 5 36 10c9 4 17 9 25 14c2 1 4 3 7 5c0 0 1 1 2 1
c4 4 8 7 11 11c4 4 8 8 11 12l2 2v0c1 2 3 4 4 6c5 8 10 16 14 25c5 12 8 24 10 36z" />
    <glyph glyph-name="uni041D" unicode="&#x41d;" horiz-adv-x="500" 
d="M465 723c14 0 25 -11 25 -25v-49v-124v-162v-162v-125v-50c0 -14 -11 -25 -25 -25s-25 11 -25 25v49v124v128h-115h-161h-64v-126v-125v-50c0 -14 -11 -25 -25 -25s-25 11 -25 25v49v124v162v162v125v50c0 14 11 25 25 25s25 -11 25 -25v-49v-124v-147h125h161h54v145
v125v50c0 14 11 25 25 25z" />
    <glyph glyph-name="uni0437" unicode="&#x437;" horiz-adv-x="334" 
d="M291 225c14 -17 25 -36 29 -58c5 -22 5 -46 -2 -67c-12 -43 -44 -77 -86 -92c-40 -15 -88 -9 -123 16c-17 13 -33 29 -43 48c-10 20 -16 42 -16 65c0 12 11 23 24 23c12 0 23 -11 23 -23c0 -5 0 -9 1 -13c0 -5 1 -9 3 -14c1 -3 2 -6 3 -8c0 -2 1 -3 2 -4
c2 -6 5 -11 9 -15c0 -1 1 -1 1 -2s1 -1 1 -2l6 -6s4 -4 7 -6c0 -1 1 -1 2 -2h1c5 -4 10 -7 15 -10c1 0 3 -1 4 -1c3 -1 5 -2 8 -3c5 -2 10 -3 15 -4c8 -1 16 -1 24 0c5 1 10 2 15 4c2 1 5 1 8 3c1 0 2 1 4 1c5 3 10 6 15 10c0 0 1 0 1 1c1 0 1 1 2 1l6 6c3 2 5 4 6 6l2 2
c0 1 1 1 1 2c3 4 6 9 9 15c1 1 1 2 2 4s2 5 3 8l3 15c1 8 1 16 0 24c-1 5 -2 10 -3 14l-3 9c-1 1 -1 2 -2 4l-9 15l-1 1l-2 2c-1 2 -3 4 -6 6l-6 6l-2 2c0 0 -1 0 -1 1l-15 9c-2 0 -3 1 -4 2c-3 1 -6 2 -8 3l-15 3c-4 0 -8 1 -12 1s-8 1 -11 3c-8 4 -13 11 -13 20
c0 13 10 24 23 24h10l12 3c2 1 5 2 7 2v1c1 0 2 1 3 1c5 2 9 5 13 8c1 1 2 1 2 2c2 1 4 3 5 4c2 2 4 4 5 6c1 1 2 1 2 2v0c3 4 6 9 8 14c0 0 1 1 1 2v0c1 3 2 5 3 8s2 7 2 11c1 6 1 13 0 20c0 4 -1 8 -2 12l-3 6v1c0 1 -1 2 -1 3c-3 4 -5 9 -8 13c-1 1 -2 1 -2 2l-5 5l-5 5
c-1 0 -2 1 -2 2h-1c-4 3 -8 5 -13 8c-1 0 -1 0 -2 1v0c-3 1 -5 2 -8 2c-4 1 -7 2 -11 3c-7 1 -13 1 -20 0c-4 -1 -7 -1 -11 -3c-2 0 -5 -1 -7 -2h-1c-4 -2 -8 -4 -12 -7c-1 -1 -2 -2 -4 -2l-2 -2c-4 -3 -7 -7 -10 -10c0 -1 -1 -1 -2 -2c-1 -2 -2 -3 -3 -4
c-2 -4 -4 -8 -6 -13c0 0 -1 -1 -1 -2c-1 -1 -1 -3 -2 -5c-3 -12 -16 -20 -28 -17c-13 4 -20 17 -17 29c13 43 50 78 94 85c22 4 45 2 66 -6c22 -9 39 -23 54 -42c27 -36 29 -86 9 -126c-8 -16 -20 -29 -33 -40c11 -7 22 -16 31 -27zM118 376v0c-1 -1 -2 -5 0 0zM216 415v0
c2 0 1 0 0 0zM254 317v0c-1 -1 -1 0 0 0z" />
    <glyph glyph-name="uni0438" unicode="&#x438;" horiz-adv-x="498" 
d="M448 460c14 15 40 4 40 -16v-43v-146v-157v-74c0 -13 -11 -24 -24 -24c-12 0 -23 11 -23 24v43v145v158v14c-3 -2 -5 -5 -8 -8c-33 -35 -65 -70 -98 -105c-37 -41 -75 -81 -113 -122c-31 -33 -62 -67 -93 -100l-39 -42c-15 -15 -40 -4 -40 16v44v146v157v74
c0 13 10 23 23 23s23 -10 23 -23v-44v-145v-158v-14c3 3 6 5 9 8c32 35 65 70 97 105c38 41 76 81 113 122c32 33 63 67 94 100z" />
    <glyph glyph-name="uni043A" unicode="&#x43a;" horiz-adv-x="416" 
d="M394 452c11 -7 15 -21 9 -32c-1 -1 -2 -3 -3 -4c-21 -39 -42 -77 -63 -116c-16 -27 -31 -55 -46 -82c19 -33 37 -65 55 -98c18 -32 35 -64 53 -96c6 -11 3 -25 -8 -32c-11 -6 -26 -2 -32 9c-2 3 -4 7 -6 11c-24 42 -48 84 -71 127l-30 54h-50h-105v-107v-74
c0 -12 -11 -23 -24 -23c-12 0 -23 11 -23 23v45v145v158v73c0 13 11 24 23 24c13 0 24 -11 24 -24v-44v-145v-4h46h107c20 36 40 73 60 110c18 31 35 62 52 93c6 12 21 15 32 9z" />
    <glyph glyph-name="uni043B" unicode="&#x43b;" horiz-adv-x="462" 
d="M424 96c9 -21 17 -43 26 -64c3 -6 1 -14 -2 -20c-4 -5 -9 -9 -15 -11c-7 -2 -14 -1 -20 2c-6 4 -9 9 -11 15c0 1 -1 1 -1 1c-9 24 -19 47 -29 71l-60 144c-19 47 -39 94 -58 142c-1 1 -2 3 -2 5c-2 -4 -4 -9 -6 -13l-60 -144s-40 -95 -60 -142c-9 -21 -17 -42 -26 -64
c-3 -6 -6 -11 -12 -15c-6 -3 -13 -4 -19 -2c-7 2 -12 6 -15 11c-4 6 -5 14 -3 20v0l30 72c20 48 40 96 61 144c19 47 39 94 59 141c9 22 18 43 27 64c2 6 5 11 11 15c4 2 8 4 13 4c7 0 13 -3 18 -8c3 -3 5 -7 6 -11v0l30 -72c20 -48 40 -96 59 -144c20 -47 39 -94 59 -141z
" />
    <glyph glyph-name="uni043C" unicode="&#x43c;" horiz-adv-x="481" 
d="M458 467c8 -5 13 -13 13 -22v-43v-146v-157v-74c0 -14 -12 -25 -26 -25c-13 0 -25 11 -25 25v43v146v157v5c-12 -15 -24 -30 -37 -44c-31 -37 -62 -74 -92 -111c-4 -4 -7 -8 -11 -12c-9 -11 -29 -14 -39 -2c-7 9 -15 18 -22 27c-33 39 -66 79 -99 119c-7 7 -13 15 -20 23
v-120v-157v-74c0 -14 -11 -25 -25 -25s-25 11 -25 25v43v146v157v74c0 11 7 21 18 24c8 3 19 1 25 -6c7 -9 15 -18 23 -27c33 -40 66 -79 99 -119l45 -54c2 2 4 4 6 7c33 39 66 79 99 118c21 25 42 50 62 75c8 8 22 9 31 4z" />
    <glyph glyph-name="uni043D" unicode="&#x43d;" horiz-adv-x="422" 
d="M386 471c14 0 26 -11 26 -25v-44v-146v-157v-74c0 -14 -12 -25 -26 -25c-13 0 -25 11 -25 25v44v138h-34h-160h-67v-108v-74c0 -14 -11 -25 -25 -25s-25 11 -25 25v44v146v157v74c0 14 11 25 25 25s25 -11 25 -25v-44v-144h34h159h68v114v74c0 14 12 25 25 25z" />
    <glyph glyph-name="uni043E" unicode="&#x43e;" horiz-adv-x="532" 
d="M489 346c21 -37 33 -78 33 -120c0 -81 -44 -159 -114 -201c-72 -44 -165 -45 -238 -4c-72 41 -119 120 -120 203c0 83 44 163 116 205c72 43 166 44 238 1c35 -20 65 -50 85 -84zM470 201c1 9 1 17 1 25c0 9 0 17 -1 25c-3 16 -7 32 -13 47c-5 12 -11 23 -18 33
c-2 3 -4 6 -6 8v0v1l-3 3c-4 5 -9 10 -13 15c-5 4 -10 9 -15 13c-1 1 -2 1 -3 2l-1 1c-2 2 -5 4 -8 5c-10 7 -21 13 -32 18c-15 6 -31 10 -47 13c-17 2 -33 2 -50 0c-16 -3 -32 -7 -47 -13c-11 -5 -22 -11 -33 -18c-3 -2 -5 -4 -8 -6v0v0c-1 -1 -2 -2 -4 -3
c-5 -4 -10 -8 -14 -13c-5 -5 -9 -10 -14 -15c0 -1 -1 -2 -2 -3v-1c-2 -2 -4 -5 -6 -8c-7 -10 -13 -21 -18 -32c-6 -15 -10 -31 -13 -47c-2 -16 -2 -33 0 -50c3 -16 7 -31 13 -46c5 -12 11 -23 19 -34c1 -2 3 -5 5 -8v0v0l3 -3c4 -5 9 -10 14 -15c4 -5 9 -9 14 -13l3 -3h1
c3 -2 5 -4 8 -6c10 -7 21 -13 32 -18c15 -6 31 -10 47 -12c17 -2 33 -2 50 0c16 2 32 6 47 12c11 5 23 12 33 19c3 2 6 3 8 5v1v0c1 0 3 1 4 2c5 5 10 9 14 14c5 4 10 9 14 14c1 1 1 2 2 3c0 1 0 1 1 1c2 3 3 5 5 8c7 10 13 21 18 33c6 15 10 30 13 46z" />
    <glyph glyph-name="uni041F" unicode="&#x41f;" horiz-adv-x="461" 
d="M426 723c13 0 25 -11 25 -25v-47v-123v-162v-163v-125v-50c0 -14 -12 -26 -25 -26c-14 0 -26 12 -26 26v47v123v162v163v125v25h-77h-163h-60v-23v-124v-162v-163v-125v-50c0 -14 -11 -26 -25 -26s-25 12 -25 26v48v124v162v163v125v50c0 14 11 25 25 25h2h101h163h85z
" />
    <glyph glyph-name="uni0420" unicode="&#x420;" horiz-adv-x="484" 
d="M418 641c26 -32 45 -69 52 -110s4 -85 -11 -125c-15 -38 -38 -72 -69 -98c-32 -26 -70 -45 -110 -52c-23 -3 -44 -3 -67 -3h-112v-54v-125v-50c0 -13 -12 -25 -25 -25c-14 0 -26 12 -26 25v50v125v163v162v125v50c0 14 12 25 26 25h90c51 0 104 4 153 -14
c38 -14 73 -38 99 -69zM422 464c2 16 2 33 0 49c-3 16 -7 32 -13 47c-5 12 -11 23 -18 34c-2 2 -4 5 -6 8v0v0l-3 3c-4 5 -9 10 -13 15c-5 5 -10 9 -15 13l-3 3h-1c-2 2 -5 4 -8 6c-10 7 -21 13 -32 18c-15 6 -31 10 -47 12c-20 3 -41 2 -62 2h-100v-25v-125v-162v-59h27h81
c18 0 36 0 54 2c16 2 32 6 47 12c11 6 22 12 33 19c3 2 5 4 8 6v0v0c1 1 3 2 4 2c5 5 10 9 14 14c5 5 9 9 14 15c0 1 1 2 2 3h1c1 3 3 6 5 8c7 11 13 21 18 33c6 15 10 31 13 47z" />
    <glyph glyph-name="uni0421" unicode="&#x421;" horiz-adv-x="449" 
d="M413 218c14 0 26 -12 26 -26c0 -69 -39 -135 -100 -169c-39 -21 -83 -29 -127 -22c-40 6 -78 27 -107 56c-13 15 -26 31 -34 50c-10 20 -16 42 -19 64c-2 13 -1 26 -1 39v136v150v35c0 34 9 68 26 97c20 35 51 65 89 80c21 9 42 15 66 17c21 1 43 -1 63 -6
c39 -11 76 -34 101 -66c14 -18 24 -37 32 -58c7 -20 10 -41 11 -62c0 -14 -12 -26 -26 -26c-13 0 -25 12 -25 26c0 5 0 11 -1 17c-2 13 -5 25 -10 37c-4 9 -9 17 -14 25c-1 2 -3 5 -5 7c0 1 -1 1 -2 2c-3 4 -6 8 -10 12s-8 7 -12 11c-1 0 -2 1 -2 1v0c-2 2 -4 3 -7 5
c-7 5 -16 9 -24 13c-12 5 -24 8 -37 10s-26 2 -39 0c-12 -2 -25 -5 -37 -10c-8 -4 -16 -8 -24 -13c-3 -2 -5 -3 -7 -5c-1 -1 -2 -1 -2 -2c-4 -3 -8 -7 -12 -10c-4 -4 -7 -8 -11 -13l-1 -1v-1c-2 -2 -3 -4 -5 -6c-5 -8 -10 -16 -14 -25c-4 -12 -8 -24 -10 -37
c0 -6 -1 -13 -1 -19v-103v-162v-57c0 -12 0 -24 1 -36c2 -13 6 -25 10 -37c4 -9 9 -17 14 -25c2 -2 3 -4 5 -6c1 -1 1 -2 2 -3c3 -4 7 -8 11 -11c4 -4 8 -8 12 -11c0 -1 1 -1 1 -2h1c2 -1 4 -3 6 -4c8 -5 16 -10 24 -14c12 -5 25 -8 37 -10c13 -1 26 -1 39 0
c13 2 25 5 37 10c9 4 17 9 25 14c2 2 4 3 7 5c0 1 1 1 2 2c4 3 8 7 11 10c4 4 8 8 12 13c0 0 0 1 1 1v1c2 2 3 4 4 6c6 8 10 16 14 24c5 12 8 25 10 37c1 7 1 13 1 19c0 14 12 26 25 26z" />
    <glyph glyph-name="uni0423" unicode="&#x423;" horiz-adv-x="501" 
d="M479 722c5 -3 9 -9 11 -15c2 -7 0 -13 -2 -20c-3 -4 -5 -9 -7 -14c-12 -28 -24 -56 -36 -83c-20 -44 -39 -89 -59 -133c-22 -50 -44 -101 -67 -152l-63 -144c-16 -36 -32 -72 -47 -108c-7 -14 -13 -28 -19 -42c-3 -6 -9 -10 -15 -12c-7 -2 -14 -1 -20 3
c-5 3 -10 9 -11 15c-2 7 -1 13 2 19c2 5 5 10 7 15c12 28 24 56 36 83c18 41 36 81 54 121c-1 1 -1 1 -1 2c-1 0 -1 1 -1 2c-12 26 -23 52 -35 78c-21 48 -42 97 -63 145c-21 46 -41 93 -62 139l-27 63c-3 6 -5 12 -3 19s6 12 12 15c6 4 13 5 19 3s13 -6 16 -12v-1
c12 -27 23 -53 35 -79c21 -48 42 -96 64 -145c20 -46 40 -93 61 -139c4 -9 8 -18 12 -28l45 102l63 144c16 36 32 72 47 108c7 14 13 28 19 42c2 6 9 10 15 12c7 1 14 1 20 -3z" />
    <glyph glyph-name="uni0424" unicode="&#x424;" horiz-adv-x="863" 
d="M800 636c26 -32 44 -70 50 -111c6 -42 3 -85 -13 -125c-15 -37 -39 -71 -71 -97c-32 -25 -70 -44 -111 -50c-22 -4 -43 -4 -65 -4h-114v-3v-153v-68c0 -14 -12 -26 -25 -26c-14 0 -26 12 -26 26v68v152v4h-84h-52c-40 0 -79 10 -113 29c-74 39 -122 116 -125 199
c-2 42 8 85 28 122c19 35 47 66 81 88c35 22 76 35 118 37c16 1 32 0 48 0h126v0v0h98h62c31 0 62 -5 91 -17c38 -15 72 -39 97 -71zM314 300h111v103v85c0 32 1 63 1 95c0 30 1 60 1 91h-32h-79c-18 0 -35 0 -53 -2c-16 -2 -32 -7 -47 -13c-12 -5 -23 -11 -34 -18
c-3 -2 -5 -4 -8 -6v0c-1 -1 -2 -2 -4 -3c-5 -4 -10 -9 -14 -13c-5 -5 -9 -10 -14 -15c0 -1 -1 -2 -2 -3v-1c-2 -2 -4 -5 -6 -8c-7 -10 -13 -21 -18 -33c-6 -15 -11 -31 -13 -47c-2 -17 -2 -34 0 -50c2 -17 7 -32 13 -48c5 -11 11 -23 18 -33c2 -3 4 -6 6 -8v-1l3 -3
c4 -5 9 -10 14 -15c4 -4 9 -9 14 -13l3 -3h1c3 -2 5 -4 8 -6c10 -7 21 -13 33 -18c15 -6 31 -10 47 -13c17 -1 34 -1 51 -1zM801 462c2 16 2 33 0 50c-2 16 -7 32 -13 47c-5 12 -11 23 -18 34c-2 3 -4 5 -6 8v0c-1 1 -2 3 -3 4c-4 5 -9 10 -13 14c-5 5 -10 9 -15 14
c-1 0 -2 1 -3 2c0 0 -1 0 -1 1c-2 1 -5 3 -8 5c-10 7 -21 13 -33 18c-15 6 -31 11 -47 13c-21 3 -42 2 -63 2h-101v-91c-1 -31 -1 -63 -1 -95v-84v-104h31h80c18 0 36 -1 54 1c16 3 32 7 47 13c12 6 23 12 34 19c3 2 5 4 8 6v0c1 1 3 2 4 3c5 4 10 8 14 13c5 5 10 10 14 15
c1 1 1 2 2 3h1c2 3 3 6 5 9c7 10 13 21 18 32c6 16 11 31 13 48z" />
    <glyph glyph-name="uni0425" unicode="&#x425;" horiz-adv-x="507" 
d="M424 562c-26 -47 -53 -94 -79 -141c-10 -19 -21 -38 -31 -57c0 -1 1 -2 1 -3c21 -38 42 -76 63 -113c25 -48 51 -95 77 -142c13 -23 25 -46 38 -69c6 -12 3 -27 -9 -34s-28 -3 -35 9c-10 18 -20 36 -30 55l-75 138c-23 40 -45 81 -67 122c-1 1 -2 3 -3 4
c-20 -36 -40 -73 -60 -109l-78 -141l-39 -69c-7 -12 -23 -16 -35 -9s-15 22 -9 34c3 5 5 9 8 14c20 37 41 74 61 111c27 47 53 94 79 141c10 19 21 38 31 56c0 1 -1 2 -1 3l-63 114c-25 47 -51 94 -77 142c-13 23 -25 46 -38 69c-6 12 -3 27 9 34s28 3 35 -9
c10 -18 20 -37 30 -55c25 -46 50 -92 76 -138c22 -40 44 -81 66 -122c1 -1 2 -3 3 -4c20 36 40 72 60 109l78 141l39 69c7 12 23 16 35 9s15 -22 9 -34c-3 -5 -5 -9 -8 -14c-20 -37 -41 -74 -61 -111z" />
    <glyph glyph-name="uni0422" unicode="&#x422;" horiz-adv-x="560" 
d="M525 723c14 0 25 -11 25 -25s-11 -25 -25 -25v0h-113h-87v-25v-124v-162v-163v-124v-50c0 -14 -11 -26 -25 -26s-25 12 -25 26v49v125v162v162v125v25h-88h-112c-14 0 -25 11 -25 25s11 25 25 25v0h113h112h1h112h112z" />
    <glyph glyph-name="uni043F" unicode="&#x43f;" horiz-adv-x="461" 
d="M426 474c14 0 25 -12 25 -26v-44v-146v-158v-74c0 -13 -11 -25 -25 -25s-25 12 -25 25v45v146v158v48h-78h-163h-59v-20v-146v-158v-74c0 -14 -12 -25 -25 -25c-14 0 -26 11 -26 25v46v146v158v73c0 14 12 26 26 26h1h102h162h85z" />
    <glyph glyph-name="uni0440" unicode="&#x440;" horiz-adv-x="417" 
d="M306 433c32 -23 60 -54 77 -91c18 -39 26 -81 22 -123c-4 -41 -18 -81 -42 -115c-24 -33 -55 -61 -92 -78c-33 -16 -69 -23 -106 -23h-62h-3v-64v-124v-49c0 -14 -11 -25 -25 -25s-25 11 -25 25v0v59v129v163v162v124v49c0 14 11 25 25 25h49c22 0 45 1 67 -1
c41 -4 81 -18 115 -43zM354 215c2 17 2 33 0 50c-3 16 -7 32 -13 47c-5 12 -11 23 -19 34c-2 3 -3 5 -5 8h-1c-1 1 -1 3 -2 4c-5 5 -9 10 -14 14c-4 5 -9 9 -15 14c-1 0 -2 1 -3 2v0c-3 2 -5 4 -8 6c-11 7 -22 13 -33 18c-15 6 -31 11 -47 13c-21 2 -42 2 -63 2h-31v-34
v-129v-164v-47h3h43c16 0 32 0 48 2s32 7 47 13c12 5 23 11 34 18c2 2 5 4 8 6v0l3 3c5 4 10 9 15 13c5 5 9 10 13 15l3 3v1c2 2 4 5 6 8c7 10 13 21 18 33c6 15 10 31 13 47z" />
    <glyph glyph-name="uni0441" unicode="&#x441;" horiz-adv-x="492" 
d="M102 268c-1 -8 -1 -17 -1 -25v-2v-2c0 -9 0 -17 1 -25c3 -17 7 -33 13 -48c5 -12 11 -23 18 -33c3 -3 5 -6 7 -9v0c1 -2 2 -3 3 -4c4 -5 8 -10 13 -15c5 -4 10 -9 16 -14c1 0 2 -1 2 -2h1c3 -2 6 -4 8 -6c11 -7 22 -13 33 -18c16 -6 32 -11 48 -13c17 -2 34 -2 51 0
c16 2 32 7 47 13s29 14 42 24c1 1 3 2 4 3s3 2 5 4c3 3 6 6 9 8c6 6 11 13 17 19c8 11 27 9 36 0c4 -4 7 -11 7 -18s-3 -12 -7 -18c-16 -19 -36 -36 -57 -50c-75 -48 -175 -50 -252 -3c-34 21 -64 50 -84 85c-21 37 -32 78 -32 120v2v2c0 23 4 47 10 69
c25 79 89 142 169 162c43 12 91 11 134 -3c43 -15 83 -41 112 -77c4 -5 7 -10 7 -18c0 -6 -3 -13 -7 -18c-9 -8 -28 -10 -36 0c-6 7 -12 14 -18 20c-3 3 -7 6 -10 9c-2 2 -4 3 -5 5h-1c-13 10 -28 18 -43 25c-15 6 -31 10 -47 13c-17 2 -34 2 -51 0c-16 -3 -32 -7 -48 -13
c-11 -5 -22 -11 -33 -18c-3 -2 -6 -4 -9 -7v0c-1 -1 -2 -1 -3 -2c-5 -5 -10 -9 -15 -14s-10 -10 -14 -15c-1 -1 -2 -2 -2 -3c-1 0 -1 -1 -1 -1c-2 -3 -4 -5 -6 -8c-7 -11 -13 -22 -18 -33c-6 -16 -10 -31 -13 -48z" />
    <glyph glyph-name="uni0442" unicode="&#x442;" horiz-adv-x="455" 
d="M420 463c14 0 25 -11 25 -25s-11 -25 -25 -25h-47h-99v-11v-143v-159v-75c0 -14 -12 -25 -26 -25s-25 11 -25 25v36v143v159v50h-24h-124c-14 0 -25 11 -25 25s11 25 25 25h47h125v0h1h48h124z" />
    <glyph glyph-name="uni0443" unicode="&#x443;" horiz-adv-x="498" 
d="M475 449c5 -3 9 -8 11 -15s1 -13 -2 -19l-1 -1c-8 -20 -17 -39 -25 -59c-18 -40 -36 -80 -53 -120l-66 -150c-22 -49 -44 -98 -65 -147c-17 -38 -33 -75 -50 -113c-6 -15 -13 -29 -19 -44c-3 -6 -10 -10 -15 -12c-7 -2 -14 -1 -20 3c-6 3 -10 8 -12 15s0 13 3 19
c0 1 0 1 1 2c8 19 17 38 25 58c18 40 35 80 53 120c0 1 1 2 1 2c-11 27 -23 53 -34 79c-22 48 -43 97 -64 145c-21 46 -41 93 -61 139c-10 21 -19 42 -28 62c-3 7 -4 13 -2 20c1 6 6 12 11 15c6 3 13 4 20 3c6 -2 12 -6 15 -12c0 -1 1 -1 1 -2c12 -27 23 -54 35 -80
c21 -49 43 -97 64 -146c20 -46 41 -92 61 -139c3 -7 6 -14 10 -21c12 28 25 57 37 85c22 49 43 98 65 147c16 38 33 75 49 113c7 15 13 30 20 44c2 6 9 10 15 12c7 2 14 1 20 -3z" />
    <glyph glyph-name="uni0444" unicode="&#x444;" horiz-adv-x="582" 
d="M482 457c39 -18 69 -53 82 -93c14 -41 9 -89 -12 -127c-21 -37 -57 -65 -98 -76c-25 -6 -50 -5 -75 -5h-43v-34v-97c0 -14 -12 -25 -26 -25c-13 0 -25 11 -25 25v60v71h-66c-9 0 -18 0 -28 1c-22 3 -44 10 -63 21c-37 22 -64 59 -73 101c-10 42 -2 89 23 125
c25 34 63 60 105 66c23 3 47 3 70 3h58v0v0h85h20c23 -1 45 -6 66 -16zM479 400v0c-1 1 -3 3 0 0zM123 380v0c-1 -2 -3 -4 0 0zM143 229v0c2 -1 4 -3 0 0zM251 207h34v38v78c0 33 1 66 1 99h-32h-36c-8 0 -16 0 -24 -1c-9 -1 -18 -4 -27 -7c-7 -3 -13 -7 -19 -11
c-2 -1 -4 -2 -5 -3l-2 -2c-3 -2 -6 -5 -9 -8s-6 -6 -8 -10c-1 0 -1 0 -1 -1c-1 -1 -2 -3 -3 -4c-4 -6 -8 -12 -10 -19c-4 -9 -6 -18 -8 -27c-1 -10 -1 -20 0 -29c2 -10 4 -19 8 -28c3 -6 6 -13 10 -19c1 -1 2 -3 3 -4s1 -2 2 -2c2 -3 5 -6 8 -9s6 -6 10 -9c0 0 1 0 1 -1
c1 -1 3 -2 4 -3c6 -4 12 -7 19 -10c9 -3 18 -6 27 -7c19 -2 38 -1 57 -1zM499 249v0c2 1 3 3 0 0zM521 300c1 9 1 19 0 29c-2 9 -4 19 -8 27c-3 7 -6 13 -10 20c-2 1 -3 3 -4 4c0 1 -1 1 -1 2c-3 3 -5 6 -8 9s-7 6 -10 9h-1c-2 1 -3 3 -5 4c-6 3 -12 7 -18 10
c-9 3 -18 6 -28 7c-8 1 -16 1 -24 1h-35h-32c-1 -23 -1 -46 -1 -69v-75v-71h37c18 0 37 -1 55 1c10 1 19 4 28 7c7 3 13 7 19 11c2 1 3 2 5 3l1 1c4 3 7 6 9 9l9 9c0 1 1 1 1 2c1 1 2 3 3 4c4 6 7 12 10 18c4 9 6 18 8 28z" />
    <glyph glyph-name="uni0445" unicode="&#x445;" horiz-adv-x="345" 
d="M279 132c17 -32 35 -63 53 -95c6 -11 2 -25 -9 -32c-11 -6 -26 -3 -32 9c-2 3 -4 7 -6 11c-24 43 -48 85 -71 128c-7 12 -14 25 -21 38c-16 -28 -31 -55 -46 -83c-18 -31 -35 -63 -53 -94c-6 -12 -21 -15 -32 -9c-11 7 -14 21 -8 32c0 1 1 2 1 2c21 38 41 75 62 112
c15 28 31 56 46 83c-19 36 -38 71 -57 106c-18 31 -35 63 -52 94c-6 12 -3 26 8 32c11 7 26 3 32 -8c2 -4 4 -8 6 -11c24 -43 47 -86 70 -128c8 -14 15 -27 23 -41c15 29 31 57 46 85c18 32 35 64 52 95c6 11 21 15 32 8c11 -6 15 -20 9 -32c-1 -1 -2 -2 -2 -3l-63 -114
c-15 -28 -30 -55 -45 -83z" />
    <glyph glyph-name="uni0426" unicode="&#x426;" horiz-adv-x="504" 
d="M468 83c14 0 26 -12 26 -25v-23v-127c0 -13 -12 -25 -26 -25c-13 0 -25 12 -25 25v23v70h-128h-161h-79c-13 0 -25 11 -25 25v49v125v162v162v125v50c0 13 12 25 25 25c14 0 26 -12 26 -25v-50v-124v-162v-162v-125v-25h119h161h13v24v125v162v162v125v50
c0 13 12 25 26 25c13 0 25 -12 25 -25v-50v-124v-162v-162v-125v-9c3 9 13 16 23 16z" />
    <glyph glyph-name="uni0427" unicode="&#x427;" horiz-adv-x="453" 
d="M418 724c14 0 25 -12 25 -25v0v-24v-27v-124v-2v-45v-115v-162v-125v-50c0 -13 -11 -25 -25 -25s-25 12 -25 25v0v51v124v144c-5 -5 -11 -11 -17 -16c-17 -14 -35 -25 -56 -34c-38 -16 -83 -19 -124 -8c-39 10 -75 33 -101 65c-14 17 -25 36 -33 57c-7 19 -11 40 -12 61
v39v76v113c0 14 11 25 25 25s25 -11 25 -25v-1v-124v-72c0 -15 0 -29 2 -43c2 -13 5 -26 10 -38c4 -9 9 -18 15 -26c1 -2 2 -5 4 -7v0c1 -1 2 -1 2 -2c4 -4 7 -8 11 -12s8 -7 12 -11c0 0 1 -1 2 -1v0c2 -2 4 -3 6 -5c8 -5 17 -10 25 -14c13 -4 25 -8 38 -10
c13 -1 26 -1 39 0c13 2 26 6 38 10c9 4 18 9 26 15c2 1 4 3 6 4c0 0 0 1 1 1l2 2c4 3 8 6 11 10c4 4 8 8 11 12c1 1 1 2 2 2v0c1 2 3 4 4 7c6 8 10 16 14 25c5 12 9 25 11 38c0 5 1 10 1 16v2v49v62v63v50c0 13 11 25 25 25z" />
    <glyph glyph-name="uni0428" unicode="&#x428;" horiz-adv-x="799" 
d="M764 711c14 0 25 -11 25 -25v-50v-124v-163v-162v-124v-50c0 -14 -11 -25 -25 -25h-1h-62h-130h-163h-161h-123h-49c-14 0 -25 11 -25 25v50v124v162v163v124v50c0 14 11 25 25 25s25 -11 25 -25v-50v-124v-163v-162v-124v-25h37h131h126v27v121v161v162v126v50
c0 14 12 26 26 26c13 0 25 -12 25 -26v-43v-121v-162v-162v-126v-33h147h123h24v25v124v162v163v124v50c0 14 11 25 25 25z" />
    <glyph glyph-name="uni0429" unicode="&#x429;" horiz-adv-x="848" 
d="M813 82c14 0 25 -11 25 -25v-23v-126c0 -14 -11 -25 -25 -25s-25 11 -25 25v23v69h-108h-1h-107h-164h-161h-122h-49c-14 0 -26 12 -26 26v50v124v162v162v125v50c0 13 12 25 26 25c13 0 25 -12 25 -25v-50v-125v-162v-162v-124v-25h37h130h127v25v124v162v162v125v50
c0 13 11 25 25 25s25 -12 25 -25v-50v-125v-162v-162v-124v-25h148h123h23v25v124v162v162v125v50c0 13 12 25 25 25c14 0 26 -12 26 -25v-50v-125v-162v-162v-124v-10c3 10 13 16 23 16z" />
    <glyph glyph-name="uni042A" unicode="&#x42a;" horiz-adv-x="658" 
d="M594 381c26 -31 45 -69 51 -110c3 -21 4 -42 1 -64c-1 -11 -3 -22 -6 -33s-7 -21 -11 -32c-16 -37 -43 -69 -75 -93c-34 -25 -73 -39 -114 -43c-23 -2 -47 -1 -70 -1h-109c-14 0 -25 11 -25 25v43v121v161v163v126v25h-39h-121c-14 0 -26 11 -26 25s12 25 26 25h64h121
c14 0 25 -11 25 -25v-43v-121v-66h55h70c29 0 58 -4 85 -14c38 -14 73 -37 98 -69zM596 210c2 16 2 32 0 48s-7 31 -12 45c-5 12 -11 23 -18 33c-2 2 -4 5 -6 8v0l-3 3c-4 5 -8 10 -12 14c-5 5 -10 9 -15 13c-1 1 -2 2 -3 2c0 1 0 1 -1 1c-2 2 -4 4 -7 5
c-10 7 -20 13 -31 17c-15 6 -30 10 -45 13c-15 1 -30 1 -45 1h-112v-44v-163v-125v-26h42h47c23 0 46 -1 68 2c15 2 30 6 45 12c11 5 22 11 32 18c3 2 5 4 8 5v1c1 1 3 2 4 2l13 13c5 5 10 10 14 15c0 0 1 2 2 2v1c2 3 4 5 6 8c6 10 12 20 17 31c5 14 10 30 12 45z" />
    <glyph glyph-name="uni042B" unicode="&#x42b;" horiz-adv-x="831" 
d="M803 721c11 -2 18 -13 18 -24v-48v-124v-162v-162v-125v-50c0 -13 -11 -25 -25 -25s-25 12 -25 25v48v124v162v162v93c-22 -32 -43 -64 -65 -96c-30 -45 -61 -90 -91 -136c-30 -44 -60 -88 -90 -133c-23 -34 -46 -67 -68 -101c-9 -13 -18 -27 -27 -40c-2 -2 -3 -3 -4 -5
c-16 -23 -36 -43 -58 -59c-34 -24 -74 -38 -115 -42c-23 -2 -46 -1 -69 -1h-108c-14 0 -26 12 -26 26v47v123v162v162v125v51c0 13 12 25 26 25c13 0 25 -12 25 -25v-48v-123v-62h61c52 0 107 4 156 -16c38 -16 72 -39 97 -71c14 -18 25 -37 33 -57s13 -40 16 -60
c0 -4 0 -7 1 -10c11 16 21 32 32 48c31 46 61 91 92 136c30 45 60 89 90 133c23 34 45 68 68 102c9 13 18 26 27 40c7 9 17 15 29 11zM362 106c5 5 10 10 14 15c0 1 1 2 2 3l1 1c1 2 3 4 5 7c6 10 12 21 17 32c6 14 10 30 13 45c1 16 1 33 0 49c-3 16 -7 31 -13 46
c-5 11 -11 22 -18 32c-2 3 -4 6 -6 8v1l-3 3c-4 5 -8 9 -12 14c-5 4 -10 9 -15 13c-1 1 -2 2 -3 2c0 0 0 1 -1 1c-2 2 -4 3 -7 5c-10 7 -21 12 -32 17c-14 6 -30 10 -45 13c-16 2 -31 1 -47 1h-111v-49v-162v-125v-25h42h48c23 0 46 -1 68 1c16 3 31 7 45 13
c12 5 23 11 33 18c3 2 5 4 8 6v0c1 1 3 2 4 3c4 4 9 8 13 12z" />
    <glyph glyph-name="uni0446" unicode="&#x446;" horiz-adv-x="425" 
d="M389 75c14 0 26 -12 26 -25v-1v-114c0 -14 -12 -26 -26 -26c-13 0 -25 12 -25 26v0v65h-37h-159h-93c-14 0 -25 12 -25 25v45v145v158v73c0 14 11 26 25 26s25 -12 25 -26v-44v-146v-157v-48h31h159h26v19v145v158v73c0 14 11 26 25 26s25 -12 25 -26v-44v-146v-157v-39
c4 9 13 15 23 15z" />
    <glyph glyph-name="uni0447" unicode="&#x447;" horiz-adv-x="438" 
d="M428 359v-18v-85v-157v-74c0 -14 -11 -25 -25 -25s-25 11 -25 25v44v144c-12 -12 -25 -23 -39 -32c-36 -22 -79 -32 -120 -27c-23 3 -44 9 -65 19c-18 9 -35 22 -49 36c-30 31 -48 71 -53 114c-2 21 -1 42 -1 63v59c0 13 11 25 25 25s25 -12 25 -25v-1v-60s-1 -41 1 -61
c2 -12 6 -24 10 -36c4 -8 9 -16 14 -24c1 -2 3 -4 4 -6c1 0 1 -1 2 -2c3 -4 6 -7 10 -11s7 -7 11 -10l2 -2c2 -2 4 -3 6 -4c8 -5 16 -10 24 -14c12 -4 24 -7 36 -9s25 -2 37 0s24 5 36 9c8 4 16 9 24 14c2 1 4 3 6 4l2 2c4 3 8 6 11 10l11 11c0 1 1 2 1 2c2 2 3 4 5 6
c5 8 9 16 13 25c5 11 8 23 10 36v2c0 4 1 8 1 11v35v16v58c0 14 11 25 25 25s25 -11 25 -25v-12v-32v-43zM154 233v0c-2 1 -1 1 0 0zM348 256v0c-1 -2 -1 -1 0 0z" />
    <glyph glyph-name="uni0448" unicode="&#x448;" horiz-adv-x="644" 
d="M609 471c14 0 25 -12 25 -25v-44v-146v-157v-74c0 -14 -11 -25 -25 -25h-37h-128h-166h-143h-60c-14 0 -25 11 -25 25v44v145v158v74c0 13 11 25 25 25s25 -12 25 -25v-44v-146v-157v-49h12h128h78v19v145v158v74c0 13 11 25 25 25s25 -12 25 -25v-44v-146v-157v-49h38
h142h36v19v145v158v74c0 13 11 25 25 25z" />
    <glyph glyph-name="uni0449" unicode="&#x449;" horiz-adv-x="693" 
d="M658 78c14 0 25 -12 25 -25v-1v-114c0 -14 -11 -26 -25 -26s-25 12 -25 26v0v62h-55h-141h-166h-138h-58c-14 0 -25 11 -25 25v2v1v42v144v158v74c0 14 11 25 25 25s25 -11 25 -25v-41v-145v-157v-53h39h141h38v20v144v158v74c0 14 12 25 26 25c13 0 25 -11 25 -25v-41
v-145v-157v-53h77h138v20v144v158v74c0 14 12 25 26 25c13 0 25 -11 25 -25v-41v-145v-157v-40c4 9 13 15 23 15z" />
    <glyph glyph-name="uni044A" unicode="&#x44a;" horiz-adv-x="569" 
d="M507 303c30 -31 48 -72 51 -115c1 -21 -2 -43 -8 -63c-7 -21 -17 -40 -31 -58c-25 -31 -62 -55 -102 -63c-38 -7 -80 -6 -115 14c-39 22 -64 63 -66 108c-2 20 -1 40 -1 59v57v3v93v83h-37h-98v-89c0 -14 -11 -25 -25 -25s-25 11 -25 25v0v114c0 14 11 26 25 26h55h123
c1 0 3 0 5 -1h3c13 0 25 -11 25 -25v-3v-86h50c19 0 39 1 58 -1c43 -4 83 -22 113 -53zM456 281v0c0 1 -1 1 0 0zM482 102v0c1 1 1 1 0 0zM507 161c1 12 1 23 0 35c-2 11 -5 22 -9 33c-4 8 -8 15 -13 22c-1 2 -3 4 -4 6c0 0 -1 1 -1 2l-10 10c-4 4 -7 7 -11 10l-1 1
c-1 0 -1 1 -1 1c-2 1 -4 2 -6 4l-21 12c-11 4 -22 7 -33 9c-20 2 -40 1 -59 1h-52v-103v-3v-21v-36v-22l6 -21c3 -5 6 -11 9 -16c1 0 1 -1 2 -2c0 -1 0 -1 1 -1c2 -3 4 -5 6 -7c3 -3 5 -5 8 -7v0l3 -3c5 -3 10 -6 15 -8c7 -3 14 -4 21 -6c13 -1 27 -1 39 1c12 1 23 4 34 9
c8 3 15 7 22 12c2 2 4 3 6 4c0 1 1 1 2 2c3 3 7 6 10 9c4 4 7 8 10 12c1 0 1 0 1 1h1c1 2 2 4 4 6c4 7 8 14 12 22c4 10 7 21 9 32z" />
    <glyph glyph-name="uni044B" unicode="&#x44b;" horiz-adv-x="681" 
d="M628 464c15 16 43 3 43 -18v-43v-146v-157v-74c0 -14 -12 -25 -25 -25c-14 0 -26 11 -26 25v43v145v158v9c-11 -13 -22 -25 -33 -37c-36 -40 -73 -80 -109 -120c-33 -36 -67 -73 -100 -110c-15 -16 -29 -32 -44 -48c-1 -1 -2 -2 -3 -2c-15 -19 -34 -34 -55 -44
c-36 -18 -76 -24 -116 -18c-41 7 -80 36 -97 74c-8 18 -13 37 -13 57v10v51v160v92c0 14 12 25 26 25c13 0 25 -11 25 -25v-70v-19h89c34 0 68 -8 97 -26c36 -22 64 -57 77 -97c6 -16 9 -33 9 -50l2 2c36 40 72 80 109 119c33 37 66 74 100 110c14 16 29 33 44 49zM297 102
v0c1 1 1 1 0 0zM271 281v0v0zM275 78c3 4 7 7 10 10c4 4 7 8 10 12h1c0 1 1 1 1 1c1 2 2 4 4 6c4 7 8 14 12 22c4 10 7 21 9 32c1 12 1 23 0 35c-2 11 -5 22 -9 33c-4 7 -8 15 -13 22c-1 2 -3 4 -4 6l-1 1c-3 4 -6 8 -10 11c-3 4 -7 7 -11 10c0 1 -1 1 -1 1l-1 1
c-2 1 -4 2 -6 4c-6 4 -14 8 -21 11c-11 5 -22 8 -33 10c-20 2 -40 0 -59 0h-52v-90v-62c0 -11 -1 -21 1 -32c1 -7 3 -14 5 -21c3 -5 6 -11 9 -16l2 -2c0 -1 1 -1 1 -1c2 -3 4 -5 6 -8c3 -2 5 -4 8 -6v0l3 -3c5 -3 10 -6 15 -8c7 -3 14 -5 21 -6c13 -1 27 -1 39 1
c12 1 23 4 34 9c8 3 15 7 22 12c2 1 4 3 6 4c1 1 1 1 2 1z" />
    <glyph glyph-name="uni042C" unicode="&#x42c;" horiz-adv-x="483" 
d="M345 445c74 -37 123 -114 127 -196c3 -42 -6 -84 -26 -122c-18 -35 -46 -66 -80 -88c-35 -23 -75 -36 -117 -38c-22 -1 -44 0 -66 0h-108c-13 0 -25 11 -25 25v49v124v162v162v124v50c0 14 12 25 25 25c14 0 26 -11 26 -25v-49v-124v-53h80h56c37 0 74 -9 108 -26z
M421 211c2 17 2 33 0 50c-3 16 -7 31 -13 46c-5 12 -11 23 -18 34c-2 2 -4 5 -6 8v0v0l-3 3c-4 5 -8 10 -13 15s-10 9 -15 13l-3 3v0l-9 6c-10 7 -21 13 -32 18c-15 6 -31 10 -46 12c-17 2 -34 2 -51 2h-111v-59v-162v-124v-25h46h48c22 0 45 -1 68 1c16 3 31 7 46 13
c12 5 23 11 33 18c3 2 6 4 8 6h1v0l3 3c5 4 10 9 15 14c4 4 9 9 13 14c1 1 2 2 2 3l1 1c2 2 4 5 6 8c6 10 12 21 17 32c6 15 10 31 13 47z" />
    <glyph glyph-name="uni042D" unicode="&#x42d;" horiz-adv-x="444" 
d="M371 671c30 -27 52 -65 59 -105c3 -17 4 -34 4 -51v-132v-152v-37c0 -32 -8 -64 -24 -93c-19 -35 -51 -65 -87 -81c-21 -9 -43 -15 -66 -17c-21 -2 -43 0 -63 5c-39 10 -76 33 -101 65c-14 18 -25 36 -32 58c-7 19 -11 41 -11 62c0 13 12 25 25 25c14 0 25 -12 26 -25
c0 -6 0 -12 1 -18c2 -12 5 -25 10 -36c4 -9 8 -18 14 -26c1 -2 2 -4 4 -6l2 -2c3 -4 6 -7 10 -11s8 -8 12 -11c1 -1 1 -1 2 -1v-1c2 -1 4 -3 7 -4c7 -5 15 -10 24 -13c11 -5 23 -8 36 -10s25 -2 38 0s25 5 37 10c8 4 17 8 24 13c2 2 5 3 7 5c0 0 1 1 2 1l11 11s8 8 11 12
c1 1 1 1 1 2h1c1 2 3 4 4 6c5 8 10 16 13 25c5 11 9 24 10 36c1 6 2 12 2 18v100v42h-48h-121c-14 0 -26 11 -26 25s12 25 26 25h60h109v70v57c0 12 0 24 -2 36s-5 24 -10 36c-3 9 -8 17 -13 25c-2 2 -3 4 -5 6c-1 1 -1 2 -2 3c-3 4 -7 7 -10 11c-4 4 -8 8 -13 11
c0 0 0 1 -1 1v0c-2 2 -5 3 -7 5c-7 5 -15 9 -23 13c-12 5 -24 8 -37 10c-13 1 -25 1 -38 0c-13 -2 -25 -5 -37 -10c-8 -4 -16 -8 -24 -14c-2 -1 -5 -3 -7 -4c0 -1 -1 -2 -2 -2c-4 -4 -8 -7 -11 -11c-4 -4 -8 -8 -11 -12c-1 0 -1 -1 -1 -1l-1 -1c-1 -2 -3 -4 -4 -6
c-5 -8 -10 -16 -13 -24c-5 -12 -8 -24 -10 -36c-1 -7 -1 -13 -1 -19c-1 -14 -12 -26 -26 -26c-13 0 -25 12 -25 26c0 64 33 124 86 160c35 23 78 34 119 31c43 -3 84 -20 116 -49zM128 613v0v0z" />
    <glyph glyph-name="uni042E" unicode="&#x42e;" horiz-adv-x="740" 
d="M730 267v-85c0 -25 -4 -50 -14 -74c-9 -21 -19 -39 -34 -57c-13 -16 -29 -29 -46 -40c-35 -23 -78 -34 -120 -32c-44 3 -85 19 -119 47c-32 26 -55 62 -66 102c-10 36 -8 74 -8 111v85h-126h-96v-125v-127v-51c0 -14 -11 -26 -25 -26s-26 12 -26 26v46v125v163v165v127
v50c0 14 12 26 26 26s25 -12 25 -26v-46v-124v-151h130h92v22v129c0 18 1 35 5 53c8 40 29 78 59 106c15 14 32 26 51 35c21 10 42 16 65 19c42 6 86 -3 123 -24c64 -36 104 -105 104 -178v-107v-164zM622 658v0v0zM678 162c0 6 1 13 1 20v6v118v163v55c0 12 0 23 -1 35
c-2 13 -6 27 -11 39c-4 9 -9 18 -15 27c-1 2 -3 4 -5 7l-2 2c-3 4 -7 8 -11 12s-8 8 -12 11c-1 1 -2 2 -3 2v1c-2 1 -4 3 -6 4c-9 6 -18 11 -27 15c-12 5 -25 8 -39 10c-13 2 -27 2 -41 0c-13 -2 -26 -5 -39 -10c-9 -4 -18 -9 -26 -15c-3 -1 -5 -3 -7 -5c-1 0 -2 -1 -2 -2
c-5 -3 -9 -7 -13 -11s-7 -8 -11 -12c-1 -1 -1 -2 -2 -3v0c-2 -2 -3 -4 -5 -6c-5 -9 -10 -18 -14 -27c-6 -13 -9 -26 -11 -39c-1 -9 -1 -17 -1 -25v-118v-163v-55c0 -12 -1 -24 1 -36c2 -14 6 -27 11 -40c4 -9 9 -18 15 -26c1 -3 3 -5 4 -7c1 -1 2 -2 2 -3l12 -12
s8 -8 12 -11l2 -2h1c2 -2 4 -3 6 -5c8 -5 17 -10 26 -14c13 -5 26 -9 39 -11c14 -1 28 -1 41 0c14 2 27 6 39 11c10 4 19 9 27 15c2 1 5 3 7 5c1 0 2 1 2 2c5 3 9 7 13 11s7 8 11 12c0 1 1 2 1 2l1 1c2 2 3 4 5 6c5 9 10 17 14 27c5 12 9 25 11 39z" />
    <glyph glyph-name="uni042F" unicode="&#x42f;" horiz-adv-x="689" 
d="M653 723c14 0 26 -12 26 -26v-48v-124v-163v-162v-125v-50c0 -14 -12 -26 -26 -26s-25 12 -25 26v48v125v51h-86h-46c-19 -30 -37 -60 -55 -90c-24 -38 -47 -75 -70 -113c-15 -25 -37 -47 -63 -61c-41 -23 -92 -29 -138 -14c-41 14 -77 43 -98 82s-27 85 -15 128
c3 13 18 21 31 18c13 -4 21 -18 17 -31c-1 -6 -2 -11 -3 -16c-1 -11 -1 -21 0 -32c2 -11 5 -22 9 -32c3 -7 7 -14 12 -21l3 -6h1v-1c3 -3 6 -7 9 -10c4 -3 8 -7 11 -10c1 0 1 -1 2 -1c2 -1 3 -3 5 -4l21 -12c11 -4 22 -7 32 -9c11 -1 22 -1 33 0c11 2 21 5 31 9
c6 2 11 5 16 8c3 2 5 4 8 6c1 0 3 1 4 2v0c5 4 10 9 14 14c3 2 5 5 7 7c0 1 0 1 1 1c0 1 1 2 2 3c3 4 5 9 8 13c25 41 50 81 75 122c11 19 22 37 34 56c-21 4 -42 12 -61 22c-73 39 -121 115 -125 198c-2 42 7 85 27 122c19 36 47 66 81 88c35 23 76 36 118 38h48h125z
M127 60v0c1 -1 2 -2 0 0zM528 300h100v60v162v125v25h-31h-79c-18 0 -35 1 -53 -1c-16 -3 -32 -7 -47 -13c-11 -5 -23 -11 -33 -18c-3 -2 -6 -4 -8 -6h-1l-3 -3c-5 -4 -10 -9 -14 -13c-5 -5 -10 -10 -15 -16c0 -1 -1 -2 -2 -3v0l-6 -9c-7 -10 -13 -21 -18 -32
c-6 -15 -10 -31 -12 -47c-2 -17 -2 -33 0 -50c2 -16 6 -32 12 -47c5 -12 11 -23 19 -33c1 -3 3 -6 5 -8c0 0 0 -1 1 -1c0 -1 1 -2 2 -3c4 -5 9 -10 14 -15s10 -9 15 -14c1 0 2 -1 3 -2l1 -1c2 -1 5 -3 8 -5c10 -7 21 -13 32 -18c15 -6 31 -10 47 -13c21 -2 42 -1 63 -1z" />
    <glyph glyph-name="uni044C" unicode="&#x44c;" horiz-adv-x="383" 
d="M286 331c37 -23 64 -57 77 -97c7 -20 10 -42 9 -63c-1 -23 -6 -44 -16 -66c-15 -36 -45 -68 -81 -86c-36 -17 -76 -23 -115 -17c-42 7 -80 36 -97 74c-9 18 -13 37 -13 57v9v52v160v91c0 14 11 26 25 26s25 -12 25 -26v-69v-19h89c34 0 68 -8 97 -26zM270 281v0v0z
M296 102v0c1 0 1 1 0 0zM321 161c1 12 1 23 0 35c-2 11 -5 22 -9 32c-4 8 -8 16 -13 23c-1 2 -2 4 -4 5c0 1 -1 2 -1 2c-3 4 -6 7 -10 11c-3 3 -7 7 -11 10c0 0 -1 0 -1 1h-1c-2 2 -4 3 -5 4c-7 5 -15 9 -22 12c-11 4 -22 7 -33 9c-20 2 -40 1 -59 1h-52v-91v-61
c0 -11 0 -22 1 -32c1 -7 3 -14 5 -21c3 -6 6 -11 9 -16c1 -1 1 -2 2 -2c0 -1 1 -1 1 -2l7 -7c2 -2 4 -4 7 -6v0c1 -1 2 -2 4 -3c4 -3 9 -6 14 -8c7 -3 14 -5 22 -6c12 -1 26 -1 39 0c11 2 22 5 33 9c8 4 15 8 22 13c2 1 4 3 6 4c1 0 1 1 2 1l10 10l11 11v1l1 1c1 2 3 4 4 6
l12 21c4 11 7 22 9 33z" />
    <glyph glyph-name="uni044D" unicode="&#x44d;" horiz-adv-x="481" 
d="M438 357c22 -36 33 -77 33 -119v-1v-2v0v0c0 -19 -2 -38 -7 -57c-19 -79 -82 -145 -161 -167c-43 -13 -90 -13 -133 0c-44 14 -84 40 -112 76c-5 5 -8 11 -8 18c0 6 3 13 8 18c9 9 27 10 35 0c6 -7 12 -14 18 -20c3 -3 6 -6 9 -8c2 -2 4 -3 5 -4l1 -1
c13 -10 27 -18 41 -24c15 -6 31 -10 46 -13c17 -2 33 -2 49 0c16 3 32 7 47 13c11 5 22 11 32 18c2 1 5 3 8 5c0 0 0 1 1 1c0 1 1 1 2 2c5 4 10 9 15 13c5 5 9 10 13 15l3 3v1c2 2 4 5 6 8c7 10 13 21 18 32c5 15 10 30 12 46v0h-26h-123c-14 0 -25 11 -25 25s11 25 25 25
h53h96v3c-2 16 -7 31 -12 46c-5 11 -11 22 -18 32c-2 3 -4 6 -6 8v1l-3 3c-4 5 -8 10 -13 15c-5 4 -10 9 -15 13c-1 1 -2 2 -3 2v1c-3 2 -6 4 -8 6c-11 6 -21 12 -32 17c-15 6 -31 10 -47 13c-16 2 -32 2 -49 0c-15 -3 -31 -7 -46 -13c-14 -6 -28 -14 -41 -24
c0 0 -1 -1 -2 -1c-1 -2 -3 -3 -5 -4l-9 -9c-6 -6 -11 -12 -17 -19c-8 -10 -26 -9 -35 0c-5 5 -8 12 -8 18c0 7 3 13 8 18c12 16 27 29 44 41c72 54 173 59 251 14c35 -20 65 -49 85 -84zM352 382v0v0zM381 121v0v0z" />
    <glyph glyph-name="uni044E" unicode="&#x44e;" horiz-adv-x="759" 
d="M634 434c34 -21 63 -51 83 -86c21 -36 32 -77 32 -119c0 -8 -1 -16 -1 -23c-5 -41 -19 -81 -43 -115c-23 -32 -54 -60 -91 -77c-38 -18 -80 -27 -122 -24c-41 4 -81 17 -116 40c-33 23 -61 53 -79 89c-14 27 -23 57 -26 87h-64h-106v-106v-73c0 -14 -12 -26 -25 -26
c-14 0 -26 12 -26 26v43v145v158v73c0 14 12 26 26 26c13 0 25 -12 25 -26v-43v-145v-2h75h96c4 36 16 71 36 102c22 33 52 62 87 81c74 40 167 39 239 -5zM697 204c1 8 1 16 1 25c0 8 0 17 -1 25c-3 17 -7 33 -13 48c-5 12 -11 23 -19 34c-2 3 -4 6 -6 8v1l-3 3
c-4 5 -9 10 -13 15c-5 5 -10 9 -16 14c0 0 -2 1 -3 2v1c-3 2 -6 3 -9 5c-10 7 -21 13 -32 18c-16 6 -32 11 -48 13c-17 2 -34 2 -51 0c-16 -2 -32 -7 -48 -13c-11 -5 -23 -11 -33 -18c-3 -2 -6 -4 -9 -7v0c-1 -1 -3 -2 -4 -3c-5 -4 -10 -8 -14 -13c-5 -5 -10 -10 -14 -15
l-3 -3v-1c-2 -3 -4 -5 -6 -8c-7 -11 -13 -22 -18 -33c-6 -15 -10 -31 -13 -48c-2 -17 -2 -34 0 -50c3 -17 7 -33 13 -48c5 -12 12 -23 19 -34l6 -9v0l3 -3c4 -5 9 -10 13 -15c5 -5 11 -10 16 -14c1 -1 2 -2 3 -2c0 0 0 -1 1 -1c2 -2 5 -4 8 -5c10 -7 21 -13 32 -18
c16 -7 32 -11 48 -13c17 -2 34 -2 51 0c16 2 32 6 48 13c12 5 23 11 33 18l9 6v1c2 1 3 1 4 2c5 5 10 9 14 14c5 5 10 10 14 15l3 3v1c2 3 4 5 6 8c7 10 13 21 18 33c6 15 10 31 13 48z" />
    <glyph glyph-name="uni044F" unicode="&#x44f;" horiz-adv-x="600" 
d="M566 482c13 0 24 -11 24 -24v-104v-80v-3v-36v-98v-113c0 -13 -11 -24 -24 -24s-24 11 -24 24v3v92h-74h-22c-22 -33 -45 -67 -67 -101c-3 -5 -6 -10 -10 -15c-15 -20 -32 -37 -54 -50c-42 -25 -94 -31 -141 -17c-43 14 -80 43 -102 83s-27 87 -16 131c4 13 17 20 30 17
c13 -4 20 -17 17 -30c-1 -5 -2 -11 -3 -16c-2 -11 -1 -23 0 -34c1 -7 2 -13 4 -19c1 -4 2 -8 4 -11c0 -1 0 -2 1 -2c0 -2 1 -3 2 -4c3 -7 7 -14 11 -20c1 -2 2 -3 3 -5c1 0 1 0 1 -1c3 -3 5 -6 8 -9c3 -2 6 -5 8 -8c2 -1 3 -2 5 -4c0 0 1 0 1 -1c6 -4 13 -8 20 -12
c2 -1 3 -2 5 -3c1 0 3 -1 4 -1l9 -3c7 -3 15 -5 23 -6c11 -1 23 -1 34 0c7 1 14 3 21 5c3 1 7 2 10 4h1h1c1 1 3 2 4 2c8 4 15 8 21 13c1 1 3 2 4 3l1 1c3 3 6 5 9 8l9 9c1 1 1 2 2 3s2 2 2 3c1 1 2 3 3 4c3 4 5 8 8 12c18 27 36 55 54 82c-1 0 -2 0 -3 1
c-41 13 -77 41 -100 78c-24 39 -31 86 -23 130c8 41 31 80 64 105c18 15 37 26 59 33c18 5 37 8 55 8h121zM276 -13v0c1 1 2 1 0 0zM393 423v0c-1 0 -5 -2 0 0zM322 249v0c1 -2 3 -5 0 0zM445 168h97v67v39v65v95h-55c-20 0 -40 1 -60 -2c-7 -1 -15 -2 -22 -4
c-4 -2 -8 -3 -12 -5c0 0 -1 0 -2 -1c-1 0 -3 -1 -5 -2c-7 -4 -14 -8 -21 -13c-1 -1 -1 -1 -2 -1v0c-1 -2 -3 -3 -4 -4c-3 -3 -6 -5 -8 -8l-9 -9c-1 -1 -3 -4 -3 -4l-2 -2l-12 -21l-3 -6v-1c-2 -4 -3 -8 -4 -12c-2 -7 -4 -13 -5 -20c-1 -12 -1 -25 0 -37c1 -7 3 -14 5 -21
c1 -4 3 -8 4 -12c0 -1 1 -1 1 -2c1 -2 2 -3 3 -5c3 -8 8 -15 13 -22l1 -1v0c1 -2 2 -3 4 -4c2 -3 5 -6 7 -9c3 -3 6 -6 10 -8l4 -4c0 0 1 -1 2 -1c6 -5 13 -9 20 -12l6 -3h1c4 -2 8 -3 12 -5c7 -2 14 -3 21 -4c6 -1 12 -1 18 -1z" />
    <glyph glyph-name="zero" unicode="0" horiz-adv-x="485" 
d="M475 466v-158v-95c0 -55 -22 -108 -60 -148c-57 -60 -151 -82 -229 -50c-20 8 -39 19 -57 33c-15 12 -29 27 -41 44c-24 34 -37 75 -38 116v97v158v45c0 28 5 55 15 81c9 21 20 39 34 57c12 15 28 29 44 41c34 23 76 36 117 36c83 1 163 -48 196 -125
c9 -21 15 -42 18 -65c1 -8 1 -16 1 -24v-43zM162 86v0c-1 1 -1 0 0 0zM390 112v0c-1 -1 -1 0 0 0zM423 191c1 7 1 15 1 22v60v160v61c0 13 1 26 -1 39c-2 14 -6 28 -11 41c-4 10 -10 20 -16 29c-1 2 -3 5 -5 7c-1 1 -1 2 -2 3c-4 4 -8 8 -12 13c-4 4 -9 8 -13 12
c-1 0 -2 1 -3 2v0c-2 1 -5 3 -7 5c-9 6 -19 11 -29 15c-13 6 -27 9 -41 12c-14 1 -29 1 -43 0c-14 -3 -28 -6 -41 -12c-10 -4 -20 -9 -29 -15c-2 -2 -4 -4 -7 -5v0c-1 -1 -2 -2 -3 -2c-4 -4 -8 -8 -13 -12c-4 -5 -8 -9 -12 -13c0 -1 -1 -2 -2 -3c-2 -3 -3 -5 -5 -7
c-6 -9 -11 -19 -16 -29c-5 -13 -9 -27 -11 -41c-1 -11 -1 -22 -1 -34v-48v-160v-61c0 -13 0 -26 1 -39c2 -14 6 -28 11 -41c5 -10 10 -20 16 -29c2 -2 4 -5 5 -7l3 -3c3 -4 7 -9 12 -13c4 -4 8 -8 13 -12l2 -2v0c3 -2 5 -3 8 -5c9 -6 18 -11 28 -16c13 -5 27 -8 41 -11
c14 -1 29 -1 44 0c14 3 27 6 40 11c11 5 20 10 30 17c2 1 4 3 7 5c1 0 2 1 2 2c5 4 9 8 13 12c5 4 9 8 12 13c1 1 2 1 2 2v1c2 2 4 4 6 7c6 9 11 18 15 28c5 13 9 27 11 41z" />
    <glyph glyph-name="one" unicode="1" horiz-adv-x="325" 
d="M272 716c16 16 43 4 43 -18v-49v-125v-162v-162v-124v-50c0 -14 -11 -25 -25 -25s-25 11 -25 25v49v125v162v162v113c-35 -34 -70 -69 -105 -104c-22 -22 -44 -44 -67 -66c-9 -10 -26 -10 -35 0c-10 9 -10 26 0 35c12 12 24 24 35 36c38 37 75 75 113 112z" />
    <glyph glyph-name="two" unicode="2" horiz-adv-x="449" 
d="M414 51c13 0 25 -12 25 -26s-12 -25 -25 -25h-78h-162h-89c-14 0 -24 11 -25 25c-2 27 1 54 9 80c6 21 15 42 23 62v0c6 14 12 28 20 41c10 15 20 29 31 43c21 23 44 44 68 64c29 25 60 48 87 75c7 7 14 14 20 21c4 4 7 8 10 12l1 1c1 2 3 4 4 6c11 14 20 30 27 47
c7 16 11 33 14 50c2 14 2 29 0 43c-1 10 -4 20 -8 30c-3 7 -7 14 -11 20c-1 1 -2 3 -3 4s-1 2 -2 2c-3 3 -6 7 -9 9c-1 2 -3 4 -5 5l-4 4c-3 2 -6 4 -9 5c-8 5 -15 9 -23 13c-15 6 -30 10 -45 12s-29 2 -44 0c-13 -2 -25 -5 -37 -10c-8 -3 -15 -7 -21 -12c-1 0 -2 -1 -2 -1
c-2 -2 -4 -3 -5 -5c-4 -3 -7 -6 -11 -10c-4 -3 -7 -7 -11 -11c0 -1 -3 -5 -3 -5c-1 -1 -2 -2 -2 -3c-6 -7 -10 -15 -14 -23c-2 -5 -3 -10 -4 -16c-1 -1 -1 -3 -1 -4c0 -14 -11 -25 -25 -25s-25 11 -25 25c0 18 6 36 15 52c10 19 24 37 40 52c9 8 17 15 27 21
c9 6 19 11 30 15c44 16 95 16 139 1c43 -14 84 -41 106 -83c19 -38 23 -80 15 -122c-6 -39 -23 -76 -47 -108c-24 -33 -53 -60 -84 -86c-29 -25 -60 -48 -87 -75c-7 -7 -14 -14 -20 -21c-4 -4 -7 -7 -10 -11c0 -1 -2 -3 -3 -4c0 -1 -1 -2 -2 -3c-11 -16 -21 -33 -29 -50
c-3 -7 -5 -13 -8 -19l3 6c-11 -25 -20 -50 -24 -76c0 -4 -1 -8 -1 -12h53h162h89zM152 652v0c2 1 1 0 0 0z" />
    <glyph glyph-name="three" unicode="3" horiz-adv-x="499" 
d="M368 415c54 -27 96 -77 112 -135c23 -81 -3 -172 -67 -226c-31 -27 -69 -46 -110 -51c-23 -3 -46 -3 -69 0c-21 3 -41 10 -59 19c-37 17 -68 45 -90 79c-23 35 -34 77 -35 118c0 14 12 25 26 25c13 0 25 -11 25 -25c0 -7 0 -15 1 -22c2 -15 6 -29 12 -43
c4 -11 10 -21 16 -30c2 -3 4 -5 6 -8c1 -1 2 -2 2 -3c4 -5 8 -9 12 -13c5 -4 9 -9 14 -13c1 0 2 -1 2 -1l2 -2c2 -1 5 -3 7 -5c9 -6 19 -11 29 -16c14 -5 28 -9 43 -11s30 -2 45 0s29 6 43 11c10 5 20 11 30 17c3 2 5 4 8 6c1 0 2 1 3 2c4 4 9 8 13 12s8 9 12 14
c1 1 2 1 2 2c1 0 1 1 1 1c2 3 4 5 5 8c6 9 12 19 16 29c6 14 10 28 12 43s2 30 0 45c-2 14 -6 29 -12 43c-4 10 -10 20 -16 30c-2 2 -4 5 -6 7c-1 1 -1 2 -2 3c-4 5 -8 9 -12 13c-5 5 -9 9 -14 13l-2 2c-1 0 -1 1 -2 1c-2 2 -4 3 -7 5c-9 6 -19 11 -29 16
c-14 5 -28 9 -43 12c-7 0 -15 1 -22 1c-14 0 -26 11 -26 25s12 25 26 25h5h2c5 0 10 1 16 1c10 2 20 5 30 9c7 3 14 7 21 11c2 2 3 3 5 4c0 0 1 1 2 1l9 9s6 6 9 10l1 1c1 2 3 4 4 5c4 7 8 14 11 21c4 9 7 20 8 30s1 21 0 31c-1 11 -4 21 -8 31c-3 7 -7 14 -12 21
c-1 1 -2 3 -3 4s-1 2 -2 2c-2 4 -5 7 -9 10l-9 9c-1 0 -1 0 -1 1l-6 3c-6 5 -13 9 -20 12c-10 4 -20 6 -30 8c-11 1 -21 1 -32 0c-10 -2 -20 -4 -30 -8c-5 -2 -9 -5 -14 -7c-2 -2 -5 -4 -7 -5s-5 -4 -6 -4c-4 -4 -8 -7 -11 -11l-6 -6c-1 -1 -2 -3 -3 -4c-1 0 -1 0 -1 -1
c-4 -4 -7 -8 -14 -9c-6 -2 -13 -1 -19 2s-10 9 -12 15c-1 6 -1 15 3 20c17 22 38 41 64 53s55 18 84 16c42 -4 84 -22 112 -55c29 -32 46 -75 44 -118s-20 -85 -51 -115c-8 -7 -17 -14 -26 -20zM350 648v0c2 -2 1 -1 0 0zM369 483v0c-2 -2 -1 -1 0 0z" />
    <glyph glyph-name="four" unicode="4" horiz-adv-x="554" 
d="M519 267c14 0 25 -12 25 -25c0 -14 -11 -26 -25 -26h-65h-43v-16v-125v-49c0 -14 -11 -26 -25 -26s-25 12 -25 26v49v125v16h-59h-155h-71c-18 0 -33 22 -22 38c10 14 19 28 29 42c25 38 51 75 76 113c31 45 62 91 93 137c27 39 53 77 79 116c11 16 22 33 33 49
c7 9 17 15 29 12c11 -3 18 -13 18 -25v-50v-124v-162v-95h37h71zM293 267h68v95v162v92c-19 -28 -39 -56 -58 -85c-31 -46 -62 -91 -93 -137c-26 -39 -53 -77 -79 -116c-2 -4 -5 -7 -7 -11h17h152z" />
    <glyph glyph-name="five" unicode="5" horiz-adv-x="483" 
d="M316 442c79 -22 143 -90 154 -172c2 -17 3 -33 3 -49c0 -17 -1 -34 -4 -51c-8 -40 -29 -78 -57 -107c-29 -28 -66 -50 -106 -58c-41 -8 -85 -5 -124 11c-21 9 -39 20 -56 34c-16 13 -29 28 -41 45c-23 34 -35 76 -35 117c0 14 11 25 25 25s25 -11 25 -25
c0 -7 1 -14 1 -21c3 -14 6 -28 12 -41c4 -10 9 -20 15 -29c2 -2 4 -5 5 -7v0l3 -3c3 -4 7 -9 11 -13c5 -4 9 -8 13 -12c1 0 2 -1 3 -2v0c2 -2 5 -3 7 -5c9 -6 19 -11 29 -16c13 -5 27 -9 41 -11c14 -1 28 -1 43 0c14 2 28 6 41 11c10 5 19 10 28 16c3 2 5 3 7 5h1
c0 1 1 2 2 2c5 4 9 8 13 12s8 9 12 13c1 1 1 2 2 3v0c2 2 4 5 5 7c6 9 12 19 16 29c5 13 9 26 11 40c1 12 1 23 1 35s0 23 -1 34c-2 14 -6 28 -11 41c-4 10 -10 19 -16 28c-1 3 -3 5 -5 7v1c-1 0 -1 1 -2 2c-4 5 -8 9 -12 13s-8 8 -13 12c-1 1 -2 1 -2 2h-1c-2 2 -4 4 -7 5
c-9 6 -18 12 -28 16c-13 5 -27 9 -41 11c-6 1 -11 1 -16 1h-5h-13h-125c-14 0 -25 11 -25 25v25v150v100c0 14 11 25 25 25h42h156h96c14 0 25 -11 25 -25s-11 -25 -25 -25h-42h-157h-70v-150v-75h107c2 1 4 1 5 1c19 0 37 -3 55 -7z" />
    <glyph glyph-name="six" unicode="6" horiz-adv-x="468" 
d="M418 348c25 -33 39 -74 40 -115c0 -32 0 -64 -11 -94c-14 -41 -40 -75 -74 -100c-68 -50 -165 -51 -234 -3c-35 25 -61 58 -76 99c-7 19 -11 40 -12 61c-1 11 0 21 0 32c0 36 9 72 27 103c1 1 1 2 2 2c6 14 13 28 20 41c22 44 44 87 66 131c24 47 48 93 71 140
c11 22 23 44 34 66c6 12 23 15 34 9c13 -8 15 -23 9 -35c-7 -13 -14 -27 -20 -41c-23 -43 -45 -87 -67 -130c-16 -32 -32 -65 -49 -97c5 2 10 4 15 5c40 13 85 13 124 0c41 -14 76 -39 101 -74zM406 184c1 11 1 22 1 33c0 10 0 21 -1 32c-2 13 -6 26 -11 39
c-4 9 -9 18 -15 27c-1 2 -3 4 -4 7l-3 3c-3 4 -7 8 -11 12s-9 8 -13 12c0 0 -1 0 -1 1c-1 0 -1 0 -2 1c-2 1 -4 3 -6 4c-8 5 -17 10 -26 14c-13 5 -26 9 -40 11c-13 2 -27 2 -40 0c-14 -2 -27 -6 -40 -11c-9 -4 -18 -9 -26 -15c-3 -1 -5 -3 -7 -4l-3 -3c-5 -3 -9 -7 -12 -11
c-5 -4 -9 -8 -12 -13c-1 0 -1 -1 -1 -1c-1 -1 -1 -1 -1 -2c-2 -2 -3 -4 -5 -6c-5 -8 -10 -17 -14 -26c-5 -13 -9 -26 -11 -40c-1 -6 -1 -13 -1 -20c0 -15 0 -30 1 -44c2 -14 6 -27 11 -40c4 -9 9 -18 15 -26c1 -3 3 -5 5 -7c1 -1 1 -2 2 -3c4 -5 7 -9 11 -12
c4 -5 9 -9 13 -12c1 0 1 -1 2 -1c0 -1 1 -1 1 -1c2 -2 4 -3 6 -5c9 -5 17 -10 26 -14c13 -5 26 -9 40 -11c13 -1 27 -1 40 0c14 2 27 6 40 11c9 4 18 9 27 15c2 1 4 3 7 5c1 1 2 1 3 2c4 4 8 7 12 11s8 9 12 13c0 1 0 1 1 2c0 0 0 1 1 1c1 2 3 4 4 6c5 9 10 17 14 26
c5 13 9 26 11 40z" />
    <glyph glyph-name="seven" unicode="7" horiz-adv-x="506" 
d="M471 723c9 0 17 -4 22 -12c4 -8 4 -17 0 -26c-4 -7 -8 -14 -11 -21c-15 -29 -30 -59 -45 -88c-22 -44 -44 -88 -67 -132c-25 -50 -50 -99 -75 -149c-24 -46 -47 -92 -71 -139c-17 -34 -34 -69 -52 -103c-6 -13 -13 -27 -20 -40c-6 -12 -23 -16 -35 -9s-15 22 -9 34
c4 8 8 15 11 22c15 29 30 59 45 88c22 44 44 88 67 132c25 49 50 99 75 148c23 47 47 93 70 140c18 34 35 68 53 103c0 0 0 1 1 2h-117h-160h-78c-13 0 -25 11 -25 25s12 25 25 25h24h134h160h78z" />
    <glyph glyph-name="eight" unicode="8" horiz-adv-x="482" 
d="M396 373c16 -13 29 -28 41 -45c23 -34 35 -76 35 -117c0 -25 -4 -50 -13 -73c-7 -19 -16 -37 -29 -54c-14 -17 -29 -32 -47 -45c-33 -25 -75 -38 -116 -39c-83 -3 -164 46 -198 122c-9 21 -15 43 -18 65c-2 22 -1 43 3 64c7 40 27 78 56 107c16 17 36 31 57 42
c-25 16 -46 37 -60 63c-21 39 -27 85 -17 128c10 41 36 77 71 102c34 24 78 35 119 30c22 -3 44 -9 64 -20c18 -9 34 -22 48 -37c28 -33 45 -74 45 -118c0 -28 -7 -56 -20 -81c-14 -28 -36 -51 -62 -67c15 -8 28 -16 41 -27zM162 471c0 0 0 -1 1 -1c3 -4 6 -7 9 -11
c4 -3 7 -6 11 -9c0 -1 1 -1 2 -2v0c2 -1 3 -2 5 -4c7 -4 14 -8 22 -12c10 -4 21 -7 32 -8c11 -2 23 -2 34 0c11 1 22 4 32 8c8 4 15 8 22 12c2 2 4 3 6 5c0 0 1 0 1 1c4 3 7 6 11 9c3 4 6 7 9 11l2 2v0c1 2 3 3 4 5c4 7 8 14 12 22c4 10 7 21 9 32c0 6 1 11 1 17
s-1 11 -1 17c-2 11 -5 22 -9 32c-4 8 -8 15 -12 22c-2 2 -3 4 -4 6c-1 0 -1 1 -2 1c-3 4 -6 8 -9 11c-4 3 -7 6 -11 10c0 0 -1 0 -1 1h-1c-1 1 -3 3 -5 4c-7 4 -14 8 -22 12c-10 4 -21 7 -32 9c-11 1 -23 1 -34 0c-11 -2 -22 -5 -32 -9c-8 -4 -15 -8 -22 -12
c-2 -2 -4 -3 -6 -4c0 -1 -1 -1 -1 -1c-4 -4 -7 -7 -11 -10c-3 -4 -6 -7 -9 -11c-1 0 -1 -1 -2 -1v-1c-1 -1 -2 -3 -4 -5c-4 -7 -8 -14 -12 -22c-4 -10 -7 -21 -8 -32c-2 -11 -2 -23 0 -34c1 -11 4 -22 8 -32c4 -8 8 -15 12 -22c2 -2 3 -4 5 -6zM421 189c0 8 1 15 1 22
s-1 14 -1 21c-3 14 -6 28 -12 41c-4 10 -9 20 -15 29c-2 2 -4 5 -5 7l-3 3c-3 4 -7 9 -12 13c-4 4 -8 8 -13 12l-2 2v0c-3 2 -5 3 -8 5c-9 6 -18 11 -28 15c-13 6 -26 9 -40 11c-15 2 -29 2 -43 0s-28 -5 -41 -11c-10 -4 -20 -9 -29 -16c-2 -1 -5 -3 -7 -5c-1 0 -2 -1 -3 -2
c-4 -4 -9 -8 -13 -12s-8 -8 -12 -13c0 -1 -1 -1 -2 -2v-1c-2 -2 -3 -4 -5 -7c-6 -9 -11 -18 -15 -28c-6 -13 -9 -27 -11 -41s-2 -28 0 -43c2 -14 5 -27 11 -41c4 -10 9 -19 16 -28c1 -3 3 -5 5 -7c0 -1 1 -2 2 -3c4 -5 8 -9 12 -13s8 -8 13 -12l2 -2h1c2 -2 4 -4 7 -5
c9 -6 18 -11 28 -15c13 -6 27 -9 41 -12c14 -1 28 -1 43 0c14 3 27 6 41 12c10 4 19 9 28 15c3 2 5 4 7 5l3 3c5 3 9 7 13 12c4 4 8 8 12 13c1 0 1 1 2 2v0c2 3 4 5 5 8c6 9 11 18 15 27c6 14 9 27 12 41z" />
    <glyph glyph-name="nine" unicode="9" horiz-adv-x="468" 
d="M457 528c1 -11 1 -22 1 -32c-1 -36 -10 -72 -28 -103c-1 -1 -1 -2 -1 -3c-7 -13 -14 -27 -21 -40c-22 -44 -44 -87 -66 -131c-24 -47 -48 -93 -71 -140l-33 -66c-7 -12 -24 -15 -35 -9c-12 7 -15 22 -9 35c7 13 14 27 21 40c22 44 44 88 66 131c16 32 32 65 49 97l-15 -6
c-40 -12 -85 -12 -124 1c-41 14 -75 39 -101 74c-25 32 -39 74 -39 115c-1 32 0 64 10 94c14 41 40 75 75 100c67 49 164 51 233 3c35 -25 61 -59 76 -99c8 -19 11 -40 12 -61zM234 344c13 -2 27 -2 40 0c14 2 27 6 40 11c9 4 18 9 27 14c2 2 4 4 7 5c1 1 1 2 2 3
c5 3 9 7 13 11s8 8 11 13c1 0 1 1 1 1c1 1 1 1 1 2c2 2 3 4 5 6c5 8 10 17 14 26c5 13 9 26 11 39c1 7 1 14 1 21c0 15 0 29 -1 44c-2 14 -6 27 -11 40c-4 9 -9 18 -15 26c-1 3 -3 5 -5 7c0 1 -1 2 -2 3c-4 4 -7 8 -11 12s-9 8 -13 12c-1 0 -1 1 -1 1c-1 0 -1 1 -2 1
c-2 2 -4 3 -6 5c-9 5 -17 10 -26 14c-13 5 -26 9 -40 11c-13 1 -27 1 -40 0c-14 -2 -27 -6 -40 -11c-9 -4 -18 -9 -27 -15c-2 -2 -4 -3 -7 -5c-1 -1 -2 -1 -2 -2c-5 -4 -9 -8 -13 -11c-4 -5 -8 -9 -11 -14c-1 0 -1 0 -1 -1c-1 0 -1 -1 -1 -1c-2 -2 -3 -4 -5 -7
c-5 -8 -10 -16 -14 -25c-5 -13 -9 -26 -11 -40c-1 -11 -1 -22 -1 -33c0 -10 0 -21 1 -32c2 -13 6 -27 11 -39c4 -10 9 -19 15 -27c1 -2 3 -5 5 -7c0 -1 1 -2 2 -3c4 -4 7 -8 11 -12s9 -8 13 -12c1 0 1 0 1 -1c1 0 1 0 2 -1c2 -1 4 -3 6 -4c8 -6 17 -10 26 -14
c13 -5 26 -9 40 -11z" />
    <glyph glyph-name="ampersand" unicode="&#x26;" horiz-adv-x="637" 
d="M602 437c14 0 25 -12 25 -26c0 -13 -11 -25 -25 -25h-11h-100v-75v-73c0 -21 0 -43 -5 -64c-16 -80 -80 -147 -159 -168c-41 -10 -85 -10 -125 4c-39 13 -74 36 -100 67c-13 16 -24 33 -32 52c-5 10 -9 20 -12 31s-5 22 -6 34c-5 41 2 84 21 122c17 37 46 68 79 89
c8 5 16 10 24 13c-14 11 -27 24 -38 38c-25 33 -37 77 -32 118c3 22 9 44 20 64c9 17 22 34 38 46c34 28 77 44 121 40c25 -2 50 -8 71 -21c22 -12 39 -29 54 -48c4 -5 4 -14 3 -20c-2 -6 -6 -11 -12 -15c-6 -3 -13 -4 -19 -2c-7 1 -11 5 -15 10v1c-1 1 -2 3 -4 4
c-1 2 -3 4 -5 6c-3 3 -5 5 -8 7c-1 1 -5 4 -5 5c-8 5 -17 10 -26 14s-19 7 -30 9c-10 1 -21 1 -31 0c-11 -2 -21 -5 -31 -9c-7 -3 -14 -7 -21 -12c-2 -1 -3 -2 -5 -3l-1 -1c-4 -3 -7 -6 -10 -9c-4 -4 -7 -7 -10 -11v-1h-1c-1 -2 -2 -3 -3 -5c-5 -7 -8 -13 -12 -20
c-3 -10 -6 -20 -8 -31c-1 -10 -1 -21 0 -32c2 -10 5 -20 8 -30c4 -7 8 -15 12 -21c1 -2 2 -3 4 -5c0 -1 0 -1 1 -2l9 -9c3 -4 7 -7 10 -10c1 0 1 0 1 -1v0c2 -1 4 -2 6 -4c6 -4 13 -8 20 -11c9 -3 19 -6 29 -8c5 1 10 1 15 1s10 -2 14 -5c8 -4 14 -13 14 -22
c0 -14 -12 -26 -26 -25c-6 0 -12 0 -18 1c-2 -1 -5 -1 -7 -1c-15 -2 -29 -6 -43 -12c-11 -5 -21 -10 -31 -17c-2 -1 -5 -3 -7 -5c-1 -1 -2 -2 -4 -3c-4 -3 -8 -7 -13 -12c-4 -4 -8 -9 -12 -13c-1 -1 -1 -2 -2 -3l-1 -1c-2 -2 -3 -5 -5 -7c-6 -10 -12 -20 -16 -30
c-6 -14 -10 -28 -12 -43s-2 -30 0 -45s6 -30 12 -44c4 -10 10 -21 17 -30c1 -3 3 -5 5 -8l3 -3c3 -4 7 -9 11 -13c5 -4 10 -9 14 -12c1 -1 2 -2 3 -2c0 -1 1 -1 1 -1c2 -2 5 -4 7 -5c10 -7 19 -12 30 -17c14 -5 28 -9 43 -11s30 -2 45 0s30 6 44 11c10 5 20 11 30 17
c3 2 5 4 8 6c1 0 2 1 3 2c4 4 9 8 13 12c4 5 8 9 12 14c1 1 2 1 2 2c1 1 1 1 1 2c2 2 4 4 5 7c7 9 12 19 17 29c5 14 9 28 11 43c2 13 2 26 2 39v57v119c0 14 11 26 25 26h11h125z" />
    <glyph glyph-name="slash" unicode="/" horiz-adv-x="368" 
d="M338 723c13 -3 23 -18 18 -31c-1 -2 -2 -4 -3 -7l-27 -72c-17 -43 -33 -86 -50 -129c-20 -52 -39 -103 -59 -155c-19 -49 -38 -99 -57 -148c-14 -38 -28 -75 -43 -112c-5 -15 -11 -30 -17 -44c-2 -7 -5 -12 -11 -16c-6 -3 -13 -4 -20 -2c-12 3 -22 18 -17 31c1 2 1 4 2 6
c10 25 19 49 28 73c17 43 33 86 50 129c19 52 39 103 59 155c19 49 38 99 57 148c14 38 28 75 42 112c6 15 12 30 17 44c3 7 6 12 12 15c6 4 13 5 19 3z" />
    <glyph glyph-name="at" unicode="@" horiz-adv-x="785" 
d="M682 604c45 -50 76 -113 87 -180c6 -36 7 -72 4 -108c-3 -40 -12 -80 -39 -111c-24 -28 -61 -45 -98 -42c-19 2 -37 7 -53 17c-17 10 -31 25 -40 42c-7 12 -11 25 -15 38c-8 -11 -17 -22 -28 -30c-15 -12 -31 -22 -49 -29c-17 -6 -36 -9 -54 -9c-38 0 -74 13 -104 37
c-27 21 -47 53 -55 87c-9 38 -5 77 12 111c15 31 42 58 73 73c34 17 73 22 111 13c34 -8 66 -27 88 -55c0 0 0 -1 1 -1c0 12 0 24 -1 36c0 12 10 22 22 22s22 -10 22 -22c1 -37 1 -74 0 -111c0 -32 -2 -65 2 -96c1 -12 4 -23 8 -33c3 -6 6 -11 9 -17c1 0 1 -1 2 -2l1 -1
l6 -6l6 -6v0c1 -1 2 -2 3 -2c4 -3 8 -5 13 -7c6 -2 12 -4 18 -5c7 -1 14 -1 20 0c7 1 13 3 19 5c5 2 10 5 14 8c1 1 1 1 2 1l2 2c3 3 6 5 8 8l4 4c0 1 2 2 2 3c2 2 3 4 4 6c4 5 6 10 9 16c5 13 8 27 10 41c2 18 3 36 3 54c0 16 -1 33 -3 50c-4 28 -11 55 -22 81
c-9 20 -19 40 -32 58c-2 3 -5 7 -7 10c-1 1 -2 2 -2 3l-2 2c-5 7 -11 13 -16 19c-11 11 -22 22 -35 32c-1 2 -3 3 -5 4c0 0 0 1 -1 1c-3 2 -6 5 -9 7c-7 4 -13 9 -20 13c-13 8 -27 15 -41 21c-26 10 -53 18 -81 22c-28 3 -57 3 -85 0c-28 -4 -55 -12 -82 -22
c-20 -9 -39 -20 -57 -33c-4 -2 -7 -4 -11 -7c0 0 -2 -1 -3 -2c0 -1 -1 -1 -2 -2c-6 -5 -12 -10 -18 -16c-12 -10 -23 -22 -33 -34c-1 -2 -2 -4 -4 -5c0 -1 0 -1 -1 -1c-2 -3 -4 -7 -6 -10c-5 -6 -9 -13 -13 -20c-8 -13 -15 -26 -21 -40c-11 -26 -18 -53 -22 -81
c-4 -29 -4 -57 0 -86c4 -28 11 -55 22 -81c9 -20 20 -40 32 -58c2 -3 5 -7 7 -10l3 -3c0 -1 1 -2 2 -3l15 -18c11 -11 22 -22 35 -32c1 -2 3 -3 5 -4c0 -1 1 -1 1 -1c3 -2 6 -5 9 -7c7 -4 13 -9 20 -13c13 -8 27 -15 41 -21c26 -10 53 -18 81 -22c28 -3 57 -3 85 0
c28 4 55 12 81 22c13 6 25 12 37 19c11 6 24 2 30 -8s3 -24 -8 -30c-56 -33 -122 -50 -188 -49c-68 1 -137 21 -194 60c-55 37 -101 89 -129 150c-14 31 -25 64 -29 98c-6 37 -6 73 0 110c10 67 40 131 85 182c44 51 102 89 166 108c67 21 140 21 207 2
c65 -19 124 -56 169 -106zM218 110v0c1 -1 4 -3 0 0zM160 556v0c-1 -1 -3 -3 0 0zM607 614v0c-1 1 -4 3 0 0zM514 339c1 5 1 10 1 16c0 5 0 11 -1 16c-1 10 -4 21 -8 31c-3 7 -7 14 -12 21c-1 1 -2 3 -4 5c0 0 -1 1 -1 2l-9 9c-3 4 -7 7 -10 9c0 1 -1 1 -2 2v0
c-1 1 -3 2 -5 4c-7 4 -13 8 -20 11c-10 4 -20 6 -31 8c-11 1 -21 1 -32 0c-11 -2 -21 -4 -31 -8c-7 -4 -14 -7 -21 -12c-1 -1 -3 -2 -5 -4c-1 0 -1 -1 -2 -1c-3 -3 -6 -6 -10 -9c-3 -3 -6 -7 -9 -10c0 -1 0 -1 -1 -2v0c-1 -2 -2 -3 -4 -5c-4 -7 -8 -13 -11 -20
c-4 -10 -7 -21 -8 -31c-1 -11 -1 -22 0 -32c1 -11 4 -21 8 -31c3 -7 7 -14 12 -21c1 -2 2 -3 3 -5c1 -1 2 -1 2 -2c3 -3 6 -7 9 -10s7 -6 10 -9c0 0 1 -1 2 -1v0c1 -1 3 -3 5 -4c7 -4 13 -8 20 -11c10 -4 20 -7 31 -8c11 -2 21 -2 32 0c11 1 21 4 31 8c7 3 14 7 21 12
c1 1 3 2 5 3l2 2c3 3 6 6 10 9c3 3 6 6 9 10c0 0 0 1 1 1v0c1 2 2 4 4 6c4 6 8 13 11 20c4 10 7 20 8 31z" />
    <glyph glyph-name="percent" unicode="%" horiz-adv-x="583" 
d="M495 650c-19 -32 -37 -64 -56 -96c-26 -44 -52 -88 -77 -132c-28 -48 -57 -96 -85 -144c-25 -44 -51 -88 -77 -132c-19 -33 -38 -65 -57 -97c-7 -13 -15 -25 -22 -38c-7 -12 -23 -16 -35 -9c-11 7 -16 23 -9 34l21 36c19 32 38 64 56 96l78 132l84 144
c26 45 52 89 78 133c18 32 37 65 56 97c8 13 15 25 22 38c7 12 23 16 35 9s16 -23 9 -35zM121 424c-42 11 -71 50 -71 93v65v36c0 10 0 19 2 29c8 46 54 83 101 78c24 -3 48 -12 64 -31c16 -18 25 -40 25 -64v-114c0 -10 -1 -21 -5 -30c-8 -22 -23 -42 -44 -54
c-22 -11 -48 -15 -72 -8zM110 489v0c-3 3 -1 1 0 0zM174 479v0c-3 -2 -2 -1 0 0zM120 666v0c1 2 1 1 0 0zM111 658c-1 -1 -2 -3 -2 -3c-2 -3 -3 -5 -5 -8l-3 -12v-6v-64v-36v-19l3 -12c2 -3 3 -6 5 -8c1 -1 1 -1 1 -2c2 -1 3 -3 5 -4c1 -2 2 -3 4 -4c0 0 1 -1 2 -1
c2 -2 5 -3 7 -5l12 -3h12l12 3c3 2 6 3 9 5c0 1 1 1 1 1c2 1 3 3 5 4c1 2 2 3 4 4c0 1 1 2 1 2c2 3 3 6 4 8c2 4 3 8 4 12v6v1v64v36v18c-1 4 -2 8 -4 12c-1 3 -3 6 -4 9c-1 0 -1 1 -1 1l-5 5c-1 1 -2 2 -4 3c0 1 -1 1 -2 2c-2 1 -5 3 -8 4c-4 2 -8 3 -12 3c-4 1 -8 1 -12 0
c-4 0 -8 -1 -12 -3c-3 -1 -6 -3 -9 -5l-1 -1v0l-4 -4zM548 308c16 -18 25 -40 25 -64v-114c0 -10 -1 -20 -5 -30c-8 -22 -23 -42 -44 -54c-22 -11 -48 -15 -72 -8c-42 11 -71 50 -71 94v64v36c0 10 0 19 2 29c8 46 54 83 101 78c24 -3 48 -12 64 -31zM451 280v0c1 2 0 1 0 0
zM440 103v0c-2 3 -1 1 0 0zM504 94v0c-3 -3 -1 -2 0 0zM505 94c2 2 3 3 5 4c1 2 2 3 4 5c0 0 0 1 1 2c1 2 3 5 4 7c2 4 3 8 4 12v6v1v64v36v18c-1 4 -2 8 -4 12c-1 3 -3 6 -5 9c0 0 0 1 -1 1c-1 2 -2 3 -4 5c-1 1 -2 2 -4 3l-2 2c-2 1 -5 3 -8 4c-4 2 -8 3 -12 3
c-4 1 -8 1 -12 0c-4 0 -8 -1 -12 -3c-3 -1 -6 -3 -9 -5l-1 -1v0c-1 -1 -3 -3 -5 -4c-1 -1 -1 -2 -2 -3s-2 -3 -3 -3c-1 -3 -3 -5 -4 -8l-3 -12v-6v-63v-37c0 -6 -1 -13 0 -19l3 -12c2 -3 3 -6 5 -8c1 -1 1 -1 1 -2l4 -4l4 -4c1 0 2 -1 2 -1c3 -2 6 -3 8 -5l12 -3h12l12 3
c3 2 6 3 9 5c0 1 1 1 1 1z" />
    <glyph glyph-name="period" unicode="." horiz-adv-x="110" 
d="M75 51c14 0 25 -11 25 -25s-11 -25 -25 -25s-25 11 -25 25s11 25 25 25z" />
    <glyph glyph-name="comma" unicode="," horiz-adv-x="153" 
d="M123 50c12 -3 23 -18 18 -31v0c-14 -35 -27 -71 -41 -106c-2 -7 -5 -12 -11 -15c-6 -4 -13 -5 -20 -3c-12 4 -22 18 -17 31v0c13 36 27 71 40 107c3 6 6 11 12 15c6 3 13 4 19 2z" />
    <glyph glyph-name="question" unicode="?" horiz-adv-x="375" 
d="M164 53c14 0 25 -12 25 -26c0 -13 -11 -25 -25 -25s-25 12 -25 25c0 14 11 26 25 26zM285 702c39 -19 70 -55 77 -99c3 -23 3 -44 -2 -66c-4 -20 -11 -40 -20 -58c-20 -37 -47 -70 -78 -99c-12 -11 -24 -23 -35 -35c-3 -4 -6 -8 -9 -11c-1 -1 -1 -2 -2 -2
c-1 -2 -3 -4 -4 -6c-5 -8 -11 -16 -15 -24c-3 -7 -4 -14 -5 -21c-3 -21 -3 -44 -3 -66c0 -13 -11 -25 -25 -25s-25 12 -25 25c-1 23 0 45 3 68c1 10 2 21 6 31c3 9 7 17 13 26c12 18 25 35 40 50c11 12 23 23 35 35c6 6 12 12 18 19c3 3 6 7 10 11c0 1 3 4 3 5l3 3
c12 17 23 35 32 53c5 13 9 27 11 41c1 11 1 22 0 32c-1 8 -3 16 -6 24c-3 5 -5 10 -9 15c0 1 -1 1 -1 2c-1 1 -2 2 -2 3c-3 2 -5 5 -7 7c-2 1 -3 3 -5 4c0 0 -1 1 -2 1c-2 2 -5 4 -8 6c-6 4 -12 7 -18 10c-11 4 -23 7 -35 9c-11 1 -23 1 -34 0c-10 -1 -20 -4 -29 -8
c-6 -2 -12 -6 -17 -9c0 -1 0 -1 -1 -1l-3 -3c-3 -3 -6 -6 -9 -8c-3 -4 -6 -7 -9 -10c-1 -1 -2 -3 -3 -4c0 0 -1 -1 -1 -2c-4 -6 -7 -11 -10 -17c-2 -4 -3 -8 -3 -11c-1 -1 -1 -2 -1 -3c0 -14 -11 -26 -25 -26c-13 0 -25 12 -25 26c0 6 1 13 3 19c5 23 19 43 35 60
c8 8 17 16 26 22c9 7 18 12 29 16c45 18 99 13 142 -9z" />
    <glyph glyph-name="exclam" unicode="!" horiz-adv-x="833" 
d="M501 729c27 0 49 -22 49 -48v-58v-6v0c0 -1 0 -2 -1 -3c0 -6 0 -12 -1 -18c-2 -44 -5 -88 -7 -132c-4 -54 -7 -107 -10 -160c-1 -26 -3 -52 -4 -78c-1 -14 -11 -25 -26 -25c-14 0 -24 11 -25 25c0 7 -1 14 -1 21c-3 44 -5 88 -8 132c-3 53 -6 106 -9 160
c-2 26 -3 52 -5 78v0v6v58c0 26 22 48 48 48zM505 45c14 0 25 -11 25 -25s-11 -25 -25 -25s-25 11 -25 25s11 25 25 25z" />
    <glyph glyph-name="Euro" unicode="&#x20ac;" horiz-adv-x="643" 
d="M245 511c-2 -14 -2 -28 -2 -42v-21h125h80c13 0 25 -12 25 -25c0 -14 -12 -25 -25 -25h-11h-121h-73v-75v-23h125h80c13 0 25 -11 25 -25s-12 -25 -25 -25h-11h-121h-73c0 -13 0 -25 2 -37c2 -17 7 -32 13 -48c5 -11 11 -23 18 -33l6 -9h1c0 -1 1 -3 2 -4
c5 -5 9 -10 14 -14c5 -5 10 -10 15 -14c1 -1 2 -2 3 -2c0 -1 0 -1 1 -1c2 -2 5 -4 8 -6c10 -6 21 -12 32 -17c15 -6 31 -11 47 -13c13 -2 26 -2 39 -2c14 0 28 0 42 2c16 2 32 7 47 13c11 4 22 10 32 17c2 2 5 4 8 6c1 0 2 1 3 2v0c5 4 9 8 14 12c10 10 25 10 35 0
c10 -9 10 -26 0 -35c-3 -3 -5 -6 -8 -8c-38 -33 -84 -53 -134 -58c-14 -1 -29 -1 -43 -1c-17 0 -33 1 -50 4c-40 6 -78 24 -110 50c-31 25 -55 59 -70 96c-12 29 -17 60 -17 91v9h-38h-80c-13 0 -25 11 -25 25s12 25 25 25h11h107v98h-38h-80c-13 0 -25 11 -25 25
c0 13 12 25 25 25h11h107v36c0 36 8 70 23 103c17 36 44 68 76 91c34 25 73 39 114 44c14 1 27 1 41 1c18 0 36 -1 54 -4c47 -7 90 -30 124 -63c10 -9 10 -26 0 -35c-10 -10 -25 -9 -35 0c-5 4 -10 9 -15 13v0c-1 1 -3 2 -4 3c-2 2 -5 3 -8 5c-9 6 -20 12 -30 16
c-15 7 -31 11 -47 13c-14 2 -28 2 -42 2c-13 0 -26 0 -39 -2c-16 -2 -32 -7 -47 -13c-11 -5 -23 -11 -33 -18l-9 -6v0c-1 -1 -2 -2 -4 -3c-5 -4 -10 -9 -14 -14c-5 -4 -10 -10 -14 -15c-1 -1 -2 -2 -2 -3c-1 0 -1 0 -1 -1c-2 -2 -4 -5 -6 -8c-6 -10 -12 -21 -17 -32
c-6 -15 -11 -31 -13 -47z" />
    <glyph glyph-name="thorn" unicode="&#xfe;" horiz-adv-x="583" 
d="M516 639c26 -31 45 -69 53 -109c7 -42 5 -85 -10 -125c-14 -38 -37 -73 -68 -99c-32 -26 -69 -46 -109 -53c-23 -4 -45 -4 -68 -4h-115v-49v-49h48h101c13 0 25 -11 25 -25s-12 -25 -25 -25h-23h-126v-26v-50c0 -14 -11 -25 -25 -25s-25 11 -25 25v48v28h-74
c-14 0 -25 11 -25 25s11 25 25 25h23h51v46v52h-74c-14 0 -25 11 -25 25s11 25 25 25h48h26v59v163v125v50c0 14 11 25 25 25h90h66c30 0 59 -3 87 -14c38 -14 72 -37 99 -68zM521 460c2 17 2 33 0 50c-3 16 -7 32 -13 47c-5 11 -11 23 -18 33c-2 3 -4 5 -6 8v0
c-1 1 -2 3 -3 4c-4 5 -8 10 -13 14c-5 5 -10 10 -16 14c0 1 -1 2 -2 2l-1 1c-3 2 -6 4 -8 6c-11 7 -21 13 -32 17c-16 6 -31 11 -47 13c-21 3 -42 2 -63 2h-100v-23v-123v-162v-64h28h80c18 0 37 0 55 2c16 2 31 6 47 12c11 6 22 12 33 19c2 1 5 3 8 5v1c1 0 2 1 3 2
c5 4 10 9 15 14s10 10 14 15c1 1 1 2 2 3c0 0 1 0 1 1c2 2 4 5 6 8c6 10 12 21 17 32c6 15 10 31 13 47z" />
    <glyph glyph-name="Thorn" unicode="&#xde;" horiz-adv-x="583" 
d="M516 639c26 -31 45 -69 53 -109c7 -42 5 -85 -10 -125c-14 -38 -37 -73 -68 -99c-32 -26 -69 -46 -109 -53c-23 -4 -45 -4 -68 -4h-115v-49v-49h48h101c13 0 25 -11 25 -25s-12 -25 -25 -25h-23h-126v-26v-50c0 -14 -11 -25 -25 -25s-25 11 -25 25v48v28h-74
c-14 0 -25 11 -25 25s11 25 25 25h23h51v46v52h-74c-14 0 -25 11 -25 25s11 25 25 25h48h26v59v163v125v50c0 14 11 25 25 25h90h66c30 0 59 -3 87 -14c38 -14 72 -37 99 -68zM521 460c2 17 2 33 0 50c-3 16 -7 32 -13 47c-5 11 -11 23 -18 33c-2 3 -4 5 -6 8v0
c-1 1 -2 3 -3 4c-4 5 -8 10 -13 14c-5 5 -10 10 -16 14c0 1 -1 2 -2 2l-1 1c-3 2 -6 4 -8 6c-11 7 -21 13 -32 17c-16 6 -31 11 -47 13c-21 3 -42 2 -63 2h-100v-23v-123v-162v-64h28h80c18 0 37 0 55 2c16 2 31 6 47 12c11 6 22 12 33 19c2 1 5 3 8 5v1c1 0 2 1 3 2
c5 4 10 9 15 14s10 10 14 15c1 1 1 2 2 3c0 0 1 0 1 1c2 2 4 5 6 8c6 10 12 21 17 32c6 15 10 31 13 47z" />
    <glyph glyph-name="parenleft" unicode="(" horiz-adv-x="251" 
d="M203 77c10 -12 20 -23 31 -34c9 -10 9 -26 0 -36c-10 -9 -26 -10 -36 0c-11 11 -22 23 -32 35c-52 64 -89 140 -105 221c-16 80 -13 163 10 241c24 81 68 154 127 214c10 9 26 9 36 0c9 -10 9 -26 0 -36c-11 -11 -22 -23 -32 -35c-2 -3 -5 -6 -7 -9l-1 -1
c-1 -2 -2 -3 -3 -4c-4 -6 -9 -13 -13 -19c-16 -24 -30 -49 -41 -75c-15 -37 -26 -76 -32 -116c-5 -40 -5 -81 0 -121c6 -40 17 -79 32 -116c11 -27 25 -52 42 -76c4 -7 8 -13 13 -19c1 -2 2 -3 3 -5c0 0 1 0 1 -1c2 -2 5 -5 7 -8z" />
    <glyph glyph-name="parenright" unicode=")" horiz-adv-x="251" 
d="M88 77c2 3 5 6 7 8c0 1 1 1 1 1c1 2 2 3 3 5c5 6 9 12 13 19c17 24 31 49 42 76c15 37 26 76 32 116c5 40 5 81 0 121c-6 40 -17 79 -32 116c-11 26 -25 51 -41 75c-4 6 -9 13 -13 19c-1 1 -2 2 -3 4l-1 1c-2 3 -5 6 -7 9c-10 12 -21 24 -32 35c-9 10 -9 26 0 36
c10 9 26 9 36 0c59 -60 103 -133 127 -214c23 -78 26 -161 10 -241c-16 -81 -53 -157 -105 -221c-10 -12 -21 -24 -32 -35c-10 -10 -26 -9 -36 0c-9 10 -9 26 0 36c11 11 21 22 31 34z" />
    <glyph glyph-name="numbersign" unicode="#" horiz-adv-x="833" 
d="M672 495c13 0 23 -10 23 -23s-10 -23 -23 -23h-45h-52c-6 -18 -12 -37 -18 -55c-7 -22 -15 -44 -22 -66h23h73c13 0 24 -11 24 -24c0 -12 -11 -23 -24 -23h-45h-66c-4 -11 -8 -21 -11 -32c-7 -22 -15 -44 -22 -66c-4 -12 -16 -20 -29 -16c-11 3 -20 16 -16 28v0
c8 24 16 47 23 70c2 6 4 11 6 16h-30h-111c-4 -11 -7 -21 -11 -32l-21 -66c-4 -12 -16 -20 -29 -16c-12 3 -20 16 -16 28v0c7 24 15 47 23 70c2 6 3 11 5 16h-70c-13 0 -24 11 -24 23c0 13 11 24 24 24h45h40c10 28 19 56 28 84c4 12 9 25 13 37h-13h-73
c-13 0 -23 10 -23 23s10 23 23 23h45h56l21 63c7 22 14 43 21 65c4 12 16 20 29 17c12 -4 20 -17 16 -29v0c-8 -23 -15 -47 -23 -70c-5 -15 -10 -30 -15 -46h41h100c6 21 13 42 20 63c7 22 15 43 22 65c4 12 16 20 29 17c11 -4 20 -17 16 -29v0c-8 -23 -16 -47 -23 -70
c-5 -15 -10 -30 -16 -46h9h73zM514 412c4 12 8 25 12 37h-45h-95c-7 -18 -13 -37 -19 -55c-7 -22 -14 -44 -22 -66h56h85c9 28 19 56 28 84z" />
    <glyph glyph-name="bracketleft" unicode="[" horiz-adv-x="273" 
d="M101 201v-125v-25h11h125c14 0 26 -11 26 -25s-12 -25 -26 -25h-36h-125c-14 0 -26 11 -26 25v0v50v125v163v162v125v50c0 13 12 25 26 25h36h125c14 0 26 -12 26 -25c0 -14 -12 -26 -26 -26h-36h-100v-25v-125v-162v-162z" />
    <glyph glyph-name="bracketright" unicode="]" horiz-adv-x="273" 
d="M212 201v162v162v125v25h-100h-36c-14 0 -26 12 -26 26c0 13 12 25 26 25h125h36c14 0 26 -12 26 -25v-50v-125v-162v-163v-125v-50v0c0 -14 -12 -25 -26 -25h-125h-36c-14 0 -26 11 -26 25s12 25 26 25h125h11v25v125z" />
    <glyph glyph-name="less" unicode="&#x3c;" horiz-adv-x="357" 
d="M287 493c-42 -33 -84 -65 -126 -97c-15 -12 -30 -23 -45 -34c6 -5 12 -10 18 -14c42 -33 84 -65 126 -97c25 -19 49 -37 73 -56c6 -4 10 -8 12 -15s1 -14 -3 -20c-3 -5 -8 -9 -15 -11c-6 -2 -14 -1 -19 2c-16 12 -31 24 -47 36c-42 32 -84 65 -126 97
c-24 19 -49 37 -73 56c-7 5 -12 12 -12 22c0 9 5 16 12 21c16 12 31 24 47 36c42 32 84 64 126 97c24 18 49 37 73 56c5 4 13 4 19 2c7 -2 12 -6 15 -11c4 -6 5 -13 3 -20s-6 -11 -12 -15c-15 -12 -31 -24 -46 -35z" />
    <glyph glyph-name="greater" unicode="&#x3e;" horiz-adv-x="356" 
d="M109 493c-15 11 -31 23 -46 35c-6 4 -10 8 -12 15s-1 14 3 20c3 5 8 9 15 11c6 2 14 2 19 -2c24 -19 49 -38 73 -56c42 -33 84 -65 126 -97c16 -12 31 -24 47 -36c7 -5 12 -12 12 -21c0 -10 -5 -17 -12 -22c-24 -19 -49 -37 -73 -56c-42 -32 -84 -65 -126 -97
c-16 -12 -31 -24 -47 -36c-5 -3 -13 -4 -19 -2c-7 2 -12 6 -15 11c-4 6 -5 13 -3 20s6 11 12 15c24 19 48 37 73 56c42 32 84 64 126 97c6 4 12 9 18 14c-15 11 -30 22 -45 34c-42 32 -84 64 -126 97z" />
    <glyph glyph-name="semicolon" unicode=";" horiz-adv-x="152" 
d="M123 234c12 -4 22 -18 18 -31h-1c-13 -36 -26 -71 -40 -106c-2 -7 -5 -12 -11 -15c-6 -4 -13 -5 -20 -3c-12 3 -22 18 -17 31v0c13 36 27 71 40 106c2 7 5 12 12 15c5 4 12 5 19 3zM116 559c14 0 25 -12 25 -26c0 -13 -11 -25 -25 -25s-25 12 -25 25c0 14 11 26 25 26z
" />
    <glyph glyph-name="colon" unicode=":" horiz-adv-x="110" 
d="M75 559c14 0 25 -12 25 -26c0 -13 -11 -25 -25 -25s-25 12 -25 25c0 14 11 26 25 26zM75 158c14 0 25 -11 25 -25s-11 -25 -25 -25s-25 11 -25 25s11 25 25 25z" />
    <glyph glyph-name="plus" unicode="+" horiz-adv-x="452" 
d="M416 380c14 0 26 -12 26 -25c0 -14 -12 -25 -26 -25v0h-93h-52v-60v-86c0 -14 -11 -25 -25 -25s-25 11 -25 25v0v94v52h-60h-86c-14 0 -25 11 -25 25c0 13 11 25 25 25v0h94h52v59v86c0 14 11 26 25 26s25 -12 25 -26v0v-93v-52h59h86z" />
    <glyph glyph-name="equal" unicode="=" horiz-adv-x="485" 
d="M450 482v0c13 0 25 -12 25 -25c0 -14 -12 -25 -25 -25h-12h-121h-161h-81c-14 0 -25 11 -25 25c0 13 11 25 25 25h11h122h161h81zM450 334v0c13 0 25 -12 25 -26c0 -13 -12 -25 -25 -25h-12h-121h-161h-81c-14 0 -25 12 -25 25c0 14 11 26 25 26h11h122h161h81z" />
    <glyph glyph-name="dollar" unicode="$" horiz-adv-x="602" 
d="M474 325c36 -38 55 -92 49 -144c-5 -50 -26 -97 -62 -131c-29 -28 -66 -47 -105 -54v-50s-14 -30 -30 -30c-17 0 -30 13 -30 30v49c-23 3 -45 10 -65 22c-16 8 -30 20 -43 32c-15 14 -28 29 -39 46c-16 26 -25 55 -29 85c0 7 4 16 9 21c6 5 14 9 21 9c8 0 16 -4 22 -9
c5 -5 7 -11 8 -18v1c2 -13 5 -25 10 -38c3 -6 6 -12 9 -17c2 -4 5 -8 7 -12c1 -1 2 -3 4 -4c5 -7 11 -13 18 -19c5 -5 11 -10 17 -15c0 -1 1 -1 1 -1c3 -2 6 -5 9 -6c5 -4 11 -6 16 -9c10 -4 21 -7 32 -8c5 -1 11 -1 16 -1h3h3c6 0 12 0 18 1c11 2 23 5 33 9c9 4 18 9 26 14
c1 1 3 2 4 3s3 3 4 3l12 12s8 8 11 12v0c1 1 1 2 2 2c1 2 3 4 4 7c5 8 10 16 14 25c5 12 8 24 10 37c1 12 1 24 0 36c-2 12 -5 23 -9 34c-4 8 -8 15 -13 22c0 1 -1 2 -1 2c-2 2 -3 3 -4 5c-3 3 -6 7 -10 10c-2 1 -3 3 -5 4l-4 4c-3 2 -6 3 -9 5c-7 5 -14 9 -22 12
c-35 14 -74 15 -111 25c-41 11 -77 35 -104 67c-18 23 -32 48 -39 76c-8 28 -8 57 -4 85c9 51 38 95 79 125c26 20 57 32 89 37v52c0 16 13 30 30 30c16 0 30 -14 30 -30v-52c24 -3 46 -11 67 -23c25 -15 45 -35 61 -58c9 -14 3 -34 -11 -41c-14 -9 -32 -3 -41 10
c-1 2 -2 4 -3 5c0 1 -1 1 -1 2c-2 2 -3 4 -5 6c-5 5 -10 10 -16 15c0 0 -1 1 -2 1c-1 1 -2 1 -2 2l-9 6c-5 3 -10 5 -16 8c-10 4 -20 6 -31 8c-13 2 -27 2 -41 0c-13 -2 -25 -5 -36 -10c-9 -4 -18 -8 -26 -14c-1 -1 -3 -2 -5 -4c-1 0 -1 -1 -2 -2c-4 -3 -8 -6 -12 -10
c-3 -4 -7 -8 -10 -12l-1 -1c-2 -2 -3 -4 -5 -6c-5 -8 -9 -16 -13 -25c-5 -11 -8 -23 -10 -36c-1 -12 -1 -24 0 -36c2 -11 5 -23 9 -34c4 -8 9 -16 14 -24c1 -3 3 -5 5 -7c0 -1 0 -1 1 -1c3 -4 6 -8 10 -11c3 -4 7 -8 11 -12c2 -2 5 -3 7 -5l1 -1c8 -6 17 -11 26 -15
c18 -7 36 -11 55 -14c27 -5 53 -8 78 -18c26 -11 51 -25 71 -46zM215 617v0c2 3 1 2 0 0zM214 448c1 -2 4 -6 0 0v0z" />
    <glyph glyph-name="braceleft" unicode="{" horiz-adv-x="347" 
d="M311 51c14 0 25 -11 25 -25s-11 -25 -25 -25h-5h-122c-14 0 -26 11 -26 25v6v95v60s0 40 -2 60c-2 16 -6 31 -12 46c-2 6 -5 11 -9 16c-1 2 -2 3 -3 5s-3 4 -5 6c-2 1 -4 3 -6 5c-1 0 -1 1 -2 1l-9 6c-5 1 -9 2 -14 3c-4 1 -9 1 -14 0v0c-14 -3 -27 4 -31 18
c-1 3 -1 6 -1 9s0 6 1 9c4 13 17 20 31 17v0h14c5 1 9 2 14 4c3 1 6 3 9 5c1 1 2 1 2 2c2 1 4 3 6 5l6 6v0c1 2 2 3 2 4c4 6 7 11 9 17c6 15 10 30 12 46c1 10 2 21 3 32c1 41 0 81 0 122v67c0 14 11 26 25 26h5h122c14 0 26 -12 26 -26c0 -13 -12 -25 -26 -25h-5h-97v-140
c0 -59 -5 -131 -53 -171c12 -10 21 -23 28 -37c18 -34 24 -72 25 -110c1 -41 0 -81 0 -122v-42h102zM134 311v0c1 0 0 0 0 0z" />
    <glyph glyph-name="braceright" unicode="}" horiz-adv-x="347" 
d="M76 51h102v42c0 41 -1 81 0 122c1 38 7 76 25 110c7 14 16 27 28 37c-48 40 -53 112 -53 171v140h-97h-5c-14 0 -26 12 -26 25c0 14 12 26 26 26h122h5c14 0 25 -12 25 -26v-67c0 -41 -1 -81 0 -122c1 -11 2 -22 3 -32c2 -16 6 -31 12 -46c2 -6 5 -11 9 -17
c0 -1 1 -2 2 -4v0l6 -6s4 -4 6 -5c0 -1 1 -1 2 -2c3 -2 6 -4 9 -5c5 -2 9 -3 14 -4h14v0c14 3 27 -4 31 -17c1 -3 1 -6 1 -9s0 -6 -1 -9c-4 -14 -17 -21 -31 -18v0c-5 1 -10 1 -14 0c-5 -1 -9 -2 -14 -3l-9 -6c-1 0 -1 -1 -2 -1c-2 -2 -4 -4 -6 -5c-2 -2 -4 -4 -5 -6
s-2 -3 -3 -5c-4 -5 -7 -10 -9 -16c-6 -15 -10 -30 -12 -46c-2 -20 -2 -40 -2 -60v-60v-95v-6c0 -14 -12 -25 -26 -25h-122h-5c-14 0 -25 11 -25 25s11 25 25 25zM253 311c0 0 -1 0 0 0v0z" />
    <glyph glyph-name="bar" unicode="|" horiz-adv-x="111" 
d="M76 724c13 0 25 -12 25 -25v-50v-125v-162v-163v-125v-50c0 -13 -12 -25 -25 -25c-14 0 -26 12 -26 25v50v125v162v163v125v50c0 13 12 25 26 25z" />
    <glyph glyph-name="exclamdown" unicode="&#xa1;" horiz-adv-x="157" 
d="M98 -5c-26 0 -48 22 -48 48v58v6v0c2 26 3 52 5 78c3 54 6 107 9 160c3 44 5 88 8 132c0 7 1 14 1 21c1 14 11 25 25 25c15 0 25 -11 26 -25c1 -26 3 -52 4 -78c3 -53 6 -106 10 -160c2 -44 5 -88 7 -132c1 -6 1 -12 1 -18c1 -1 1 -2 1 -3v0v-6v-58
c0 -26 -22 -48 -49 -48zM102 679c-14 0 -25 11 -25 25s11 25 25 25s25 -11 25 -25s-11 -25 -25 -25z" />
    <glyph glyph-name="questiondown" unicode="&#xbf;" horiz-adv-x="375" 
d="M251 671c-14 0 -25 12 -25 26c0 13 11 25 25 25s25 -12 25 -25c0 -14 -11 -26 -25 -26zM130 22c-39 19 -70 55 -77 99c-3 23 -3 44 2 66c4 20 11 40 20 58c20 37 47 70 78 99c12 11 24 23 35 35c3 4 6 8 9 11c1 1 1 2 2 2c1 2 3 4 4 6c5 8 11 16 15 24c3 7 4 14 5 21
c3 21 3 44 3 66c0 13 11 25 25 25s25 -12 25 -25c1 -23 0 -45 -3 -68c-1 -10 -2 -21 -6 -31c-3 -9 -7 -17 -13 -26c-12 -18 -25 -35 -40 -50c-11 -12 -23 -23 -35 -35c-6 -6 -12 -12 -18 -19c-3 -3 -6 -7 -10 -11c0 -1 -3 -4 -3 -5l-3 -3c-12 -17 -23 -35 -32 -53
c-5 -13 -9 -27 -11 -41c-1 -11 -1 -22 0 -32c1 -8 3 -16 6 -24c3 -5 5 -10 9 -15c0 -1 1 -1 1 -2c1 -1 2 -2 2 -3c3 -2 5 -5 7 -7c2 -1 3 -3 5 -4c0 0 1 -1 2 -1c2 -2 5 -4 8 -6c6 -4 12 -7 18 -10c11 -4 23 -7 35 -9c11 -1 23 -1 34 0c10 1 20 4 29 8c6 2 12 6 17 9
c0 1 0 1 1 1l3 3c3 3 6 6 9 8c3 4 6 7 9 10c1 1 2 3 3 4c0 0 1 1 1 2c4 6 7 11 10 17c2 4 3 8 3 11c1 1 1 2 1 3c0 14 11 26 25 26c13 0 25 -12 25 -26c0 -6 -1 -13 -3 -19c-5 -23 -19 -43 -35 -60c-8 -8 -17 -16 -26 -22c-9 -7 -18 -12 -29 -16c-45 -18 -99 -13 -142 9z
" />
    <glyph glyph-name="quotedblleft" unicode="&#x201c;" horiz-adv-x="334" 
d="M305 756c12 -3 22 -18 17 -31v0c-13 -35 -26 -71 -40 -106c-2 -6 -5 -12 -11 -15s-13 -4 -20 -3c-12 4 -22 18 -17 31v0c13 36 26 71 40 107c2 6 5 11 11 15c6 3 13 4 20 2zM124 756c12 -3 22 -18 17 -31v0c-13 -35 -27 -71 -40 -106c-3 -6 -6 -12 -12 -15
c-5 -3 -13 -4 -19 -3c-12 4 -23 18 -18 31v0c14 36 27 71 41 107c2 6 5 11 11 15c6 3 13 4 20 2z" />
    <glyph glyph-name="quotedblright" unicode="&#x201d;" horiz-adv-x="334" 
d="M69 756c7 2 14 1 20 -2c6 -4 9 -9 11 -15c14 -36 27 -71 40 -107v0c5 -13 -5 -27 -17 -31c-7 -1 -14 0 -20 3s-9 9 -11 15c-14 35 -27 71 -40 106v0c-5 13 5 28 17 31zM250 756c7 2 14 1 20 -2c6 -4 9 -9 11 -15c14 -36 27 -71 41 -107v0c5 -13 -6 -27 -18 -31
c-6 -1 -14 0 -19 3c-6 3 -9 9 -12 15c-13 35 -27 71 -40 106v0c-5 13 5 28 17 31z" />
    <glyph glyph-name="quotedblbase" unicode="&#x201e;" horiz-adv-x="334" 
d="M305 50c12 -3 22 -18 17 -31v0c-13 -36 -26 -71 -40 -106c-2 -7 -5 -12 -11 -15c-6 -4 -13 -5 -20 -3c-12 4 -22 18 -17 31v0c13 36 26 71 40 106c2 7 5 12 11 15c6 4 13 5 20 3zM124 50c12 -3 22 -18 17 -31v0c-13 -36 -27 -71 -40 -106c-3 -7 -6 -12 -12 -15
c-5 -4 -13 -5 -19 -3c-12 4 -23 18 -18 31v0c14 36 27 71 41 106c2 7 5 12 11 15c6 4 13 5 20 3z" />
    <glyph glyph-name="guillemotleft" unicode="&#xab;" horiz-adv-x="424" 
d="M215 539c-19 -31 -39 -62 -59 -93c-17 -28 -34 -55 -51 -83l51 -81c19 -31 39 -63 59 -95c8 -11 3 -27 -9 -34s-27 -3 -34 9c-20 31 -40 62 -59 93l-60 96c-4 7 -4 18 0 25c20 31 39 62 59 94c20 31 40 63 60 95c7 11 22 16 34 9s17 -23 9 -35zM351 282
c19 -31 39 -63 59 -95c8 -11 3 -27 -9 -34s-27 -3 -34 9c-20 31 -39 62 -59 93l-60 96c-4 7 -4 18 0 25c20 31 39 62 59 94c20 31 40 63 60 95c7 11 22 16 34 9s17 -23 9 -35c-19 -31 -39 -62 -58 -93c-18 -28 -35 -55 -52 -83z" />
    <glyph glyph-name="guillemotright" unicode="&#xbb;" horiz-adv-x="424" 
d="M249 539c-8 12 -3 28 9 35s27 2 34 -9c20 -32 40 -64 60 -95c20 -32 39 -63 59 -94c4 -7 4 -18 0 -25l-60 -96c-19 -31 -39 -62 -59 -93c-7 -12 -22 -16 -34 -9s-17 23 -9 34c20 32 40 64 59 95l51 81c-17 28 -34 55 -51 83c-20 31 -40 62 -59 93zM113 282l51 81
c-17 28 -34 55 -52 83c-19 31 -39 62 -58 93c-8 12 -3 28 9 35s27 2 34 -9c20 -32 40 -64 60 -95c20 -32 39 -63 59 -94c4 -7 4 -18 0 -25l-60 -96c-20 -31 -39 -62 -59 -93c-7 -12 -22 -16 -34 -9s-17 23 -9 34c20 32 40 64 59 95z" />
    <glyph glyph-name="Atilde" unicode="&#xc3;" 
d="M503 78c4 -15 9 -30 14 -46c4 -13 -5 -28 -18 -31c-13 -4 -27 4 -31 18c0 1 -1 2 -1 3c-7 22 -14 44 -20 66c-14 43 -27 86 -40 129c-3 10 -6 21 -10 31h-125h-100c-7 -22 -14 -44 -21 -67c-12 -39 -25 -77 -37 -116c-4 -16 -9 -31 -14 -46c-4 -14 -18 -22 -31 -18
c-13 3 -22 18 -18 31c0 1 1 2 1 3c7 23 14 45 21 67c13 43 27 86 40 129c16 53 33 105 49 158c16 51 32 102 48 154c12 39 24 77 37 116c4 16 9 31 14 46c3 11 13 19 25 19c11 0 21 -8 24 -19c0 -1 1 -1 1 -2c7 -23 13 -45 20 -67c13 -43 27 -86 40 -129
c16 -52 32 -105 48 -158c16 -51 32 -102 48 -154zM310 299h72c-8 25 -16 50 -23 76c-16 51 -32 102 -48 154c-8 28 -17 56 -26 84c-12 -40 -25 -80 -37 -120c-17 -53 -33 -105 -49 -158l-12 -36h123zM163 828c-14 0 -26 11 -26 25c0 11 2 22 5 32c8 21 22 40 44 49
c21 9 46 12 68 3c11 -5 20 -11 29 -18c6 -5 12 -10 18 -16c5 -5 11 -10 17 -15l1 -1c1 -1 3 -2 4 -3c2 -1 5 -2 7 -3s5 -2 7 -2c3 -1 6 -1 9 0c4 0 7 1 11 2c2 2 5 3 7 5h1c1 1 2 3 4 4c1 1 1 2 2 3l2 2c1 2 2 4 4 7c1 3 2 6 2 10c1 1 1 3 1 5c0 14 11 25 25 25
s26 -11 25 -25c0 -9 -1 -19 -4 -28c-8 -22 -24 -43 -45 -52s-46 -13 -68 -4c-11 4 -19 10 -29 17c-6 5 -11 10 -17 15c-6 6 -11 11 -17 16c-1 0 -1 1 -1 1c-2 1 -4 2 -5 3c-2 1 -5 3 -7 4c-3 1 -6 2 -9 2c-4 1 -7 1 -11 0c-3 0 -6 -1 -9 -2c-2 -1 -4 -2 -6 -4
c-2 -1 -3 -2 -4 -3c0 -1 -1 -1 -2 -2c0 -1 -1 -1 -1 -2l-3 -6c-2 -4 -3 -8 -3 -12c-1 -2 -1 -5 -1 -7c0 -14 -11 -25 -25 -25z" />
    <glyph glyph-name="Aring" unicode="&#xc5;" horiz-adv-x="529" 
d="M503 78c5 -15 9 -30 14 -46c4 -13 -4 -28 -17 -31c-14 -4 -28 4 -32 18c0 1 0 2 -1 3c-6 22 -13 44 -20 66c-13 43 -26 86 -40 129c-3 10 -6 21 -9 31h-125h-101c-7 -22 -14 -44 -21 -67c-12 -39 -24 -77 -36 -116c-5 -16 -10 -31 -15 -46c-4 -14 -17 -22 -31 -18
c-13 3 -22 18 -18 31c1 1 1 2 1 3c7 23 14 45 21 67c13 43 27 86 40 129c17 53 33 105 50 158c16 51 32 102 48 154c12 39 24 77 36 116c5 16 9 31 14 46c4 11 13 19 25 19c11 0 21 -8 24 -19c1 -1 1 -1 1 -2c7 -23 14 -45 21 -67l39 -129c16 -52 33 -105 49 -158
c16 -51 31 -102 47 -154zM310 299h72c-8 25 -15 50 -23 76c-16 51 -32 102 -48 154c-8 28 -17 56 -25 84c-13 -40 -25 -80 -38 -120c-16 -53 -33 -105 -49 -158c-4 -12 -8 -24 -11 -36h122zM258 802c-23 6 -43 21 -56 42c-14 21 -18 47 -13 71c4 24 19 44 38 59
c18 14 42 21 64 18c24 -2 48 -12 64 -30c17 -18 26 -41 27 -65v-2c0 -10 -2 -22 -6 -32c-9 -23 -24 -42 -46 -53c-22 -12 -48 -15 -72 -8zM256 932c-2 -1 -3 -2 -5 -4l-4 -4c0 -1 -1 -1 -1 -2c-2 -2 -3 -5 -5 -8l-3 -12v-13l3 -12c2 -3 3 -6 5 -9c1 0 1 -1 1 -1
c2 -2 3 -3 4 -5c2 -1 3 -2 5 -4c0 0 1 0 1 -1c3 -1 6 -3 9 -5l12 -3h12c5 1 9 2 13 3c3 2 5 4 8 5c1 1 1 1 2 1c1 2 3 3 4 4c2 2 3 3 4 5c1 0 1 1 1 1c2 3 4 6 5 9c2 4 3 8 3 12c1 2 1 4 1 6s0 5 -1 7c0 4 -1 8 -3 12c-1 3 -3 6 -5 8c0 1 0 1 -1 2s-2 3 -4 4c-1 2 -3 3 -4 4
s-1 1 -2 1c-3 2 -6 4 -9 5c-3 2 -7 3 -12 4h-12c-4 -1 -8 -2 -12 -4c-3 -1 -6 -3 -9 -5c0 0 -1 0 -1 -1z" />
    <glyph glyph-name="Adieresis" unicode="&#xc4;" horiz-adv-x="529" 
d="M503 78c5 -15 10 -30 14 -46c4 -13 -4 -28 -17 -31c-14 -4 -28 4 -32 18v3l-21 66l-39 129c-4 10 -7 21 -10 31h-125h-101c-7 -22 -14 -44 -21 -67c-12 -39 -24 -77 -36 -116c-5 -16 -10 -31 -15 -46c-4 -14 -17 -22 -31 -18c-13 3 -22 18 -18 31c1 1 1 2 1 3
c7 23 14 45 21 67c14 43 27 86 40 129c17 53 33 105 50 158c16 51 32 102 48 154c12 39 24 77 36 116c5 16 10 31 14 46c4 11 13 19 25 19s21 -8 24 -19c1 -1 1 -1 1 -2c7 -23 14 -45 21 -67l39 -129c16 -52 33 -105 49 -158c16 -51 31 -102 47 -154zM310 299h72
c-8 25 -15 50 -23 76c-16 51 -32 102 -47 154c-9 28 -18 56 -26 84c-13 -40 -25 -80 -38 -120c-16 -53 -32 -105 -49 -158c-4 -12 -7 -24 -11 -36h122zM188 863c-14 0 -25 12 -25 25c0 14 11 26 25 26s26 -12 26 -26c0 -13 -12 -25 -26 -25zM365 863c-14 0 -26 12 -26 25
c0 14 12 26 26 26c13 0 25 -12 25 -26c0 -13 -12 -25 -25 -25z" />
    <glyph glyph-name="Agrave" unicode="&#xc0;" 
d="M239 822l-45 105c-3 6 -5 12 -3 19c2 6 6 12 12 15c6 4 13 5 19 3s13 -6 16 -12v0c15 -35 30 -69 45 -104c3 -7 5 -13 3 -20c-2 -6 -6 -12 -12 -15s-13 -4 -19 -2c-6 1 -13 6 -16 11v0zM503 78c5 -15 9 -30 14 -46c4 -13 -5 -28 -18 -31c-13 -4 -27 4 -31 18
c0 1 0 2 -1 3c-7 22 -13 44 -20 66c-13 43 -27 86 -40 129c-3 10 -6 21 -9 31h-125h-101c-7 -22 -14 -44 -21 -67c-12 -39 -24 -77 -37 -116c-4 -16 -9 -31 -14 -46c-4 -14 -18 -22 -31 -18c-13 3 -22 18 -18 31c0 1 1 2 1 3c7 23 14 45 21 67c13 43 27 86 40 129
c17 53 33 105 49 158c16 51 32 102 48 154c12 39 25 77 37 116c5 16 9 31 14 46c4 11 13 19 25 19c11 0 21 -8 24 -19c0 -1 1 -1 1 -2c7 -23 14 -45 20 -67c14 -43 27 -86 40 -129c16 -52 32 -105 49 -158c15 -51 31 -102 47 -154zM310 299h72c-8 25 -16 50 -23 76
c-16 51 -32 102 -48 154c-8 28 -17 56 -26 84c-12 -40 -24 -80 -37 -120c-16 -53 -33 -105 -49 -158c-4 -12 -8 -24 -11 -36h122z" />
    <glyph glyph-name="Aacute" unicode="&#xc1;" 
d="M294 813c-6 3 -10 9 -12 15c-2 7 0 13 3 20v0c15 35 30 69 45 104c3 6 10 10 15 12c7 2 14 1 20 -3c6 -3 10 -9 12 -15c2 -7 0 -13 -3 -19v-1c-15 -34 -30 -69 -45 -104c-3 -5 -10 -10 -16 -11c-6 -2 -13 -1 -19 2zM503 78c4 -15 9 -30 14 -46c4 -13 -5 -28 -18 -31
c-14 -4 -27 4 -31 18c0 1 -1 2 -1 3c-7 22 -14 44 -20 66c-14 43 -27 86 -40 129c-3 10 -6 21 -10 31h-125h-101c-7 -22 -14 -44 -20 -67c-13 -39 -25 -77 -37 -116c-5 -16 -9 -31 -14 -46c-4 -14 -18 -22 -31 -18c-13 3 -22 18 -18 31c0 1 0 2 1 3c7 23 14 45 21 67
c13 43 26 86 40 129c16 53 33 105 49 158c16 51 32 102 48 154c12 39 24 77 36 116c5 16 10 31 15 46c3 11 13 19 24 19c12 0 22 -8 25 -19c0 -1 0 -1 1 -2c7 -23 13 -45 20 -67c13 -43 27 -86 40 -129c16 -52 32 -105 48 -158c16 -51 32 -102 48 -154zM309 299h73
c-8 25 -16 50 -24 76c-15 51 -31 102 -47 154c-9 28 -17 56 -26 84c-12 -40 -25 -80 -37 -120c-17 -53 -33 -105 -49 -158l-12 -36h122z" />
    <glyph glyph-name="Acircumflex" unicode="&#xc2;" 
d="M503 78c4 -15 9 -30 14 -46c4 -13 -5 -28 -18 -31c-14 -4 -27 4 -31 18c0 1 -1 2 -1 3c-7 22 -14 44 -20 66c-14 43 -27 86 -40 129c-3 10 -7 21 -10 31h-125h-101c-7 -22 -14 -44 -20 -67c-13 -39 -25 -77 -37 -116c-5 -16 -9 -31 -14 -46c-4 -14 -18 -22 -31 -18
c-13 3 -22 18 -18 31c0 1 0 2 1 3c7 23 14 45 21 67c13 43 26 86 40 129c16 53 33 105 49 158c16 51 32 102 48 154c12 39 24 77 36 116c5 16 10 31 15 46c3 11 13 19 24 19c12 0 22 -8 25 -19c0 -1 0 -1 1 -2c7 -23 13 -45 20 -67c13 -43 27 -86 40 -129
c16 -52 32 -105 48 -158c16 -51 32 -102 48 -154zM309 299h73c-8 25 -16 50 -24 76c-15 51 -31 102 -47 154c-9 28 -17 56 -26 84c-12 -40 -25 -80 -37 -120c-17 -53 -33 -105 -49 -158l-12 -36h122zM189 820c-10 -10 -26 -10 -36 0c-9 9 -10 26 0 35c6 5 11 10 16 16
c31 28 62 57 93 86c5 5 11 8 18 8c6 0 13 -3 18 -8s10 -10 16 -15c30 -29 61 -58 92 -87c10 -9 9 -26 0 -35c-10 -10 -26 -10 -36 0c-6 5 -11 10 -16 15c-25 23 -50 46 -74 69c-31 -28 -61 -56 -91 -84z" />
    <glyph glyph-name="Ugrave" unicode="&#xd9;" horiz-adv-x="475" 
d="M464 383v-139c0 -29 1 -58 -4 -87c-8 -39 -29 -77 -58 -104c-32 -30 -72 -47 -115 -52c-13 -1 -26 -1 -40 -1c-18 0 -38 2 -56 8c-41 12 -76 37 -102 71c-25 32 -39 74 -39 115v18v113v164v146v64c0 14 12 25 26 25c13 0 25 -11 25 -25v-24v-121v-165v-141v-41
c0 -11 0 -21 1 -31c2 -13 5 -25 10 -37c4 -9 9 -18 14 -26c2 -2 3 -4 5 -6c1 -1 1 -2 2 -3c3 -4 7 -8 10 -11c4 -4 8 -8 12 -11c1 -1 2 -1 2 -2h1c2 -2 4 -3 6 -5c8 -5 16 -9 25 -13c12 -5 24 -8 37 -10c11 -2 21 -2 31 -2c11 0 21 0 31 2c13 2 25 5 37 10c9 4 17 8 25 14
c3 1 5 3 7 5c1 0 2 1 2 1c4 4 8 7 12 11s7 8 11 12c0 1 1 1 1 2c1 0 1 1 1 1c1 2 3 4 4 6c6 8 10 16 14 25c5 12 8 24 10 37c1 12 1 24 1 36v113v164v146v64c0 14 12 25 25 25c14 0 26 -11 26 -25v-27v-125v-164zM235 819c-15 35 -30 69 -45 104c-3 6 -5 12 -3 19
c2 6 6 12 12 15c6 4 13 4 19 3c6 -2 13 -6 16 -12v0c15 -34 30 -69 45 -103c3 -7 4 -13 2 -20c-1 -6 -6 -12 -11 -15c-6 -3 -13 -4 -20 -3c-5 2 -12 6 -15 12v0z" />
    <glyph glyph-name="Uacute" unicode="&#xda;" horiz-adv-x="474" 
d="M463 383v-139c0 -29 2 -58 -3 -87c-8 -39 -29 -77 -59 -104c-32 -30 -71 -47 -114 -52c-14 -1 -27 -1 -40 -1c-19 0 -38 2 -56 8c-41 12 -76 37 -102 71c-25 32 -39 74 -39 115v18v113v164v146v64c0 14 11 25 25 25s25 -11 25 -25v-24v-121v-165v-141v-41
c0 -11 0 -21 1 -31c2 -13 6 -25 11 -37c4 -9 8 -18 14 -26c1 -2 3 -4 4 -6c1 -1 2 -2 2 -3c4 -4 7 -8 11 -11c4 -4 8 -8 12 -11l2 -2h1c2 -2 4 -3 6 -5c8 -5 16 -9 25 -13c12 -5 24 -8 37 -10c10 -2 21 -2 31 -2s20 0 30 2c13 2 26 5 38 10c9 4 17 8 25 14c2 1 5 3 7 5
c0 0 1 1 2 1c4 4 8 7 11 11c4 4 8 8 11 12l2 2c0 0 0 1 1 1c1 2 3 4 4 6c5 8 10 16 13 25c5 12 9 24 11 37c1 12 1 24 1 36v113v164v146v64c0 14 11 25 25 25s25 -11 25 -25v-27v-125v-164zM244 810c-6 3 -10 9 -12 15c-2 7 0 13 3 20v0c15 34 30 69 45 103c3 6 9 10 15 12
c7 1 14 1 20 -3c5 -3 9 -9 11 -15c2 -7 0 -13 -2 -19v0c-15 -35 -31 -69 -46 -104c-2 -6 -9 -10 -15 -12c-6 -1 -13 0 -19 3z" />
    <glyph glyph-name="Ucircumflex" unicode="&#xdb;" horiz-adv-x="474" 
d="M463 383v-139c0 -29 2 -58 -3 -87c-8 -39 -29 -77 -59 -104c-32 -30 -71 -47 -114 -52c-13 -1 -27 -1 -40 -1c-19 0 -38 2 -56 8c-41 12 -76 37 -102 71c-25 32 -39 74 -39 115v18v113v164v146v64c0 14 11 25 25 25s25 -11 25 -25v-24v-121v-165v-141v-41
c0 -11 0 -21 2 -31c2 -13 5 -25 10 -37c4 -9 8 -18 14 -26c1 -2 3 -4 5 -6c0 -1 1 -2 1 -3c4 -4 7 -8 11 -11c4 -4 8 -8 12 -11l2 -2h1c2 -2 4 -3 6 -5c8 -5 16 -9 25 -13c12 -5 24 -8 37 -10c10 -2 21 -2 31 -2s20 0 30 2c13 2 26 5 38 10c9 4 17 8 25 14c2 1 5 3 7 5
c1 0 1 1 2 1c4 4 8 7 11 11l12 12c0 1 1 1 1 2c0 0 0 1 1 1c1 2 3 4 4 6c5 8 10 16 14 25c4 12 8 24 10 37c1 12 1 24 1 36v113v164v146v64c0 14 11 25 25 25s25 -11 25 -25v-27v-125v-164zM167 816c-10 -9 -26 -10 -36 0c-9 10 -10 27 0 36c6 5 11 10 16 15
c31 29 61 57 92 86c5 5 11 7 18 7c6 0 12 -2 17 -7c6 -5 11 -10 16 -15c31 -29 61 -57 92 -86c10 -9 9 -26 0 -36c-10 -10 -26 -9 -36 0c-5 5 -10 10 -16 15c-24 23 -49 47 -73 70c-30 -28 -60 -56 -90 -85z" />
    <glyph glyph-name="Udieresis" unicode="&#xdc;" horiz-adv-x="474" 
d="M463 383v-139c0 -29 2 -58 -4 -87c-7 -39 -28 -77 -58 -104c-32 -30 -71 -47 -114 -52c-14 -1 -27 -1 -40 -1c-19 0 -38 2 -56 8c-41 12 -76 37 -102 71c-25 32 -39 74 -39 115v18v113v164v146v64c0 14 11 25 25 25s25 -11 25 -25v-24v-121v-165v-141v-41
c0 -11 0 -21 1 -31c2 -13 6 -25 11 -37c4 -9 8 -18 14 -26c1 -2 3 -4 4 -6c1 -1 2 -2 2 -3c4 -4 7 -8 11 -11c4 -4 8 -8 12 -11l2 -2h1c2 -2 4 -3 6 -5c8 -5 16 -9 24 -13c12 -5 25 -8 38 -10c10 -2 21 -2 31 -2s20 0 30 2c13 2 26 5 38 10c9 4 17 8 25 14c2 1 4 3 7 5
c0 0 1 1 2 1c4 4 8 7 11 11c4 4 8 8 11 12l2 2c0 0 0 1 1 1c1 2 3 4 4 6c5 8 10 16 13 25c5 12 9 24 11 37c1 12 1 24 1 36v113v164v146v64c0 14 11 25 25 25s25 -11 25 -25v-27v-125v-164zM169 860c-14 0 -25 11 -25 25s11 25 25 25s25 -11 25 -25s-11 -25 -25 -25z
M344 860c-14 0 -25 11 -25 25s11 25 25 25s25 -11 25 -25s-11 -25 -25 -25z" />
    <glyph glyph-name="Yacute" unicode="&#xdd;" horiz-adv-x="556" 
d="M533 722c12 -7 16 -23 9 -35v-1c-14 -23 -27 -47 -40 -70c-25 -46 -51 -91 -76 -137c-25 -44 -50 -88 -75 -133c-10 -17 -19 -35 -29 -53v-17v-152v-99c0 -14 -12 -25 -25 -25c-14 0 -26 11 -26 25v29v152v86c-12 21 -23 43 -35 64c-25 46 -50 91 -76 137
c-24 45 -49 89 -73 134l-33 60c-7 12 -3 27 9 35c11 6 27 3 34 -9v-1l39 -69c25 -46 50 -91 75 -137c24 -45 49 -89 74 -134c3 -7 7 -14 11 -21c6 11 12 21 18 32c25 45 51 91 76 137c25 44 50 88 75 133l33 60c7 11 23 15 35 9zM203 860c-13 0 -25 12 -25 25
c0 14 12 25 25 25c14 0 26 -11 26 -25c0 -13 -12 -25 -26 -25zM392 860c-14 0 -25 12 -25 25c0 14 11 25 25 25s25 -11 25 -25c0 -13 -11 -25 -25 -25z" />
    <glyph glyph-name="Zcaron" unicode="&#x17d;" horiz-adv-x="453" 
d="M418 51c14 0 25 -12 25 -26s-11 -25 -25 -25v0h-94h-162h-86c-9 0 -18 5 -22 12c-5 9 -4 18 0 26c4 7 7 15 11 22c15 29 30 59 45 88c22 44 45 88 67 132c25 50 50 99 75 149c24 46 48 93 71 139c18 35 35 69 52 103c1 1 1 2 2 2h-52h-162h-87c-13 0 -25 12 -25 26
s12 25 25 25h1h92h162h87c9 0 17 -5 22 -13c4 -8 4 -17 0 -25c-4 -7 -8 -15 -11 -22c-15 -29 -30 -59 -45 -88c-23 -44 -45 -88 -67 -132c-26 -50 -51 -99 -76 -149c-24 -46 -47 -93 -71 -139c-17 -35 -35 -69 -52 -103c0 -1 -1 -2 -1 -2h53h162h86zM122 915
c-10 10 -10 26 0 36s26 9 36 0c5 -5 10 -10 15 -14c25 -24 49 -47 74 -70c30 28 59 56 89 84c10 9 26 10 36 0c9 -10 10 -26 0 -36c-5 -5 -10 -9 -15 -14c-31 -29 -62 -58 -92 -87c-5 -5 -12 -7 -18 -7s-13 2 -18 7l-15 15c-31 28 -61 57 -92 86z" />
    <glyph glyph-name="Scaron" unicode="&#x160;" horiz-adv-x="451" 
d="M441 198c0 -40 -10 -81 -34 -114c-25 -35 -60 -62 -101 -75c-19 -6 -39 -9 -59 -9c-21 0 -41 1 -61 6c-46 10 -89 35 -121 69c-9 10 -10 26 0 36s27 10 36 0c5 -5 10 -11 16 -15c3 -3 6 -5 8 -8h1c1 -1 3 -2 4 -3c11 -8 24 -15 36 -20c15 -6 31 -10 47 -13
c17 -2 36 -2 54 0c12 2 25 5 37 10c8 4 17 8 25 14c2 1 4 3 6 4l2 2c4 3 8 7 11 10c4 4 8 8 12 13l1 1v1c2 2 3 4 5 6c5 8 9 16 13 24c5 12 8 24 10 37c2 14 2 27 0 41c-2 12 -5 25 -10 37c-4 8 -9 17 -14 25c-1 2 -3 4 -4 6l-2 2c-3 4 -7 8 -11 11c-3 4 -8 8 -12 12
c0 0 -1 0 -2 1v0c-2 2 -4 3 -6 5c-8 5 -16 9 -24 13c-12 5 -24 8 -37 10c-8 1 -16 1 -24 1c-13 0 -26 2 -38 4c-23 5 -45 13 -64 26c-36 23 -63 57 -78 97c-14 38 -16 81 -5 120c10 39 33 76 65 101c18 14 37 25 58 32c20 7 42 10 63 10h4c63 -1 125 -29 168 -75
c9 -10 10 -26 0 -36s-27 -10 -36 0c-5 5 -10 11 -16 15c-3 3 -6 5 -8 8h-1c-1 1 -3 2 -4 3c-11 8 -24 15 -36 20c-15 6 -31 10 -47 13c-8 1 -16 1 -24 1c-1 0 -2 0 -3 1c-6 -1 -11 -1 -16 -2c-13 -1 -25 -5 -37 -10c-8 -3 -17 -8 -25 -14c-2 -1 -4 -2 -6 -4
c-1 0 -1 -1 -2 -2c-4 -3 -8 -6 -11 -10l-12 -12c0 -1 -1 -1 -1 -2v0c-2 -2 -3 -4 -5 -7c-5 -7 -9 -15 -13 -24c-5 -12 -8 -24 -10 -37c-2 -14 -2 -28 0 -42c2 -13 5 -25 10 -37c4 -9 9 -17 14 -25c1 -2 3 -4 4 -6l2 -2c3 -4 7 -8 11 -12c3 -4 8 -7 12 -11c0 0 1 -1 2 -1v0
c2 -2 4 -3 6 -5c8 -5 16 -9 24 -13c12 -5 24 -8 37 -10c9 -1 19 -1 29 -1c14 -1 28 -3 41 -6c40 -10 77 -33 102 -65c14 -17 25 -36 33 -57c7 -20 11 -42 11 -63zM120 902c-10 9 -9 26 0 36c10 10 26 9 36 0c6 -6 12 -12 18 -17c25 -23 49 -47 74 -70c31 29 61 58 92 87
c10 9 26 10 36 0c9 -10 10 -27 0 -36c-6 -6 -12 -11 -18 -17c-30 -29 -61 -58 -92 -87c-5 -5 -11 -7 -18 -7c-6 0 -13 2 -18 7c-6 6 -12 11 -18 17c-30 29 -61 58 -92 87z" />
    <glyph glyph-name="yacute" unicode="&#xfd;" horiz-adv-x="481" 
d="M459 461c5 -3 9 -8 11 -14s0 -12 -2 -18c-4 -9 -8 -18 -13 -27c-13 -32 -27 -64 -41 -95c-20 -46 -41 -92 -61 -138c-22 -51 -45 -102 -67 -153c-21 -48 -42 -95 -63 -143c-16 -35 -31 -70 -46 -105c-6 -14 -12 -27 -18 -41c-6 -12 -22 -14 -32 -8c-6 3 -10 8 -11 14
c-2 6 -1 12 2 18l12 27c14 32 28 63 42 95l60 138c1 1 2 3 3 5c-10 21 -19 43 -28 64c-21 48 -43 96 -64 144c-20 47 -41 93 -61 140c-10 21 -19 42 -28 64c-3 6 -4 11 -3 18c2 5 6 11 11 14c10 6 27 3 32 -9v0c11 -25 22 -49 33 -74l63 -144c21 -46 41 -93 62 -140
c3 -6 5 -13 8 -19c14 30 27 60 40 90c21 48 42 95 63 143c15 35 31 70 46 105c6 14 12 27 18 41c5 12 22 14 32 8zM257 564c-6 3 -9 8 -11 14s0 12 2 18c1 0 1 1 1 1c16 37 32 73 48 110c5 12 22 14 32 8c5 -3 9 -8 11 -14s0 -12 -3 -18v-2c-16 -36 -32 -73 -48 -109
c-5 -12 -22 -14 -32 -8z" />
    <glyph glyph-name="ydieresis" unicode="&#xff;" horiz-adv-x="481" 
d="M459 461c5 -3 9 -8 11 -14c1 -6 0 -12 -3 -18l-12 -27c-14 -32 -28 -64 -42 -95l-60 -138c-23 -51 -45 -102 -68 -153c-21 -48 -42 -95 -62 -143c-16 -35 -31 -70 -47 -105c-6 -14 -12 -27 -18 -41c-5 -12 -22 -14 -32 -8c-5 3 -9 8 -11 14c-1 6 0 12 3 18l12 27
c14 32 28 63 42 95l60 138c1 1 2 3 2 5c-9 21 -18 43 -28 64l-63 144c-21 47 -41 93 -62 140c-9 21 -18 42 -28 64c-2 6 -4 11 -2 18c2 5 6 11 11 14c10 6 27 3 32 -9v0c11 -25 22 -49 32 -74c21 -48 43 -96 64 -144c20 -46 41 -93 62 -140c2 -6 5 -13 8 -19
c13 30 26 60 40 90c21 48 41 95 62 143c16 35 31 70 47 105c6 14 12 27 18 41c5 12 22 14 32 8zM164 617c-14 0 -25 12 -25 25c0 14 11 26 25 26s25 -12 25 -26c0 -13 -11 -25 -25 -25zM354 617c-14 0 -25 12 -25 25c0 14 11 26 25 26s25 -12 25 -26c0 -13 -11 -25 -25 -25z
" />
    <glyph glyph-name="acircumflex" unicode="&#xe2;" horiz-adv-x="577" 
d="M533 154c11 -40 22 -81 33 -121c3 -13 -4 -26 -17 -29c-12 -4 -25 4 -28 16c-8 29 -16 57 -24 86c-2 7 -3 14 -5 21c-20 -38 -50 -71 -87 -94c-71 -43 -164 -45 -236 -3c-72 41 -118 118 -119 201c0 82 44 161 115 203c72 42 164 43 236 1c33 -19 60 -46 80 -77v83
c0 12 11 23 24 23s23 -11 23 -23v-24v-150v-97c2 -5 3 -11 5 -16zM469 208c1 8 2 17 2 25s-1 16 -2 25c-2 14 -5 28 -10 42c-1 2 -2 3 -2 5c-1 1 -2 3 -2 4l-6 12c-4 8 -9 16 -15 23c0 1 -1 2 -2 3c-1 2 -2 3 -4 5c-2 3 -5 6 -8 10c-7 6 -13 12 -21 18c0 1 -1 1 -1 1
c0 1 -1 1 -1 1c-2 1 -3 3 -5 4c-4 2 -8 5 -11 7c-8 5 -16 9 -24 12c-1 0 -1 1 -1 1c-1 0 -2 0 -3 1c-2 1 -4 1 -6 2c-4 2 -9 3 -13 4c-8 2 -16 4 -25 5c-16 2 -33 2 -50 0c-14 -2 -28 -5 -42 -10c-2 -1 -3 -2 -5 -2c-1 -1 -3 -2 -4 -2l-12 -6c-8 -4 -16 -9 -23 -15
c-1 0 -2 -1 -3 -2c-2 -1 -3 -2 -5 -4c-3 -2 -6 -5 -10 -8l-18 -21c-1 0 -1 -1 -1 -1c-1 0 -1 -1 -1 -1c-1 -2 -3 -4 -4 -5c-2 -4 -5 -8 -7 -11c-5 -8 -9 -16 -12 -25h-1c0 -1 0 -2 -1 -3c-1 -2 -1 -4 -2 -6c-2 -5 -3 -9 -4 -13c-2 -8 -4 -16 -5 -25c-2 -16 -2 -33 0 -50
c2 -14 5 -28 10 -42c1 -2 2 -3 2 -5c1 -1 2 -3 2 -4l6 -12c4 -8 9 -16 15 -23c0 -1 1 -2 2 -3c1 -2 2 -3 4 -5c2 -3 5 -6 8 -10c7 -6 13 -13 21 -18c0 -1 1 -1 1 -1c0 -1 1 -1 1 -1c2 -1 3 -3 5 -4c4 -2 8 -5 11 -7c8 -5 16 -9 24 -13h1c1 0 2 0 3 -1c2 -1 4 -1 6 -2
c4 -2 9 -3 13 -4c8 -2 16 -4 25 -5c16 -2 33 -2 50 0c14 2 28 5 42 10c2 1 3 2 5 2c1 1 3 2 4 2l12 6c8 4 16 9 23 15c1 0 2 1 3 2c2 1 3 2 5 4c3 2 6 5 10 8c6 7 13 13 18 21c1 0 1 1 1 1c1 0 1 1 1 1c1 2 3 3 4 5c2 4 5 8 7 11c5 8 9 16 12 24l1 1c0 1 0 2 1 3
c1 2 1 4 2 6c2 4 3 9 4 13c2 8 4 16 5 25zM209 587c-9 -9 -24 -9 -33 0s-9 24 0 33c8 8 16 15 25 23c30 29 61 58 91 86c5 5 11 7 16 7c6 0 12 -2 17 -7c8 -8 17 -15 25 -23c30 -29 61 -57 91 -86c9 -9 9 -24 0 -33s-24 -9 -33 0c-8 8 -16 15 -25 23c-25 24 -50 47 -75 71
c-2 -3 -5 -6 -8 -8c-30 -29 -61 -57 -91 -86z" />
    <glyph glyph-name="aacute" unicode="&#xe1;" horiz-adv-x="577" 
d="M532 154c11 -40 22 -81 34 -121c3 -13 -5 -26 -17 -29c-12 -4 -25 4 -29 16c-7 29 -15 57 -23 86l-6 21c-19 -38 -49 -71 -86 -94c-72 -43 -164 -45 -237 -3c-71 41 -117 118 -118 201c0 82 44 161 115 203s164 43 236 1c32 -19 60 -46 80 -77v83c0 12 11 23 24 23
c12 0 23 -11 23 -23v-24v-150v-97c1 -5 3 -11 4 -16zM469 208c1 8 2 17 2 25s-1 16 -2 25c-2 14 -5 28 -11 42c0 2 -1 3 -1 5c-1 1 -2 3 -2 4l-6 12c-5 8 -9 16 -15 23c-1 1 -1 2 -2 3c-1 2 -3 3 -4 5c-3 3 -6 6 -9 10c-6 6 -13 12 -20 18c0 1 -1 1 -1 1l-1 1
c-2 1 -4 3 -5 4c-4 2 -8 5 -12 7c-7 5 -15 9 -24 12v1c-1 0 -2 0 -3 1c-2 1 -4 1 -6 2c-5 2 -9 3 -13 4c-8 2 -17 4 -25 5c-17 2 -33 2 -50 0c-14 -2 -29 -5 -42 -10c-2 -1 -3 -2 -5 -2c-1 -1 -3 -2 -4 -2l-12 -6c-8 -4 -16 -9 -23 -15c-1 0 -2 -1 -3 -2c-2 -1 -3 -2 -5 -4
c-3 -2 -7 -5 -10 -8c-6 -7 -13 -14 -18 -21c-1 0 -1 -1 -2 -1v-1c-1 -2 -3 -4 -4 -5c-3 -4 -5 -8 -7 -11c-5 -8 -9 -16 -13 -25v0c0 -1 -1 -2 -1 -3c-1 -2 -2 -4 -2 -6c-2 -5 -3 -9 -4 -13c-3 -8 -4 -16 -6 -25c-2 -16 -2 -33 0 -50c3 -14 6 -28 11 -42c1 -2 1 -3 2 -5
c1 -1 1 -3 2 -4l6 -12c4 -8 9 -16 15 -23c0 -1 1 -2 2 -3c1 -2 2 -3 3 -5c3 -3 6 -6 9 -10c7 -6 13 -13 20 -18c1 -1 1 -1 2 -1c0 -1 0 -1 1 -1c1 -1 3 -3 5 -4c4 -2 7 -5 11 -7c8 -5 16 -9 24 -13h1s2 0 3 -1c2 -1 4 -1 6 -2c4 -2 9 -3 13 -4c8 -2 16 -4 25 -5
c16 -2 33 -2 49 0c15 2 29 5 43 10c1 1 3 2 5 2c1 1 3 2 4 2l12 6c8 4 16 9 23 15c1 0 2 1 3 2c2 1 3 2 5 4c3 2 6 5 9 8c7 7 13 13 19 21l1 1l1 1c1 2 2 3 4 5c2 4 5 8 7 11c4 8 9 16 12 24v1c1 1 1 2 2 3c0 2 1 4 2 6c1 4 3 9 4 13c2 8 4 16 5 25zM297 581
c-6 3 -10 8 -11 14c-2 6 0 12 2 18c1 0 1 1 1 2c16 36 32 73 48 109c5 12 22 15 32 9c5 -3 9 -8 11 -14c2 -7 0 -12 -3 -18v-2c-16 -37 -32 -73 -48 -110c-6 -12 -22 -14 -32 -8z" />
    <glyph glyph-name="agrave" unicode="&#xe0;" horiz-adv-x="577" 
d="M533 154c11 -40 22 -81 33 -121c3 -13 -4 -26 -16 -29c-13 -4 -26 4 -29 16c-8 29 -16 57 -23 86l-6 21c-20 -38 -49 -71 -87 -94c-71 -43 -163 -45 -236 -3c-72 41 -118 118 -118 201c-1 82 43 161 114 203c72 42 164 43 236 1c33 -19 61 -46 81 -77v83
c0 12 10 23 23 23s23 -11 23 -23v-24v-150v-97c2 -5 3 -11 5 -16zM470 208c1 8 1 17 1 25s0 16 -1 25c-2 14 -6 28 -11 42c-1 2 -1 3 -2 5c-1 1 -1 3 -2 4l-6 12c-4 8 -9 16 -14 23l-3 3c-1 2 -2 3 -3 5c-3 3 -6 6 -9 10c-7 6 -13 12 -20 18c-1 1 -1 1 -2 1c0 1 0 1 -1 1
c-1 1 -3 3 -5 4c-4 2 -7 5 -11 7c-8 5 -16 9 -24 12v1c-2 0 -3 0 -4 1c-2 1 -4 1 -6 2c-4 2 -9 3 -13 4c-8 2 -16 4 -25 5c-16 2 -33 2 -49 0c-15 -2 -29 -5 -43 -10c-1 -1 -3 -2 -5 -2c-1 -1 -3 -2 -4 -2l-12 -6c-8 -4 -16 -9 -23 -15c-1 0 -2 -1 -3 -2c-2 -1 -3 -2 -5 -4
c-3 -2 -6 -5 -9 -8c-7 -7 -13 -14 -19 -21l-1 -1l-1 -1c-1 -2 -2 -4 -4 -5c-2 -4 -5 -8 -7 -11c-4 -8 -9 -16 -12 -25v0c-1 -1 -1 -2 -2 -3c0 -2 -1 -4 -2 -6c-1 -5 -3 -9 -4 -13c-2 -8 -4 -16 -5 -25c-2 -16 -2 -33 0 -50c2 -14 5 -28 11 -42c0 -2 1 -3 2 -5
c0 -1 1 -3 1 -4l6 -12c5 -8 10 -16 15 -23c1 -1 1 -2 2 -3c1 -2 3 -3 4 -5c3 -3 6 -6 9 -10c6 -6 13 -13 20 -18c0 -1 1 -1 1 -1l1 -1c2 -1 4 -3 6 -4c3 -2 7 -5 11 -7c7 -5 15 -9 24 -13v0c1 0 2 0 3 -1c2 -1 4 -1 6 -2c5 -2 9 -3 13 -4c8 -2 17 -4 25 -5c17 -2 33 -2 50 0
c14 2 29 5 42 10c2 1 4 2 5 2c1 1 3 2 4 2l12 6c8 4 16 9 24 15c1 0 2 1 3 2s3 2 4 4c3 2 7 5 10 8c6 7 13 13 18 21c1 0 1 1 2 1v1c2 2 3 3 4 5c3 4 5 8 7 11c5 8 9 16 13 24v1c0 1 1 2 1 3c1 2 2 4 2 6c2 4 3 9 4 13c3 8 4 16 6 25zM247 591c-16 37 -32 73 -48 110
c-3 6 -4 11 -2 18c1 6 5 11 10 14c10 6 27 3 32 -9c1 0 1 -1 1 -2c16 -36 32 -73 48 -109c3 -6 4 -12 3 -18c-2 -6 -6 -11 -11 -14c-10 -6 -27 -4 -32 8c0 1 -1 1 -1 2z" />
    <glyph glyph-name="atilde" unicode="&#xe3;" horiz-adv-x="578" 
d="M566 33c4 -13 -4 -26 -16 -29c-12 -4 -25 4 -29 16c-7 29 -15 57 -23 86l-6 21c-19 -38 -49 -71 -86 -94c-72 -43 -164 -45 -237 -3c-71 41 -117 118 -118 201c-1 82 43 161 114 203c72 42 165 43 237 1c32 -19 60 -46 80 -77v83c0 12 11 23 23 23c13 0 24 -11 24 -23
v-24v-150v-97c1 -5 3 -11 4 -16c11 -40 22 -81 33 -121zM470 208c1 8 2 17 2 25s-1 16 -2 25c-2 14 -6 28 -11 42c0 2 -1 3 -2 5c0 1 -1 3 -1 4l-6 12c-5 8 -10 16 -15 23c-1 1 -2 2 -2 3c-1 2 -3 3 -4 5c-3 3 -6 6 -9 10c-6 6 -13 12 -20 18c0 1 -1 1 -2 1v1
c-2 1 -4 3 -6 4c-3 2 -7 5 -11 7c-8 5 -16 9 -24 12v1c-1 0 -2 0 -3 1c-2 1 -4 1 -7 2c-4 2 -8 3 -12 4c-9 2 -17 4 -25 5c-17 2 -33 2 -50 0c-14 -2 -29 -5 -42 -10c-2 -1 -4 -2 -5 -2c-2 -1 -3 -2 -4 -2l-12 -6c-8 -4 -16 -9 -24 -15c-1 0 -2 -1 -3 -2s-3 -2 -4 -4
c-3 -2 -7 -5 -10 -8c-7 -7 -13 -14 -19 -21c0 0 0 -1 -1 -1v-1c-2 -2 -3 -4 -4 -5c-3 -4 -5 -8 -7 -11c-5 -8 -9 -16 -13 -25v0c0 -1 -1 -2 -1 -3c-1 -2 -2 -4 -2 -6c-2 -5 -3 -9 -5 -13c-2 -8 -3 -16 -5 -25c-2 -16 -2 -33 0 -50c2 -14 6 -28 11 -42c1 -2 1 -3 2 -5
c0 -1 1 -3 2 -4l6 -12c4 -8 9 -16 14 -23l3 -3c1 -2 2 -3 3 -5c3 -3 6 -6 9 -10c6 -6 13 -13 20 -18c1 -1 1 -1 2 -1c0 -1 0 -1 1 -1c1 -1 3 -3 5 -4c4 -2 7 -5 11 -7c8 -5 16 -9 24 -13v0c1 0 2 0 4 -1s4 -1 6 -2c4 -2 8 -3 13 -4c8 -2 16 -4 24 -5c17 -2 34 -2 50 0
c15 2 29 5 43 10c1 1 3 2 5 2c1 1 3 2 4 2l12 6c8 4 15 9 23 15c1 0 2 1 3 2s3 2 4 4c4 2 7 5 10 8c7 7 13 13 19 21l1 1s0 1 1 1c1 2 2 3 3 5c3 4 5 8 8 11c4 8 9 16 12 24v1c1 1 1 2 1 3l3 6c1 4 3 9 4 13c2 8 4 16 5 25zM158 597c-12 0 -23 10 -23 23c0 25 9 51 27 68
c31 31 82 31 116 5c14 -10 26 -23 39 -34c2 -2 4 -3 5 -4c0 -1 0 -1 1 -1l9 -6c1 0 3 -1 4 -2h1c3 -1 6 -2 8 -2c4 -1 7 -1 11 0c3 0 5 1 8 2c1 0 2 0 3 1c1 0 2 1 3 1c2 1 5 3 7 4l2 2l3 3c2 1 3 2 4 4v1c2 2 4 5 5 8c0 0 0 1 1 1c0 1 1 3 1 5c1 2 1 4 2 7v6
c0 12 11 23 23 23c13 0 24 -10 24 -23c0 -25 -10 -50 -29 -67c-17 -16 -40 -26 -64 -25c-19 0 -37 7 -52 19c-14 10 -26 23 -39 34c-1 1 -3 2 -4 3l-2 2c-3 2 -6 4 -9 5c-1 1 -2 1 -3 2c-1 0 -3 1 -4 1c-2 1 -5 2 -7 2h-13c-3 0 -5 -1 -8 -2c-1 0 -2 -1 -3 -1s-1 -1 -2 -1
c-1 -1 -3 -2 -4 -3h-1l-6 -6l-1 -1c0 -1 -1 -2 -2 -3l-3 -6c0 -1 -1 -2 -1 -2c-1 -2 -1 -4 -1 -5c-1 -3 -1 -5 -2 -7v-8c0 -13 -11 -23 -24 -23zM321 656v0c-1 0 0 0 0 0z" />
    <glyph glyph-name="adieresis" unicode="&#xe4;" horiz-adv-x="577" 
d="M533 154c11 -40 22 -81 33 -121c3 -13 -4 -26 -16 -29c-13 -4 -26 4 -29 16c-8 29 -16 57 -23 86l-6 21c-20 -38 -49 -71 -87 -94c-71 -43 -163 -45 -236 -3c-72 41 -118 118 -118 201c-1 82 43 161 114 203c72 42 164 43 236 1c33 -19 61 -46 81 -77v83
c0 12 10 23 23 23s23 -11 23 -23v-24v-150v-97c2 -5 3 -11 5 -16zM470 208c1 8 1 17 1 25s0 16 -1 25c-2 14 -6 28 -11 42c-1 2 -1 3 -2 5c-1 1 -1 3 -2 4l-6 12c-4 8 -9 16 -14 23l-3 3c-1 2 -2 3 -3 5c-3 3 -6 6 -9 10c-7 6 -13 12 -20 18c-1 1 -1 1 -2 1c0 1 0 1 -1 1
c-1 1 -3 3 -5 4c-4 2 -7 5 -11 7c-8 5 -16 9 -24 12v1c-2 0 -3 0 -4 1c-2 1 -4 1 -6 2c-4 2 -9 3 -13 4c-8 2 -16 4 -25 5c-16 2 -33 2 -49 0c-15 -2 -29 -5 -43 -10c-1 -1 -3 -2 -5 -2c-1 -1 -3 -2 -4 -2l-12 -6c-8 -4 -16 -9 -23 -15c-1 0 -2 -1 -3 -2c-2 -1 -3 -2 -5 -4
c-3 -2 -6 -5 -9 -8c-7 -7 -13 -14 -19 -21l-1 -1l-1 -1c-1 -2 -2 -4 -4 -5c-2 -4 -5 -8 -7 -11c-4 -8 -9 -16 -12 -25v0c-1 -1 -1 -2 -2 -3c0 -2 -1 -4 -2 -6c-1 -5 -3 -9 -4 -13c-2 -8 -4 -16 -5 -25c-2 -16 -2 -33 0 -50c2 -14 5 -28 11 -42c0 -2 1 -3 2 -5
c0 -1 1 -3 1 -4l6 -12c5 -8 10 -16 15 -23c1 -1 1 -2 2 -3c1 -2 3 -3 4 -5c3 -3 6 -6 9 -10c6 -6 13 -13 20 -18c0 -1 1 -1 1 -1l1 -1c2 -1 4 -3 6 -4c3 -2 7 -5 11 -7c7 -5 15 -9 24 -13v0c1 0 2 0 3 -1c2 -1 4 -1 6 -2c5 -2 9 -3 13 -4c8 -2 17 -4 25 -5c17 -2 33 -2 50 0
c14 2 29 5 42 10c2 1 4 2 5 2c1 1 3 2 4 2l12 6c8 4 16 9 24 15c1 0 2 1 3 2s3 2 4 4c3 2 7 5 10 8c6 7 13 13 18 21c1 0 1 1 2 1v1c2 2 3 3 4 5c3 4 5 8 7 11c5 8 9 16 13 24v1c0 1 1 2 1 3c1 2 2 4 2 6c2 4 3 9 4 13c3 8 4 16 6 25zM199 635c-13 0 -23 10 -23 23
s10 23 23 23s23 -10 23 -23s-10 -23 -23 -23zM388 635c-13 0 -23 10 -23 23s10 23 23 23s24 -10 24 -23s-11 -23 -24 -23z" />
    <glyph glyph-name="aring" unicode="&#xe5;" horiz-adv-x="577" 
d="M532 154c11 -40 22 -81 33 -121c4 -13 -4 -26 -16 -29c-12 -4 -25 4 -29 16c-7 29 -15 57 -23 86l-6 21c-19 -38 -49 -71 -86 -94c-72 -43 -164 -45 -237 -3c-71 41 -117 118 -118 201c0 82 44 161 115 203s164 43 236 1c32 -19 60 -46 80 -77v83c0 12 11 23 24 23
c12 0 23 -11 23 -23v-24v-150v-97c1 -5 3 -11 4 -16zM469 208c1 8 2 17 2 25s-1 16 -2 25c-2 14 -5 28 -11 42c0 2 -1 3 -2 5c0 1 -1 3 -1 4l-6 12c-5 8 -10 16 -15 23c-1 1 -1 2 -2 3c-1 2 -3 3 -4 5c-3 3 -6 6 -9 10c-6 6 -13 12 -20 18c0 1 -1 1 -1 1l-1 1
c-2 1 -4 3 -6 4c-3 2 -7 5 -11 7c-7 5 -15 9 -24 12v1c-1 0 -2 0 -3 1c-2 1 -4 1 -6 2c-5 2 -9 3 -13 4c-8 2 -17 4 -25 5c-17 2 -33 2 -50 0c-14 -2 -29 -5 -42 -10c-2 -1 -4 -2 -5 -2c-1 -1 -3 -2 -4 -2l-12 -6c-8 -4 -16 -9 -24 -15c-1 0 -2 -1 -3 -2s-3 -2 -4 -4
c-3 -2 -7 -5 -10 -8c-6 -7 -13 -14 -18 -21c-1 0 -1 -1 -2 -1v-1c-2 -2 -3 -4 -4 -5c-3 -4 -5 -8 -7 -11c-5 -8 -9 -16 -13 -25v0c0 -1 -1 -2 -1 -3c-1 -2 -2 -4 -2 -6c-2 -5 -3 -9 -4 -13c-3 -8 -4 -16 -6 -25c-2 -16 -2 -33 0 -50c2 -14 6 -28 11 -42c1 -2 1 -3 2 -5
c1 -1 1 -3 2 -4l6 -12c4 -8 9 -16 14 -23l3 -3c1 -2 2 -3 3 -5c3 -3 6 -6 9 -10c7 -6 13 -13 20 -18c1 -1 1 -1 2 -1c0 -1 0 -1 1 -1c1 -1 3 -3 5 -4c4 -2 7 -5 11 -7c8 -5 16 -9 24 -13h1s2 0 3 -1c2 -1 4 -1 6 -2c4 -2 9 -3 13 -4c8 -2 16 -4 25 -5c16 -2 33 -2 49 0
c15 2 29 5 43 10c1 1 3 2 5 2c1 1 3 2 4 2l12 6c8 4 16 9 23 15c1 0 2 1 3 2c2 1 3 2 5 4c3 2 6 5 9 8c7 7 13 13 19 21l1 1l1 1c1 2 2 3 4 5c2 4 5 8 7 11c4 8 9 16 12 24v1c1 1 1 2 2 3c0 2 1 4 2 6c1 4 3 9 4 13c2 8 4 16 5 25zM254 581c-20 13 -35 32 -42 55
c-6 21 -6 45 3 66c8 21 24 40 44 52c22 11 46 15 70 10c46 -10 79 -52 80 -98v-2c-1 -25 -11 -50 -29 -69c-32 -33 -87 -40 -126 -14zM286 616v0c-2 1 -1 1 0 0zM357 643v0v0zM331 715v0c1 -1 1 -1 0 0zM259 688v0c1 1 0 1 0 0zM258 686c0 -1 -1 -3 -1 -5c-1 -3 -2 -5 -2 -8
c-1 -5 -1 -10 0 -15c0 -3 1 -6 2 -9c0 -1 1 -3 1 -4c1 -1 1 -2 2 -3c1 -3 3 -6 5 -9c1 -1 1 -1 1 -2c2 -1 3 -2 4 -4c2 -1 3 -3 5 -4v0v0c4 -3 7 -5 11 -7h1v0c2 -1 4 -2 6 -2c2 -1 5 -1 8 -2h15c3 1 6 1 9 2c1 1 2 1 4 2c1 0 2 1 3 1l9 6c1 0 1 0 1 1c2 1 3 2 4 3
c2 2 3 4 5 5v1v0c3 3 5 7 6 10c1 1 1 1 1 2v0c1 2 1 3 2 5c1 3 1 6 2 8v8v7c-1 3 -1 6 -2 9c-1 1 -1 3 -2 4c0 1 -1 2 -1 3c-2 3 -4 6 -6 10c0 0 -1 0 -1 1l-4 4c-1 1 -3 3 -5 4v0v0c-3 3 -7 5 -10 7h-2v0c-2 1 -4 2 -5 2c-3 1 -6 2 -8 2c-5 1 -10 1 -15 0c-3 0 -6 -1 -9 -2
c-2 -1 -3 -1 -4 -1c-1 -1 -2 -1 -3 -2c-3 -2 -7 -3 -10 -6l-1 -1s-3 -2 -4 -3c-1 -2 -3 -4 -4 -5h-1v-1c-2 -3 -4 -6 -6 -10c0 -1 0 -1 -1 -1v-1z" />
    <glyph glyph-name="ccedilla" unicode="&#xe7;" horiz-adv-x="479" 
d="M98 263c-1 -8 -1 -17 -1 -25v-2v-2c0 -8 0 -16 1 -25c2 -13 5 -27 10 -40c1 -2 2 -5 3 -7c0 -1 1 -1 1 -2l6 -12c4 -8 9 -16 14 -24c1 -1 4 -5 4 -5l2 -2c3 -4 6 -7 9 -10c6 -7 13 -13 20 -19c1 0 1 -1 2 -2v0c2 -1 4 -2 6 -4c3 -2 7 -4 11 -7c8 -5 16 -9 24 -13
c1 0 2 0 3 -1c2 0 4 -1 7 -2c4 -2 8 -3 13 -4c8 -2 16 -4 25 -5c16 -2 33 -2 49 0c13 1 25 4 37 8c3 1 6 3 9 4c1 0 2 1 3 1s2 1 2 1c6 3 12 6 17 9c6 3 12 7 17 11c2 1 3 2 4 3h1l6 6c10 8 19 17 26 27c8 10 25 8 34 0c4 -4 6 -10 6 -17c0 -6 -2 -11 -6 -16
c-14 -17 -29 -31 -46 -43c-29 -21 -62 -34 -97 -39c-1 -4 -2 -7 -3 -10c-11 -32 -23 -63 -34 -95c14 -5 26 -12 36 -22c17 -18 27 -42 27 -67v0v-1c0 -18 -5 -37 -16 -52c-11 -16 -26 -28 -44 -36c-36 -15 -81 -3 -106 27c-4 5 -7 10 -7 17c0 6 3 12 7 16c8 9 25 10 33 0
c3 -3 6 -6 10 -9v0c0 -1 1 -1 1 -1c2 -1 3 -3 5 -4c1 0 2 -1 4 -1c1 -1 3 -1 3 -2c3 -1 6 -1 10 -2h12c3 1 6 1 8 2c2 0 3 1 4 1c1 1 1 1 2 1c3 2 6 3 9 5c0 1 0 1 1 1c1 1 2 3 4 4c1 1 2 3 3 4h1v1c2 3 4 6 5 9c0 0 1 0 1 1s1 3 1 5c1 2 1 4 2 7v6v1v0v7c-1 2 -1 5 -2 8
c0 1 -1 2 -1 4c-1 0 -1 1 -1 1l-6 9v1c-1 2 -3 3 -4 4l-4 4v0h-1l-9 6h-1c-1 1 -3 1 -5 2c-2 0 -4 1 -7 1c-2 1 -4 1 -6 1c-14 0 -28 15 -23 29c2 6 4 11 6 17c12 32 23 65 35 97c-36 2 -71 12 -103 30c-35 20 -65 49 -85 84c-21 35 -32 76 -32 118v2v2c0 19 2 39 7 58
c20 79 83 144 162 166c43 12 90 12 132 -2c44 -13 83 -39 112 -75c4 -5 6 -10 6 -16c0 -7 -2 -13 -6 -17c-9 -8 -26 -10 -34 0s-17 20 -27 28c-2 2 -4 4 -6 5l-2 2s-2 2 -4 2c-5 4 -10 8 -16 11l-18 9h-1c-1 1 -3 1 -4 2l-9 3c-11 4 -23 6 -35 8c-16 2 -33 2 -49 0
c-14 -2 -27 -5 -41 -10c-2 -1 -4 -2 -7 -3h-1c-5 -2 -9 -4 -13 -6c-8 -5 -16 -10 -23 -15c-1 -1 -5 -4 -5 -4c-1 0 -2 -1 -3 -2c-3 -3 -6 -5 -10 -8c-6 -7 -13 -14 -18 -21c-1 0 -1 -1 -2 -2v0c-1 -2 -3 -4 -4 -5c-3 -4 -5 -8 -7 -11c-5 -8 -9 -16 -13 -25c0 -1 -1 -2 -1 -3
c-1 -2 -2 -4 -2 -6c-2 -5 -3 -9 -5 -13c-2 -8 -4 -17 -5 -25zM210 409c-1 0 -5 -2 0 0v0zM223 -228v0c1 -1 4 -2 0 0zM111 162c1 -2 2 -5 0 0v0z" />
    <glyph glyph-name="eacute" unicode="&#xe9;" horiz-adv-x="495" 
d="M381 451c41 -18 75 -49 100 -86c4 -5 4 -12 3 -18c-2 -6 -6 -10 -11 -14c-10 -7 -19 -14 -29 -21c-38 -28 -77 -56 -115 -84c-43 -32 -85 -63 -128 -95c-15 -11 -31 -22 -46 -33c4 -5 9 -9 14 -13c1 0 1 0 1 -1c0 0 1 -1 2 -1c2 -1 3 -3 5 -4c4 -2 8 -5 11 -7
c7 -4 15 -8 22 -11c2 -1 5 -2 6 -3c2 -1 4 -1 6 -2c4 -1 9 -3 13 -4c8 -2 16 -4 25 -5c8 -1 17 -2 25 -2h4h4c8 0 17 1 25 2c11 1 22 4 32 7c5 2 11 4 16 6c1 0 2 1 3 1c3 1 5 2 7 4c10 5 20 10 28 17c2 1 3 1 4 2c2 2 4 4 6 5c4 4 8 7 12 11c9 9 24 9 33 0s9 -24 0 -33
c-44 -44 -104 -68 -166 -69c-1 0 -3 1 -4 1s-3 -1 -4 -1c-69 1 -138 32 -181 86c-26 32 -44 69 -51 110c-6 41 -3 84 12 123c15 38 38 72 70 98c31 25 69 44 109 50c22 4 44 5 66 3c25 -3 48 -9 71 -19zM261 235c42 31 85 63 128 94c13 10 26 20 39 29c-4 5 -8 9 -12 13
c-5 5 -10 9 -15 14c-1 0 -2 1 -3 2s-3 2 -4 3c-3 1 -5 3 -8 5c-7 4 -13 8 -20 11c-2 1 -4 2 -5 3c-1 0 -2 0 -3 1c-2 1 -5 2 -7 2c-13 5 -27 9 -41 11c-17 2 -33 2 -50 0c-15 -3 -30 -6 -44 -12c-1 0 -6 -2 -6 -2c-1 -1 -2 -1 -3 -2c-4 -1 -8 -3 -12 -6
c-8 -4 -16 -9 -23 -15c-1 0 -2 -1 -2 -1h-1c-1 -2 -3 -3 -5 -4l-9 -9c-7 -7 -13 -13 -19 -21v0l-2 -2c-1 -2 -2 -4 -4 -5c-2 -4 -4 -8 -7 -12c-4 -7 -8 -14 -11 -22c-1 -1 -2 -4 -2 -5l-3 -6c-1 -5 -3 -9 -4 -13c-2 -8 -4 -17 -5 -25c-2 -17 -2 -33 0 -50
c2 -15 6 -30 12 -44c0 -2 2 -6 2 -6c0 -1 1 -2 1 -3l6 -12s4 -7 6 -10l21 15c38 28 76 56 115 84zM281 569c-5 3 -9 8 -10 14c-2 6 -1 12 2 18c0 0 0 1 1 1c16 37 32 73 47 110c6 11 23 14 33 8c5 -3 9 -8 10 -14c2 -7 1 -12 -2 -18c0 -1 -1 -1 -1 -2
c-16 -36 -32 -73 -48 -109c-5 -12 -22 -14 -32 -8z" />
    <glyph glyph-name="egrave" unicode="&#xe8;" horiz-adv-x="496" 
d="M482 365c4 -5 4 -12 3 -18c-2 -6 -6 -10 -11 -14c-10 -7 -20 -14 -29 -21c-39 -28 -77 -56 -115 -84c-43 -32 -86 -63 -128 -95c-16 -11 -31 -22 -46 -33c4 -5 9 -9 14 -13v-1c1 0 2 -1 3 -1c1 -1 3 -3 5 -4c4 -2 7 -5 11 -7c7 -4 15 -8 22 -11c1 -1 5 -2 6 -3
c2 -1 4 -1 6 -2c4 -1 9 -3 13 -4c8 -2 16 -4 24 -5c9 -1 17 -2 26 -2h4h4c8 0 17 1 25 2c11 1 21 4 32 7c5 2 11 4 16 6c1 0 2 1 3 1c2 1 5 2 7 4c10 5 19 10 28 17c1 1 3 1 4 2c2 2 4 4 6 5c4 4 8 7 11 11c9 9 24 9 33 0s10 -24 0 -33c-44 -44 -103 -68 -165 -69
c-2 0 -3 1 -4 1c-2 0 -3 -1 -4 -1c-69 1 -138 32 -182 86c-25 32 -44 69 -50 110s-4 84 12 123c15 38 38 72 69 98c32 25 69 44 110 50c22 4 44 5 66 3c25 -3 48 -9 71 -19c41 -18 75 -49 100 -86zM261 235c43 31 86 63 128 94c14 10 27 20 40 29c-4 5 -8 9 -12 13
c-5 5 -10 9 -16 14c0 0 -2 1 -2 2c-1 1 -3 2 -4 3c-3 1 -6 3 -8 5c-7 4 -13 8 -20 11l-6 3c0 0 -2 0 -2 1c-3 1 -5 2 -7 2c-14 5 -27 9 -41 11c-17 2 -33 2 -50 0c-15 -3 -30 -6 -44 -12c-2 0 -6 -2 -6 -2c-1 -1 -2 -1 -3 -2c-4 -1 -8 -3 -12 -6c-8 -4 -16 -9 -23 -15
c-1 0 -2 -1 -3 -1v0c-1 -2 -3 -3 -5 -4c-3 -3 -7 -6 -10 -9c-6 -7 -13 -13 -18 -21v0l-2 -2c-1 -2 -3 -4 -4 -5c-2 -4 -5 -8 -7 -12c-4 -7 -8 -14 -11 -22c-1 -1 -2 -4 -3 -5c0 -2 -1 -4 -2 -6c-1 -5 -3 -9 -4 -13c-2 -8 -4 -17 -5 -25c-2 -17 -2 -33 0 -50
c2 -15 6 -30 11 -44l3 -6c0 -1 1 -2 1 -3l6 -12s4 -7 6 -10l21 15zM247 579c-16 36 -32 73 -48 109c-2 6 -4 11 -2 18c1 6 5 11 11 14c10 6 27 3 32 -8v-2c16 -37 32 -73 48 -109c3 -6 4 -12 3 -18c-2 -6 -6 -11 -11 -14c-10 -6 -27 -4 -32 8c-1 1 -1 1 -1 2z" />
    <glyph glyph-name="ecircumflex" unicode="&#xea;" horiz-adv-x="496" 
d="M382 451c41 -18 75 -49 100 -86c4 -5 4 -12 3 -18c-2 -6 -6 -10 -11 -14c-10 -7 -20 -14 -29 -21c-39 -28 -77 -56 -115 -84c-43 -32 -86 -63 -128 -95c-16 -11 -31 -22 -46 -33c4 -5 9 -9 14 -13v-1c1 0 2 -1 3 -1c1 -1 3 -3 5 -4c4 -2 7 -5 11 -7c7 -4 15 -8 22 -11
c1 -1 5 -2 6 -3c2 -1 4 -1 6 -2c4 -1 9 -3 13 -4c8 -2 16 -4 24 -5c9 -1 17 -2 26 -2h4h4c8 0 17 1 25 2c11 1 21 4 32 7c5 2 11 4 16 6c1 0 2 1 3 1c2 1 5 2 7 4c10 5 19 10 28 17c1 1 3 1 4 2c2 2 4 4 6 5c4 4 8 7 11 11c9 9 24 9 33 0s10 -24 0 -33
c-44 -44 -103 -68 -165 -69c-2 0 -3 1 -4 1c-2 0 -3 -1 -4 -1c-69 1 -138 32 -182 86c-25 32 -44 69 -50 110s-4 84 12 123c15 38 38 72 69 98c32 25 69 44 110 50c22 4 44 5 66 3c25 -3 48 -9 71 -19zM261 235c43 31 86 63 128 94c14 10 27 20 40 29c-4 5 -8 9 -12 13
c-5 5 -10 9 -16 14c0 0 -2 1 -2 2c-1 1 -3 2 -4 3c-3 1 -6 3 -8 5c-7 4 -13 8 -20 11l-6 3c0 0 -2 0 -2 1c-3 1 -5 2 -7 2c-13 5 -27 9 -41 11c-17 2 -33 2 -50 0c-15 -3 -30 -6 -44 -12c-2 0 -6 -2 -6 -2c-1 -1 -2 -1 -3 -2c-4 -1 -8 -3 -12 -6c-8 -4 -16 -9 -23 -15
c-1 0 -2 -1 -3 -1v0c-1 -2 -3 -3 -5 -4c-3 -3 -7 -6 -10 -9c-6 -7 -13 -13 -18 -21v0l-2 -2c-1 -2 -3 -4 -4 -5c-2 -4 -5 -8 -7 -12c-4 -7 -8 -14 -11 -22c-1 -1 -2 -4 -3 -5c0 -2 -1 -4 -2 -6c-1 -5 -3 -9 -4 -13c-2 -8 -4 -17 -5 -25c-2 -17 -2 -33 0 -50
c2 -15 6 -30 11 -44l3 -6c0 -1 1 -2 1 -3l6 -12s4 -7 6 -10l21 15zM168 572c-9 -8 -24 -9 -33 0s-9 25 0 33c9 9 17 17 26 25c31 29 61 58 92 86c4 5 10 7 16 7s12 -2 17 -7c8 -8 17 -16 26 -24c30 -29 61 -58 91 -87c10 -8 9 -24 0 -33s-23 -8 -33 0c-8 9 -17 17 -26 25
c-25 24 -50 47 -75 71l-10 -10c-30 -28 -61 -57 -91 -86z" />
    <glyph glyph-name="edieresis" unicode="&#xeb;" horiz-adv-x="496" 
d="M381 451c41 -18 76 -49 101 -86c3 -5 4 -12 2 -18c-1 -6 -5 -10 -10 -14l-30 -21l-114 -84c-43 -32 -86 -63 -129 -95c-15 -11 -30 -22 -46 -33c5 -5 10 -9 15 -13v-1c1 0 2 -1 2 -1c2 -1 4 -3 6 -4c3 -2 7 -5 11 -7c7 -4 14 -8 22 -11c1 -1 4 -2 5 -3c2 -1 5 -1 7 -2
c4 -1 8 -3 13 -4c8 -2 16 -4 24 -5c9 -1 17 -2 26 -2h3h4c9 0 17 1 26 2c10 1 21 4 32 7c5 2 10 4 16 6c1 0 2 1 3 1c2 1 5 2 7 4c10 5 19 10 28 17c1 1 2 1 4 2c2 2 4 4 6 5l11 11c9 9 24 9 33 0s9 -24 0 -33c-44 -44 -104 -68 -166 -69c-1 0 -2 1 -4 1c-1 0 -2 -1 -3 -1
c-70 1 -138 32 -182 86c-25 32 -44 69 -50 110c-7 41 -4 84 12 123c15 38 38 72 69 98c32 25 69 44 109 50c22 4 44 5 67 3c24 -3 47 -9 70 -19zM261 235c43 31 86 63 128 94c13 10 27 20 40 29c-4 5 -8 9 -12 13c-5 5 -10 9 -16 14c-1 0 -2 1 -2 2c-2 1 -3 2 -4 3
c-3 1 -6 3 -9 5c-6 4 -13 8 -19 11l-6 3c-1 0 -2 0 -3 1c-2 1 -4 2 -6 2c-14 5 -27 9 -41 11c-17 2 -34 2 -50 0c-15 -3 -30 -6 -45 -12c-1 0 -5 -2 -6 -2c-1 -1 -2 -1 -2 -2c-5 -1 -9 -3 -12 -6c-8 -4 -16 -9 -24 -15c0 0 -1 -1 -2 -1v0c-2 -2 -3 -3 -5 -4
c-3 -3 -7 -6 -10 -9c-7 -7 -13 -13 -19 -21v0c0 -1 -1 -1 -1 -2c-2 -2 -3 -4 -4 -5c-3 -4 -5 -8 -7 -12c-4 -7 -8 -14 -12 -22c0 -1 -1 -4 -2 -5c-1 -2 -1 -4 -2 -6c-2 -5 -3 -9 -4 -13c-2 -8 -4 -17 -5 -25c-2 -17 -2 -33 0 -50c2 -15 6 -30 11 -44c1 -2 2 -6 3 -6
c0 -1 0 -2 1 -3l6 -12s4 -7 6 -10c7 5 14 10 20 15c39 28 77 56 115 84zM171 636c-13 0 -24 11 -24 24s11 23 24 23s23 -10 23 -23s-10 -24 -23 -24zM361 636c-13 0 -24 11 -24 24s11 23 24 23c12 0 23 -10 23 -23s-11 -24 -23 -24z" />
    <glyph glyph-name="Eacute" unicode="&#xc9;" horiz-adv-x="418" 
d="M101 658v-120v-144h27h160h95c13 0 25 -12 25 -26s-12 -25 -25 -25h-53h-160h-69v-132v-128v-32h27h160h95c13 0 25 -12 25 -26c0 -13 -12 -25 -25 -25h-53h-160h-95c-14 0 -25 12 -25 26v3v3v40v120v163v13v0v0v151v128v51c0 14 11 26 25 26h72h129c35 0 71 -1 107 -1
c13 0 25 -11 25 -25s-12 -26 -25 -26c-30 0 -59 0 -88 1h-100h-94v-15zM211 812c-6 3 -10 8 -12 15s0 13 3 20v0c16 36 31 72 47 107c3 6 10 11 15 12c7 2 14 1 20 -2c6 -4 10 -9 12 -16s0 -13 -3 -19v-1c-16 -36 -31 -71 -47 -107c-3 -6 -10 -10 -15 -12
c-7 -2 -14 -1 -20 3z" />
    <glyph glyph-name="Egrave" unicode="&#xc8;" horiz-adv-x="418" 
d="M383 51c14 0 25 -12 25 -26c0 -13 -11 -25 -25 -25h-53h-160h-95c-14 0 -25 12 -25 26v3v3v40v120v163v164v128v51c0 14 11 26 25 26h72h129c35 0 71 -1 107 -1c14 0 25 -11 25 -25s-11 -26 -25 -26c-30 0 -59 0 -88 1h-100h-94v-15v-120v-144h27h160h95
c14 0 25 -12 25 -26s-11 -25 -25 -25h-53h-160h-69v-132v-128v-32h27h160h95zM230 821c-15 36 -31 72 -47 108c-2 6 -4 12 -2 19s6 12 12 16c5 3 13 4 19 2c6 -1 13 -6 15 -12h1c15 -36 31 -72 47 -107c3 -7 4 -13 2 -20s-6 -12 -12 -15c-5 -4 -13 -5 -19 -3s-13 6 -15 12
h-1z" />
    <glyph glyph-name="Ecircumflex" unicode="&#xca;" horiz-adv-x="418" 
d="M101 658v-120v-144h27h160h95c14 0 25 -12 25 -26s-11 -25 -25 -25h-53h-160h-69v-132v-128v-32h27h160h95c14 0 25 -12 25 -26c0 -13 -11 -25 -25 -25h-53h-160h-95c-14 0 -25 12 -25 26v3v3v40v120v163v13v0v0v151v128v51c0 14 11 26 25 26h72h129c35 0 71 -1 107 -1
c14 0 25 -11 25 -25s-11 -26 -25 -26c-30 0 -59 0 -88 1h-100h-94v-15zM135 818c-10 -9 -26 -10 -36 0s-10 27 0 36c6 6 13 12 19 18c31 29 62 58 93 88c5 5 11 7 18 7c6 0 13 -2 18 -7c6 -6 13 -12 19 -18c31 -29 62 -59 93 -88c10 -9 9 -26 0 -36c-10 -10 -26 -9 -36 0
c-7 6 -13 12 -19 18c-25 24 -50 47 -75 70h-1c-31 -30 -62 -59 -93 -88z" />
    <glyph glyph-name="Edieresis" unicode="&#xcb;" horiz-adv-x="419" 
d="M101 658v-120v-144h28h160h94c14 0 26 -12 26 -26s-12 -25 -26 -25h-53h-160h-69v-132v-128v-32h28h160h94c14 0 26 -12 26 -26c0 -13 -12 -25 -26 -25h-53h-160h-94c-14 0 -26 12 -26 26c0 1 0 2 1 3c-1 1 -1 2 -1 3v40v120v163v164v128v51c0 14 12 26 26 26h71h129
c36 0 72 -1 107 -1c14 0 26 -11 26 -25s-12 -26 -26 -26c-29 0 -58 0 -88 1h-100h-94v-15zM132 863c-14 0 -26 12 -26 26s12 25 26 25s25 -11 25 -25s-11 -26 -25 -26zM314 863c-14 0 -26 12 -26 26s12 25 26 25s25 -11 25 -25s-11 -26 -25 -26z" />
    <glyph glyph-name="Iacute" unicode="&#xcd;" horiz-adv-x="159" 
d="M76 724c14 0 25 -11 25 -25v-50v-125v-162v-162v-125v-50c0 -14 -11 -25 -25 -25s-25 11 -25 25v50v125v162v162v125v50c0 14 11 25 25 25zM136 957c5 -4 9 -9 11 -15c2 -8 1 -13 -2 -20h-1c-15 -36 -31 -71 -46 -107c-3 -5 -9 -10 -15 -11c-7 -2 -14 -1 -20 2
c-5 3 -10 9 -11 15c-2 7 -1 13 2 20v0c16 36 31 71 47 107c2 5 9 10 15 11c7 2 14 1 20 -2z" />
    <glyph glyph-name="Igrave" unicode="&#xcc;" horiz-adv-x="158" 
d="M122 724c14 0 25 -11 25 -25v-50v-125v-162v-162v-125v-50c0 -14 -11 -25 -25 -25s-25 11 -25 25v50v125v162v162v125v50c0 14 11 25 25 25zM100 815v1c-15 35 -31 71 -46 106c-3 7 -5 12 -3 20c2 6 6 11 12 15c6 3 13 4 19 2c6 -1 13 -6 15 -11v-1
c16 -35 31 -71 47 -106c3 -7 4 -13 3 -20c-2 -6 -6 -12 -12 -15s-13 -4 -20 -2c-5 1 -12 6 -15 11z" />
    <glyph glyph-name="Icircumflex" unicode="&#xce;" horiz-adv-x="333" 
d="M187 724c13 0 25 -11 25 -25v-50v-125v-162v-162v-125v-50c0 -14 -12 -25 -25 -25c-14 0 -26 11 -26 25v50v125v162v162v125v50c0 14 12 25 26 25zM315 848c10 -9 10 -26 0 -35c-10 -10 -25 -10 -35 0c-7 6 -13 11 -19 17c-25 24 -50 47 -74 70c-1 0 -1 -1 -1 -1
c-31 -29 -62 -58 -92 -86c-10 -10 -26 -10 -36 0c-10 9 -10 26 0 35c6 6 13 12 19 18c30 29 61 58 92 87c5 5 11 7 18 7c6 0 13 -2 18 -7l18 -18c31 -29 62 -58 92 -87z" />
    <glyph glyph-name="Idieresis" unicode="&#xcf;" horiz-adv-x="291" 
d="M165 724c14 0 25 -11 25 -25v-50v-125v-162v-162v-125v-50c0 -14 -11 -25 -25 -25s-25 11 -25 25v50v125v162v162v125v50c0 14 11 25 25 25zM75 908c14 0 25 -12 25 -25c0 -14 -11 -26 -25 -26s-25 12 -25 26c0 13 11 25 25 25zM255 908c14 0 26 -12 26 -25
c0 -14 -12 -26 -26 -26c-13 0 -25 12 -25 26c0 13 12 25 25 25z" />
    <glyph glyph-name="Ccedilla" unicode="&#xc7;" horiz-adv-x="455" 
d="M419 211c14 0 26 -12 26 -26c0 -70 -39 -137 -100 -171c-25 -14 -51 -22 -79 -25c-8 -21 -15 -43 -23 -65c11 -5 22 -11 30 -20c17 -17 26 -40 26 -64v0v-1c0 -17 -5 -35 -15 -49c-11 -16 -25 -28 -43 -35c-35 -14 -77 -3 -101 26c-4 5 -7 11 -7 18s3 13 7 18
c9 9 28 11 37 0c1 -2 3 -4 5 -5l4 -4c3 -2 5 -3 8 -5c3 -1 6 -2 10 -2c3 -1 7 -1 10 0c4 0 7 1 10 2c3 2 5 3 8 5h1c1 2 2 3 4 4c1 1 2 2 2 3l2 2c1 3 3 5 4 7c1 3 2 7 3 10v5v1v0v6c-1 3 -2 6 -3 10c-1 2 -3 5 -5 7v1c-1 2 -3 3 -4 4l-3 3s-2 1 -2 2c-2 1 -5 2 -7 3
c-3 2 -7 2 -10 3h-5c-16 0 -31 17 -25 33v0c10 26 19 53 29 79c-40 7 -78 27 -106 56c-14 15 -27 32 -35 50c-11 21 -17 43 -20 66c-2 13 -1 26 -1 39v138v154v35c0 34 9 69 26 99c21 35 53 65 91 81c21 9 43 15 67 17c21 1 43 -1 64 -7c40 -10 77 -34 102 -66
c14 -19 25 -38 33 -59c7 -20 11 -42 11 -63c0 -14 -12 -26 -26 -26s-25 12 -26 26c0 6 0 12 -1 18c-2 13 -5 25 -10 37c-4 9 -9 17 -14 25c-1 3 -3 5 -5 7c0 1 -1 2 -2 3c-3 4 -7 7 -10 11c-4 4 -8 8 -13 11c0 1 -1 1 -2 2v0c-2 2 -4 3 -6 5c-8 5 -16 9 -25 13
c-12 5 -25 9 -38 11c-13 1 -26 1 -39 0c-13 -2 -25 -6 -37 -11c-9 -4 -17 -8 -25 -13c-3 -2 -5 -4 -7 -5c-1 -1 -2 -2 -3 -2l-11 -11s-8 -8 -11 -12c-1 -1 -1 -2 -2 -2v0c-2 -2 -3 -4 -5 -7c-5 -8 -10 -16 -13 -25c-5 -12 -9 -25 -11 -38c-1 -6 -1 -12 -1 -19v-104v-165v-58
c0 -12 0 -24 1 -36c2 -13 6 -26 11 -38c4 -9 8 -17 14 -25c1 -3 3 -5 4 -7l3 -3c3 -4 6 -7 10 -11s8 -8 13 -11c0 -1 0 -1 1 -1c0 -1 0 -1 1 -1c2 -1 4 -3 6 -4c8 -6 16 -10 25 -14c12 -5 24 -8 37 -10s26 -2 39 0s26 5 38 10c9 4 17 9 26 14c2 2 4 3 6 5c1 1 2 1 3 2
c4 3 8 7 11 11c4 4 8 8 11 12c1 0 1 1 2 2v0c1 2 3 4 4 6c6 8 10 17 14 25c5 12 8 25 10 38c1 6 1 13 1 19c1 14 12 26 26 26zM232 -192v0c-2 -2 -1 -1 0 0zM241 -137v0c1 -2 1 -1 0 0z" />
    <glyph glyph-name="Ntilde" unicode="&#xd1;" horiz-adv-x="582" 
d="M547 723c13 0 25 -11 25 -25v-46v-123v-163v-163v-126v-51c0 -11 -8 -21 -19 -24c-11 -4 -22 2 -28 11c-1 1 -2 2 -2 3c-13 17 -25 35 -37 52c-23 34 -47 68 -71 102c-30 43 -61 86 -91 130c-32 46 -64 92 -96 137c-29 42 -58 83 -87 125c-14 19 -27 38 -40 57v-91v-163
v-163v-126v-51c0 -13 -12 -25 -26 -25s-25 12 -25 25v48v124v162v164v126v50c0 12 8 22 19 25s22 -3 28 -12c1 -1 2 -2 2 -3c12 -17 24 -34 37 -52c23 -34 47 -67 71 -101c30 -44 60 -87 91 -130l96 -138c29 -41 58 -83 87 -124c14 -19 27 -38 40 -57v88v163v163v126v51
c0 14 12 25 26 25zM188 823c-14 0 -26 12 -25 26c0 11 1 23 5 34c5 12 11 22 19 31c9 9 19 15 31 20c10 4 22 5 33 5c13 -1 23 -3 35 -8c16 -7 29 -20 42 -32c5 -5 11 -10 17 -15c0 -1 1 -1 1 -1c1 -1 3 -2 4 -3c3 -1 5 -3 7 -4c3 -1 5 -1 8 -2h9c4 1 7 2 11 3c2 1 5 3 8 5
v0h1c1 1 2 3 3 4l3 3l2 2c1 2 2 4 3 7c2 3 3 7 3 10v6c1 13 12 25 26 25s25 -12 25 -25c0 -11 -1 -22 -5 -32c-5 -12 -11 -23 -21 -32c-9 -9 -19 -16 -32 -21c-10 -4 -22 -6 -33 -6c-12 0 -23 3 -34 8c-15 7 -28 19 -41 31c-5 5 -11 11 -17 15c0 1 -1 1 -1 1c-2 2 -3 3 -5 4
s-5 2 -7 3l-9 3h-11l-9 -3s-5 -2 -7 -4c-1 -1 -2 -2 -4 -3c0 -1 -1 -2 -2 -3l-1 -1l-3 -6c-1 -4 -3 -8 -3 -12c0 -2 -1 -5 -1 -7c0 -14 -11 -26 -25 -26zM345 883v0c2 -1 5 -3 0 0z" />
    <glyph glyph-name="Oacute" unicode="&#xd3;" horiz-adv-x="446" 
d="M436 441v-161v-87c0 -69 -38 -136 -99 -169c-39 -22 -84 -29 -127 -21c-40 6 -79 27 -106 56c-30 32 -48 72 -53 115c-1 12 -1 25 -1 37v137v149v33c0 35 10 71 28 100c23 37 56 64 96 80c39 15 84 17 124 5c41 -12 76 -38 102 -72c23 -32 36 -72 36 -112v-90zM385 174
c1 6 1 12 1 19v1v102v162v56c0 12 0 23 -1 35c-2 13 -6 25 -10 37c-4 8 -9 17 -14 24c-1 3 -3 5 -5 7c0 1 -1 2 -2 2c-3 4 -6 8 -10 12s-8 7 -12 11c-1 0 -1 1 -2 1v0c-2 2 -4 3 -6 5c-8 5 -16 9 -25 13c-12 5 -24 8 -37 10c-12 2 -25 2 -38 0s-25 -5 -37 -10
c-8 -4 -16 -8 -24 -13c-3 -2 -5 -3 -7 -5c-1 -1 -2 -1 -2 -2c-4 -3 -8 -7 -12 -10c-3 -4 -7 -8 -11 -12c0 -1 -1 -2 -1 -2v0c-2 -2 -3 -5 -5 -7c-5 -8 -9 -16 -13 -24c-5 -12 -8 -25 -10 -38c-1 -6 -1 -12 -1 -18c-1 -34 -1 -68 -1 -102v-162v-56c0 -12 0 -24 2 -37
c2 -12 5 -24 10 -36c4 -9 8 -17 13 -25c2 -2 3 -4 5 -7c1 0 1 -1 2 -2c3 -4 7 -7 10 -11c4 -4 8 -8 13 -11c0 -1 1 -1 1 -2v0c2 -1 5 -3 7 -4c8 -5 16 -10 24 -14c12 -4 24 -8 37 -10c13 -1 26 -1 38 0c13 2 25 6 37 10c9 4 17 9 25 14c2 1 4 3 7 5c0 0 1 1 2 1l11 11
s8 8 11 12l2 2v0c1 2 3 4 4 6c5 8 10 16 14 25c4 12 8 24 10 37zM230 810c-5 4 -9 9 -11 15c-2 7 0 13 2 20v0c15 34 30 68 45 103c3 5 10 10 16 11c6 2 13 1 19 -2s10 -9 12 -15c2 -7 0 -13 -3 -20v0c-15 -34 -30 -68 -45 -103c-2 -5 -9 -10 -15 -11c-7 -2 -14 -1 -20 2z
" />
    <glyph glyph-name="Ocircumflex" unicode="&#xd4;" horiz-adv-x="447" 
d="M437 441v-161v-87c0 -69 -39 -136 -100 -169c-39 -22 -83 -29 -127 -21c-40 6 -78 27 -106 56c-30 32 -48 72 -52 115c-2 12 -1 25 -1 37v137v149v33c0 35 9 71 28 100c22 37 56 64 95 80c39 15 84 17 124 5c41 -12 76 -38 102 -72c24 -32 37 -72 37 -112v-90zM385 174
c1 6 1 12 1 19v1v102v162v56c0 12 1 23 -1 35c-2 13 -5 25 -10 37c-4 8 -8 17 -13 24c-2 3 -4 5 -5 7c-1 1 -1 2 -2 2c-3 4 -7 8 -10 12c-4 4 -8 7 -13 11c0 0 -1 1 -2 1v0c-2 2 -4 3 -6 5c-8 5 -16 9 -24 13c-12 5 -25 8 -37 10c-13 2 -26 2 -39 0c-12 -2 -24 -5 -36 -10
c-9 -4 -17 -8 -25 -13c-2 -2 -4 -3 -7 -5c0 -1 -1 -1 -2 -2c-4 -3 -7 -7 -11 -10c-4 -4 -8 -8 -11 -12c-1 -1 -1 -2 -2 -2v0c-1 -2 -3 -5 -4 -7c-5 -8 -10 -16 -14 -24c-5 -12 -8 -25 -10 -38c-1 -6 -1 -12 -1 -18v-102v-162v-56c0 -12 0 -24 1 -37c2 -12 5 -24 10 -36
c4 -9 9 -17 14 -25c1 -2 3 -4 5 -7c0 0 1 -1 1 -2l11 -11s8 -8 12 -11l2 -2v0c2 -1 4 -3 6 -4c8 -5 16 -10 25 -14c12 -4 24 -8 36 -10c13 -1 26 -1 39 0c13 2 25 6 37 10c8 4 16 9 24 14c2 1 5 3 7 5c1 0 1 1 2 1c4 4 8 7 12 11c3 4 7 8 11 12c0 1 1 1 1 2v0c2 2 3 4 5 6
c5 8 9 16 13 25c5 12 8 24 10 37zM155 817c-10 -10 -26 -10 -36 0c-10 9 -10 26 0 35l15 15c31 28 61 57 92 86c5 5 11 7 18 7c6 0 13 -2 18 -7s10 -10 15 -14c30 -29 61 -58 91 -87c10 -9 10 -26 0 -35c-10 -10 -25 -10 -35 0c-5 4 -10 9 -15 14c-25 23 -50 46 -74 69
c-30 -28 -60 -55 -89 -83z" />
    <glyph glyph-name="Otilde" unicode="&#xd5;" horiz-adv-x="447" 
d="M437 280v-87c-1 -69 -39 -136 -100 -169c-39 -22 -83 -29 -127 -21c-40 6 -78 27 -106 56c-30 32 -48 72 -53 115c-1 12 -1 25 -1 37v137v149v33c0 35 10 71 28 100c23 37 56 64 96 80c39 15 84 17 124 5c41 -12 76 -38 102 -72c23 -32 37 -72 37 -112v-90v-161zM385 174
c1 6 1 12 1 19v1v102v162v56c0 12 0 23 -1 35c-2 13 -5 25 -10 37c-4 8 -9 17 -14 24c-1 3 -3 5 -5 7c0 1 -1 2 -1 2c-4 4 -7 8 -11 12s-8 7 -12 11c0 0 -1 1 -2 1v0c-2 2 -4 3 -6 5c-8 5 -16 9 -25 13c-12 5 -24 8 -36 10c-13 2 -26 2 -39 0c-12 -2 -25 -5 -37 -10
c-8 -4 -16 -8 -24 -13c-2 -2 -5 -3 -7 -5l-2 -2c-4 -3 -8 -7 -11 -10l-12 -12c0 -1 0 -2 -1 -2v0c-2 -2 -3 -5 -4 -7c-6 -8 -10 -16 -14 -24c-5 -12 -8 -25 -10 -38c-1 -6 -1 -12 -1 -18v-102v-162v-56c0 -12 0 -24 1 -37c2 -12 5 -24 10 -36c4 -9 8 -17 13 -25
c2 -2 4 -4 5 -7c1 0 1 -1 2 -2c3 -4 7 -7 10 -11c4 -4 8 -8 13 -11c0 -1 1 -1 1 -2h1c2 -1 4 -3 6 -4c8 -5 16 -10 24 -14c12 -4 25 -8 37 -10c13 -1 26 -1 39 0c12 2 24 6 36 10c9 4 17 9 25 14c2 1 4 3 7 5c0 0 1 1 2 1c4 4 8 7 11 11c4 4 8 8 11 12l2 2v0c1 2 3 4 4 6
c6 8 10 16 14 25c5 12 8 24 10 37zM124 826c-14 0 -26 11 -25 25c0 10 1 21 4 30c7 21 22 41 42 50c13 5 25 9 38 8c10 0 20 -1 30 -5c9 -4 17 -8 25 -14c7 -6 15 -12 22 -19c5 -5 11 -11 17 -15c0 -1 1 -1 1 -1c1 -1 3 -2 4 -3c2 -1 4 -2 7 -4c2 0 5 -1 7 -2h9
c3 1 7 2 10 3s5 3 7 4l1 1c1 1 2 2 4 3c1 1 2 2 3 4l1 1c1 2 3 5 4 7c1 3 2 7 3 10v5c0 14 11 25 25 25s25 -11 25 -25c0 -9 -1 -18 -4 -27c-7 -22 -23 -42 -45 -52c-21 -9 -45 -13 -67 -4c-11 4 -19 10 -28 17c-7 5 -12 10 -18 15c-5 6 -11 11 -17 16c0 0 -1 0 -1 1
c-2 1 -3 2 -5 3l-6 3l-9 3h-11l-9 -3l-6 -3c-1 -1 -2 -2 -3 -4c-1 0 -1 -1 -2 -1c0 -1 -1 -2 -1 -2c-1 -2 -3 -4 -4 -6l-3 -12v-7c0 -14 -11 -25 -25 -25zM277 885v0c2 -1 5 -3 0 0z" />
    <glyph glyph-name="Odieresis" unicode="&#xd6;" horiz-adv-x="446" 
d="M436 441v-161v-87c0 -69 -38 -136 -99 -169c-39 -22 -84 -29 -127 -21c-40 6 -79 27 -107 56c-29 32 -47 72 -52 115c-1 12 -1 25 -1 37v137v149v33c0 35 10 71 28 100c23 37 56 64 96 80c38 15 84 17 124 5c41 -12 76 -38 101 -72c24 -32 37 -72 37 -112v-90zM385 174
c0 6 1 12 1 19v1v102v162v56c0 12 0 23 -1 35c-2 13 -6 25 -10 37c-4 8 -9 17 -14 24c-2 3 -3 5 -5 7c0 1 -1 2 -2 2c-3 4 -6 8 -10 12s-8 7 -12 11c-1 0 -2 1 -2 1v0c-2 2 -4 3 -7 5c-7 5 -16 9 -24 13c-12 5 -24 8 -37 10c-12 2 -25 2 -38 0s-25 -5 -37 -10
c-8 -4 -17 -8 -24 -13c-3 -2 -5 -3 -7 -5c-1 -1 -2 -1 -2 -2c-4 -3 -8 -7 -12 -10c-4 -4 -7 -8 -11 -12c0 -1 -1 -2 -1 -2v0c-2 -2 -3 -5 -5 -7c-5 -8 -10 -16 -13 -24c-5 -12 -9 -25 -11 -38c0 -6 -1 -12 -1 -18v-102v-162v-56c0 -12 0 -24 2 -36c1 -13 5 -25 10 -37
c3 -9 8 -17 13 -25c2 -2 3 -4 5 -7c1 0 1 -1 2 -2c3 -4 7 -7 10 -11c4 -4 8 -8 12 -11c1 -1 2 -1 2 -2v0c2 -1 4 -3 7 -4c7 -5 16 -10 24 -14c12 -4 24 -8 37 -10c13 -1 26 -1 38 0c13 2 25 6 37 10c9 4 17 9 25 14c2 1 4 3 6 5c1 0 2 1 3 1l11 11s8 8 11 12c1 1 1 1 1 2h1
c1 2 3 4 4 6c5 8 10 16 14 25c4 12 8 24 10 37zM160 855c-14 0 -25 12 -25 26c0 13 11 25 25 25s25 -12 25 -25c0 -14 -11 -26 -25 -26zM334 855c-14 0 -25 12 -25 26c0 13 11 25 25 25s25 -12 25 -25c0 -14 -11 -26 -25 -26z" />
    <glyph glyph-name="Ograve" unicode="&#xd2;" horiz-adv-x="447" 
d="M437 441v-161v-87c-1 -69 -39 -136 -100 -169c-39 -22 -83 -29 -127 -21c-40 6 -78 27 -106 56c-30 32 -48 72 -53 115c-1 12 -1 25 -1 37v137v149v33c0 35 10 71 28 100c23 37 56 64 96 80c39 15 84 17 124 5c41 -12 76 -38 102 -72c23 -32 37 -72 37 -112v-90zM385 174
c1 6 1 12 1 19v1v102v162v56c0 12 0 23 -1 35c-2 13 -5 25 -10 37c-4 8 -8 17 -14 24c-1 3 -3 5 -4 7l-2 2c-4 4 -7 8 -11 12s-8 7 -12 11c0 0 -1 1 -2 1v0c-2 2 -4 3 -6 5c-8 5 -16 9 -25 13c-11 5 -24 8 -36 10c-13 2 -26 2 -39 0c-12 -2 -25 -5 -36 -10
c-9 -4 -17 -8 -25 -13c-2 -2 -5 -3 -7 -5l-2 -2c-4 -3 -8 -7 -11 -10c-4 -4 -8 -8 -11 -12c-1 -1 -1 -2 -2 -2v0c-1 -2 -3 -5 -4 -7c-6 -8 -10 -16 -14 -24c-5 -12 -8 -25 -10 -38c-1 -6 -1 -12 -1 -18v-102v-162v-56c0 -12 0 -24 1 -36c2 -13 5 -25 10 -37
c4 -9 8 -17 14 -25c1 -2 3 -4 4 -7c1 0 2 -1 2 -2c3 -4 7 -7 11 -11c3 -4 8 -8 12 -11c0 -1 1 -1 2 -2v0c2 -1 4 -3 6 -4c8 -5 16 -10 25 -14c11 -4 24 -8 36 -10c13 -1 26 -1 39 0c12 2 25 6 36 10c9 4 17 9 25 14c2 1 5 3 7 5c1 0 1 1 2 1c4 4 8 7 11 11l12 12
c0 1 0 1 1 2v0c2 2 3 4 4 6c6 8 10 16 14 25c5 12 8 24 10 37zM212 819c-15 35 -30 69 -45 103c-2 7 -4 13 -2 20c2 6 6 12 11 15c6 3 13 4 20 2c6 -1 13 -6 15 -11v0c15 -35 30 -69 45 -103c3 -7 5 -13 3 -20c-2 -6 -6 -11 -12 -15c-6 -3 -13 -4 -19 -2c-6 1 -13 6 -16 11
v0z" />
    <glyph glyph-name="multiply" unicode="&#xd7;" horiz-adv-x="353" 
d="M299 507c10 10 26 10 36 0s10 -26 0 -36v0l-66 -66c-12 -12 -25 -24 -37 -36l42 -42l61 -61c10 -10 10 -26 0 -36s-26 -10 -36 0v0l-66 66c-12 13 -24 25 -36 37l-42 -42c-21 -20 -41 -41 -61 -61c-10 -10 -26 -10 -36 0s-10 26 0 36v0l66 66c13 12 25 24 37 37l-42 42
c-20 20 -41 40 -61 60c-10 10 -10 26 0 36s26 10 36 0v0l66 -66c12 -12 24 -25 37 -37l42 42c20 21 40 41 60 61z" />
    <glyph glyph-name="idieresis" unicode="&#xef;" horiz-adv-x="297" 
d="M169 467c12 0 23 -11 23 -23v-43v-145v-158v-75c0 -12 -11 -23 -23 -23c-13 0 -24 11 -24 23v43v145v158v75c0 12 11 23 24 23zM74 682c12 0 23 -11 23 -24c0 -12 -11 -23 -23 -23c-13 0 -24 11 -24 23c0 13 11 24 24 24zM264 682c12 0 23 -11 23 -24
c0 -12 -11 -23 -23 -23c-13 0 -24 11 -24 23c0 13 11 24 24 24z" />
    <glyph glyph-name="icircumflex" unicode="&#xee;" horiz-adv-x="344" 
d="M192 467c13 0 24 -11 24 -23v-43v-145v-158v-75c0 -12 -11 -23 -24 -23s-23 11 -23 23v43v145v158v75c0 12 10 23 23 23zM326 604c10 -9 9 -24 0 -33s-23 -9 -33 0c-8 8 -17 16 -26 24c-25 24 -50 48 -75 71c-3 -3 -6 -6 -10 -9c-30 -29 -61 -58 -91 -86
c-9 -9 -24 -9 -33 0s-10 24 0 33c9 8 17 16 26 25c31 28 61 57 92 86c4 4 10 7 16 7s12 -3 17 -7c8 -8 17 -17 26 -25c30 -29 61 -57 91 -86z" />
    <glyph glyph-name="iacute" unicode="&#xed;" horiz-adv-x="157" 
d="M74 467c13 0 24 -11 24 -23v-43v-145v-158v-75c0 -12 -11 -23 -24 -23s-23 11 -23 23v43v145v158v75c0 12 10 23 23 23zM135 718c5 -3 9 -8 10 -14c2 -6 1 -12 -2 -18l-1 -1c-16 -37 -32 -73 -48 -110c-5 -11 -22 -14 -32 -8c-5 3 -9 8 -10 14c-2 7 -1 12 2 18
c0 1 0 1 1 2c16 36 32 73 47 109c6 12 22 14 33 8z" />
    <glyph glyph-name="igrave" unicode="&#xec;" horiz-adv-x="156" 
d="M122 467c13 0 24 -11 24 -23v-43v-145v-158v-75c0 -12 -11 -23 -24 -23s-23 11 -23 23v43v145v158v75c0 12 10 23 23 23zM102 575c0 1 -1 2 -1 2c-16 37 -32 73 -48 109c-2 6 -4 12 -2 18s6 11 11 14c10 6 27 4 32 -8c0 -1 0 -1 1 -2c15 -36 31 -73 47 -109
c3 -6 5 -11 3 -18c-2 -6 -6 -11 -11 -14c-10 -6 -27 -3 -32 8z" />
    <glyph glyph-name="ntilde" unicode="&#xf1;" horiz-adv-x="621" 
d="M529 437c34 -25 60 -60 73 -100c7 -22 9 -45 9 -68v-140v-106c0 -12 -11 -23 -24 -23s-23 11 -23 23v18v148v68c0 14 0 28 -1 41c-2 9 -4 17 -6 25c-1 4 -3 9 -5 13v2l-3 6c-4 8 -9 16 -15 23c0 1 -1 1 -1 2c-1 2 -3 3 -4 5l-9 9c-3 4 -7 7 -11 10c-1 1 -3 3 -4 3
c-1 1 -1 2 -2 2c-7 5 -15 10 -23 14l-6 3h-1h-1c-4 2 -8 4 -13 5c-7 2 -15 4 -23 5c-11 1 -21 1 -32 1s-21 0 -32 -1c-8 -1 -16 -3 -24 -5c-5 -2 -9 -3 -13 -5c0 0 -1 0 -2 -1l-6 -3c-8 -4 -16 -9 -23 -14c-1 0 -2 -1 -2 -1c-2 -2 -3 -3 -5 -4c-3 -3 -6 -6 -10 -9
c-3 -4 -6 -7 -9 -11c-1 -1 -3 -4 -4 -4c0 -1 -1 -2 -1 -3c-5 -7 -10 -14 -14 -22l-3 -6v-1s0 -1 -1 -1c-1 -4 -3 -9 -4 -13c-2 -8 -4 -15 -5 -23c-1 -7 -2 -14 -2 -21v-4v-2v-162v-86c0 -13 -11 -23 -23 -23c-13 0 -24 10 -24 23v2v105v162v59c0 9 1 19 0 28c-1 3 -1 6 -2 8
s-1 4 -2 5c0 1 -1 2 -1 2c-2 4 -4 7 -6 11c0 0 -1 0 -1 1l-4 4c-2 1 -3 3 -5 4v0v1c-4 2 -7 4 -11 6c0 0 -1 0 -1 1v0c-2 0 -4 1 -6 1c-2 1 -5 2 -8 2c-12 1 -25 1 -38 1h-38s-24 10 -24 23s11 23 24 23h31h35c17 0 34 -3 50 -11c25 -13 43 -36 50 -62c21 26 48 46 79 59
c20 8 40 12 61 14c12 1 23 0 35 0c41 0 82 -12 114 -36zM166 422v0v0zM186 406c-1 1 -3 4 0 0v0zM335 415c-2 -1 -5 -2 0 0v0zM552 336c0 1 -2 5 0 0v0zM259 606c-13 0 -24 10 -24 23c0 26 9 53 29 71c17 15 40 23 63 22c20 -1 38 -8 54 -20c14 -10 26 -23 39 -34
c2 -2 3 -3 5 -4c0 0 0 -1 1 -1c2 -2 5 -4 9 -6c1 0 2 -1 4 -2h1c3 -1 5 -2 8 -2c4 -1 8 -1 11 0c3 0 6 1 8 2c1 0 3 1 4 1s1 1 2 1c3 1 6 3 8 5c1 0 1 1 2 1l3 3s2 3 3 4h1v1c2 3 4 6 5 9h1v0c0 2 1 4 1 6c1 2 1 4 2 6v7c0 13 11 23 23 23c13 0 24 -10 24 -23
c0 -26 -11 -52 -30 -69c-18 -16 -41 -25 -65 -24c-19 0 -37 7 -52 19c-14 11 -26 23 -39 35c-1 1 -3 2 -4 3c-1 0 -1 1 -2 1l-9 6c-1 1 -3 1 -4 2c-1 0 -2 1 -3 1c-2 1 -5 2 -8 2h-13c-3 0 -5 -1 -8 -2c-1 0 -2 0 -2 -1c-1 0 -2 -1 -3 -1c-2 -1 -3 -2 -4 -3h-2
c-2 -2 -3 -4 -5 -6c-1 0 -1 -1 -2 -2c0 -1 -1 -1 -1 -2c-1 -1 -2 -3 -3 -4c0 -1 -1 -2 -1 -3c-2 -5 -3 -9 -3 -14c-1 -2 -1 -5 -1 -8c0 -13 -10 -23 -23 -23zM425 663v0c2 -1 4 -2 0 0z" />
    <glyph glyph-name="oacute" unicode="&#xf3;" horiz-adv-x="530" 
d="M403 438c35 -21 64 -50 85 -85s32 -77 32 -118c0 -81 -44 -159 -113 -201c-72 -43 -164 -45 -237 -3c-72 41 -118 119 -119 201c-1 83 44 162 115 204c72 43 165 44 237 2zM471 210c1 8 2 16 2 25c0 8 -1 16 -2 24c-2 15 -5 29 -10 43c-1 2 -2 3 -2 5c-1 1 -2 3 -2 4
l-6 12c-4 8 -9 16 -15 24c-1 1 -1 2 -2 3s-2 3 -4 4c-3 3 -5 7 -9 10c-6 7 -13 13 -20 19c0 0 -1 0 -1 1h-1c-2 2 -4 3 -6 4c-3 3 -7 5 -11 7c-7 5 -16 9 -24 13v0c-1 0 -2 1 -3 1c-2 1 -4 2 -7 3c-4 1 -8 2 -13 4c-8 2 -16 4 -24 5c-17 2 -34 2 -50 0
c-15 -2 -29 -6 -43 -11c-2 -1 -3 -1 -5 -2c-1 0 -3 -1 -4 -2c-4 -2 -8 -3 -12 -6c-8 -4 -16 -9 -23 -14l-3 -3c-2 -1 -3 -2 -5 -3c-3 -3 -6 -6 -10 -9c-6 -6 -13 -13 -18 -20l-2 -2v-1c-1 -1 -3 -3 -4 -5c-2 -4 -5 -7 -7 -11c-5 -8 -9 -16 -13 -24v-1c0 -1 -1 -2 -1 -3
c-1 -2 -2 -4 -2 -6c-2 -4 -3 -9 -4 -13c-3 -8 -4 -17 -6 -25c-2 -16 -2 -33 0 -50c2 -14 6 -29 11 -42c1 -2 1 -4 2 -5c1 -2 1 -4 2 -4l6 -12c4 -8 9 -16 15 -24c0 -1 1 -2 2 -3s2 -3 3 -4c3 -4 6 -7 9 -10c7 -7 13 -13 21 -19l1 -1s1 0 1 -1c2 -1 4 -2 5 -4
c4 -2 8 -4 12 -7c7 -4 15 -9 24 -12v0c1 -1 2 -1 3 -2c2 0 4 -1 6 -2c5 -1 9 -3 13 -4c9 -2 17 -4 25 -5c17 -2 33 -2 50 0c15 2 29 5 43 11c1 0 3 1 5 2c1 0 3 1 4 1l12 6c8 5 16 10 23 15c1 1 2 1 3 2c2 1 3 3 5 4l9 9c7 6 13 13 19 20c0 0 1 1 1 2h1c1 2 3 4 4 6
c2 3 5 7 7 11c5 8 9 16 12 24h1c0 1 0 2 1 3c1 3 1 5 2 7c2 4 3 8 4 13c2 8 4 16 5 25zM282 567c-5 3 -9 8 -11 14c-2 7 0 12 2 18c1 1 1 1 1 2c16 36 32 73 48 109c5 12 22 14 32 8c5 -3 9 -8 11 -14s0 -12 -3 -18v-1c-16 -37 -32 -73 -48 -110c-5 -11 -22 -14 -32 -8z" />
    <glyph glyph-name="ograve" unicode="&#xf2;" horiz-adv-x="529" 
d="M487 353c21 -35 32 -77 32 -118c0 -81 -43 -159 -112 -201c-72 -43 -165 -45 -238 -3c-71 41 -118 119 -118 201c-1 83 43 162 114 204c73 43 165 44 238 2c34 -21 64 -50 84 -85zM471 210c1 8 2 16 2 25c0 8 -1 16 -2 25c-2 14 -6 28 -11 42c0 2 -1 3 -2 5
c0 1 -1 3 -1 4l-6 12l-15 24c-1 1 -2 2 -2 3c-2 1 -3 3 -4 4c-3 3 -6 7 -9 10c-6 7 -13 13 -20 19c-1 0 -1 0 -2 1v0c-2 2 -4 3 -6 4c-4 3 -7 5 -11 7c-8 5 -16 9 -24 13v0c-1 0 -3 1 -4 1l-6 3c-4 1 -9 2 -13 4c-8 2 -16 4 -25 5c-16 2 -33 2 -50 0c-14 -2 -28 -6 -42 -11
c-2 -1 -3 -1 -5 -2c-1 0 -3 -1 -4 -2c-4 -2 -8 -3 -12 -6c-8 -4 -16 -9 -24 -14l-3 -3s-3 -2 -4 -3c-3 -3 -7 -6 -10 -9c-7 -6 -13 -13 -19 -20c0 -1 0 -1 -1 -2v-1c-2 -1 -3 -3 -4 -5c-3 -4 -5 -7 -8 -11l-12 -24v-1c-1 -1 -1 -2 -1 -3l-3 -6c-1 -4 -3 -9 -4 -13
c-2 -8 -4 -17 -5 -25c-2 -16 -2 -33 0 -50c2 -14 6 -29 11 -42c0 -2 1 -4 2 -5c0 -2 1 -4 2 -4c1 -4 3 -8 5 -12l15 -24c1 -1 2 -2 2 -3c2 -1 3 -3 4 -4c3 -4 6 -7 9 -10c6 -7 13 -13 20 -19c1 0 1 -1 2 -1l1 -1s3 -2 5 -4c4 -2 7 -4 11 -7c8 -4 16 -9 24 -12h1
c1 -1 2 -1 3 -2c2 0 4 -1 6 -2c4 -1 9 -3 13 -4c8 -2 16 -4 25 -5c16 -2 33 -2 50 0c14 2 29 5 42 11c2 0 4 1 5 2c1 0 3 1 4 1l12 6l24 15c1 1 2 2 3 2l4 4c4 3 7 6 10 9c7 6 13 13 19 20c0 0 1 1 1 2h1l3 6c3 3 5 7 8 11l12 24v0c1 1 1 2 1 3c1 3 2 5 3 7c1 4 3 8 4 13
c2 8 4 16 5 25zM264 577c-16 37 -32 73 -48 109c-2 6 -4 12 -2 18s5 11 11 14c10 6 27 4 32 -8c0 -1 0 -1 1 -2c15 -36 31 -73 47 -109c3 -6 4 -11 3 -18c-2 -6 -6 -11 -11 -14c-10 -6 -27 -3 -32 8c0 1 -1 2 -1 2z" />
    <glyph glyph-name="ocircumflex" unicode="&#xf4;" horiz-adv-x="530" 
d="M403 438c35 -21 64 -50 85 -85s32 -77 32 -118c0 -81 -44 -159 -113 -201c-72 -43 -164 -45 -237 -3c-72 41 -118 119 -119 201c-1 83 44 162 115 204c72 43 165 44 237 2zM471 210c1 8 2 16 2 25c0 8 -1 16 -1 25c-3 14 -6 28 -11 42c-1 2 -2 3 -2 5c-1 1 -2 3 -2 4
l-6 12c-4 8 -9 16 -15 24c0 1 -1 2 -2 3s-2 3 -4 4c-2 3 -5 7 -8 10c-7 7 -14 13 -21 19c0 0 -1 0 -1 1h-1c-2 2 -4 3 -6 4c-3 3 -7 5 -11 7c-7 5 -15 9 -24 13v0c-1 0 -2 1 -3 1c-2 1 -4 2 -7 3c-4 1 -8 2 -13 4c-8 2 -16 4 -24 5c-17 2 -34 2 -50 0c-15 -2 -29 -6 -43 -11
c-1 -1 -3 -1 -5 -2c-1 0 -3 -1 -4 -2c-4 -2 -8 -3 -12 -6c-8 -4 -16 -9 -23 -14l-3 -3c-2 -1 -3 -2 -5 -3c-3 -3 -6 -6 -10 -9c-6 -6 -13 -13 -18 -20c-1 -1 -1 -1 -1 -2c-1 0 -1 0 -1 -1c-1 -1 -3 -3 -4 -5c-2 -4 -5 -7 -7 -11c-5 -8 -9 -16 -13 -24v-1c0 -1 -1 -2 -1 -3
c-1 -2 -2 -4 -2 -6c-2 -4 -3 -9 -4 -13c-3 -8 -4 -16 -6 -25c-2 -16 -2 -33 0 -50c3 -14 6 -29 11 -42c1 -2 1 -4 2 -5l2 -4l6 -12c4 -8 9 -16 15 -24c0 -1 1 -2 2 -3s2 -3 4 -4c2 -4 5 -7 8 -10c7 -7 14 -13 21 -19l1 -1s1 0 1 -1c2 -1 4 -2 5 -4c4 -2 8 -4 12 -7
c7 -4 15 -9 24 -12v0c1 -1 2 -1 3 -2c2 0 4 -1 6 -2c5 -1 9 -3 13 -4c9 -2 17 -4 25 -5c17 -2 34 -2 50 0c15 2 29 5 43 11c1 0 3 1 5 2c1 0 3 1 4 1l12 6c8 5 16 10 23 15c1 1 2 2 3 2c2 1 3 3 5 4l9 9c7 6 13 13 19 20c0 0 1 1 1 2h1c1 2 3 4 4 6c2 3 5 7 7 11
c5 8 9 16 12 24h1c0 1 0 2 1 3c1 3 1 5 2 7c2 4 3 8 4 13c2 8 4 16 5 25zM184 571c-9 -9 -24 -9 -33 0s-9 24 0 33c9 8 18 16 26 25c31 28 61 57 92 86c4 4 10 7 16 7s12 -3 17 -7c9 -8 18 -17 26 -25c31 -29 61 -57 92 -86c9 -9 9 -24 0 -33s-24 -9 -33 0l-27 24
c-25 24 -50 48 -75 71l-9 -9c-31 -29 -61 -58 -92 -86z" />
    <glyph glyph-name="odieresis" unicode="&#xf6;" horiz-adv-x="529" 
d="M403 438c34 -21 64 -50 84 -85c21 -35 32 -77 32 -118c0 -81 -43 -159 -112 -201c-72 -43 -165 -45 -238 -3c-71 41 -118 119 -118 201c-1 83 43 162 115 204c72 43 164 44 237 2zM471 210c1 8 2 16 2 25c0 8 -1 16 -2 25c-2 14 -6 28 -11 42c0 2 -1 3 -2 5
c0 1 -1 3 -1 4l-6 12l-15 24c-1 1 -2 2 -2 3c-2 1 -3 3 -4 4c-3 3 -6 7 -9 10c-6 7 -13 13 -20 19c-1 0 -1 0 -2 1v0c-2 2 -4 3 -6 4c-3 3 -7 5 -11 7c-8 5 -16 9 -24 13v0c-1 0 -2 1 -4 1l-6 3c-4 1 -8 2 -13 4c-8 2 -16 4 -25 5c-16 2 -33 2 -50 0c-14 -2 -28 -6 -42 -11
c-2 -1 -3 -1 -5 -2c-1 0 -3 -1 -4 -2c-4 -2 -8 -3 -12 -6c-8 -4 -16 -9 -24 -14l-3 -3s-3 -2 -4 -3c-3 -3 -7 -6 -10 -9c-7 -6 -13 -13 -19 -20c0 -1 0 -1 -1 -2v-1c-2 -1 -3 -3 -4 -5c-3 -4 -5 -7 -7 -11c-5 -8 -9 -16 -13 -24v-1c0 -1 -1 -2 -1 -3l-3 -6
c-1 -4 -2 -9 -4 -13c-2 -8 -4 -16 -5 -25c-2 -16 -2 -33 0 -50c2 -14 6 -29 11 -42c1 -2 1 -4 2 -5c0 -2 1 -4 2 -4c1 -4 3 -8 6 -12c4 -8 9 -16 14 -24l3 -3s2 -3 3 -4c3 -4 6 -7 9 -10c6 -7 13 -13 20 -19c1 0 1 -1 2 -1l1 -1s3 -2 5 -4c4 -2 7 -4 11 -7
c8 -4 16 -9 24 -12h1c1 -1 2 -1 3 -2c2 0 4 -1 6 -2c4 -1 9 -3 13 -4c8 -2 16 -4 25 -5c16 -2 33 -2 50 0c14 2 29 5 42 11c2 0 4 1 5 2c2 0 3 1 4 1l12 6l24 15c1 1 2 2 3 2l4 4c4 3 7 6 10 9c7 6 13 13 19 20c0 0 1 1 1 2h1l3 6c3 3 5 7 8 11c4 8 9 16 12 24v0
c1 1 1 2 2 3c0 3 1 5 2 7c1 4 3 8 4 13c2 8 4 16 5 25zM190 635c-13 0 -23 11 -23 23c0 13 10 24 23 24s24 -11 24 -24c0 -12 -11 -23 -24 -23zM380 635c-13 0 -23 11 -23 23c0 13 10 24 23 24s23 -11 23 -24c0 -12 -10 -23 -23 -23z" />
    <glyph glyph-name="otilde" unicode="&#xf5;" 
d="M486 353c21 -36 32 -77 32 -119c0 -81 -43 -157 -112 -199c-72 -44 -164 -45 -237 -4c-71 41 -117 119 -118 201s43 161 114 203c72 43 165 44 237 1c34 -20 64 -49 84 -83zM470 209c1 9 1 17 1 25c0 9 0 17 -1 25c-2 14 -6 29 -11 42c0 2 -1 4 -2 5c0 2 -1 4 -1 4l-6 12
l-15 24c-1 1 -2 2 -2 3c-2 1 -3 3 -4 4c-3 3 -6 7 -9 10c-6 7 -13 13 -20 19c0 0 -1 0 -2 1v0c-2 2 -4 3 -6 4c-3 3 -7 5 -11 7c-8 5 -16 9 -24 13v0c-1 0 -2 1 -3 1c-2 1 -4 2 -7 2c-4 2 -8 3 -13 5c-8 2 -16 3 -24 5c-17 2 -33 2 -50 0c-14 -2 -29 -6 -42 -11
c-2 -1 -4 -1 -5 -2c-2 0 -4 -1 -4 -2l-12 -6c-8 -4 -16 -9 -24 -14l-3 -3s-3 -2 -4 -3c-3 -3 -7 -6 -10 -9c-7 -6 -13 -13 -19 -20c0 -1 0 -1 -1 -2v-1c-2 -1 -3 -3 -4 -5c-3 -4 -5 -7 -7 -11c-5 -8 -9 -16 -13 -24v0c0 -1 -1 -2 -1 -3c-1 -3 -2 -5 -2 -7
c-2 -4 -3 -8 -5 -13c-2 -8 -3 -16 -5 -24c-2 -17 -2 -34 0 -50c2 -15 6 -29 11 -43c1 -1 1 -3 2 -5c0 -1 1 -3 2 -4c2 -4 4 -8 6 -11c4 -9 9 -16 14 -24l3 -3s2 -3 3 -4c3 -4 6 -7 9 -10c6 -7 13 -13 20 -19c1 0 1 -1 2 -1l1 -1s3 -2 5 -3c4 -3 7 -5 11 -8l24 -12v0
c1 -1 2 -1 3 -1c3 -1 5 -2 7 -3c4 -1 8 -3 13 -4c8 -2 16 -4 24 -5c17 -2 34 -2 50 0c15 2 29 6 43 11c1 0 3 1 5 2c1 0 3 1 4 1c4 2 8 4 11 6c9 5 16 10 24 15c1 1 2 2 3 2c1 2 3 3 4 4c4 3 7 6 10 9c7 6 13 13 19 20c0 0 1 1 1 2h1l3 6c3 3 5 7 8 11l12 24v0c1 1 1 2 1 3
c1 2 2 4 3 7c1 4 3 8 4 13c2 8 4 16 5 24zM416 720c13 0 23 -11 23 -23c0 -26 -10 -52 -30 -69c-17 -15 -41 -25 -64 -24c-19 1 -37 8 -52 19c-14 11 -26 23 -39 35c-1 1 -3 2 -4 3c-1 0 -1 1 -2 1l-9 6c-1 1 -2 1 -4 2c-1 0 -2 1 -2 1c-3 1 -6 1 -9 2h-13
c-2 -1 -5 -1 -8 -2c0 0 -1 0 -2 -1c-1 0 -2 -1 -3 -1c-1 -1 -3 -2 -4 -3h-1l-6 -6c0 0 -1 -1 -1 -2l-2 -2s-1 -3 -2 -4s-1 -2 -2 -3c-1 -5 -2 -9 -3 -13v-9c-1 -13 -11 -23 -24 -23c-12 0 -23 10 -23 23c0 26 9 53 28 70c18 16 40 24 64 23c19 -1 38 -8 53 -20
c14 -10 26 -23 39 -34c2 -2 3 -3 5 -4v-1l9 -6c2 0 3 -1 5 -2h1c3 -1 5 -2 8 -2c4 -1 7 0 11 0c3 0 5 1 8 2c1 0 3 1 4 1s1 1 2 1c3 1 5 3 8 5l1 1l3 3c2 1 3 3 4 4v0v0c2 3 4 7 6 10v0v0c1 2 1 4 2 6c0 2 1 4 1 6c1 2 1 5 1 7c0 12 10 23 23 23zM319 661v0c2 -1 3 -2 0 0z
" />
    <glyph glyph-name="ucircumflex" unicode="&#xfb;" horiz-adv-x="453" 
d="M419 469c13 0 24 -10 24 -23v-28v-155v-61c0 -22 -1 -43 -7 -63c-10 -39 -34 -76 -66 -100c-34 -27 -76 -42 -120 -43c-1 0 -2 1 -4 1c-1 0 -2 -1 -4 -1c-39 1 -78 12 -110 35c-34 25 -61 59 -74 100c-7 22 -8 45 -8 68v141v106c0 13 10 23 23 23s24 -10 24 -23v-18v-149
v-68c0 -14 -1 -28 1 -42c1 -8 3 -16 5 -23c2 -5 3 -9 5 -13v0c0 -1 0 -1 1 -2c0 -2 1 -4 2 -6c4 -8 9 -16 14 -23l2 -2s2 -3 4 -4c3 -4 6 -7 9 -10s6 -6 10 -9l3 -3c1 0 3 -2 3 -2c8 -6 15 -10 23 -14l6 -3c1 0 2 -1 2 -1c4 -1 9 -3 13 -4c7 -2 15 -4 22 -5s13 -1 20 -1
c2 0 3 -1 4 -1c2 0 3 1 4 1c7 0 14 0 20 1c8 1 16 3 24 5c4 1 8 3 13 5v0h1l6 3c8 4 16 9 23 14c1 1 2 1 2 2c2 1 3 2 5 3c3 3 7 6 10 10l9 9c1 1 1 2 2 3s2 3 3 4c5 7 10 15 14 23l3 6v2c2 4 3 9 5 13c2 7 3 15 5 22c1 10 1 20 1 30v141v106c0 13 11 23 23 23zM108 132v0
c1 -2 1 -3 0 0zM186 55v0c1 -1 4 -2 0 0zM308 55v0c1 1 2 1 0 0zM385 133v0c0 1 1 4 0 0zM149 571c-10 -9 -24 -10 -34 0c-9 9 -9 24 0 33c9 8 18 17 27 25c30 29 61 58 92 87c4 4 10 7 16 6c6 1 12 -2 17 -6c9 -9 18 -17 27 -25c30 -29 61 -58 92 -87c9 -9 9 -24 0 -33
c-10 -10 -24 -9 -34 0c-9 8 -17 16 -26 25c-25 23 -50 47 -76 71c-3 -3 -6 -6 -9 -10c-31 -28 -62 -57 -92 -86z" />
    <glyph glyph-name="udieresis" unicode="&#xfc;" horiz-adv-x="453" 
d="M420 469c13 0 23 -10 23 -23v-28v-155v-61c0 -22 -1 -43 -6 -63c-11 -39 -34 -76 -66 -100c-35 -27 -76 -42 -120 -43c-1 0 -3 1 -4 1c-2 0 -3 -1 -4 -1c-39 1 -78 12 -110 35c-35 25 -61 59 -74 100c-7 22 -9 45 -9 68v141v106c0 13 11 23 24 23s23 -10 23 -23v-18v-149
v-68c0 -14 0 -28 1 -42c2 -8 3 -16 6 -23c1 -5 3 -9 4 -13v0c1 -1 1 -1 1 -2l3 -6c4 -8 9 -16 14 -23c0 -1 1 -1 1 -2c2 -1 3 -3 4 -4c3 -4 6 -7 9 -10s7 -6 10 -9l3 -3c1 0 3 -2 4 -2c7 -6 15 -10 23 -14l6 -3c0 0 1 -1 2 -1c4 -1 8 -3 12 -4c8 -2 15 -4 23 -5
c6 -1 13 -1 20 -1c1 0 2 -1 4 -1c1 0 3 1 4 1c7 0 13 0 20 1c8 1 16 3 23 5c5 1 9 3 13 5v0h2l6 3c8 4 15 9 23 14c0 1 1 1 2 2s3 2 4 3c4 3 7 6 10 10l9 9l3 3c0 1 2 3 2 4c6 7 10 15 14 23l3 6c0 1 0 1 1 2c1 4 3 9 4 13c2 7 4 15 5 22c1 10 1 20 1 30v141v106
c0 13 11 23 24 23zM109 132v0c0 -2 1 -3 0 0zM186 55v0c2 -1 4 -2 0 0zM308 55v0c2 1 2 1 0 0zM385 133v0c1 1 2 4 0 0zM155 623c-12 0 -23 10 -23 23s11 24 23 24c13 0 24 -11 24 -24s-11 -23 -24 -23zM346 623c-12 0 -23 10 -23 23s11 24 23 24c13 0 24 -11 24 -24
s-11 -23 -24 -23z" />
    <glyph glyph-name="ugrave" unicode="&#xf9;" horiz-adv-x="453" 
d="M420 469c12 0 23 -10 23 -23v-28v-155v-61c0 -22 -1 -43 -7 -63c-10 -39 -33 -76 -66 -100c-34 -27 -76 -42 -119 -43c-2 0 -3 1 -5 1c-1 0 -2 -1 -4 -1c-38 1 -78 12 -109 35c-35 25 -61 59 -74 100c-7 22 -9 45 -9 68v141v106c0 13 10 23 23 23s24 -10 24 -23v-18v-149
v-68c0 -14 -1 -28 1 -42c1 -8 3 -16 5 -23c2 -5 3 -9 5 -13v0c0 -1 0 -1 1 -2c1 -2 1 -4 3 -6c4 -8 8 -16 13 -23l2 -2s2 -3 4 -4c3 -4 6 -7 9 -10s6 -6 10 -9l3 -3c1 0 3 -2 3 -2c8 -6 15 -10 23 -14l6 -3c1 0 2 -1 2 -1c4 -1 9 -3 13 -4c7 -2 15 -4 22 -5s14 -1 20 -1
c2 0 3 -1 4 -1c2 0 3 1 5 1c6 0 13 0 20 1s15 3 23 5c4 1 8 3 13 5v0h1l6 3c8 4 16 9 23 14c1 1 2 1 2 2c2 1 3 2 5 3c3 3 7 6 10 10l9 9c1 1 1 2 2 3s2 3 3 4c5 7 10 15 14 23l3 6v2c2 4 3 9 5 13c2 7 4 15 5 22c1 10 1 20 1 30v141v106c0 13 11 23 24 23zM108 132v0
c1 -2 1 -3 0 0zM186 55v0c2 -1 4 -2 0 0zM308 55v0c1 1 2 1 0 0zM385 133v0c0 1 1 4 0 0zM239 567c-6 3 -10 8 -11 14c-2 7 0 12 2 18c0 1 1 1 1 2c16 37 32 73 48 110c5 12 22 14 32 8c6 -3 9 -8 11 -14s0 -12 -2 -18c-1 0 -1 -1 -1 -2c-16 -36 -32 -73 -48 -110
c-5 -11 -22 -14 -32 -8z" />
    <glyph glyph-name="uacute" unicode="&#xfa;" horiz-adv-x="453" 
d="M420 469c13 0 23 -10 23 -23v-28v-155v-61c0 -22 -1 -43 -6 -63c-11 -39 -34 -76 -66 -100c-35 -27 -76 -42 -120 -43c-2 0 -3 1 -4 1c-2 0 -3 -1 -4 -1c-39 1 -78 12 -110 35c-35 25 -61 59 -74 100c-7 22 -9 45 -9 68v141v106c0 13 11 23 24 23c12 0 23 -10 23 -23v-18
v-149v-68c0 -14 0 -28 1 -42c2 -8 3 -16 6 -23c1 -5 3 -9 4 -13v0c1 -1 1 -1 1 -2l3 -6c4 -8 9 -16 14 -23c0 -1 1 -1 1 -2c2 -1 3 -3 4 -4c3 -4 6 -7 9 -10s7 -6 10 -9l3 -3c1 0 3 -2 4 -2c7 -6 15 -10 23 -14l6 -3c0 0 1 -1 2 -1c4 -1 8 -3 12 -4c8 -2 15 -4 23 -5
c6 -1 13 -1 20 -1c1 0 2 -1 4 -1c1 0 2 1 4 1c7 0 13 0 20 1c8 1 16 3 23 5c4 1 9 3 13 5v0h2l6 3c8 4 15 9 23 14c0 1 1 1 2 2s3 2 4 3c4 3 7 6 10 10l9 9l3 3c0 1 2 3 2 4c6 7 10 15 14 23l3 6c0 1 0 1 1 2c1 4 3 9 4 13c2 7 4 15 5 22c1 10 1 20 1 30v141v106
c0 13 11 23 24 23zM109 132v0c0 -2 1 -3 0 0zM186 55v0c2 -1 4 -2 0 0zM308 55v0c2 1 2 1 0 0zM385 133v0c1 1 2 4 0 0zM206 567c-5 3 -9 8 -11 14c-1 7 0 12 3 18c0 1 0 1 1 2c16 37 32 73 48 110c5 12 22 14 32 8c5 -3 9 -8 11 -14s0 -12 -3 -18v-2
c-16 -36 -32 -73 -48 -110c-6 -11 -23 -14 -33 -8z" />
    <glyph glyph-name="guilsinglleft" unicode="&#x2039;" horiz-adv-x="357" 
d="M287 493c-42 -33 -84 -65 -126 -97c-15 -12 -30 -23 -45 -34c6 -5 12 -10 18 -14c42 -33 84 -65 126 -97c25 -19 49 -37 73 -56c6 -4 10 -8 12 -15s1 -14 -3 -20c-3 -5 -8 -9 -15 -11c-6 -2 -14 -1 -19 2c-16 12 -31 24 -47 36c-42 32 -84 65 -126 97
c-24 19 -49 37 -73 56c-7 5 -12 12 -12 22c0 9 5 16 12 21c16 12 31 24 47 36c42 32 84 64 126 97c24 18 49 37 73 56c5 4 13 4 19 2c7 -2 12 -6 15 -11c4 -6 5 -13 3 -20s-6 -11 -12 -15c-15 -12 -31 -24 -46 -35z" />
    <glyph glyph-name="backslash" unicode="\" horiz-adv-x="368" 
d="M70 723c6 2 13 1 19 -3c6 -3 9 -8 12 -15c5 -14 11 -29 17 -44c14 -37 28 -74 42 -112c19 -49 38 -99 57 -148c20 -52 40 -103 59 -155c17 -43 33 -86 50 -129c9 -24 18 -48 28 -73c1 -2 1 -4 2 -6c5 -13 -5 -28 -17 -31c-7 -2 -14 -1 -20 2c-6 4 -9 9 -11 16
c-6 14 -12 29 -17 44c-15 37 -29 74 -43 112c-19 49 -38 99 -57 148c-20 52 -39 103 -59 155c-17 43 -33 86 -50 129l-27 72c-1 3 -2 5 -3 7c-5 13 5 28 18 31z" />
    </font>
</defs>
</svg>
